G75*
G70*
%OFA0B0*%
%FSLAX24Y24*%
%IPPOS*%
%LPD*%
%AMOC8*
5,1,8,0,0,1.08239X$1,22.5*
%
%ADD10C,0.0083*%
%ADD11C,0.0084*%
%ADD12C,0.0081*%
%ADD13C,0.0596*%
%ADD14OC8,0.0710*%
%ADD15C,0.0710*%
%ADD16OC8,0.0640*%
%ADD17C,0.0082*%
%ADD18OC8,0.0680*%
%ADD19C,0.0580*%
%ADD20C,0.0080*%
%ADD21C,0.0087*%
%ADD22C,0.0081*%
%ADD23R,0.0720X0.0720*%
%ADD24OC8,0.0720*%
%ADD25C,0.0940*%
%ADD26C,0.0840*%
%ADD27C,0.1340*%
%ADD28C,0.0081*%
%ADD29C,0.0080*%
%ADD30C,0.0080*%
%ADD31C,0.0434*%
%ADD32OC8,0.0930*%
%ADD33C,0.0674*%
D10*
X015833Y002506D02*
X016343Y002506D01*
X016343Y001918D01*
X015833Y001918D01*
X015833Y002506D01*
X015833Y002000D02*
X016343Y002000D01*
X016343Y002082D02*
X015833Y002082D01*
X015833Y002164D02*
X016343Y002164D01*
X016343Y002246D02*
X015833Y002246D01*
X015833Y002328D02*
X016343Y002328D01*
X016343Y002410D02*
X015833Y002410D01*
X015833Y002492D02*
X016343Y002492D01*
X016581Y002506D02*
X017091Y002506D01*
X017091Y001918D01*
X016581Y001918D01*
X016581Y002506D01*
X016581Y002000D02*
X017091Y002000D01*
X017091Y002082D02*
X016581Y002082D01*
X016581Y002164D02*
X017091Y002164D01*
X017091Y002246D02*
X016581Y002246D01*
X016581Y002328D02*
X017091Y002328D01*
X017091Y002410D02*
X016581Y002410D01*
X016581Y002492D02*
X017091Y002492D01*
X017091Y003756D02*
X016581Y003756D01*
X017091Y003756D02*
X017091Y003168D01*
X016581Y003168D01*
X016581Y003756D01*
X016581Y003250D02*
X017091Y003250D01*
X017091Y003332D02*
X016581Y003332D01*
X016581Y003414D02*
X017091Y003414D01*
X017091Y003496D02*
X016581Y003496D01*
X016581Y003578D02*
X017091Y003578D01*
X017091Y003660D02*
X016581Y003660D01*
X016581Y003742D02*
X017091Y003742D01*
X016343Y003756D02*
X015833Y003756D01*
X016343Y003756D02*
X016343Y003168D01*
X015833Y003168D01*
X015833Y003756D01*
X015833Y003250D02*
X016343Y003250D01*
X016343Y003332D02*
X015833Y003332D01*
X015833Y003414D02*
X016343Y003414D01*
X016343Y003496D02*
X015833Y003496D01*
X015833Y003578D02*
X016343Y003578D01*
X016343Y003660D02*
X015833Y003660D01*
X015833Y003742D02*
X016343Y003742D01*
X016341Y006006D02*
X015831Y006006D01*
X016341Y006006D02*
X016341Y005418D01*
X015831Y005418D01*
X015831Y006006D01*
X015831Y005500D02*
X016341Y005500D01*
X016341Y005582D02*
X015831Y005582D01*
X015831Y005664D02*
X016341Y005664D01*
X016341Y005746D02*
X015831Y005746D01*
X015831Y005828D02*
X016341Y005828D01*
X016341Y005910D02*
X015831Y005910D01*
X015831Y005992D02*
X016341Y005992D01*
X015593Y006006D02*
X015083Y006006D01*
X015593Y006006D02*
X015593Y005418D01*
X015083Y005418D01*
X015083Y006006D01*
X015083Y005500D02*
X015593Y005500D01*
X015593Y005582D02*
X015083Y005582D01*
X015083Y005664D02*
X015593Y005664D01*
X015593Y005746D02*
X015083Y005746D01*
X015083Y005828D02*
X015593Y005828D01*
X015593Y005910D02*
X015083Y005910D01*
X015083Y005992D02*
X015593Y005992D01*
X013756Y006083D02*
X013756Y006593D01*
X013756Y006083D02*
X013168Y006083D01*
X013168Y006593D01*
X013756Y006593D01*
X013756Y006165D02*
X013168Y006165D01*
X013168Y006247D02*
X013756Y006247D01*
X013756Y006329D02*
X013168Y006329D01*
X013168Y006411D02*
X013756Y006411D01*
X013756Y006493D02*
X013168Y006493D01*
X013168Y006575D02*
X013756Y006575D01*
X012168Y006593D02*
X012168Y006083D01*
X012168Y006593D02*
X012756Y006593D01*
X012756Y006083D01*
X012168Y006083D01*
X012168Y006165D02*
X012756Y006165D01*
X012756Y006247D02*
X012168Y006247D01*
X012168Y006329D02*
X012756Y006329D01*
X012756Y006411D02*
X012168Y006411D01*
X012168Y006493D02*
X012756Y006493D01*
X012756Y006575D02*
X012168Y006575D01*
X011168Y006593D02*
X011168Y006083D01*
X011168Y006593D02*
X011756Y006593D01*
X011756Y006083D01*
X011168Y006083D01*
X011168Y006165D02*
X011756Y006165D01*
X011756Y006247D02*
X011168Y006247D01*
X011168Y006329D02*
X011756Y006329D01*
X011756Y006411D02*
X011168Y006411D01*
X011168Y006493D02*
X011756Y006493D01*
X011756Y006575D02*
X011168Y006575D01*
X011168Y006831D02*
X011168Y007341D01*
X011756Y007341D01*
X011756Y006831D01*
X011168Y006831D01*
X011168Y006913D02*
X011756Y006913D01*
X011756Y006995D02*
X011168Y006995D01*
X011168Y007077D02*
X011756Y007077D01*
X011756Y007159D02*
X011168Y007159D01*
X011168Y007241D02*
X011756Y007241D01*
X011756Y007323D02*
X011168Y007323D01*
X012168Y007341D02*
X012168Y006831D01*
X012168Y007341D02*
X012756Y007341D01*
X012756Y006831D01*
X012168Y006831D01*
X012168Y006913D02*
X012756Y006913D01*
X012756Y006995D02*
X012168Y006995D01*
X012168Y007077D02*
X012756Y007077D01*
X012756Y007159D02*
X012168Y007159D01*
X012168Y007241D02*
X012756Y007241D01*
X012756Y007323D02*
X012168Y007323D01*
X013756Y007341D02*
X013756Y006831D01*
X013168Y006831D01*
X013168Y007341D01*
X013756Y007341D01*
X013756Y006913D02*
X013168Y006913D01*
X013168Y006995D02*
X013756Y006995D01*
X013756Y007077D02*
X013168Y007077D01*
X013168Y007159D02*
X013756Y007159D01*
X013756Y007241D02*
X013168Y007241D01*
X013168Y007323D02*
X013756Y007323D01*
X016006Y007343D02*
X016006Y006833D01*
X015418Y006833D01*
X015418Y007343D01*
X016006Y007343D01*
X016006Y006915D02*
X015418Y006915D01*
X015418Y006997D02*
X016006Y006997D01*
X016006Y007079D02*
X015418Y007079D01*
X015418Y007161D02*
X016006Y007161D01*
X016006Y007243D02*
X015418Y007243D01*
X015418Y007325D02*
X016006Y007325D01*
X016418Y007333D02*
X016418Y007843D01*
X017006Y007843D01*
X017006Y007333D01*
X016418Y007333D01*
X016418Y007415D02*
X017006Y007415D01*
X017006Y007497D02*
X016418Y007497D01*
X016418Y007579D02*
X017006Y007579D01*
X017006Y007661D02*
X016418Y007661D01*
X016418Y007743D02*
X017006Y007743D01*
X017006Y007825D02*
X016418Y007825D01*
X016006Y007581D02*
X016006Y008091D01*
X016006Y007581D02*
X015418Y007581D01*
X015418Y008091D01*
X016006Y008091D01*
X016006Y007663D02*
X015418Y007663D01*
X015418Y007745D02*
X016006Y007745D01*
X016006Y007827D02*
X015418Y007827D01*
X015418Y007909D02*
X016006Y007909D01*
X016006Y007991D02*
X015418Y007991D01*
X015418Y008073D02*
X016006Y008073D01*
X016418Y008081D02*
X016418Y008591D01*
X017006Y008591D01*
X017006Y008081D01*
X016418Y008081D01*
X016418Y008163D02*
X017006Y008163D01*
X017006Y008245D02*
X016418Y008245D01*
X016418Y008327D02*
X017006Y008327D01*
X017006Y008409D02*
X016418Y008409D01*
X016418Y008491D02*
X017006Y008491D01*
X017006Y008573D02*
X016418Y008573D01*
X018333Y008953D02*
X018843Y008953D01*
X018843Y008365D01*
X018333Y008365D01*
X018333Y008953D01*
X018333Y008447D02*
X018843Y008447D01*
X018843Y008529D02*
X018333Y008529D01*
X018333Y008611D02*
X018843Y008611D01*
X018843Y008693D02*
X018333Y008693D01*
X018333Y008775D02*
X018843Y008775D01*
X018843Y008857D02*
X018333Y008857D01*
X018333Y008939D02*
X018843Y008939D01*
X019081Y008953D02*
X019591Y008953D01*
X019591Y008365D01*
X019081Y008365D01*
X019081Y008953D01*
X019081Y008447D02*
X019591Y008447D01*
X019591Y008529D02*
X019081Y008529D01*
X019081Y008611D02*
X019591Y008611D01*
X019591Y008693D02*
X019081Y008693D01*
X019081Y008775D02*
X019591Y008775D01*
X019591Y008857D02*
X019081Y008857D01*
X019081Y008939D02*
X019591Y008939D01*
X020083Y008168D02*
X020593Y008168D01*
X020083Y008168D02*
X020083Y008756D01*
X020593Y008756D01*
X020593Y008168D01*
X020593Y008250D02*
X020083Y008250D01*
X020083Y008332D02*
X020593Y008332D01*
X020593Y008414D02*
X020083Y008414D01*
X020083Y008496D02*
X020593Y008496D01*
X020593Y008578D02*
X020083Y008578D01*
X020083Y008660D02*
X020593Y008660D01*
X020593Y008742D02*
X020083Y008742D01*
X020831Y008168D02*
X021341Y008168D01*
X020831Y008168D02*
X020831Y008756D01*
X021341Y008756D01*
X021341Y008168D01*
X021341Y008250D02*
X020831Y008250D01*
X020831Y008332D02*
X021341Y008332D01*
X021341Y008414D02*
X020831Y008414D01*
X020831Y008496D02*
X021341Y008496D01*
X021341Y008578D02*
X020831Y008578D01*
X020831Y008660D02*
X021341Y008660D01*
X021341Y008742D02*
X020831Y008742D01*
X024256Y009083D02*
X024256Y009593D01*
X024256Y009083D02*
X023668Y009083D01*
X023668Y009593D01*
X024256Y009593D01*
X024256Y009165D02*
X023668Y009165D01*
X023668Y009247D02*
X024256Y009247D01*
X024256Y009329D02*
X023668Y009329D01*
X023668Y009411D02*
X024256Y009411D01*
X024256Y009493D02*
X023668Y009493D01*
X023668Y009575D02*
X024256Y009575D01*
X024256Y009831D02*
X024256Y010341D01*
X024256Y009831D02*
X023668Y009831D01*
X023668Y010341D01*
X024256Y010341D01*
X024256Y009913D02*
X023668Y009913D01*
X023668Y009995D02*
X024256Y009995D01*
X024256Y010077D02*
X023668Y010077D01*
X023668Y010159D02*
X024256Y010159D01*
X024256Y010241D02*
X023668Y010241D01*
X023668Y010323D02*
X024256Y010323D01*
X030668Y009841D02*
X030668Y009331D01*
X030668Y009841D02*
X031256Y009841D01*
X031256Y009331D01*
X030668Y009331D01*
X030668Y009413D02*
X031256Y009413D01*
X031256Y009495D02*
X030668Y009495D01*
X030668Y009577D02*
X031256Y009577D01*
X031256Y009659D02*
X030668Y009659D01*
X030668Y009741D02*
X031256Y009741D01*
X031256Y009823D02*
X030668Y009823D01*
X030668Y009093D02*
X030668Y008583D01*
X030668Y009093D02*
X031256Y009093D01*
X031256Y008583D01*
X030668Y008583D01*
X030668Y008665D02*
X031256Y008665D01*
X031256Y008747D02*
X030668Y008747D01*
X030668Y008829D02*
X031256Y008829D01*
X031256Y008911D02*
X030668Y008911D01*
X030668Y008993D02*
X031256Y008993D01*
X031256Y009075D02*
X030668Y009075D01*
X031977Y004890D02*
X032447Y004890D01*
X031977Y004890D02*
X031977Y005360D01*
X032447Y005360D01*
X032447Y004890D01*
X032447Y004972D02*
X031977Y004972D01*
X031977Y005054D02*
X032447Y005054D01*
X032447Y005136D02*
X031977Y005136D01*
X031977Y005218D02*
X032447Y005218D01*
X032447Y005300D02*
X031977Y005300D01*
X031006Y005341D02*
X031006Y004831D01*
X030418Y004831D01*
X030418Y005341D01*
X031006Y005341D01*
X031006Y004913D02*
X030418Y004913D01*
X030418Y004995D02*
X031006Y004995D01*
X031006Y005077D02*
X030418Y005077D01*
X030418Y005159D02*
X031006Y005159D01*
X031006Y005241D02*
X030418Y005241D01*
X030418Y005323D02*
X031006Y005323D01*
X031006Y004593D02*
X031006Y004083D01*
X030418Y004083D01*
X030418Y004593D01*
X031006Y004593D01*
X031006Y004165D02*
X030418Y004165D01*
X030418Y004247D02*
X031006Y004247D01*
X031006Y004329D02*
X030418Y004329D01*
X030418Y004411D02*
X031006Y004411D01*
X031006Y004493D02*
X030418Y004493D01*
X030418Y004575D02*
X031006Y004575D01*
X031977Y004063D02*
X032447Y004063D01*
X031977Y004063D02*
X031977Y004533D01*
X032447Y004533D01*
X032447Y004063D01*
X032447Y004145D02*
X031977Y004145D01*
X031977Y004227D02*
X032447Y004227D01*
X032447Y004309D02*
X031977Y004309D01*
X031977Y004391D02*
X032447Y004391D01*
X032447Y004473D02*
X031977Y004473D01*
X025091Y001918D02*
X024581Y001918D01*
X024581Y002506D01*
X025091Y002506D01*
X025091Y001918D01*
X025091Y002000D02*
X024581Y002000D01*
X024581Y002082D02*
X025091Y002082D01*
X025091Y002164D02*
X024581Y002164D01*
X024581Y002246D02*
X025091Y002246D01*
X025091Y002328D02*
X024581Y002328D01*
X024581Y002410D02*
X025091Y002410D01*
X025091Y002492D02*
X024581Y002492D01*
X024343Y001918D02*
X023833Y001918D01*
X023833Y002506D01*
X024343Y002506D01*
X024343Y001918D01*
X024343Y002000D02*
X023833Y002000D01*
X023833Y002082D02*
X024343Y002082D01*
X024343Y002164D02*
X023833Y002164D01*
X023833Y002246D02*
X024343Y002246D01*
X024343Y002328D02*
X023833Y002328D01*
X023833Y002410D02*
X024343Y002410D01*
X024343Y002492D02*
X023833Y002492D01*
X010006Y007333D02*
X010006Y007843D01*
X010006Y007333D02*
X009418Y007333D01*
X009418Y007843D01*
X010006Y007843D01*
X010006Y007415D02*
X009418Y007415D01*
X009418Y007497D02*
X010006Y007497D01*
X010006Y007579D02*
X009418Y007579D01*
X009418Y007661D02*
X010006Y007661D01*
X010006Y007743D02*
X009418Y007743D01*
X009418Y007825D02*
X010006Y007825D01*
X010006Y008081D02*
X010006Y008591D01*
X010006Y008081D02*
X009418Y008081D01*
X009418Y008591D01*
X010006Y008591D01*
X010006Y008163D02*
X009418Y008163D01*
X009418Y008245D02*
X010006Y008245D01*
X010006Y008327D02*
X009418Y008327D01*
X009418Y008409D02*
X010006Y008409D01*
X010006Y008491D02*
X009418Y008491D01*
X009418Y008573D02*
X010006Y008573D01*
X004758Y008327D02*
X004758Y008837D01*
X004758Y008327D02*
X004170Y008327D01*
X004170Y008837D01*
X004758Y008837D01*
X004758Y008409D02*
X004170Y008409D01*
X004170Y008491D02*
X004758Y008491D01*
X004758Y008573D02*
X004170Y008573D01*
X004170Y008655D02*
X004758Y008655D01*
X004758Y008737D02*
X004170Y008737D01*
X004170Y008819D02*
X004758Y008819D01*
X004756Y009333D02*
X004756Y009843D01*
X004756Y009333D02*
X004168Y009333D01*
X004168Y009843D01*
X004756Y009843D01*
X004756Y009415D02*
X004168Y009415D01*
X004168Y009497D02*
X004756Y009497D01*
X004756Y009579D02*
X004168Y009579D01*
X004168Y009661D02*
X004756Y009661D01*
X004756Y009743D02*
X004168Y009743D01*
X004168Y009825D02*
X004756Y009825D01*
X004756Y010081D02*
X004756Y010591D01*
X004756Y010081D02*
X004168Y010081D01*
X004168Y010591D01*
X004756Y010591D01*
X004756Y010163D02*
X004168Y010163D01*
X004168Y010245D02*
X004756Y010245D01*
X004756Y010327D02*
X004168Y010327D01*
X004168Y010409D02*
X004756Y010409D01*
X004756Y010491D02*
X004168Y010491D01*
X004168Y010573D02*
X004756Y010573D01*
X005833Y011506D02*
X006343Y011506D01*
X006343Y010918D01*
X005833Y010918D01*
X005833Y011506D01*
X005833Y011000D02*
X006343Y011000D01*
X006343Y011082D02*
X005833Y011082D01*
X005833Y011164D02*
X006343Y011164D01*
X006343Y011246D02*
X005833Y011246D01*
X005833Y011328D02*
X006343Y011328D01*
X006343Y011410D02*
X005833Y011410D01*
X005833Y011492D02*
X006343Y011492D01*
X006581Y011506D02*
X007091Y011506D01*
X007091Y010918D01*
X006581Y010918D01*
X006581Y011506D01*
X006581Y011000D02*
X007091Y011000D01*
X007091Y011082D02*
X006581Y011082D01*
X006581Y011164D02*
X007091Y011164D01*
X007091Y011246D02*
X006581Y011246D01*
X006581Y011328D02*
X007091Y011328D01*
X007091Y011410D02*
X006581Y011410D01*
X006581Y011492D02*
X007091Y011492D01*
X007583Y011506D02*
X008093Y011506D01*
X008093Y010918D01*
X007583Y010918D01*
X007583Y011506D01*
X007583Y011000D02*
X008093Y011000D01*
X008093Y011082D02*
X007583Y011082D01*
X007583Y011164D02*
X008093Y011164D01*
X008093Y011246D02*
X007583Y011246D01*
X007583Y011328D02*
X008093Y011328D01*
X008093Y011410D02*
X007583Y011410D01*
X007583Y011492D02*
X008093Y011492D01*
X008331Y011506D02*
X008841Y011506D01*
X008841Y010918D01*
X008331Y010918D01*
X008331Y011506D01*
X008331Y011000D02*
X008841Y011000D01*
X008841Y011082D02*
X008331Y011082D01*
X008331Y011164D02*
X008841Y011164D01*
X008841Y011246D02*
X008331Y011246D01*
X008331Y011328D02*
X008841Y011328D01*
X008841Y011410D02*
X008331Y011410D01*
X008331Y011492D02*
X008841Y011492D01*
X004758Y008089D02*
X004758Y007579D01*
X004170Y007579D01*
X004170Y008089D01*
X004758Y008089D01*
X004758Y007661D02*
X004170Y007661D01*
X004170Y007743D02*
X004758Y007743D01*
X004758Y007825D02*
X004170Y007825D01*
X004170Y007907D02*
X004758Y007907D01*
X004758Y007989D02*
X004170Y007989D01*
X004170Y008071D02*
X004758Y008071D01*
X042833Y014418D02*
X043343Y014418D01*
X042833Y014418D02*
X042833Y015006D01*
X043343Y015006D01*
X043343Y014418D01*
X043343Y014500D02*
X042833Y014500D01*
X042833Y014582D02*
X043343Y014582D01*
X043343Y014664D02*
X042833Y014664D01*
X042833Y014746D02*
X043343Y014746D01*
X043343Y014828D02*
X042833Y014828D01*
X042833Y014910D02*
X043343Y014910D01*
X043343Y014992D02*
X042833Y014992D01*
X043581Y014418D02*
X044091Y014418D01*
X043581Y014418D02*
X043581Y015006D01*
X044091Y015006D01*
X044091Y014418D01*
X044091Y014500D02*
X043581Y014500D01*
X043581Y014582D02*
X044091Y014582D01*
X044091Y014664D02*
X043581Y014664D01*
X043581Y014746D02*
X044091Y014746D01*
X044091Y014828D02*
X043581Y014828D01*
X043581Y014910D02*
X044091Y014910D01*
X044091Y014992D02*
X043581Y014992D01*
D11*
X023410Y002590D02*
X021314Y002590D01*
X023410Y002590D02*
X023410Y001834D01*
X021314Y001834D01*
X021314Y002590D01*
X021314Y001917D02*
X023410Y001917D01*
X023410Y002000D02*
X021314Y002000D01*
X021314Y002083D02*
X023410Y002083D01*
X023410Y002166D02*
X021314Y002166D01*
X021314Y002249D02*
X023410Y002249D01*
X023410Y002332D02*
X021314Y002332D01*
X021314Y002415D02*
X023410Y002415D01*
X023410Y002498D02*
X021314Y002498D01*
X021314Y002581D02*
X023410Y002581D01*
X019610Y002590D02*
X017514Y002590D01*
X019610Y002590D02*
X019610Y001834D01*
X017514Y001834D01*
X017514Y002590D01*
X017514Y001917D02*
X019610Y001917D01*
X019610Y002000D02*
X017514Y002000D01*
X017514Y002083D02*
X019610Y002083D01*
X019610Y002166D02*
X017514Y002166D01*
X017514Y002249D02*
X019610Y002249D01*
X019610Y002332D02*
X017514Y002332D01*
X017514Y002415D02*
X019610Y002415D01*
X019610Y002498D02*
X017514Y002498D01*
X017514Y002581D02*
X019610Y002581D01*
D12*
X021015Y009235D02*
X021015Y010337D01*
X021409Y010337D01*
X021409Y009235D01*
X021015Y009235D01*
X021015Y009315D02*
X021409Y009315D01*
X021409Y009395D02*
X021015Y009395D01*
X021015Y009475D02*
X021409Y009475D01*
X021409Y009555D02*
X021015Y009555D01*
X021015Y009635D02*
X021409Y009635D01*
X021409Y009715D02*
X021015Y009715D01*
X021015Y009795D02*
X021409Y009795D01*
X021409Y009875D02*
X021015Y009875D01*
X021015Y009955D02*
X021409Y009955D01*
X021409Y010035D02*
X021015Y010035D01*
X021015Y010115D02*
X021409Y010115D01*
X021409Y010195D02*
X021015Y010195D01*
X021015Y010275D02*
X021409Y010275D01*
X021015Y011086D02*
X021015Y012188D01*
X021409Y012188D01*
X021409Y011086D01*
X021015Y011086D01*
X021015Y011166D02*
X021409Y011166D01*
X021409Y011246D02*
X021015Y011246D01*
X021015Y011326D02*
X021409Y011326D01*
X021409Y011406D02*
X021015Y011406D01*
X021015Y011486D02*
X021409Y011486D01*
X021409Y011566D02*
X021015Y011566D01*
X021015Y011646D02*
X021409Y011646D01*
X021409Y011726D02*
X021015Y011726D01*
X021015Y011806D02*
X021409Y011806D01*
X021409Y011886D02*
X021015Y011886D01*
X021015Y011966D02*
X021409Y011966D01*
X021409Y012046D02*
X021015Y012046D01*
X021015Y012126D02*
X021409Y012126D01*
X015409Y012188D02*
X015409Y011086D01*
X015015Y011086D01*
X015015Y012188D01*
X015409Y012188D01*
X015409Y011166D02*
X015015Y011166D01*
X015015Y011246D02*
X015409Y011246D01*
X015409Y011326D02*
X015015Y011326D01*
X015015Y011406D02*
X015409Y011406D01*
X015409Y011486D02*
X015015Y011486D01*
X015015Y011566D02*
X015409Y011566D01*
X015409Y011646D02*
X015015Y011646D01*
X015015Y011726D02*
X015409Y011726D01*
X015409Y011806D02*
X015015Y011806D01*
X015015Y011886D02*
X015409Y011886D01*
X015409Y011966D02*
X015015Y011966D01*
X015015Y012046D02*
X015409Y012046D01*
X015409Y012126D02*
X015015Y012126D01*
X015409Y010337D02*
X015409Y009235D01*
X015015Y009235D01*
X015015Y010337D01*
X015409Y010337D01*
X015409Y009315D02*
X015015Y009315D01*
X015015Y009395D02*
X015409Y009395D01*
X015409Y009475D02*
X015015Y009475D01*
X015015Y009555D02*
X015409Y009555D01*
X015409Y009635D02*
X015015Y009635D01*
X015015Y009715D02*
X015409Y009715D01*
X015409Y009795D02*
X015015Y009795D01*
X015015Y009875D02*
X015409Y009875D01*
X015409Y009955D02*
X015015Y009955D01*
X015015Y010035D02*
X015409Y010035D01*
X015409Y010115D02*
X015015Y010115D01*
X015015Y010195D02*
X015409Y010195D01*
X015409Y010275D02*
X015015Y010275D01*
D13*
X027204Y012227D02*
X027719Y012227D01*
X027719Y014196D02*
X027204Y014196D01*
D14*
X031712Y013912D03*
X023712Y012762D03*
D15*
X023712Y014162D03*
X031712Y012512D03*
D16*
X034712Y011462D03*
X034712Y014462D03*
D17*
X037583Y014583D02*
X037583Y014841D01*
X038381Y014841D01*
X038381Y014583D01*
X037583Y014583D01*
X037583Y014664D02*
X038381Y014664D01*
X038381Y014745D02*
X037583Y014745D01*
X037583Y014826D02*
X038381Y014826D01*
X037583Y014341D02*
X037583Y014083D01*
X037583Y014341D02*
X038381Y014341D01*
X038381Y014083D01*
X037583Y014083D01*
X037583Y014164D02*
X038381Y014164D01*
X038381Y014245D02*
X037583Y014245D01*
X037583Y014326D02*
X038381Y014326D01*
X037583Y013841D02*
X037583Y013583D01*
X037583Y013841D02*
X038381Y013841D01*
X038381Y013583D01*
X037583Y013583D01*
X037583Y013664D02*
X038381Y013664D01*
X038381Y013745D02*
X037583Y013745D01*
X037583Y013826D02*
X038381Y013826D01*
X037583Y013341D02*
X037583Y013083D01*
X037583Y013341D02*
X038381Y013341D01*
X038381Y013083D01*
X037583Y013083D01*
X037583Y013164D02*
X038381Y013164D01*
X038381Y013245D02*
X037583Y013245D01*
X037583Y013326D02*
X038381Y013326D01*
X037583Y012841D02*
X037583Y012583D01*
X037583Y012841D02*
X038381Y012841D01*
X038381Y012583D01*
X037583Y012583D01*
X037583Y012664D02*
X038381Y012664D01*
X038381Y012745D02*
X037583Y012745D01*
X037583Y012826D02*
X038381Y012826D01*
X037583Y012341D02*
X037583Y012083D01*
X037583Y012341D02*
X038381Y012341D01*
X038381Y012083D01*
X037583Y012083D01*
X037583Y012164D02*
X038381Y012164D01*
X038381Y012245D02*
X037583Y012245D01*
X037583Y012326D02*
X038381Y012326D01*
X037583Y011841D02*
X037583Y011583D01*
X037583Y011841D02*
X038381Y011841D01*
X038381Y011583D01*
X037583Y011583D01*
X037583Y011664D02*
X038381Y011664D01*
X038381Y011745D02*
X037583Y011745D01*
X037583Y011826D02*
X038381Y011826D01*
X037583Y011341D02*
X037583Y011083D01*
X037583Y011341D02*
X038381Y011341D01*
X038381Y011083D01*
X037583Y011083D01*
X037583Y011164D02*
X038381Y011164D01*
X038381Y011245D02*
X037583Y011245D01*
X037583Y011326D02*
X038381Y011326D01*
X037583Y010841D02*
X037583Y010583D01*
X037583Y010841D02*
X038381Y010841D01*
X038381Y010583D01*
X037583Y010583D01*
X037583Y010664D02*
X038381Y010664D01*
X038381Y010745D02*
X037583Y010745D01*
X037583Y010826D02*
X038381Y010826D01*
X037583Y010341D02*
X037583Y010083D01*
X037583Y010341D02*
X038381Y010341D01*
X038381Y010083D01*
X037583Y010083D01*
X037583Y010164D02*
X038381Y010164D01*
X038381Y010245D02*
X037583Y010245D01*
X037583Y010326D02*
X038381Y010326D01*
X037583Y009841D02*
X037583Y009583D01*
X037583Y009841D02*
X038381Y009841D01*
X038381Y009583D01*
X037583Y009583D01*
X037583Y009664D02*
X038381Y009664D01*
X038381Y009745D02*
X037583Y009745D01*
X037583Y009826D02*
X038381Y009826D01*
X037583Y009341D02*
X037583Y009083D01*
X037583Y009341D02*
X038381Y009341D01*
X038381Y009083D01*
X037583Y009083D01*
X037583Y009164D02*
X038381Y009164D01*
X038381Y009245D02*
X037583Y009245D01*
X037583Y009326D02*
X038381Y009326D01*
X037583Y008841D02*
X037583Y008583D01*
X037583Y008841D02*
X038381Y008841D01*
X038381Y008583D01*
X037583Y008583D01*
X037583Y008664D02*
X038381Y008664D01*
X038381Y008745D02*
X037583Y008745D01*
X037583Y008826D02*
X038381Y008826D01*
X037583Y008341D02*
X037583Y008083D01*
X037583Y008341D02*
X038381Y008341D01*
X038381Y008083D01*
X037583Y008083D01*
X037583Y008164D02*
X038381Y008164D01*
X038381Y008245D02*
X037583Y008245D01*
X037583Y008326D02*
X038381Y008326D01*
X041543Y008341D02*
X041543Y008083D01*
X041543Y008341D02*
X042341Y008341D01*
X042341Y008083D01*
X041543Y008083D01*
X041543Y008164D02*
X042341Y008164D01*
X042341Y008245D02*
X041543Y008245D01*
X041543Y008326D02*
X042341Y008326D01*
X041543Y008583D02*
X041543Y008841D01*
X042341Y008841D01*
X042341Y008583D01*
X041543Y008583D01*
X041543Y008664D02*
X042341Y008664D01*
X042341Y008745D02*
X041543Y008745D01*
X041543Y008826D02*
X042341Y008826D01*
X041543Y009083D02*
X041543Y009341D01*
X042341Y009341D01*
X042341Y009083D01*
X041543Y009083D01*
X041543Y009164D02*
X042341Y009164D01*
X042341Y009245D02*
X041543Y009245D01*
X041543Y009326D02*
X042341Y009326D01*
X041543Y009583D02*
X041543Y009841D01*
X042341Y009841D01*
X042341Y009583D01*
X041543Y009583D01*
X041543Y009664D02*
X042341Y009664D01*
X042341Y009745D02*
X041543Y009745D01*
X041543Y009826D02*
X042341Y009826D01*
X041543Y010083D02*
X041543Y010341D01*
X042341Y010341D01*
X042341Y010083D01*
X041543Y010083D01*
X041543Y010164D02*
X042341Y010164D01*
X042341Y010245D02*
X041543Y010245D01*
X041543Y010326D02*
X042341Y010326D01*
X041543Y010583D02*
X041543Y010841D01*
X042341Y010841D01*
X042341Y010583D01*
X041543Y010583D01*
X041543Y010664D02*
X042341Y010664D01*
X042341Y010745D02*
X041543Y010745D01*
X041543Y010826D02*
X042341Y010826D01*
X041543Y011083D02*
X041543Y011341D01*
X042341Y011341D01*
X042341Y011083D01*
X041543Y011083D01*
X041543Y011164D02*
X042341Y011164D01*
X042341Y011245D02*
X041543Y011245D01*
X041543Y011326D02*
X042341Y011326D01*
X041543Y011583D02*
X041543Y011841D01*
X042341Y011841D01*
X042341Y011583D01*
X041543Y011583D01*
X041543Y011664D02*
X042341Y011664D01*
X042341Y011745D02*
X041543Y011745D01*
X041543Y011826D02*
X042341Y011826D01*
X041543Y012083D02*
X041543Y012341D01*
X042341Y012341D01*
X042341Y012083D01*
X041543Y012083D01*
X041543Y012164D02*
X042341Y012164D01*
X042341Y012245D02*
X041543Y012245D01*
X041543Y012326D02*
X042341Y012326D01*
X041543Y012583D02*
X041543Y012841D01*
X042341Y012841D01*
X042341Y012583D01*
X041543Y012583D01*
X041543Y012664D02*
X042341Y012664D01*
X042341Y012745D02*
X041543Y012745D01*
X041543Y012826D02*
X042341Y012826D01*
X041543Y013083D02*
X041543Y013341D01*
X042341Y013341D01*
X042341Y013083D01*
X041543Y013083D01*
X041543Y013164D02*
X042341Y013164D01*
X042341Y013245D02*
X041543Y013245D01*
X041543Y013326D02*
X042341Y013326D01*
X041543Y013583D02*
X041543Y013841D01*
X042341Y013841D01*
X042341Y013583D01*
X041543Y013583D01*
X041543Y013664D02*
X042341Y013664D01*
X042341Y013745D02*
X041543Y013745D01*
X041543Y013826D02*
X042341Y013826D01*
X041543Y014083D02*
X041543Y014341D01*
X042341Y014341D01*
X042341Y014083D01*
X041543Y014083D01*
X041543Y014164D02*
X042341Y014164D01*
X042341Y014245D02*
X041543Y014245D01*
X041543Y014326D02*
X042341Y014326D01*
X041543Y014583D02*
X041543Y014841D01*
X042341Y014841D01*
X042341Y014583D01*
X041543Y014583D01*
X041543Y014664D02*
X042341Y014664D01*
X042341Y014745D02*
X041543Y014745D01*
X041543Y014826D02*
X042341Y014826D01*
D18*
X036212Y014712D03*
X045462Y012712D03*
X046462Y012712D03*
X046462Y011712D03*
X045462Y011712D03*
X045462Y010712D03*
X046462Y010712D03*
X046462Y009712D03*
X045462Y009712D03*
X045462Y008712D03*
X046462Y008712D03*
X046462Y007712D03*
X045462Y007712D03*
X045462Y006712D03*
X046462Y006712D03*
X046462Y005712D03*
X045462Y005712D03*
X045462Y004712D03*
X046462Y004712D03*
X046462Y003712D03*
X045462Y003712D03*
X036212Y011712D03*
X009409Y014212D03*
X008409Y014212D03*
X008409Y015212D03*
X009409Y015212D03*
D19*
X054662Y008212D03*
X054912Y009012D03*
X055262Y009712D03*
X055812Y010212D03*
X056512Y010662D03*
X057362Y010712D03*
X058212Y010662D03*
X058962Y010412D03*
X059612Y009862D03*
X060012Y009262D03*
X060262Y008462D03*
X060262Y007662D03*
X060062Y006962D03*
X059662Y006262D03*
X059112Y005712D03*
X058412Y005312D03*
X057512Y005212D03*
X056712Y005262D03*
X056062Y005562D03*
X055462Y006112D03*
X055012Y006712D03*
X054762Y007362D03*
D20*
X026807Y009092D02*
X026807Y009332D01*
X027677Y009332D01*
X027677Y009092D01*
X026807Y009092D01*
X026807Y009171D02*
X027677Y009171D01*
X027677Y009250D02*
X026807Y009250D01*
X026807Y009329D02*
X027677Y009329D01*
X026807Y009592D02*
X026807Y009832D01*
X027677Y009832D01*
X027677Y009592D01*
X026807Y009592D01*
X026807Y009671D02*
X027677Y009671D01*
X027677Y009750D02*
X026807Y009750D01*
X026807Y009829D02*
X027677Y009829D01*
X026807Y010092D02*
X026807Y010332D01*
X027677Y010332D01*
X027677Y010092D01*
X026807Y010092D01*
X026807Y010171D02*
X027677Y010171D01*
X027677Y010250D02*
X026807Y010250D01*
X026807Y010329D02*
X027677Y010329D01*
X026807Y010592D02*
X026807Y010832D01*
X027677Y010832D01*
X027677Y010592D01*
X026807Y010592D01*
X026807Y010671D02*
X027677Y010671D01*
X027677Y010750D02*
X026807Y010750D01*
X026807Y010829D02*
X027677Y010829D01*
X024747Y010832D02*
X024747Y010592D01*
X024747Y010832D02*
X025617Y010832D01*
X025617Y010592D01*
X024747Y010592D01*
X024747Y010671D02*
X025617Y010671D01*
X025617Y010750D02*
X024747Y010750D01*
X024747Y010829D02*
X025617Y010829D01*
X024747Y010332D02*
X024747Y010092D01*
X024747Y010332D02*
X025617Y010332D01*
X025617Y010092D01*
X024747Y010092D01*
X024747Y010171D02*
X025617Y010171D01*
X025617Y010250D02*
X024747Y010250D01*
X024747Y010329D02*
X025617Y010329D01*
X024747Y009832D02*
X024747Y009592D01*
X024747Y009832D02*
X025617Y009832D01*
X025617Y009592D01*
X024747Y009592D01*
X024747Y009671D02*
X025617Y009671D01*
X025617Y009750D02*
X024747Y009750D01*
X024747Y009829D02*
X025617Y009829D01*
X024747Y009332D02*
X024747Y009092D01*
X024747Y009332D02*
X025617Y009332D01*
X025617Y009092D01*
X024747Y009092D01*
X024747Y009171D02*
X025617Y009171D01*
X025617Y009250D02*
X024747Y009250D01*
X024747Y009329D02*
X025617Y009329D01*
D21*
X028063Y009743D02*
X028765Y009743D01*
X028063Y009743D02*
X028063Y010681D01*
X028765Y010681D01*
X028765Y009743D01*
X028765Y009829D02*
X028063Y009829D01*
X028063Y009915D02*
X028765Y009915D01*
X028765Y010001D02*
X028063Y010001D01*
X028063Y010087D02*
X028765Y010087D01*
X028765Y010173D02*
X028063Y010173D01*
X028063Y010259D02*
X028765Y010259D01*
X028765Y010345D02*
X028063Y010345D01*
X028063Y010431D02*
X028765Y010431D01*
X028765Y010517D02*
X028063Y010517D01*
X028063Y010603D02*
X028765Y010603D01*
X029658Y010681D02*
X030360Y010681D01*
X030360Y009743D01*
X029658Y009743D01*
X029658Y010681D01*
X029658Y009829D02*
X030360Y009829D01*
X030360Y009915D02*
X029658Y009915D01*
X029658Y010001D02*
X030360Y010001D01*
X030360Y010087D02*
X029658Y010087D01*
X029658Y010173D02*
X030360Y010173D01*
X030360Y010259D02*
X029658Y010259D01*
X029658Y010345D02*
X030360Y010345D01*
X030360Y010431D02*
X029658Y010431D01*
X029658Y010517D02*
X030360Y010517D01*
X030360Y010603D02*
X029658Y010603D01*
X018957Y009861D02*
X017467Y009861D01*
X018957Y009861D02*
X018957Y009081D01*
X017467Y009081D01*
X017467Y009861D01*
X017467Y009167D02*
X018957Y009167D01*
X018957Y009253D02*
X017467Y009253D01*
X017467Y009339D02*
X018957Y009339D01*
X018957Y009425D02*
X017467Y009425D01*
X017467Y009511D02*
X018957Y009511D01*
X018957Y009597D02*
X017467Y009597D01*
X017467Y009683D02*
X018957Y009683D01*
X018957Y009769D02*
X017467Y009769D01*
X017467Y009855D02*
X018957Y009855D01*
X007584Y013553D02*
X006804Y013553D01*
X007584Y013553D02*
X007584Y012615D01*
X006804Y012615D01*
X006804Y013553D01*
X006804Y012701D02*
X007584Y012701D01*
X007584Y012787D02*
X006804Y012787D01*
X006804Y012873D02*
X007584Y012873D01*
X007584Y012959D02*
X006804Y012959D01*
X006804Y013045D02*
X007584Y013045D01*
X007584Y013131D02*
X006804Y013131D01*
X006804Y013217D02*
X007584Y013217D01*
X007584Y013303D02*
X006804Y013303D01*
X006804Y013389D02*
X007584Y013389D01*
X007584Y013475D02*
X006804Y013475D01*
X004119Y013553D02*
X003339Y013553D01*
X004119Y013553D02*
X004119Y012615D01*
X003339Y012615D01*
X003339Y013553D01*
X003339Y012701D02*
X004119Y012701D01*
X004119Y012787D02*
X003339Y012787D01*
X003339Y012873D02*
X004119Y012873D01*
X004119Y012959D02*
X003339Y012959D01*
X003339Y013045D02*
X004119Y013045D01*
X004119Y013131D02*
X003339Y013131D01*
X003339Y013217D02*
X004119Y013217D01*
X004119Y013303D02*
X003339Y013303D01*
X003339Y013389D02*
X004119Y013389D01*
X004119Y013475D02*
X003339Y013475D01*
X003339Y015718D02*
X004119Y015718D01*
X004119Y014780D01*
X003339Y014780D01*
X003339Y015718D01*
X003339Y014866D02*
X004119Y014866D01*
X004119Y014952D02*
X003339Y014952D01*
X003339Y015038D02*
X004119Y015038D01*
X004119Y015124D02*
X003339Y015124D01*
X003339Y015210D02*
X004119Y015210D01*
X004119Y015296D02*
X003339Y015296D01*
X003339Y015382D02*
X004119Y015382D01*
X004119Y015468D02*
X003339Y015468D01*
X003339Y015554D02*
X004119Y015554D01*
X004119Y015640D02*
X003339Y015640D01*
X006804Y015718D02*
X007584Y015718D01*
X007584Y014780D01*
X006804Y014780D01*
X006804Y015718D01*
X006804Y014866D02*
X007584Y014866D01*
X007584Y014952D02*
X006804Y014952D01*
X006804Y015038D02*
X007584Y015038D01*
X007584Y015124D02*
X006804Y015124D01*
X006804Y015210D02*
X007584Y015210D01*
X007584Y015296D02*
X006804Y015296D01*
X006804Y015382D02*
X007584Y015382D01*
X007584Y015468D02*
X006804Y015468D01*
X006804Y015554D02*
X007584Y015554D01*
X007584Y015640D02*
X006804Y015640D01*
D22*
X018469Y007652D02*
X018469Y007152D01*
X018249Y007152D01*
X018249Y007652D01*
X018469Y007652D01*
X018469Y007232D02*
X018249Y007232D01*
X018249Y007312D02*
X018469Y007312D01*
X018469Y007392D02*
X018249Y007392D01*
X018249Y007472D02*
X018469Y007472D01*
X018469Y007552D02*
X018249Y007552D01*
X018249Y007632D02*
X018469Y007632D01*
X018784Y007652D02*
X018784Y007152D01*
X018564Y007152D01*
X018564Y007652D01*
X018784Y007652D01*
X018784Y007232D02*
X018564Y007232D01*
X018564Y007312D02*
X018784Y007312D01*
X018784Y007392D02*
X018564Y007392D01*
X018564Y007472D02*
X018784Y007472D01*
X018784Y007552D02*
X018564Y007552D01*
X018564Y007632D02*
X018784Y007632D01*
X019099Y007652D02*
X019099Y007152D01*
X018879Y007152D01*
X018879Y007652D01*
X019099Y007652D01*
X019099Y007232D02*
X018879Y007232D01*
X018879Y007312D02*
X019099Y007312D01*
X019099Y007392D02*
X018879Y007392D01*
X018879Y007472D02*
X019099Y007472D01*
X019099Y007552D02*
X018879Y007552D01*
X018879Y007632D02*
X019099Y007632D01*
X019414Y007652D02*
X019414Y007152D01*
X019194Y007152D01*
X019194Y007652D01*
X019414Y007652D01*
X019414Y007232D02*
X019194Y007232D01*
X019194Y007312D02*
X019414Y007312D01*
X019414Y007392D02*
X019194Y007392D01*
X019194Y007472D02*
X019414Y007472D01*
X019414Y007552D02*
X019194Y007552D01*
X019194Y007632D02*
X019414Y007632D01*
X019729Y007652D02*
X019729Y007152D01*
X019509Y007152D01*
X019509Y007652D01*
X019729Y007652D01*
X019729Y007232D02*
X019509Y007232D01*
X019509Y007312D02*
X019729Y007312D01*
X019729Y007392D02*
X019509Y007392D01*
X019509Y007472D02*
X019729Y007472D01*
X019729Y007552D02*
X019509Y007552D01*
X019509Y007632D02*
X019729Y007632D01*
X020044Y007652D02*
X020044Y007152D01*
X019824Y007152D01*
X019824Y007652D01*
X020044Y007652D01*
X020044Y007232D02*
X019824Y007232D01*
X019824Y007312D02*
X020044Y007312D01*
X020044Y007392D02*
X019824Y007392D01*
X019824Y007472D02*
X020044Y007472D01*
X020044Y007552D02*
X019824Y007552D01*
X019824Y007632D02*
X020044Y007632D01*
X020359Y007652D02*
X020359Y007152D01*
X020139Y007152D01*
X020139Y007652D01*
X020359Y007652D01*
X020359Y007232D02*
X020139Y007232D01*
X020139Y007312D02*
X020359Y007312D01*
X020359Y007392D02*
X020139Y007392D01*
X020139Y007472D02*
X020359Y007472D01*
X020359Y007552D02*
X020139Y007552D01*
X020139Y007632D02*
X020359Y007632D01*
X020674Y007652D02*
X020674Y007152D01*
X020454Y007152D01*
X020454Y007652D01*
X020674Y007652D01*
X020674Y007232D02*
X020454Y007232D01*
X020454Y007312D02*
X020674Y007312D01*
X020674Y007392D02*
X020454Y007392D01*
X020454Y007472D02*
X020674Y007472D01*
X020674Y007552D02*
X020454Y007552D01*
X020454Y007632D02*
X020674Y007632D01*
X021402Y006924D02*
X021402Y006704D01*
X020902Y006704D01*
X020902Y006924D01*
X021402Y006924D01*
X021402Y006784D02*
X020902Y006784D01*
X020902Y006864D02*
X021402Y006864D01*
X021402Y006609D02*
X021402Y006389D01*
X020902Y006389D01*
X020902Y006609D01*
X021402Y006609D01*
X021402Y006469D02*
X020902Y006469D01*
X020902Y006549D02*
X021402Y006549D01*
X021402Y006294D02*
X021402Y006074D01*
X020902Y006074D01*
X020902Y006294D01*
X021402Y006294D01*
X021402Y006154D02*
X020902Y006154D01*
X020902Y006234D02*
X021402Y006234D01*
X021402Y005979D02*
X021402Y005759D01*
X020902Y005759D01*
X020902Y005979D01*
X021402Y005979D01*
X021402Y005839D02*
X020902Y005839D01*
X020902Y005919D02*
X021402Y005919D01*
X021402Y005664D02*
X021402Y005444D01*
X020902Y005444D01*
X020902Y005664D01*
X021402Y005664D01*
X021402Y005524D02*
X020902Y005524D01*
X020902Y005604D02*
X021402Y005604D01*
X021402Y005349D02*
X021402Y005129D01*
X020902Y005129D01*
X020902Y005349D01*
X021402Y005349D01*
X021402Y005209D02*
X020902Y005209D01*
X020902Y005289D02*
X021402Y005289D01*
X021402Y005034D02*
X021402Y004814D01*
X020902Y004814D01*
X020902Y005034D01*
X021402Y005034D01*
X021402Y004894D02*
X020902Y004894D01*
X020902Y004974D02*
X021402Y004974D01*
X021402Y004719D02*
X021402Y004499D01*
X020902Y004499D01*
X020902Y004719D01*
X021402Y004719D01*
X021402Y004579D02*
X020902Y004579D01*
X020902Y004659D02*
X021402Y004659D01*
X020674Y004272D02*
X020674Y003772D01*
X020454Y003772D01*
X020454Y004272D01*
X020674Y004272D01*
X020674Y003852D02*
X020454Y003852D01*
X020454Y003932D02*
X020674Y003932D01*
X020674Y004012D02*
X020454Y004012D01*
X020454Y004092D02*
X020674Y004092D01*
X020674Y004172D02*
X020454Y004172D01*
X020454Y004252D02*
X020674Y004252D01*
X020359Y004272D02*
X020359Y003772D01*
X020139Y003772D01*
X020139Y004272D01*
X020359Y004272D01*
X020359Y003852D02*
X020139Y003852D01*
X020139Y003932D02*
X020359Y003932D01*
X020359Y004012D02*
X020139Y004012D01*
X020139Y004092D02*
X020359Y004092D01*
X020359Y004172D02*
X020139Y004172D01*
X020139Y004252D02*
X020359Y004252D01*
X020044Y004272D02*
X020044Y003772D01*
X019824Y003772D01*
X019824Y004272D01*
X020044Y004272D01*
X020044Y003852D02*
X019824Y003852D01*
X019824Y003932D02*
X020044Y003932D01*
X020044Y004012D02*
X019824Y004012D01*
X019824Y004092D02*
X020044Y004092D01*
X020044Y004172D02*
X019824Y004172D01*
X019824Y004252D02*
X020044Y004252D01*
X019729Y004272D02*
X019729Y003772D01*
X019509Y003772D01*
X019509Y004272D01*
X019729Y004272D01*
X019729Y003852D02*
X019509Y003852D01*
X019509Y003932D02*
X019729Y003932D01*
X019729Y004012D02*
X019509Y004012D01*
X019509Y004092D02*
X019729Y004092D01*
X019729Y004172D02*
X019509Y004172D01*
X019509Y004252D02*
X019729Y004252D01*
X019414Y004272D02*
X019414Y003772D01*
X019194Y003772D01*
X019194Y004272D01*
X019414Y004272D01*
X019414Y003852D02*
X019194Y003852D01*
X019194Y003932D02*
X019414Y003932D01*
X019414Y004012D02*
X019194Y004012D01*
X019194Y004092D02*
X019414Y004092D01*
X019414Y004172D02*
X019194Y004172D01*
X019194Y004252D02*
X019414Y004252D01*
X019099Y004272D02*
X019099Y003772D01*
X018879Y003772D01*
X018879Y004272D01*
X019099Y004272D01*
X019099Y003852D02*
X018879Y003852D01*
X018879Y003932D02*
X019099Y003932D01*
X019099Y004012D02*
X018879Y004012D01*
X018879Y004092D02*
X019099Y004092D01*
X019099Y004172D02*
X018879Y004172D01*
X018879Y004252D02*
X019099Y004252D01*
X018784Y004272D02*
X018784Y003772D01*
X018564Y003772D01*
X018564Y004272D01*
X018784Y004272D01*
X018784Y003852D02*
X018564Y003852D01*
X018564Y003932D02*
X018784Y003932D01*
X018784Y004012D02*
X018564Y004012D01*
X018564Y004092D02*
X018784Y004092D01*
X018784Y004172D02*
X018564Y004172D01*
X018564Y004252D02*
X018784Y004252D01*
X018469Y004272D02*
X018469Y003772D01*
X018249Y003772D01*
X018249Y004272D01*
X018469Y004272D01*
X018469Y003852D02*
X018249Y003852D01*
X018249Y003932D02*
X018469Y003932D01*
X018469Y004012D02*
X018249Y004012D01*
X018249Y004092D02*
X018469Y004092D01*
X018469Y004172D02*
X018249Y004172D01*
X018249Y004252D02*
X018469Y004252D01*
X018022Y004499D02*
X018022Y004719D01*
X018022Y004499D02*
X017522Y004499D01*
X017522Y004719D01*
X018022Y004719D01*
X018022Y004579D02*
X017522Y004579D01*
X017522Y004659D02*
X018022Y004659D01*
X018022Y004814D02*
X018022Y005034D01*
X018022Y004814D02*
X017522Y004814D01*
X017522Y005034D01*
X018022Y005034D01*
X018022Y004894D02*
X017522Y004894D01*
X017522Y004974D02*
X018022Y004974D01*
X018022Y005129D02*
X018022Y005349D01*
X018022Y005129D02*
X017522Y005129D01*
X017522Y005349D01*
X018022Y005349D01*
X018022Y005209D02*
X017522Y005209D01*
X017522Y005289D02*
X018022Y005289D01*
X018022Y005444D02*
X018022Y005664D01*
X018022Y005444D02*
X017522Y005444D01*
X017522Y005664D01*
X018022Y005664D01*
X018022Y005524D02*
X017522Y005524D01*
X017522Y005604D02*
X018022Y005604D01*
X018022Y005759D02*
X018022Y005979D01*
X018022Y005759D02*
X017522Y005759D01*
X017522Y005979D01*
X018022Y005979D01*
X018022Y005839D02*
X017522Y005839D01*
X017522Y005919D02*
X018022Y005919D01*
X018022Y006074D02*
X018022Y006294D01*
X018022Y006074D02*
X017522Y006074D01*
X017522Y006294D01*
X018022Y006294D01*
X018022Y006154D02*
X017522Y006154D01*
X017522Y006234D02*
X018022Y006234D01*
X018022Y006389D02*
X018022Y006609D01*
X018022Y006389D02*
X017522Y006389D01*
X017522Y006609D01*
X018022Y006609D01*
X018022Y006469D02*
X017522Y006469D01*
X017522Y006549D02*
X018022Y006549D01*
X018022Y006704D02*
X018022Y006924D01*
X018022Y006704D02*
X017522Y006704D01*
X017522Y006924D01*
X018022Y006924D01*
X018022Y006784D02*
X017522Y006784D01*
X017522Y006864D02*
X018022Y006864D01*
D23*
X028962Y002712D03*
D24*
X027962Y002712D03*
X026962Y002712D03*
X026962Y001712D03*
X027962Y001712D03*
X028962Y001712D03*
X051962Y003712D03*
X052962Y003712D03*
X052962Y004712D03*
X051962Y004712D03*
X051962Y005712D03*
X052962Y005712D03*
X052962Y006712D03*
X051962Y006712D03*
X051962Y007712D03*
X052962Y007712D03*
X052962Y008712D03*
X051962Y008712D03*
X051962Y009712D03*
X052962Y009712D03*
X052962Y010712D03*
X051962Y010712D03*
X051962Y011712D03*
X052962Y011712D03*
X052962Y012712D03*
X051962Y012712D03*
D25*
X012642Y013143D02*
X011782Y013143D01*
X010322Y012392D02*
X010322Y011532D01*
X011782Y010781D02*
X012642Y010781D01*
D26*
X014712Y013962D03*
X018712Y013962D03*
D27*
X001712Y001712D03*
X046212Y001712D03*
X046212Y014712D03*
X001712Y014712D03*
D28*
X005829Y010203D02*
X005829Y010047D01*
X005239Y010047D01*
X005239Y010203D01*
X005829Y010203D01*
X005829Y010127D02*
X005239Y010127D01*
X005829Y009947D02*
X005829Y009791D01*
X005239Y009791D01*
X005239Y009947D01*
X005829Y009947D01*
X005829Y009871D02*
X005239Y009871D01*
X005829Y009691D02*
X005829Y009535D01*
X005239Y009535D01*
X005239Y009691D01*
X005829Y009691D01*
X005829Y009615D02*
X005239Y009615D01*
X005829Y009435D02*
X005829Y009279D01*
X005239Y009279D01*
X005239Y009435D01*
X005829Y009435D01*
X005829Y009359D02*
X005239Y009359D01*
X005829Y009179D02*
X005829Y009023D01*
X005239Y009023D01*
X005239Y009179D01*
X005829Y009179D01*
X005829Y009103D02*
X005239Y009103D01*
X005829Y008924D02*
X005829Y008768D01*
X005239Y008768D01*
X005239Y008924D01*
X005829Y008924D01*
X005829Y008848D02*
X005239Y008848D01*
X005829Y008668D02*
X005829Y008512D01*
X005239Y008512D01*
X005239Y008668D01*
X005829Y008668D01*
X005829Y008592D02*
X005239Y008592D01*
X005829Y008412D02*
X005829Y008256D01*
X005239Y008256D01*
X005239Y008412D01*
X005829Y008412D01*
X005829Y008336D02*
X005239Y008336D01*
X005829Y008156D02*
X005829Y008000D01*
X005239Y008000D01*
X005239Y008156D01*
X005829Y008156D01*
X005829Y008080D02*
X005239Y008080D01*
X005829Y007900D02*
X005829Y007744D01*
X005239Y007744D01*
X005239Y007900D01*
X005829Y007900D01*
X005829Y007824D02*
X005239Y007824D01*
X005829Y007644D02*
X005829Y007488D01*
X005239Y007488D01*
X005239Y007644D01*
X005829Y007644D01*
X005829Y007568D02*
X005239Y007568D01*
X005829Y007388D02*
X005829Y007232D01*
X005239Y007232D01*
X005239Y007388D01*
X005829Y007388D01*
X005829Y007312D02*
X005239Y007312D01*
X005829Y007132D02*
X005829Y006976D01*
X005239Y006976D01*
X005239Y007132D01*
X005829Y007132D01*
X005829Y007056D02*
X005239Y007056D01*
X005829Y006876D02*
X005829Y006720D01*
X005239Y006720D01*
X005239Y006876D01*
X005829Y006876D01*
X005829Y006800D02*
X005239Y006800D01*
X008684Y006876D02*
X008684Y006720D01*
X008094Y006720D01*
X008094Y006876D01*
X008684Y006876D01*
X008684Y006800D02*
X008094Y006800D01*
X008684Y006976D02*
X008684Y007132D01*
X008684Y006976D02*
X008094Y006976D01*
X008094Y007132D01*
X008684Y007132D01*
X008684Y007056D02*
X008094Y007056D01*
X008684Y007232D02*
X008684Y007388D01*
X008684Y007232D02*
X008094Y007232D01*
X008094Y007388D01*
X008684Y007388D01*
X008684Y007312D02*
X008094Y007312D01*
X008684Y007488D02*
X008684Y007644D01*
X008684Y007488D02*
X008094Y007488D01*
X008094Y007644D01*
X008684Y007644D01*
X008684Y007568D02*
X008094Y007568D01*
X008684Y007744D02*
X008684Y007900D01*
X008684Y007744D02*
X008094Y007744D01*
X008094Y007900D01*
X008684Y007900D01*
X008684Y007824D02*
X008094Y007824D01*
X008684Y008000D02*
X008684Y008156D01*
X008684Y008000D02*
X008094Y008000D01*
X008094Y008156D01*
X008684Y008156D01*
X008684Y008080D02*
X008094Y008080D01*
X008684Y008256D02*
X008684Y008412D01*
X008684Y008256D02*
X008094Y008256D01*
X008094Y008412D01*
X008684Y008412D01*
X008684Y008336D02*
X008094Y008336D01*
X008684Y008512D02*
X008684Y008668D01*
X008684Y008512D02*
X008094Y008512D01*
X008094Y008668D01*
X008684Y008668D01*
X008684Y008592D02*
X008094Y008592D01*
X008684Y008768D02*
X008684Y008924D01*
X008684Y008768D02*
X008094Y008768D01*
X008094Y008924D01*
X008684Y008924D01*
X008684Y008848D02*
X008094Y008848D01*
X008684Y009023D02*
X008684Y009179D01*
X008684Y009023D02*
X008094Y009023D01*
X008094Y009179D01*
X008684Y009179D01*
X008684Y009103D02*
X008094Y009103D01*
X008684Y009279D02*
X008684Y009435D01*
X008684Y009279D02*
X008094Y009279D01*
X008094Y009435D01*
X008684Y009435D01*
X008684Y009359D02*
X008094Y009359D01*
X008684Y009535D02*
X008684Y009691D01*
X008684Y009535D02*
X008094Y009535D01*
X008094Y009691D01*
X008684Y009691D01*
X008684Y009615D02*
X008094Y009615D01*
X008684Y009791D02*
X008684Y009947D01*
X008684Y009791D02*
X008094Y009791D01*
X008094Y009947D01*
X008684Y009947D01*
X008684Y009871D02*
X008094Y009871D01*
X008684Y010047D02*
X008684Y010203D01*
X008684Y010047D02*
X008094Y010047D01*
X008094Y010203D01*
X008684Y010203D01*
X008684Y010127D02*
X008094Y010127D01*
D29*
X017011Y012345D02*
X017601Y012345D01*
X017601Y011559D01*
X017011Y011559D01*
X017011Y012345D01*
X017011Y011638D02*
X017601Y011638D01*
X017601Y011717D02*
X017011Y011717D01*
X017011Y011796D02*
X017601Y011796D01*
X017601Y011875D02*
X017011Y011875D01*
X017011Y011954D02*
X017601Y011954D01*
X017601Y012033D02*
X017011Y012033D01*
X017011Y012112D02*
X017601Y012112D01*
X017601Y012191D02*
X017011Y012191D01*
X017011Y012270D02*
X017601Y012270D01*
X017917Y012345D02*
X018507Y012345D01*
X018507Y011559D01*
X017917Y011559D01*
X017917Y012345D01*
X017917Y011638D02*
X018507Y011638D01*
X018507Y011717D02*
X017917Y011717D01*
X017917Y011796D02*
X018507Y011796D01*
X018507Y011875D02*
X017917Y011875D01*
X017917Y011954D02*
X018507Y011954D01*
X018507Y012033D02*
X017917Y012033D01*
X017917Y012112D02*
X018507Y012112D01*
X018507Y012191D02*
X017917Y012191D01*
X017917Y012270D02*
X018507Y012270D01*
X018822Y012345D02*
X019412Y012345D01*
X019412Y011559D01*
X018822Y011559D01*
X018822Y012345D01*
X018822Y011638D02*
X019412Y011638D01*
X019412Y011717D02*
X018822Y011717D01*
X018822Y011796D02*
X019412Y011796D01*
X019412Y011875D02*
X018822Y011875D01*
X018822Y011954D02*
X019412Y011954D01*
X019412Y012033D02*
X018822Y012033D01*
X018822Y012112D02*
X019412Y012112D01*
X019412Y012191D02*
X018822Y012191D01*
X018822Y012270D02*
X019412Y012270D01*
D30*
X006190Y012408D02*
X005994Y012408D01*
X005994Y013316D01*
X006190Y013316D01*
X006190Y012408D01*
X006190Y012487D02*
X005994Y012487D01*
X005994Y012566D02*
X006190Y012566D01*
X006190Y012645D02*
X005994Y012645D01*
X005994Y012724D02*
X006190Y012724D01*
X006190Y012803D02*
X005994Y012803D01*
X005994Y012882D02*
X006190Y012882D01*
X006190Y012961D02*
X005994Y012961D01*
X005994Y013040D02*
X006190Y013040D01*
X006190Y013119D02*
X005994Y013119D01*
X005994Y013198D02*
X006190Y013198D01*
X006190Y013277D02*
X005994Y013277D01*
X005875Y012408D02*
X005679Y012408D01*
X005679Y013316D01*
X005875Y013316D01*
X005875Y012408D01*
X005875Y012487D02*
X005679Y012487D01*
X005679Y012566D02*
X005875Y012566D01*
X005875Y012645D02*
X005679Y012645D01*
X005679Y012724D02*
X005875Y012724D01*
X005875Y012803D02*
X005679Y012803D01*
X005679Y012882D02*
X005875Y012882D01*
X005875Y012961D02*
X005679Y012961D01*
X005679Y013040D02*
X005875Y013040D01*
X005875Y013119D02*
X005679Y013119D01*
X005679Y013198D02*
X005875Y013198D01*
X005875Y013277D02*
X005679Y013277D01*
X005560Y012408D02*
X005364Y012408D01*
X005364Y013316D01*
X005560Y013316D01*
X005560Y012408D01*
X005560Y012487D02*
X005364Y012487D01*
X005364Y012566D02*
X005560Y012566D01*
X005560Y012645D02*
X005364Y012645D01*
X005364Y012724D02*
X005560Y012724D01*
X005560Y012803D02*
X005364Y012803D01*
X005364Y012882D02*
X005560Y012882D01*
X005560Y012961D02*
X005364Y012961D01*
X005364Y013040D02*
X005560Y013040D01*
X005560Y013119D02*
X005364Y013119D01*
X005364Y013198D02*
X005560Y013198D01*
X005560Y013277D02*
X005364Y013277D01*
X005245Y012408D02*
X005049Y012408D01*
X005049Y013316D01*
X005245Y013316D01*
X005245Y012408D01*
X005245Y012487D02*
X005049Y012487D01*
X005049Y012566D02*
X005245Y012566D01*
X005245Y012645D02*
X005049Y012645D01*
X005049Y012724D02*
X005245Y012724D01*
X005245Y012803D02*
X005049Y012803D01*
X005049Y012882D02*
X005245Y012882D01*
X005245Y012961D02*
X005049Y012961D01*
X005049Y013040D02*
X005245Y013040D01*
X005245Y013119D02*
X005049Y013119D01*
X005049Y013198D02*
X005245Y013198D01*
X005245Y013277D02*
X005049Y013277D01*
X004930Y012408D02*
X004734Y012408D01*
X004734Y013316D01*
X004930Y013316D01*
X004930Y012408D01*
X004930Y012487D02*
X004734Y012487D01*
X004734Y012566D02*
X004930Y012566D01*
X004930Y012645D02*
X004734Y012645D01*
X004734Y012724D02*
X004930Y012724D01*
X004930Y012803D02*
X004734Y012803D01*
X004734Y012882D02*
X004930Y012882D01*
X004930Y012961D02*
X004734Y012961D01*
X004734Y013040D02*
X004930Y013040D01*
X004930Y013119D02*
X004734Y013119D01*
X004734Y013198D02*
X004930Y013198D01*
X004930Y013277D02*
X004734Y013277D01*
D31*
X004596Y014068D03*
X006328Y014068D03*
D32*
X016212Y012712D03*
X021462Y015212D03*
X022712Y015212D03*
X033212Y010212D03*
X035962Y008712D03*
D33*
X003212Y012212D03*
X002212Y012212D03*
X001212Y012212D03*
X001212Y004212D03*
X002212Y004212D03*
X003212Y004212D03*
M02*
