G75*
G70*
%OFA0B0*%
%FSLAX24Y24*%
%IPPOS*%
%LPD*%
%AMOC8*
5,1,8,0,0,1.08239X$1,22.5*
%
%ADD10C,0.0160*%
%ADD11C,0.0040*%
%ADD12R,0.0512X0.0591*%
%ADD13R,0.0591X0.0512*%
%ADD14R,0.2100X0.0760*%
%ADD15R,0.0394X0.1102*%
%ADD16C,0.0516*%
%ADD17OC8,0.0630*%
%ADD18C,0.0630*%
%ADD19OC8,0.0560*%
%ADD20R,0.0800X0.0260*%
%ADD21OC8,0.0600*%
%ADD22C,0.0500*%
%ADD23R,0.0870X0.0240*%
%ADD24R,0.0709X0.0945*%
%ADD25R,0.0220X0.0500*%
%ADD26R,0.0500X0.0220*%
%ADD27R,0.0640X0.0640*%
%ADD28OC8,0.0640*%
%ADD29C,0.0860*%
%ADD30C,0.0760*%
%ADD31C,0.0000*%
%ADD32R,0.0591X0.0157*%
%ADD33R,0.0591X0.0787*%
%ADD34R,0.1496X0.0787*%
%ADD35R,0.0787X0.0945*%
%ADD36R,0.0197X0.0909*%
%ADD37R,0.0472X0.0472*%
%ADD38OC8,0.0850*%
%ADD39C,0.0100*%
%ADD40C,0.0440*%
%ADD41C,0.0320*%
%ADD42C,0.0240*%
%ADD43C,0.0120*%
%ADD44C,0.0594*%
%ADD45C,0.0500*%
D10*
X000212Y000212D02*
X061704Y000212D01*
X061704Y016212D01*
X000212Y016212D01*
X000212Y000212D01*
X016086Y005712D02*
X016243Y005554D01*
X019962Y004962D02*
X019962Y004049D01*
X019934Y004022D01*
X022212Y004462D02*
X024462Y004462D01*
X026712Y002212D01*
X028462Y002212D01*
X028962Y001712D01*
X043462Y001712D01*
X045462Y003712D01*
X021712Y009462D02*
X020249Y009424D01*
X018212Y009471D02*
X018202Y009462D01*
X017712Y009462D01*
X017212Y008962D01*
X011962Y008962D01*
X010588Y007588D01*
X009712Y007588D01*
X009690Y007566D02*
X008389Y007566D01*
X007357Y007566D01*
X006078Y008846D01*
X005534Y008846D01*
X004727Y008846D01*
X004464Y008582D01*
X004462Y009588D02*
X004487Y009613D01*
X005534Y009613D01*
X041942Y014712D02*
X043088Y014712D01*
D11*
X009489Y003192D02*
X009489Y002732D01*
X009565Y002732D02*
X009412Y002732D01*
X009258Y002732D02*
X009105Y002732D01*
X009182Y002732D02*
X009182Y003192D01*
X009105Y003192D01*
X008875Y003039D02*
X008721Y003039D01*
X008645Y002962D01*
X008645Y002808D01*
X008721Y002732D01*
X008875Y002732D01*
X008952Y002808D01*
X008952Y002962D01*
X008875Y003039D01*
X008491Y003039D02*
X008414Y003039D01*
X008261Y002885D01*
X008261Y002732D02*
X008261Y003039D01*
X008108Y003039D02*
X007954Y003039D01*
X008031Y003115D02*
X008031Y002808D01*
X008108Y002732D01*
X007801Y002732D02*
X007801Y002962D01*
X007724Y003039D01*
X007494Y003039D01*
X007494Y002732D01*
X007340Y002808D02*
X007340Y002962D01*
X007264Y003039D01*
X007110Y003039D01*
X007033Y002962D01*
X007033Y002808D01*
X007110Y002732D01*
X007264Y002732D01*
X007340Y002808D01*
X006880Y002732D02*
X006650Y002732D01*
X006573Y002808D01*
X006573Y002962D01*
X006650Y003039D01*
X006880Y003039D01*
X005959Y003115D02*
X005959Y002808D01*
X005883Y002732D01*
X005652Y002732D01*
X005652Y003192D01*
X005883Y003192D01*
X005959Y003115D01*
X005499Y003192D02*
X005192Y003192D01*
X005192Y002732D01*
X005039Y002885D02*
X005039Y003192D01*
X005192Y002962D02*
X005345Y002962D01*
X005039Y002885D02*
X004885Y002732D01*
X004732Y002885D01*
X004732Y003192D01*
X007417Y002519D02*
X007417Y002442D01*
X007417Y002289D02*
X007417Y001982D01*
X007340Y001982D02*
X007494Y001982D01*
X007647Y001982D02*
X007877Y001982D01*
X007954Y002058D01*
X007954Y002212D01*
X007877Y002289D01*
X007647Y002289D01*
X007647Y001828D01*
X007570Y001692D02*
X007724Y001692D01*
X007801Y001615D01*
X007494Y001308D01*
X007570Y001232D01*
X007724Y001232D01*
X007801Y001308D01*
X007801Y001615D01*
X007570Y001692D02*
X007494Y001615D01*
X007494Y001308D01*
X007340Y001232D02*
X007033Y001232D01*
X007187Y001232D02*
X007187Y001692D01*
X007033Y001539D01*
X006880Y001615D02*
X006573Y001308D01*
X006650Y001232D01*
X006803Y001232D01*
X006880Y001308D01*
X006880Y001615D01*
X006803Y001692D01*
X006650Y001692D01*
X006573Y001615D01*
X006573Y001308D01*
X006420Y001232D02*
X006113Y001232D01*
X006420Y001539D01*
X006420Y001615D01*
X006343Y001692D01*
X006189Y001692D01*
X006113Y001615D01*
X005959Y001462D02*
X005652Y001462D01*
X005499Y001462D02*
X005192Y001462D01*
X005422Y001692D01*
X005422Y001232D01*
X005039Y001308D02*
X004962Y001232D01*
X004808Y001232D01*
X004732Y001308D01*
X005039Y001615D01*
X005039Y001308D01*
X004732Y001308D02*
X004732Y001615D01*
X004808Y001692D01*
X004962Y001692D01*
X005039Y001615D01*
X005345Y001828D02*
X005422Y001828D01*
X005499Y001905D01*
X005499Y002289D01*
X005192Y002289D02*
X005192Y002058D01*
X005269Y001982D01*
X005499Y001982D01*
X005039Y002058D02*
X005039Y002212D01*
X004962Y002289D01*
X004732Y002289D01*
X004732Y002442D02*
X004732Y001982D01*
X004962Y001982D01*
X005039Y002058D01*
X006113Y001982D02*
X006113Y002442D01*
X006420Y002442D01*
X006650Y002289D02*
X006803Y002289D01*
X006880Y002212D01*
X006880Y002135D01*
X006573Y002135D01*
X006573Y002058D02*
X006573Y002212D01*
X006650Y002289D01*
X006573Y002058D02*
X006650Y001982D01*
X006803Y001982D01*
X007033Y001982D02*
X007187Y001982D01*
X007110Y001982D02*
X007110Y002442D01*
X007033Y002442D01*
X007340Y002289D02*
X007417Y002289D01*
X006266Y002212D02*
X006113Y002212D01*
X008108Y002212D02*
X008108Y002058D01*
X008184Y001982D01*
X008338Y001982D01*
X008414Y002135D02*
X008108Y002135D01*
X008108Y002212D02*
X008184Y002289D01*
X008338Y002289D01*
X008414Y002212D01*
X008414Y002135D01*
X009028Y001982D02*
X009028Y002442D01*
X009182Y002289D01*
X009335Y002442D01*
X009335Y001982D01*
X009489Y002058D02*
X009565Y002135D01*
X009796Y002135D01*
X009796Y002212D02*
X009796Y001982D01*
X009565Y001982D01*
X009489Y002058D01*
X009565Y002289D02*
X009719Y002289D01*
X009796Y002212D01*
X009949Y002289D02*
X010026Y002289D01*
X010026Y001982D01*
X010102Y001982D02*
X009949Y001982D01*
X010256Y001982D02*
X010256Y002289D01*
X010333Y002289D01*
X010409Y002212D01*
X010486Y002289D01*
X010563Y002212D01*
X010563Y001982D01*
X010409Y001982D02*
X010409Y002212D01*
X010716Y002212D02*
X010716Y002058D01*
X010793Y001982D01*
X010946Y001982D01*
X011023Y002058D01*
X011023Y002212D01*
X010946Y002289D01*
X010793Y002289D01*
X010716Y002212D01*
X011177Y002289D02*
X011177Y001982D01*
X011483Y001982D02*
X011483Y002212D01*
X011407Y002289D01*
X011177Y002289D01*
X010026Y002442D02*
X010026Y002519D01*
X009949Y002732D02*
X009795Y002732D01*
X009719Y002808D01*
X009719Y002962D01*
X009795Y003039D01*
X009949Y003039D01*
X010026Y002962D01*
X010026Y002885D01*
X009719Y002885D01*
X010179Y002885D02*
X010333Y003039D01*
X010409Y003039D01*
X010179Y003039D02*
X010179Y002732D01*
X009489Y003192D02*
X009412Y003192D01*
D12*
X016088Y003462D03*
X016836Y003462D03*
X016836Y002212D03*
X016088Y002212D03*
X024088Y002212D03*
X024836Y002212D03*
X016086Y005712D03*
X015338Y005712D03*
X020338Y008462D03*
X019336Y008659D03*
X018588Y008659D03*
X021086Y008462D03*
X008586Y011212D03*
X007838Y011212D03*
X006836Y011212D03*
X006088Y011212D03*
X043088Y014712D03*
X043836Y014712D03*
D13*
X030962Y009586D03*
X030962Y008838D03*
X023962Y009338D03*
X023962Y010086D03*
X016712Y008336D03*
X015712Y007836D03*
X016712Y007588D03*
X015712Y007088D03*
X013462Y007086D03*
X012462Y007086D03*
X011462Y007086D03*
X009712Y007588D03*
X009712Y008336D03*
X004464Y008582D03*
X004464Y007834D03*
X004462Y009588D03*
X004462Y010336D03*
X011462Y006338D03*
X012462Y006338D03*
X013462Y006338D03*
X030712Y005086D03*
X030712Y004338D03*
D14*
X022362Y002212D03*
X018562Y002212D03*
D15*
X021212Y009786D03*
X015212Y009786D03*
X015212Y011637D03*
X021212Y011637D03*
D16*
X027204Y012227D02*
X027719Y012227D01*
X027719Y014196D02*
X027204Y014196D01*
D17*
X031712Y013912D03*
X023712Y012762D03*
D18*
X023712Y014162D03*
X031712Y012512D03*
D19*
X034712Y011462D03*
X034712Y014462D03*
D20*
X037982Y014712D03*
X037982Y014212D03*
X037982Y013712D03*
X037982Y013212D03*
X037982Y012712D03*
X037982Y012212D03*
X037982Y011712D03*
X037982Y011212D03*
X037982Y010712D03*
X037982Y010212D03*
X037982Y009712D03*
X037982Y009212D03*
X037982Y008712D03*
X037982Y008212D03*
X041942Y008212D03*
X041942Y008712D03*
X041942Y009212D03*
X041942Y009712D03*
X041942Y010212D03*
X041942Y010712D03*
X041942Y011212D03*
X041942Y011712D03*
X041942Y012212D03*
X041942Y012712D03*
X041942Y013212D03*
X041942Y013712D03*
X041942Y014212D03*
X041942Y014712D03*
D21*
X036212Y014712D03*
X045462Y012712D03*
X046462Y012712D03*
X046462Y011712D03*
X045462Y011712D03*
X045462Y010712D03*
X046462Y010712D03*
X046462Y009712D03*
X045462Y009712D03*
X045462Y008712D03*
X046462Y008712D03*
X046462Y007712D03*
X045462Y007712D03*
X045462Y006712D03*
X046462Y006712D03*
X046462Y005712D03*
X045462Y005712D03*
X045462Y004712D03*
X046462Y004712D03*
X046462Y003712D03*
X045462Y003712D03*
X036212Y011712D03*
X009409Y014212D03*
X008409Y014212D03*
X008409Y015212D03*
X009409Y015212D03*
D22*
X054662Y008212D03*
X054912Y009012D03*
X055262Y009712D03*
X055812Y010212D03*
X056512Y010662D03*
X057362Y010712D03*
X058212Y010662D03*
X058962Y010412D03*
X059612Y009862D03*
X060012Y009262D03*
X060262Y008462D03*
X060262Y007662D03*
X060062Y006962D03*
X059662Y006262D03*
X059112Y005712D03*
X058412Y005312D03*
X057512Y005212D03*
X056712Y005262D03*
X056062Y005562D03*
X055462Y006112D03*
X055012Y006712D03*
X054762Y007362D03*
D23*
X027242Y009212D03*
X027242Y009712D03*
X027242Y010212D03*
X027242Y010712D03*
X025182Y010712D03*
X025182Y010212D03*
X025182Y009712D03*
X025182Y009212D03*
D24*
X028414Y010212D03*
X030009Y010212D03*
D25*
X020564Y007402D03*
X020249Y007402D03*
X019934Y007402D03*
X019619Y007402D03*
X019304Y007402D03*
X018989Y007402D03*
X018674Y007402D03*
X018359Y007402D03*
X018359Y004022D03*
X018674Y004022D03*
X018989Y004022D03*
X019304Y004022D03*
X019619Y004022D03*
X019934Y004022D03*
X020249Y004022D03*
X020564Y004022D03*
D26*
X021152Y004609D03*
X021152Y004924D03*
X021152Y005239D03*
X021152Y005554D03*
X021152Y005869D03*
X021152Y006184D03*
X021152Y006499D03*
X021152Y006814D03*
X017772Y006814D03*
X017772Y006499D03*
X017772Y006184D03*
X017772Y005869D03*
X017772Y005554D03*
X017772Y005239D03*
X017772Y004924D03*
X017772Y004609D03*
D27*
X028962Y002712D03*
D28*
X027962Y002712D03*
X026962Y002712D03*
X026962Y001712D03*
X027962Y001712D03*
X028962Y001712D03*
X051962Y003712D03*
X052962Y003712D03*
X052962Y004712D03*
X051962Y004712D03*
X051962Y005712D03*
X052962Y005712D03*
X052962Y006712D03*
X051962Y006712D03*
X051962Y007712D03*
X052962Y007712D03*
X052962Y008712D03*
X051962Y008712D03*
X051962Y009712D03*
X052962Y009712D03*
X052962Y010712D03*
X051962Y010712D03*
X051962Y011712D03*
X052962Y011712D03*
X052962Y012712D03*
X051962Y012712D03*
D29*
X012642Y013143D02*
X011782Y013143D01*
X010322Y012392D02*
X010322Y011532D01*
X011782Y010781D02*
X012642Y010781D01*
D30*
X014712Y013962D03*
X018712Y013962D03*
D31*
X006151Y014068D02*
X006153Y014094D01*
X006159Y014120D01*
X006169Y014145D01*
X006182Y014168D01*
X006198Y014188D01*
X006218Y014206D01*
X006240Y014221D01*
X006263Y014233D01*
X006289Y014241D01*
X006315Y014245D01*
X006341Y014245D01*
X006367Y014241D01*
X006393Y014233D01*
X006417Y014221D01*
X006438Y014206D01*
X006458Y014188D01*
X006474Y014168D01*
X006487Y014145D01*
X006497Y014120D01*
X006503Y014094D01*
X006505Y014068D01*
X006503Y014042D01*
X006497Y014016D01*
X006487Y013991D01*
X006474Y013968D01*
X006458Y013948D01*
X006438Y013930D01*
X006416Y013915D01*
X006393Y013903D01*
X006367Y013895D01*
X006341Y013891D01*
X006315Y013891D01*
X006289Y013895D01*
X006263Y013903D01*
X006239Y013915D01*
X006218Y013930D01*
X006198Y013948D01*
X006182Y013968D01*
X006169Y013991D01*
X006159Y014016D01*
X006153Y014042D01*
X006151Y014068D01*
X004419Y014068D02*
X004421Y014094D01*
X004427Y014120D01*
X004437Y014145D01*
X004450Y014168D01*
X004466Y014188D01*
X004486Y014206D01*
X004508Y014221D01*
X004531Y014233D01*
X004557Y014241D01*
X004583Y014245D01*
X004609Y014245D01*
X004635Y014241D01*
X004661Y014233D01*
X004685Y014221D01*
X004706Y014206D01*
X004726Y014188D01*
X004742Y014168D01*
X004755Y014145D01*
X004765Y014120D01*
X004771Y014094D01*
X004773Y014068D01*
X004771Y014042D01*
X004765Y014016D01*
X004755Y013991D01*
X004742Y013968D01*
X004726Y013948D01*
X004706Y013930D01*
X004684Y013915D01*
X004661Y013903D01*
X004635Y013895D01*
X004609Y013891D01*
X004583Y013891D01*
X004557Y013895D01*
X004531Y013903D01*
X004507Y013915D01*
X004486Y013930D01*
X004466Y013948D01*
X004450Y013968D01*
X004437Y013991D01*
X004427Y014016D01*
X004421Y014042D01*
X004419Y014068D01*
X001082Y014712D02*
X001084Y014762D01*
X001090Y014812D01*
X001100Y014861D01*
X001114Y014909D01*
X001131Y014956D01*
X001152Y015001D01*
X001177Y015045D01*
X001205Y015086D01*
X001237Y015125D01*
X001271Y015162D01*
X001308Y015196D01*
X001348Y015226D01*
X001390Y015253D01*
X001434Y015277D01*
X001480Y015298D01*
X001527Y015314D01*
X001575Y015327D01*
X001625Y015336D01*
X001674Y015341D01*
X001725Y015342D01*
X001775Y015339D01*
X001824Y015332D01*
X001873Y015321D01*
X001921Y015306D01*
X001967Y015288D01*
X002012Y015266D01*
X002055Y015240D01*
X002096Y015211D01*
X002135Y015179D01*
X002171Y015144D01*
X002203Y015106D01*
X002233Y015066D01*
X002260Y015023D01*
X002283Y014979D01*
X002302Y014933D01*
X002318Y014885D01*
X002330Y014836D01*
X002338Y014787D01*
X002342Y014737D01*
X002342Y014687D01*
X002338Y014637D01*
X002330Y014588D01*
X002318Y014539D01*
X002302Y014491D01*
X002283Y014445D01*
X002260Y014401D01*
X002233Y014358D01*
X002203Y014318D01*
X002171Y014280D01*
X002135Y014245D01*
X002096Y014213D01*
X002055Y014184D01*
X002012Y014158D01*
X001967Y014136D01*
X001921Y014118D01*
X001873Y014103D01*
X001824Y014092D01*
X001775Y014085D01*
X001725Y014082D01*
X001674Y014083D01*
X001625Y014088D01*
X001575Y014097D01*
X001527Y014110D01*
X001480Y014126D01*
X001434Y014147D01*
X001390Y014171D01*
X001348Y014198D01*
X001308Y014228D01*
X001271Y014262D01*
X001237Y014299D01*
X001205Y014338D01*
X001177Y014379D01*
X001152Y014423D01*
X001131Y014468D01*
X001114Y014515D01*
X001100Y014563D01*
X001090Y014612D01*
X001084Y014662D01*
X001082Y014712D01*
X045582Y014712D02*
X045584Y014762D01*
X045590Y014812D01*
X045600Y014861D01*
X045614Y014909D01*
X045631Y014956D01*
X045652Y015001D01*
X045677Y015045D01*
X045705Y015086D01*
X045737Y015125D01*
X045771Y015162D01*
X045808Y015196D01*
X045848Y015226D01*
X045890Y015253D01*
X045934Y015277D01*
X045980Y015298D01*
X046027Y015314D01*
X046075Y015327D01*
X046125Y015336D01*
X046174Y015341D01*
X046225Y015342D01*
X046275Y015339D01*
X046324Y015332D01*
X046373Y015321D01*
X046421Y015306D01*
X046467Y015288D01*
X046512Y015266D01*
X046555Y015240D01*
X046596Y015211D01*
X046635Y015179D01*
X046671Y015144D01*
X046703Y015106D01*
X046733Y015066D01*
X046760Y015023D01*
X046783Y014979D01*
X046802Y014933D01*
X046818Y014885D01*
X046830Y014836D01*
X046838Y014787D01*
X046842Y014737D01*
X046842Y014687D01*
X046838Y014637D01*
X046830Y014588D01*
X046818Y014539D01*
X046802Y014491D01*
X046783Y014445D01*
X046760Y014401D01*
X046733Y014358D01*
X046703Y014318D01*
X046671Y014280D01*
X046635Y014245D01*
X046596Y014213D01*
X046555Y014184D01*
X046512Y014158D01*
X046467Y014136D01*
X046421Y014118D01*
X046373Y014103D01*
X046324Y014092D01*
X046275Y014085D01*
X046225Y014082D01*
X046174Y014083D01*
X046125Y014088D01*
X046075Y014097D01*
X046027Y014110D01*
X045980Y014126D01*
X045934Y014147D01*
X045890Y014171D01*
X045848Y014198D01*
X045808Y014228D01*
X045771Y014262D01*
X045737Y014299D01*
X045705Y014338D01*
X045677Y014379D01*
X045652Y014423D01*
X045631Y014468D01*
X045614Y014515D01*
X045600Y014563D01*
X045590Y014612D01*
X045584Y014662D01*
X045582Y014712D01*
X045582Y001712D02*
X045584Y001762D01*
X045590Y001812D01*
X045600Y001861D01*
X045614Y001909D01*
X045631Y001956D01*
X045652Y002001D01*
X045677Y002045D01*
X045705Y002086D01*
X045737Y002125D01*
X045771Y002162D01*
X045808Y002196D01*
X045848Y002226D01*
X045890Y002253D01*
X045934Y002277D01*
X045980Y002298D01*
X046027Y002314D01*
X046075Y002327D01*
X046125Y002336D01*
X046174Y002341D01*
X046225Y002342D01*
X046275Y002339D01*
X046324Y002332D01*
X046373Y002321D01*
X046421Y002306D01*
X046467Y002288D01*
X046512Y002266D01*
X046555Y002240D01*
X046596Y002211D01*
X046635Y002179D01*
X046671Y002144D01*
X046703Y002106D01*
X046733Y002066D01*
X046760Y002023D01*
X046783Y001979D01*
X046802Y001933D01*
X046818Y001885D01*
X046830Y001836D01*
X046838Y001787D01*
X046842Y001737D01*
X046842Y001687D01*
X046838Y001637D01*
X046830Y001588D01*
X046818Y001539D01*
X046802Y001491D01*
X046783Y001445D01*
X046760Y001401D01*
X046733Y001358D01*
X046703Y001318D01*
X046671Y001280D01*
X046635Y001245D01*
X046596Y001213D01*
X046555Y001184D01*
X046512Y001158D01*
X046467Y001136D01*
X046421Y001118D01*
X046373Y001103D01*
X046324Y001092D01*
X046275Y001085D01*
X046225Y001082D01*
X046174Y001083D01*
X046125Y001088D01*
X046075Y001097D01*
X046027Y001110D01*
X045980Y001126D01*
X045934Y001147D01*
X045890Y001171D01*
X045848Y001198D01*
X045808Y001228D01*
X045771Y001262D01*
X045737Y001299D01*
X045705Y001338D01*
X045677Y001379D01*
X045652Y001423D01*
X045631Y001468D01*
X045614Y001515D01*
X045600Y001563D01*
X045590Y001612D01*
X045584Y001662D01*
X045582Y001712D01*
X001082Y001712D02*
X001084Y001762D01*
X001090Y001812D01*
X001100Y001861D01*
X001114Y001909D01*
X001131Y001956D01*
X001152Y002001D01*
X001177Y002045D01*
X001205Y002086D01*
X001237Y002125D01*
X001271Y002162D01*
X001308Y002196D01*
X001348Y002226D01*
X001390Y002253D01*
X001434Y002277D01*
X001480Y002298D01*
X001527Y002314D01*
X001575Y002327D01*
X001625Y002336D01*
X001674Y002341D01*
X001725Y002342D01*
X001775Y002339D01*
X001824Y002332D01*
X001873Y002321D01*
X001921Y002306D01*
X001967Y002288D01*
X002012Y002266D01*
X002055Y002240D01*
X002096Y002211D01*
X002135Y002179D01*
X002171Y002144D01*
X002203Y002106D01*
X002233Y002066D01*
X002260Y002023D01*
X002283Y001979D01*
X002302Y001933D01*
X002318Y001885D01*
X002330Y001836D01*
X002338Y001787D01*
X002342Y001737D01*
X002342Y001687D01*
X002338Y001637D01*
X002330Y001588D01*
X002318Y001539D01*
X002302Y001491D01*
X002283Y001445D01*
X002260Y001401D01*
X002233Y001358D01*
X002203Y001318D01*
X002171Y001280D01*
X002135Y001245D01*
X002096Y001213D01*
X002055Y001184D01*
X002012Y001158D01*
X001967Y001136D01*
X001921Y001118D01*
X001873Y001103D01*
X001824Y001092D01*
X001775Y001085D01*
X001725Y001082D01*
X001674Y001083D01*
X001625Y001088D01*
X001575Y001097D01*
X001527Y001110D01*
X001480Y001126D01*
X001434Y001147D01*
X001390Y001171D01*
X001348Y001198D01*
X001308Y001228D01*
X001271Y001262D01*
X001237Y001299D01*
X001205Y001338D01*
X001177Y001379D01*
X001152Y001423D01*
X001131Y001468D01*
X001114Y001515D01*
X001100Y001563D01*
X001090Y001612D01*
X001084Y001662D01*
X001082Y001712D01*
D32*
X005534Y006798D03*
X005534Y007054D03*
X005534Y007310D03*
X005534Y007566D03*
X005534Y007822D03*
X005534Y008078D03*
X005534Y008334D03*
X005534Y008590D03*
X005534Y008846D03*
X005534Y009101D03*
X005534Y009357D03*
X005534Y009613D03*
X005534Y009869D03*
X005534Y010125D03*
X008389Y010125D03*
X008389Y009869D03*
X008389Y009613D03*
X008389Y009357D03*
X008389Y009101D03*
X008389Y008846D03*
X008389Y008590D03*
X008389Y008334D03*
X008389Y008078D03*
X008389Y007822D03*
X008389Y007566D03*
X008389Y007310D03*
X008389Y007054D03*
X008389Y006798D03*
D33*
X017306Y011952D03*
X018212Y011952D03*
X019117Y011952D03*
D34*
X018212Y009471D03*
D35*
X007194Y013084D03*
X003729Y013084D03*
X003729Y015249D03*
X007194Y015249D03*
D36*
X006092Y012862D03*
X005777Y012862D03*
X005462Y012862D03*
X005147Y012862D03*
X004832Y012862D03*
D37*
X032212Y005125D03*
X032212Y004298D03*
D38*
X035962Y008712D03*
X033212Y010212D03*
X016212Y012712D03*
X021462Y015212D03*
X022712Y015212D03*
D39*
X022157Y015190D02*
X021512Y015190D01*
X021512Y015162D02*
X021512Y015262D01*
X022037Y015262D01*
X022037Y015450D01*
X021700Y015787D01*
X021512Y015787D01*
X021512Y015262D01*
X021412Y015262D01*
X021412Y015787D01*
X021223Y015787D01*
X020887Y015450D01*
X020887Y015262D01*
X021411Y015262D01*
X021411Y015162D01*
X020887Y015162D01*
X020887Y014973D01*
X021223Y014637D01*
X021412Y014637D01*
X021412Y015161D01*
X021512Y015161D01*
X021512Y014637D01*
X021700Y014637D01*
X022037Y014973D01*
X022037Y015162D01*
X021512Y015162D01*
X021512Y015092D02*
X021412Y015092D01*
X021411Y015190D02*
X009838Y015190D01*
X009838Y015092D02*
X020887Y015092D01*
X020887Y014993D02*
X009798Y014993D01*
X009838Y015034D02*
X009587Y014782D01*
X009230Y014782D01*
X008979Y015034D01*
X008979Y015390D01*
X009230Y015642D01*
X009587Y015642D01*
X009838Y015390D01*
X009838Y015034D01*
X009700Y014895D02*
X020966Y014895D01*
X021064Y014796D02*
X009601Y014796D01*
X009587Y014642D02*
X009230Y014642D01*
X008979Y014390D01*
X008979Y014034D01*
X009230Y013782D01*
X009587Y013782D01*
X009838Y014034D01*
X009838Y014390D01*
X009587Y014642D01*
X009629Y014599D02*
X022462Y014599D01*
X022462Y014662D02*
X022462Y009815D01*
X022358Y009712D01*
X021662Y009712D01*
X021538Y009712D01*
X021538Y010391D01*
X021462Y010468D01*
X020961Y010468D01*
X020885Y010391D01*
X020885Y009753D01*
X020392Y009755D01*
X020392Y010137D01*
X020392Y010286D01*
X019892Y010786D01*
X019786Y010892D01*
X017036Y010892D01*
X016887Y010892D01*
X016387Y010392D01*
X016282Y010286D01*
X016282Y009172D01*
X015545Y009172D01*
X015548Y009177D01*
X015558Y009216D01*
X015558Y009738D01*
X015260Y009738D01*
X015260Y009835D01*
X015163Y009835D01*
X015163Y009738D01*
X014865Y009738D01*
X014865Y009216D01*
X014875Y009177D01*
X014878Y009172D01*
X011875Y009172D01*
X011752Y009049D01*
X010501Y007798D01*
X010137Y007798D01*
X010137Y007897D01*
X010083Y007951D01*
X010099Y007960D01*
X010127Y007988D01*
X010147Y008022D01*
X010157Y008060D01*
X010157Y008286D01*
X009762Y008286D01*
X009762Y008386D01*
X010157Y008386D01*
X010157Y008611D01*
X010147Y008649D01*
X010127Y008684D01*
X010099Y008712D01*
X010065Y008731D01*
X010027Y008742D01*
X009762Y008742D01*
X009762Y008386D01*
X009662Y008386D01*
X009662Y008742D01*
X009397Y008742D01*
X009392Y008740D01*
X009392Y012637D01*
X009392Y012786D01*
X008642Y013536D01*
X008642Y013837D01*
X008838Y014034D01*
X008838Y014390D01*
X008587Y014642D01*
X008230Y014642D01*
X007979Y014390D01*
X007979Y014034D01*
X008230Y013782D01*
X008282Y013782D01*
X008282Y013387D01*
X008387Y013282D01*
X009032Y012637D01*
X009032Y008286D01*
X008814Y008069D01*
X008814Y008180D01*
X008824Y008197D01*
X008834Y008235D01*
X008834Y008333D01*
X008389Y008333D01*
X008389Y008334D01*
X008834Y008334D01*
X008834Y008432D01*
X008824Y008470D01*
X008814Y008487D01*
X008814Y008713D01*
X008814Y008969D01*
X008814Y009225D01*
X008814Y009481D01*
X008814Y009737D01*
X008814Y009992D01*
X008814Y010258D01*
X008738Y010334D01*
X008040Y010334D01*
X007964Y010258D01*
X007964Y009992D01*
X007964Y009737D01*
X007964Y009481D01*
X007964Y009225D01*
X007964Y008969D01*
X007964Y008713D01*
X007964Y008487D01*
X007954Y008470D01*
X007944Y008432D01*
X007944Y008334D01*
X008388Y008334D01*
X008388Y008333D01*
X007944Y008333D01*
X007944Y008235D01*
X007954Y008197D01*
X007964Y008180D01*
X007964Y007945D01*
X007964Y007776D01*
X007444Y007776D01*
X006244Y008976D01*
X006790Y009522D01*
X006902Y009633D01*
X006902Y010786D01*
X007145Y010786D01*
X007222Y010863D01*
X007222Y011022D01*
X007452Y011022D01*
X007452Y010863D01*
X007528Y010786D01*
X008147Y010786D01*
X008201Y010840D01*
X008210Y010824D01*
X008238Y010796D01*
X008272Y010777D01*
X008310Y010766D01*
X008536Y010766D01*
X008536Y011161D01*
X008636Y011161D01*
X008636Y010766D01*
X008861Y010766D01*
X008899Y010777D01*
X008934Y010796D01*
X008962Y010824D01*
X008981Y010858D01*
X008992Y010897D01*
X008992Y011162D01*
X008636Y011162D01*
X008636Y011262D01*
X008536Y011262D01*
X008536Y011657D01*
X008310Y011657D01*
X008272Y011647D01*
X008238Y011627D01*
X008210Y011599D01*
X008201Y011583D01*
X008147Y011637D01*
X007528Y011637D01*
X007452Y011561D01*
X007452Y011402D01*
X007222Y011402D01*
X007222Y011561D01*
X007145Y011637D01*
X006526Y011637D01*
X006462Y011573D01*
X006397Y011637D01*
X006282Y011637D01*
X006282Y012315D01*
X006320Y012353D01*
X006320Y013370D01*
X006244Y013446D01*
X005939Y013446D01*
X005934Y013441D01*
X005929Y013446D01*
X005624Y013446D01*
X005619Y013441D01*
X005614Y013446D01*
X005309Y013446D01*
X005304Y013441D01*
X005299Y013446D01*
X005005Y013446D01*
X004988Y013456D01*
X004950Y013466D01*
X004832Y013466D01*
X004832Y012862D01*
X004831Y012862D01*
X004831Y012861D01*
X004583Y012861D01*
X004583Y012388D01*
X004594Y012349D01*
X004613Y012315D01*
X004641Y012287D01*
X004675Y012268D01*
X004714Y012257D01*
X004831Y012257D01*
X004831Y012861D01*
X004832Y012861D01*
X004832Y012257D01*
X004950Y012257D01*
X004988Y012268D01*
X005005Y012277D01*
X005259Y012277D01*
X004883Y011902D01*
X004772Y011790D01*
X004772Y010742D01*
X004512Y010742D01*
X004512Y010386D01*
X004412Y010386D01*
X004412Y010742D01*
X004147Y010742D01*
X004108Y010731D01*
X004074Y010712D01*
X004046Y010684D01*
X004027Y010649D01*
X004016Y010611D01*
X004016Y010386D01*
X004411Y010386D01*
X004411Y010286D01*
X004016Y010286D01*
X004016Y010060D01*
X004027Y010022D01*
X004046Y009988D01*
X004074Y009960D01*
X004090Y009951D01*
X004036Y009897D01*
X004036Y009278D01*
X004113Y009202D01*
X004811Y009202D01*
X004887Y009278D01*
X004887Y009403D01*
X005089Y009403D01*
X005089Y009357D01*
X005089Y009259D01*
X005099Y009221D01*
X005109Y009204D01*
X005109Y009055D01*
X004814Y009055D01*
X004640Y009055D01*
X004553Y008968D01*
X004114Y008968D01*
X004038Y008891D01*
X004038Y008272D01*
X004092Y008219D01*
X004076Y008210D01*
X004048Y008182D01*
X004029Y008147D01*
X004018Y008109D01*
X004018Y007884D01*
X004413Y007884D01*
X004413Y007784D01*
X004018Y007784D01*
X004018Y007558D01*
X004029Y007520D01*
X004048Y007486D01*
X004076Y007458D01*
X004110Y007438D01*
X004149Y007428D01*
X004414Y007428D01*
X004414Y007784D01*
X004514Y007784D01*
X004514Y007884D01*
X004909Y007884D01*
X004909Y008109D01*
X004899Y008147D01*
X004879Y008182D01*
X004851Y008210D01*
X004835Y008219D01*
X004889Y008272D01*
X004889Y008636D01*
X005089Y008636D01*
X005089Y008590D01*
X005534Y008590D01*
X005534Y008589D01*
X005089Y008589D01*
X005089Y008491D01*
X005099Y008453D01*
X005109Y008436D01*
X005109Y008210D01*
X005109Y007954D01*
X005109Y007720D01*
X005099Y007703D01*
X005089Y007664D01*
X005089Y007566D01*
X005534Y007566D01*
X005534Y007566D01*
X005089Y007566D01*
X005089Y007467D01*
X005099Y007429D01*
X005109Y007412D01*
X005109Y007187D01*
X005109Y006931D01*
X005109Y006666D01*
X005185Y006590D01*
X005884Y006590D01*
X005960Y006666D01*
X005960Y006931D01*
X005960Y007187D01*
X005960Y007412D01*
X005969Y007429D01*
X005980Y007467D01*
X005980Y007566D01*
X005980Y007664D01*
X005969Y007703D01*
X005960Y007720D01*
X005960Y007954D01*
X005960Y008210D01*
X005960Y008436D01*
X005969Y008453D01*
X005980Y008491D01*
X005980Y008589D01*
X005535Y008589D01*
X005535Y008590D01*
X005980Y008590D01*
X005980Y008636D01*
X005991Y008636D01*
X007270Y007356D01*
X007444Y007356D01*
X007964Y007356D01*
X007964Y007177D01*
X007964Y006922D01*
X007964Y006666D01*
X008040Y006590D01*
X008738Y006590D01*
X008767Y006618D01*
X008974Y006618D01*
X009123Y006618D01*
X009124Y006619D01*
X009142Y006612D01*
X009281Y006612D01*
X009410Y006665D01*
X009508Y006763D01*
X009562Y006892D01*
X009562Y007031D01*
X009508Y007160D01*
X009466Y007202D01*
X010061Y007202D01*
X010137Y007278D01*
X010137Y007378D01*
X010501Y007378D01*
X010675Y007378D01*
X012049Y008752D01*
X015507Y008752D01*
X015415Y008660D01*
X015362Y008531D01*
X015362Y008392D01*
X015415Y008263D01*
X015457Y008222D01*
X015363Y008222D01*
X015286Y008145D01*
X015286Y007526D01*
X015340Y007472D01*
X015324Y007464D01*
X015296Y007436D01*
X015277Y007401D01*
X015266Y007363D01*
X015266Y007138D01*
X015661Y007138D01*
X015661Y007038D01*
X015266Y007038D01*
X015266Y006812D01*
X015277Y006774D01*
X015296Y006740D01*
X015324Y006712D01*
X015358Y006692D01*
X015397Y006682D01*
X015662Y006682D01*
X015662Y007037D01*
X015762Y007037D01*
X015762Y006682D01*
X016027Y006682D01*
X016065Y006692D01*
X016099Y006712D01*
X016127Y006740D01*
X016147Y006774D01*
X016157Y006812D01*
X016157Y007038D01*
X015762Y007038D01*
X015762Y007138D01*
X016157Y007138D01*
X016157Y007363D01*
X016147Y007401D01*
X016127Y007436D01*
X016099Y007464D01*
X016083Y007472D01*
X016137Y007526D01*
X016137Y007882D01*
X016286Y008032D01*
X016286Y008026D01*
X016340Y007972D01*
X016324Y007964D01*
X016296Y007936D01*
X016277Y007901D01*
X016266Y007863D01*
X016266Y007638D01*
X016661Y007638D01*
X016661Y007538D01*
X016266Y007538D01*
X016266Y007312D01*
X016277Y007274D01*
X016296Y007240D01*
X016324Y007212D01*
X016358Y007192D01*
X016397Y007182D01*
X016662Y007182D01*
X016662Y007537D01*
X016762Y007537D01*
X016762Y007182D01*
X017027Y007182D01*
X017065Y007192D01*
X017099Y007212D01*
X017127Y007240D01*
X017147Y007274D01*
X017157Y007312D01*
X017157Y007538D01*
X016762Y007538D01*
X016762Y007638D01*
X017157Y007638D01*
X017157Y007863D01*
X017147Y007901D01*
X017127Y007936D01*
X017099Y007964D01*
X017083Y007972D01*
X017137Y008026D01*
X017137Y008032D01*
X017387Y007782D01*
X017536Y007782D01*
X018387Y007782D01*
X018387Y007782D01*
X018195Y007782D01*
X018119Y007705D01*
X018119Y007642D01*
X017637Y007642D01*
X017532Y007536D01*
X016513Y006518D01*
X013887Y006518D01*
X013887Y006647D01*
X013833Y006701D01*
X013849Y006710D01*
X013877Y006738D01*
X013897Y006772D01*
X013907Y006810D01*
X013907Y007036D01*
X013512Y007036D01*
X013512Y007136D01*
X013907Y007136D01*
X013907Y007361D01*
X013897Y007399D01*
X013877Y007434D01*
X013849Y007462D01*
X013815Y007481D01*
X013777Y007492D01*
X013512Y007492D01*
X013512Y007136D01*
X013412Y007136D01*
X013412Y007492D01*
X013147Y007492D01*
X013108Y007481D01*
X013074Y007462D01*
X013046Y007434D01*
X013027Y007399D01*
X013016Y007361D01*
X013016Y007136D01*
X013411Y007136D01*
X013411Y007036D01*
X013016Y007036D01*
X013016Y006810D01*
X013027Y006772D01*
X013046Y006738D01*
X013074Y006710D01*
X013090Y006701D01*
X013036Y006647D01*
X013036Y006518D01*
X012887Y006518D01*
X012887Y006647D01*
X012823Y006712D01*
X012887Y006776D01*
X012887Y007395D01*
X012811Y007472D01*
X012642Y007472D01*
X012642Y007657D01*
X012660Y007665D01*
X012758Y007763D01*
X012812Y007892D01*
X012812Y008031D01*
X012758Y008160D01*
X012660Y008258D01*
X012531Y008312D01*
X012392Y008312D01*
X012263Y008258D01*
X012165Y008160D01*
X012112Y008031D01*
X012112Y007892D01*
X012165Y007763D01*
X012263Y007665D01*
X012282Y007657D01*
X012282Y007472D01*
X012113Y007472D01*
X012036Y007395D01*
X012036Y006891D01*
X011892Y007036D01*
X011887Y007041D01*
X011887Y007395D01*
X011811Y007472D01*
X011113Y007472D01*
X011036Y007395D01*
X011036Y006776D01*
X011090Y006722D01*
X011074Y006714D01*
X011046Y006686D01*
X011027Y006651D01*
X011016Y006613D01*
X011016Y006388D01*
X011411Y006388D01*
X011411Y006288D01*
X011016Y006288D01*
X011016Y006062D01*
X011027Y006024D01*
X011046Y005990D01*
X011074Y005962D01*
X011108Y005942D01*
X011147Y005932D01*
X011412Y005932D01*
X011412Y006287D01*
X011512Y006287D01*
X011512Y005932D01*
X011777Y005932D01*
X011815Y005942D01*
X011849Y005962D01*
X011877Y005990D01*
X011897Y006024D01*
X011907Y006062D01*
X011907Y006288D01*
X011512Y006288D01*
X011512Y006388D01*
X011907Y006388D01*
X011907Y006512D01*
X012036Y006382D01*
X012036Y006028D01*
X012113Y005952D01*
X012811Y005952D01*
X012887Y006028D01*
X012887Y006158D01*
X013036Y006158D01*
X013036Y006028D01*
X013113Y005952D01*
X013811Y005952D01*
X013887Y006028D01*
X013887Y006158D01*
X016513Y006158D01*
X016662Y006158D01*
X017392Y006887D01*
X017392Y006663D01*
X017392Y006348D01*
X017392Y006033D01*
X017392Y005734D01*
X016472Y005734D01*
X016472Y006061D01*
X016395Y006137D01*
X015776Y006137D01*
X015712Y006073D01*
X015647Y006137D01*
X015028Y006137D01*
X014952Y006061D01*
X014952Y005363D01*
X015028Y005286D01*
X015158Y005286D01*
X015158Y004910D01*
X015158Y004761D01*
X015782Y004137D01*
X015887Y004032D01*
X016387Y004032D01*
X016532Y003887D01*
X016526Y003887D01*
X016472Y003833D01*
X016464Y003849D01*
X016436Y003877D01*
X016401Y003897D01*
X016363Y003907D01*
X016138Y003907D01*
X016138Y003512D01*
X016038Y003512D01*
X016038Y003907D01*
X015812Y003907D01*
X015774Y003897D01*
X015740Y003877D01*
X015712Y003849D01*
X015692Y003815D01*
X015682Y003777D01*
X015682Y003512D01*
X016037Y003512D01*
X016037Y003412D01*
X015682Y003412D01*
X015682Y003147D01*
X015692Y003108D01*
X015712Y003074D01*
X015740Y003046D01*
X015774Y003027D01*
X015812Y003016D01*
X016038Y003016D01*
X016038Y003411D01*
X016138Y003411D01*
X016138Y003016D01*
X016363Y003016D01*
X016401Y003027D01*
X016436Y003046D01*
X016464Y003074D01*
X016472Y003090D01*
X016526Y003036D01*
X017145Y003036D01*
X017222Y003113D01*
X017222Y003272D01*
X019290Y003272D01*
X019402Y003383D01*
X019494Y003475D01*
X019494Y003622D01*
X019614Y003622D01*
X019614Y004016D01*
X019624Y004016D01*
X019624Y003622D01*
X019749Y003622D01*
X019787Y003632D01*
X019804Y003642D01*
X020032Y003642D01*
X020032Y003036D01*
X019691Y002696D01*
X019665Y002722D01*
X017458Y002722D01*
X017382Y002645D01*
X017382Y002392D01*
X017222Y002392D01*
X017222Y002561D01*
X017145Y002637D01*
X016526Y002637D01*
X016472Y002583D01*
X016464Y002599D01*
X016436Y002627D01*
X016401Y002647D01*
X016363Y002657D01*
X016138Y002657D01*
X016138Y002262D01*
X016038Y002262D01*
X016038Y002657D01*
X015812Y002657D01*
X015774Y002647D01*
X015740Y002627D01*
X015712Y002599D01*
X015692Y002565D01*
X015682Y002527D01*
X015682Y002262D01*
X016037Y002262D01*
X016037Y002162D01*
X015682Y002162D01*
X015682Y001897D01*
X015692Y001858D01*
X015712Y001824D01*
X015740Y001796D01*
X015774Y001777D01*
X015812Y001766D01*
X016038Y001766D01*
X016038Y002161D01*
X016138Y002161D01*
X016138Y001766D01*
X016363Y001766D01*
X016401Y001777D01*
X016436Y001796D01*
X016464Y001824D01*
X016472Y001840D01*
X016526Y001786D01*
X017145Y001786D01*
X017222Y001863D01*
X017222Y002032D01*
X017382Y002032D01*
X017382Y001778D01*
X017458Y001702D01*
X019665Y001702D01*
X019742Y001778D01*
X019742Y002237D01*
X020384Y002880D01*
X020384Y002785D01*
X021032Y002137D01*
X021137Y002032D01*
X021182Y002032D01*
X021182Y001778D01*
X021258Y001702D01*
X023465Y001702D01*
X023542Y001778D01*
X023542Y002032D01*
X023702Y002032D01*
X023702Y001863D01*
X023778Y001786D01*
X024397Y001786D01*
X024451Y001840D01*
X024460Y001824D01*
X024488Y001796D01*
X024522Y001777D01*
X024560Y001766D01*
X024786Y001766D01*
X024786Y002161D01*
X024886Y002161D01*
X024886Y001766D01*
X025111Y001766D01*
X025149Y001777D01*
X025184Y001796D01*
X025212Y001824D01*
X025231Y001858D01*
X025242Y001897D01*
X025242Y002162D01*
X024886Y002162D01*
X024886Y002262D01*
X024786Y002262D01*
X024786Y002657D01*
X024560Y002657D01*
X024522Y002647D01*
X024488Y002627D01*
X024460Y002599D01*
X024451Y002583D01*
X024397Y002637D01*
X023778Y002637D01*
X023702Y002561D01*
X023702Y002392D01*
X023542Y002392D01*
X023542Y002645D01*
X023465Y002722D01*
X021258Y002722D01*
X021182Y002645D01*
X021182Y002496D01*
X020744Y002934D01*
X020744Y003658D01*
X020804Y003718D01*
X020804Y004325D01*
X020728Y004402D01*
X020400Y004402D01*
X020172Y004402D01*
X020172Y004677D01*
X020258Y004763D01*
X020312Y004892D01*
X020312Y005031D01*
X020258Y005160D01*
X020212Y005207D01*
X020212Y005858D01*
X020391Y006037D01*
X020461Y006107D01*
X020499Y006199D01*
X020499Y007022D01*
X020728Y007022D01*
X020738Y007032D01*
X020826Y007032D01*
X020772Y006978D01*
X020772Y006650D01*
X020772Y006335D01*
X020772Y006020D01*
X020772Y005705D01*
X020772Y005390D01*
X020772Y005075D01*
X020772Y004760D01*
X020772Y004445D01*
X020848Y004369D01*
X021455Y004369D01*
X021532Y004445D01*
X021532Y004760D01*
X021532Y004772D01*
X022046Y004772D01*
X022013Y004758D01*
X021915Y004660D01*
X021862Y004531D01*
X021862Y004392D01*
X021915Y004263D01*
X022013Y004165D01*
X022142Y004112D01*
X022281Y004112D01*
X022410Y004165D01*
X022497Y004252D01*
X024375Y004252D01*
X026606Y002020D01*
X026492Y001906D01*
X026492Y001762D01*
X026911Y001762D01*
X026911Y001662D01*
X026492Y001662D01*
X026492Y001517D01*
X026767Y001242D01*
X026912Y001242D01*
X026912Y001661D01*
X027012Y001661D01*
X027012Y001242D01*
X027156Y001242D01*
X027432Y001517D01*
X027432Y001662D01*
X027012Y001662D01*
X027012Y001762D01*
X027432Y001762D01*
X027432Y001906D01*
X027336Y002002D01*
X027615Y002002D01*
X027512Y001898D01*
X027512Y001525D01*
X027775Y001262D01*
X028148Y001262D01*
X028412Y001525D01*
X028412Y001898D01*
X028308Y002002D01*
X028375Y002002D01*
X028512Y001865D01*
X028512Y001525D01*
X028775Y001262D01*
X029148Y001262D01*
X029388Y001502D01*
X043375Y001502D01*
X043549Y001502D01*
X045329Y003282D01*
X045640Y003282D01*
X045892Y003534D01*
X045892Y003890D01*
X045640Y004142D01*
X045284Y004142D01*
X045032Y003890D01*
X045032Y003579D01*
X043375Y001922D01*
X029388Y001922D01*
X029148Y002162D01*
X028809Y002162D01*
X028709Y002262D01*
X029335Y002262D01*
X029412Y002338D01*
X029412Y003085D01*
X029335Y003162D01*
X028766Y003162D01*
X028286Y003642D01*
X028137Y003642D01*
X027786Y003642D01*
X027054Y004374D01*
X027062Y004392D01*
X027062Y004531D01*
X027008Y004660D01*
X026910Y004758D01*
X026781Y004812D01*
X026642Y004812D01*
X026513Y004758D01*
X026415Y004660D01*
X026362Y004531D01*
X026362Y004392D01*
X026415Y004263D01*
X026513Y004165D01*
X026642Y004112D01*
X026781Y004112D01*
X026800Y004119D01*
X027532Y003387D01*
X027637Y003282D01*
X028137Y003282D01*
X028512Y002907D01*
X028512Y002422D01*
X028308Y002422D01*
X028412Y002525D01*
X028412Y002898D01*
X028148Y003162D01*
X027775Y003162D01*
X027512Y002898D01*
X027512Y002525D01*
X027615Y002422D01*
X027308Y002422D01*
X027412Y002525D01*
X027412Y002898D01*
X027148Y003162D01*
X026775Y003162D01*
X026512Y002898D01*
X026512Y002709D01*
X024672Y004549D01*
X024585Y004635D01*
X024642Y004612D01*
X024781Y004612D01*
X024910Y004665D01*
X025008Y004763D01*
X025062Y004892D01*
X025062Y005031D01*
X025013Y005150D01*
X030286Y005150D01*
X030286Y004776D01*
X030351Y004712D01*
X030286Y004647D01*
X030286Y004028D01*
X030363Y003952D01*
X031061Y003952D01*
X031137Y004028D01*
X031137Y004158D01*
X031845Y004158D01*
X031845Y004008D01*
X031922Y003932D01*
X032502Y003932D01*
X032578Y004008D01*
X032578Y004588D01*
X032502Y004664D01*
X031922Y004664D01*
X031845Y004588D01*
X031845Y004518D01*
X031137Y004518D01*
X031137Y004647D01*
X031073Y004712D01*
X031137Y004776D01*
X031137Y005395D01*
X031061Y005472D01*
X030580Y005472D01*
X030542Y005510D01*
X030393Y005510D01*
X029505Y005510D01*
X029508Y005513D01*
X029516Y005532D01*
X036907Y005532D01*
X036915Y005513D01*
X037013Y005415D01*
X037142Y005362D01*
X037281Y005362D01*
X037410Y005415D01*
X037508Y005513D01*
X037562Y005642D01*
X037562Y005781D01*
X037508Y005910D01*
X037410Y006008D01*
X037281Y006062D01*
X037142Y006062D01*
X037013Y006008D01*
X036915Y005910D01*
X036907Y005892D01*
X029516Y005892D01*
X029508Y005910D01*
X029410Y006008D01*
X029281Y006062D01*
X029142Y006062D01*
X029013Y006008D01*
X028915Y005910D01*
X028862Y005781D01*
X028862Y005642D01*
X028915Y005513D01*
X028919Y005510D01*
X028255Y005510D01*
X028258Y005513D01*
X028312Y005642D01*
X028312Y005781D01*
X028258Y005910D01*
X028160Y006008D01*
X028031Y006062D01*
X027892Y006062D01*
X027812Y006028D01*
X027812Y006031D01*
X027758Y006160D01*
X027660Y006258D01*
X027642Y006266D01*
X027642Y007032D01*
X039157Y007032D01*
X039165Y007013D01*
X039263Y006915D01*
X039392Y006862D01*
X039531Y006862D01*
X039660Y006915D01*
X039758Y007013D01*
X039812Y007142D01*
X039812Y007281D01*
X039758Y007410D01*
X039660Y007508D01*
X039531Y007562D01*
X039392Y007562D01*
X039263Y007508D01*
X039165Y007410D01*
X039157Y007392D01*
X027536Y007392D01*
X027387Y007392D01*
X024104Y007392D01*
X024160Y007415D01*
X024258Y007513D01*
X024266Y007532D01*
X036536Y007532D01*
X036642Y007637D01*
X037492Y008487D01*
X037507Y008472D01*
X037490Y008462D01*
X037462Y008434D01*
X037442Y008400D01*
X037432Y008361D01*
X037432Y008227D01*
X037966Y008227D01*
X037966Y008197D01*
X037432Y008197D01*
X037432Y008062D01*
X037442Y008024D01*
X037462Y007990D01*
X037490Y007962D01*
X037524Y007942D01*
X037562Y007932D01*
X037967Y007932D01*
X037967Y008196D01*
X037997Y008196D01*
X037997Y007932D01*
X038401Y007932D01*
X038440Y007942D01*
X038474Y007962D01*
X038502Y007990D01*
X038521Y008024D01*
X038532Y008062D01*
X038532Y008197D01*
X037997Y008197D01*
X037997Y008227D01*
X038532Y008227D01*
X038532Y008361D01*
X038521Y008400D01*
X038502Y008434D01*
X038474Y008462D01*
X038456Y008472D01*
X038512Y008528D01*
X038512Y008895D01*
X038445Y008962D01*
X038512Y009028D01*
X038512Y009032D01*
X038637Y009032D01*
X039782Y007887D01*
X039782Y007536D01*
X039782Y007387D01*
X039869Y007300D01*
X039862Y007281D01*
X039862Y007142D01*
X039915Y007013D01*
X040013Y006915D01*
X040142Y006862D01*
X040281Y006862D01*
X040410Y006915D01*
X040508Y007013D01*
X040551Y007117D01*
X041137Y006532D01*
X041286Y006532D01*
X042637Y006532D01*
X044637Y004532D01*
X044786Y004532D01*
X045034Y004532D01*
X045284Y004282D01*
X045640Y004282D01*
X045892Y004534D01*
X045892Y004890D01*
X045750Y005032D01*
X045887Y005032D01*
X046032Y004887D01*
X046032Y004534D01*
X046284Y004282D01*
X046640Y004282D01*
X046782Y004424D01*
X046782Y004286D01*
X046637Y004142D01*
X046284Y004142D01*
X046032Y003890D01*
X046032Y003534D01*
X046217Y003348D01*
X045844Y003320D01*
X045387Y003141D01*
X045002Y002834D01*
X045002Y002834D01*
X045002Y002834D01*
X044725Y002428D01*
X044725Y002428D01*
X044580Y001958D01*
X044580Y001958D01*
X044580Y001466D01*
X044580Y001466D01*
X044725Y000996D01*
X044725Y000996D01*
X045002Y000589D01*
X045187Y000442D01*
X002759Y000442D01*
X003075Y000782D01*
X003075Y000782D01*
X003288Y001225D01*
X003288Y001225D01*
X003362Y001712D01*
X003288Y002198D01*
X003075Y002641D01*
X003075Y002641D01*
X002740Y003002D01*
X002314Y003248D01*
X001835Y003357D01*
X001835Y003357D01*
X001344Y003320D01*
X000887Y003141D01*
X000502Y002834D01*
X000502Y002834D01*
X000442Y002745D01*
X000442Y013678D01*
X000502Y013589D01*
X000887Y013283D01*
X001344Y013103D01*
X001344Y013103D01*
X001835Y013066D01*
X002314Y013176D01*
X002314Y013176D01*
X002740Y013422D01*
X002740Y013422D01*
X003075Y013782D01*
X003075Y013782D01*
X003288Y014225D01*
X003288Y014225D01*
X003352Y014647D01*
X004177Y014647D01*
X004253Y014723D01*
X004253Y015775D01*
X004177Y015851D01*
X003282Y015851D01*
X003206Y015775D01*
X003206Y015369D01*
X003075Y015641D01*
X002759Y015982D01*
X045187Y015982D01*
X045002Y015834D01*
X044725Y015428D01*
X044725Y015428D01*
X044580Y014958D01*
X044580Y014958D01*
X044580Y014466D01*
X044580Y014466D01*
X044725Y013996D01*
X044725Y013996D01*
X045002Y013589D01*
X045387Y013283D01*
X045844Y013103D01*
X045844Y013103D01*
X046217Y013075D01*
X046032Y012890D01*
X046032Y012534D01*
X046284Y012282D01*
X046640Y012282D01*
X046892Y012534D01*
X046892Y012890D01*
X046644Y013137D01*
X046814Y013176D01*
X046814Y013176D01*
X047240Y013422D01*
X047240Y013422D01*
X047575Y013782D01*
X047575Y013782D01*
X047712Y014066D01*
X047712Y002357D01*
X047575Y002641D01*
X047575Y002641D01*
X047240Y003002D01*
X046814Y003248D01*
X046644Y003286D01*
X046892Y003534D01*
X046892Y003887D01*
X047036Y004032D01*
X047142Y004137D01*
X047142Y007887D01*
X047142Y008036D01*
X046892Y008286D01*
X046786Y008392D01*
X046750Y008392D01*
X046892Y008534D01*
X046892Y008890D01*
X046640Y009142D01*
X046284Y009142D01*
X046032Y008890D01*
X046032Y008534D01*
X046174Y008392D01*
X045750Y008392D01*
X045892Y008534D01*
X045892Y008890D01*
X045640Y009142D01*
X045284Y009142D01*
X045035Y008893D01*
X044036Y009892D01*
X043887Y009892D01*
X042472Y009892D01*
X042472Y009895D01*
X042405Y009962D01*
X042472Y010028D01*
X042472Y010032D01*
X044286Y010032D01*
X044392Y010137D01*
X044786Y010532D01*
X045034Y010532D01*
X045284Y010282D01*
X045640Y010282D01*
X045892Y010534D01*
X045892Y010890D01*
X045750Y011032D01*
X045887Y011032D01*
X046032Y010887D01*
X046032Y010534D01*
X046284Y010282D01*
X046640Y010282D01*
X046892Y010534D01*
X046892Y010890D01*
X046640Y011142D01*
X046286Y011142D01*
X046142Y011286D01*
X046036Y011392D01*
X045750Y011392D01*
X045892Y011534D01*
X045892Y011890D01*
X045750Y012032D01*
X045887Y012032D01*
X046032Y011887D01*
X046032Y011534D01*
X046284Y011282D01*
X046640Y011282D01*
X046892Y011534D01*
X046892Y011890D01*
X046640Y012142D01*
X046286Y012142D01*
X046142Y012286D01*
X046036Y012392D01*
X045750Y012392D01*
X045892Y012534D01*
X045892Y012890D01*
X045640Y013142D01*
X045286Y013142D01*
X045036Y013392D01*
X044887Y013392D01*
X042854Y013392D01*
X042910Y013415D01*
X043008Y013513D01*
X043062Y013642D01*
X043062Y013781D01*
X043008Y013910D01*
X042910Y014008D01*
X042781Y014062D01*
X042642Y014062D01*
X042513Y014008D01*
X042452Y014008D01*
X042472Y014028D02*
X042472Y014395D01*
X042405Y014462D01*
X042445Y014502D01*
X042702Y014502D01*
X042702Y014363D01*
X042778Y014286D01*
X043397Y014286D01*
X043451Y014340D01*
X043460Y014324D01*
X043488Y014296D01*
X043522Y014277D01*
X043560Y014266D01*
X043786Y014266D01*
X043786Y014661D01*
X043886Y014661D01*
X043886Y014266D01*
X044111Y014266D01*
X044149Y014277D01*
X044184Y014296D01*
X044212Y014324D01*
X044231Y014358D01*
X044242Y014397D01*
X044242Y014662D01*
X043886Y014662D01*
X043886Y014762D01*
X043786Y014762D01*
X043786Y015157D01*
X043560Y015157D01*
X043522Y015147D01*
X043488Y015127D01*
X043460Y015099D01*
X043451Y015083D01*
X043397Y015137D01*
X042778Y015137D01*
X042702Y015061D01*
X042702Y014922D01*
X042445Y014922D01*
X042395Y014972D01*
X041488Y014972D01*
X041478Y014962D01*
X041315Y014962D01*
X040603Y015674D01*
X040511Y015712D01*
X040412Y015712D01*
X023412Y015712D01*
X023320Y015674D01*
X023250Y015603D01*
X023177Y015531D01*
X022941Y015767D01*
X022482Y015767D01*
X022157Y015441D01*
X022157Y014982D01*
X022462Y014677D01*
X022462Y014662D01*
X022441Y014698D02*
X021761Y014698D01*
X021859Y014796D02*
X022342Y014796D01*
X022244Y014895D02*
X021958Y014895D01*
X022037Y014993D02*
X022157Y014993D01*
X022157Y015092D02*
X022037Y015092D01*
X021512Y014993D02*
X021412Y014993D01*
X021412Y014895D02*
X021512Y014895D01*
X021512Y014796D02*
X021412Y014796D01*
X021412Y014698D02*
X021512Y014698D01*
X021163Y014698D02*
X007692Y014698D01*
X007718Y014723D02*
X007718Y015775D01*
X007641Y015851D01*
X006746Y015851D01*
X006670Y015775D01*
X006670Y014723D01*
X006746Y014647D01*
X007641Y014647D01*
X007718Y014723D01*
X007718Y014796D02*
X008216Y014796D01*
X008230Y014782D02*
X008587Y014782D01*
X008838Y015034D01*
X008838Y015390D01*
X008587Y015642D01*
X008230Y015642D01*
X007979Y015390D01*
X007979Y015034D01*
X008230Y014782D01*
X008117Y014895D02*
X007718Y014895D01*
X007718Y014993D02*
X008019Y014993D01*
X007979Y015092D02*
X007718Y015092D01*
X007718Y015190D02*
X007979Y015190D01*
X007979Y015289D02*
X007718Y015289D01*
X007718Y015387D02*
X007979Y015387D01*
X008075Y015486D02*
X007718Y015486D01*
X007718Y015584D02*
X008173Y015584D01*
X007718Y015683D02*
X021120Y015683D01*
X021218Y015781D02*
X007711Y015781D01*
X008644Y015584D02*
X009173Y015584D01*
X009075Y015486D02*
X008742Y015486D01*
X008838Y015387D02*
X008979Y015387D01*
X008979Y015289D02*
X008838Y015289D01*
X008838Y015190D02*
X008979Y015190D01*
X008979Y015092D02*
X008838Y015092D01*
X008798Y014993D02*
X009019Y014993D01*
X009117Y014895D02*
X008700Y014895D01*
X008601Y014796D02*
X009216Y014796D01*
X009188Y014599D02*
X008629Y014599D01*
X008728Y014500D02*
X009089Y014500D01*
X008991Y014402D02*
X008826Y014402D01*
X008838Y014303D02*
X008979Y014303D01*
X008979Y014205D02*
X008838Y014205D01*
X008838Y014106D02*
X008979Y014106D01*
X009004Y014008D02*
X008813Y014008D01*
X008714Y013909D02*
X009103Y013909D01*
X009201Y013811D02*
X008642Y013811D01*
X008642Y013712D02*
X011669Y013712D01*
X011646Y013708D02*
X011559Y013680D01*
X011478Y013639D01*
X011404Y013585D01*
X011339Y013521D01*
X011286Y013447D01*
X011244Y013365D01*
X011216Y013279D01*
X011202Y013188D01*
X011202Y013171D01*
X012183Y013171D01*
X012183Y013114D01*
X012240Y013114D01*
X012240Y012563D01*
X012687Y012563D01*
X012777Y012577D01*
X012864Y012605D01*
X012946Y012647D01*
X013019Y012700D01*
X013084Y012765D01*
X013138Y012839D01*
X013179Y012920D01*
X013207Y013007D01*
X013222Y013097D01*
X013222Y013114D01*
X012241Y013114D01*
X012241Y013171D01*
X013222Y013171D01*
X013222Y013188D01*
X013207Y013279D01*
X013179Y013365D01*
X013138Y013447D01*
X013084Y013521D01*
X013019Y013585D01*
X012946Y013639D01*
X012864Y013680D01*
X012777Y013708D01*
X012687Y013723D01*
X012240Y013723D01*
X012240Y013172D01*
X012183Y013172D01*
X012183Y013723D01*
X011736Y013723D01*
X011646Y013708D01*
X011443Y013614D02*
X008642Y013614D01*
X008663Y013515D02*
X011335Y013515D01*
X011270Y013416D02*
X008761Y013416D01*
X008860Y013318D02*
X011229Y013318D01*
X011207Y013219D02*
X008958Y013219D01*
X009057Y013121D02*
X012183Y013121D01*
X012183Y013114D02*
X011202Y013114D01*
X011202Y013097D01*
X011216Y013007D01*
X011244Y012920D01*
X011286Y012839D01*
X011339Y012765D01*
X011404Y012700D01*
X011478Y012647D01*
X011559Y012605D01*
X011646Y012577D01*
X011736Y012563D01*
X012183Y012563D01*
X012183Y013114D01*
X012241Y013121D02*
X014332Y013121D01*
X014332Y013119D02*
X012553Y011341D01*
X011670Y011341D01*
X011464Y011255D01*
X011307Y011098D01*
X011222Y010892D01*
X011222Y010669D01*
X011307Y010463D01*
X011464Y010306D01*
X011670Y010221D01*
X012753Y010221D01*
X012959Y010306D01*
X013116Y010463D01*
X013202Y010669D01*
X013202Y010892D01*
X013195Y010908D01*
X014927Y012639D01*
X015034Y012746D01*
X015092Y012886D01*
X015092Y013620D01*
X015144Y013673D01*
X015222Y013860D01*
X015222Y014063D01*
X015144Y014251D01*
X015001Y014394D01*
X014813Y014472D01*
X014610Y014472D01*
X014423Y014394D01*
X014279Y014251D01*
X014202Y014063D01*
X014202Y013860D01*
X014279Y013673D01*
X014332Y013620D01*
X014332Y013119D01*
X014332Y013219D02*
X013217Y013219D01*
X013195Y013318D02*
X014332Y013318D01*
X014332Y013416D02*
X013153Y013416D01*
X013088Y013515D02*
X014332Y013515D01*
X014332Y013614D02*
X012980Y013614D01*
X012754Y013712D02*
X014263Y013712D01*
X014222Y013811D02*
X009616Y013811D01*
X009714Y013909D02*
X014202Y013909D01*
X014202Y014008D02*
X009813Y014008D01*
X009838Y014106D02*
X014220Y014106D01*
X014260Y014205D02*
X009838Y014205D01*
X009838Y014303D02*
X014332Y014303D01*
X014442Y014402D02*
X009826Y014402D01*
X009728Y014500D02*
X016959Y014500D01*
X016966Y014508D02*
X016917Y014459D01*
X016917Y014453D01*
X015017Y012318D01*
X014961Y012318D01*
X014885Y012242D01*
X014885Y011032D01*
X014961Y010956D01*
X015462Y010956D01*
X015538Y011032D01*
X015538Y011055D01*
X015794Y011055D01*
X015899Y011161D01*
X016188Y011449D01*
X016936Y011449D01*
X016957Y011428D01*
X017655Y011428D01*
X017731Y011504D01*
X017731Y011524D01*
X017762Y011554D01*
X017762Y011704D01*
X017762Y012289D01*
X017786Y012313D01*
X017786Y011504D01*
X017863Y011428D01*
X018561Y011428D01*
X018637Y011504D01*
X018637Y012399D01*
X018561Y012475D01*
X017948Y012475D01*
X019246Y013773D01*
X019246Y013922D01*
X019246Y014146D01*
X019260Y014174D01*
X019246Y014217D01*
X019246Y014263D01*
X019223Y014285D01*
X019213Y014316D01*
X019173Y014336D01*
X019141Y014368D01*
X019108Y014368D01*
X018779Y014533D01*
X018747Y014565D01*
X018715Y014565D01*
X018686Y014579D01*
X018643Y014565D01*
X017166Y014565D01*
X017161Y014569D01*
X017092Y014565D01*
X017023Y014565D01*
X017019Y014561D01*
X017013Y014560D01*
X016966Y014508D01*
X016872Y014402D02*
X014981Y014402D01*
X015091Y014303D02*
X016784Y014303D01*
X016696Y014205D02*
X015163Y014205D01*
X015204Y014106D02*
X016609Y014106D01*
X016521Y014008D02*
X015222Y014008D01*
X015222Y013909D02*
X016433Y013909D01*
X016346Y013811D02*
X015201Y013811D01*
X015160Y013712D02*
X016258Y013712D01*
X016170Y013614D02*
X015092Y013614D01*
X015092Y013515D02*
X016082Y013515D01*
X015995Y013416D02*
X015092Y013416D01*
X015092Y013318D02*
X015907Y013318D01*
X015819Y013219D02*
X015092Y013219D01*
X015092Y013121D02*
X015732Y013121D01*
X015644Y013022D02*
X015092Y013022D01*
X015092Y012924D02*
X015556Y012924D01*
X015469Y012825D02*
X015066Y012825D01*
X015014Y012727D02*
X015381Y012727D01*
X015293Y012628D02*
X014915Y012628D01*
X014817Y012530D02*
X015205Y012530D01*
X015118Y012431D02*
X014718Y012431D01*
X014620Y012332D02*
X015030Y012332D01*
X014885Y012234D02*
X014521Y012234D01*
X014423Y012135D02*
X014885Y012135D01*
X014885Y012037D02*
X014324Y012037D01*
X014226Y011938D02*
X014885Y011938D01*
X014885Y011840D02*
X014127Y011840D01*
X014029Y011741D02*
X014885Y011741D01*
X014885Y011643D02*
X013930Y011643D01*
X013831Y011544D02*
X014885Y011544D01*
X014885Y011446D02*
X013733Y011446D01*
X013634Y011347D02*
X014885Y011347D01*
X014885Y011249D02*
X013536Y011249D01*
X013437Y011150D02*
X014885Y011150D01*
X014885Y011051D02*
X013339Y011051D01*
X013240Y010953D02*
X020945Y010953D01*
X020957Y010946D02*
X020995Y010936D01*
X021163Y010936D01*
X021163Y011588D01*
X021260Y011588D01*
X021260Y010936D01*
X021428Y010936D01*
X021466Y010946D01*
X021501Y010966D01*
X021529Y010994D01*
X021548Y011028D01*
X021558Y011066D01*
X021558Y011588D01*
X021260Y011588D01*
X021260Y011685D01*
X021558Y011685D01*
X021558Y012208D01*
X021548Y012246D01*
X021529Y012280D01*
X021501Y012308D01*
X021466Y012328D01*
X021428Y012338D01*
X021260Y012338D01*
X021260Y011686D01*
X021163Y011686D01*
X021163Y012338D01*
X020995Y012338D01*
X020957Y012328D01*
X020923Y012308D01*
X020895Y012280D01*
X020875Y012246D01*
X020865Y012208D01*
X020865Y011685D01*
X021163Y011685D01*
X021163Y011588D01*
X020865Y011588D01*
X020865Y011066D01*
X020875Y011028D01*
X020895Y010994D01*
X020923Y010966D01*
X020957Y010946D01*
X020869Y011051D02*
X015538Y011051D01*
X015720Y011235D02*
X015076Y011235D01*
X015076Y012113D01*
X017097Y014385D01*
X018672Y014385D01*
X019066Y014188D01*
X019066Y013847D01*
X017582Y012363D01*
X017582Y011629D01*
X016113Y011629D01*
X015720Y011235D01*
X015733Y011249D02*
X015076Y011249D01*
X015076Y011347D02*
X015831Y011347D01*
X015930Y011446D02*
X015076Y011446D01*
X015076Y011544D02*
X016028Y011544D01*
X016184Y011446D02*
X016940Y011446D01*
X017582Y011643D02*
X015076Y011643D01*
X015076Y011741D02*
X017582Y011741D01*
X017582Y011840D02*
X015076Y011840D01*
X015076Y011938D02*
X017582Y011938D01*
X017582Y012037D02*
X015076Y012037D01*
X015096Y012135D02*
X017582Y012135D01*
X017582Y012234D02*
X015183Y012234D01*
X015271Y012332D02*
X017582Y012332D01*
X017650Y012431D02*
X015359Y012431D01*
X015446Y012530D02*
X017748Y012530D01*
X017847Y012628D02*
X015534Y012628D01*
X015622Y012727D02*
X017945Y012727D01*
X018044Y012825D02*
X015709Y012825D01*
X015797Y012924D02*
X018142Y012924D01*
X018241Y013022D02*
X015885Y013022D01*
X015973Y013121D02*
X018339Y013121D01*
X018438Y013219D02*
X016060Y013219D01*
X016148Y013318D02*
X018536Y013318D01*
X018635Y013416D02*
X016236Y013416D01*
X016323Y013515D02*
X018734Y013515D01*
X018832Y013614D02*
X016411Y013614D01*
X016499Y013712D02*
X018931Y013712D01*
X019029Y013811D02*
X016586Y013811D01*
X016674Y013909D02*
X019066Y013909D01*
X019066Y014008D02*
X016762Y014008D01*
X016849Y014106D02*
X019066Y014106D01*
X019032Y014205D02*
X016937Y014205D01*
X017025Y014303D02*
X018835Y014303D01*
X018844Y014500D02*
X022462Y014500D01*
X022462Y014402D02*
X019041Y014402D01*
X019217Y014303D02*
X022462Y014303D01*
X022462Y014205D02*
X019250Y014205D01*
X019246Y014106D02*
X022462Y014106D01*
X022462Y014008D02*
X019246Y014008D01*
X019246Y013909D02*
X022462Y013909D01*
X022462Y013811D02*
X019246Y013811D01*
X019185Y013712D02*
X022462Y013712D01*
X022462Y013614D02*
X019087Y013614D01*
X018988Y013515D02*
X022462Y013515D01*
X022462Y013416D02*
X018889Y013416D01*
X018791Y013318D02*
X022462Y013318D01*
X022462Y013219D02*
X018692Y013219D01*
X018594Y013121D02*
X022462Y013121D01*
X022462Y013022D02*
X018495Y013022D01*
X018397Y012924D02*
X022462Y012924D01*
X022462Y012825D02*
X018298Y012825D01*
X018200Y012727D02*
X022462Y012727D01*
X022462Y012628D02*
X018101Y012628D01*
X018003Y012530D02*
X022462Y012530D01*
X022462Y012431D02*
X019536Y012431D01*
X019532Y012438D02*
X019505Y012466D01*
X019470Y012485D01*
X019432Y012495D01*
X019167Y012495D01*
X019167Y012002D01*
X019067Y012002D01*
X019067Y012495D01*
X018802Y012495D01*
X018764Y012485D01*
X018730Y012466D01*
X018702Y012438D01*
X018682Y012403D01*
X018672Y012365D01*
X018672Y012002D01*
X019067Y012002D01*
X019067Y011902D01*
X018672Y011902D01*
X018672Y011538D01*
X018682Y011500D01*
X018702Y011466D01*
X018730Y011438D01*
X018764Y011418D01*
X018802Y011408D01*
X019067Y011408D01*
X019067Y011902D01*
X019167Y011902D01*
X019167Y012002D01*
X019562Y012002D01*
X019562Y012365D01*
X019552Y012403D01*
X019532Y012438D01*
X019562Y012332D02*
X020975Y012332D01*
X020872Y012234D02*
X019562Y012234D01*
X019562Y012135D02*
X020865Y012135D01*
X020865Y012037D02*
X019562Y012037D01*
X019562Y011902D02*
X019167Y011902D01*
X019167Y011408D01*
X019432Y011408D01*
X019470Y011418D01*
X019505Y011438D01*
X019532Y011466D01*
X019552Y011500D01*
X019562Y011538D01*
X019562Y011902D01*
X019562Y011840D02*
X020865Y011840D01*
X020865Y011938D02*
X019167Y011938D01*
X019167Y011840D02*
X019067Y011840D01*
X019067Y011938D02*
X018637Y011938D01*
X018637Y011840D02*
X018672Y011840D01*
X018672Y011741D02*
X018637Y011741D01*
X018637Y011643D02*
X018672Y011643D01*
X018672Y011544D02*
X018637Y011544D01*
X018578Y011446D02*
X018722Y011446D01*
X019067Y011446D02*
X019167Y011446D01*
X019167Y011544D02*
X019067Y011544D01*
X019067Y011643D02*
X019167Y011643D01*
X019167Y011741D02*
X019067Y011741D01*
X019562Y011741D02*
X020865Y011741D01*
X020865Y011544D02*
X019562Y011544D01*
X019562Y011643D02*
X021163Y011643D01*
X021260Y011643D02*
X022462Y011643D01*
X022462Y011741D02*
X021558Y011741D01*
X021558Y011840D02*
X022462Y011840D01*
X022462Y011938D02*
X021558Y011938D01*
X021558Y012037D02*
X022462Y012037D01*
X022462Y012135D02*
X021558Y012135D01*
X021551Y012234D02*
X022462Y012234D01*
X022462Y012332D02*
X021449Y012332D01*
X021260Y012332D02*
X021163Y012332D01*
X021163Y012234D02*
X021260Y012234D01*
X021260Y012135D02*
X021163Y012135D01*
X021163Y012037D02*
X021260Y012037D01*
X021260Y011938D02*
X021163Y011938D01*
X021163Y011840D02*
X021260Y011840D01*
X021260Y011741D02*
X021163Y011741D01*
X021163Y011544D02*
X021260Y011544D01*
X021260Y011446D02*
X021163Y011446D01*
X021163Y011347D02*
X021260Y011347D01*
X021260Y011249D02*
X021163Y011249D01*
X021163Y011150D02*
X021260Y011150D01*
X021260Y011051D02*
X021163Y011051D01*
X021163Y010953D02*
X021260Y010953D01*
X021478Y010953D02*
X022462Y010953D01*
X022462Y011051D02*
X021555Y011051D01*
X021558Y011150D02*
X022462Y011150D01*
X022462Y011249D02*
X021558Y011249D01*
X021558Y011347D02*
X022462Y011347D01*
X022462Y011446D02*
X021558Y011446D01*
X021558Y011544D02*
X022462Y011544D01*
X022962Y011544D02*
X026772Y011544D01*
X026772Y011446D02*
X022962Y011446D01*
X022962Y011347D02*
X026772Y011347D01*
X026772Y011249D02*
X022962Y011249D01*
X022962Y011150D02*
X026772Y011150D01*
X026772Y011051D02*
X022962Y011051D01*
X022962Y010953D02*
X024657Y010953D01*
X024655Y010952D02*
X024627Y010924D01*
X024607Y010890D01*
X024597Y010851D01*
X024597Y010722D01*
X025171Y010722D01*
X025171Y010702D01*
X024597Y010702D01*
X024597Y010572D01*
X024607Y010534D01*
X024627Y010500D01*
X024655Y010472D01*
X024672Y010462D01*
X024655Y010452D01*
X024627Y010424D01*
X024607Y010390D01*
X024597Y010351D01*
X024597Y010222D01*
X025171Y010222D01*
X025171Y010202D01*
X024597Y010202D01*
X024597Y010072D01*
X024607Y010034D01*
X024627Y010000D01*
X024655Y009972D01*
X024672Y009962D01*
X024655Y009952D01*
X024627Y009924D01*
X024607Y009890D01*
X024597Y009851D01*
X024597Y009722D01*
X025171Y009722D01*
X025171Y009702D01*
X024597Y009702D01*
X024597Y009572D01*
X024607Y009534D01*
X024627Y009500D01*
X024655Y009472D01*
X024685Y009454D01*
X024633Y009402D01*
X024387Y009402D01*
X024387Y009647D01*
X024333Y009701D01*
X024349Y009710D01*
X024377Y009738D01*
X024397Y009772D01*
X024407Y009810D01*
X024407Y010036D01*
X024012Y010036D01*
X024012Y010136D01*
X024407Y010136D01*
X024407Y010361D01*
X024397Y010399D01*
X024377Y010434D01*
X024349Y010462D01*
X024315Y010481D01*
X024277Y010492D01*
X024012Y010492D01*
X024012Y010136D01*
X023912Y010136D01*
X023912Y010492D01*
X023647Y010492D01*
X023608Y010481D01*
X023574Y010462D01*
X023546Y010434D01*
X023527Y010399D01*
X023516Y010361D01*
X023516Y010136D01*
X023911Y010136D01*
X023911Y010036D01*
X023516Y010036D01*
X023516Y009810D01*
X023527Y009772D01*
X023546Y009738D01*
X023574Y009710D01*
X023590Y009701D01*
X023536Y009647D01*
X023536Y009028D01*
X023613Y008952D01*
X024311Y008952D01*
X024381Y009022D01*
X024633Y009022D01*
X024693Y008962D01*
X024967Y008962D01*
X024915Y008910D01*
X024862Y008781D01*
X024862Y008642D01*
X024915Y008513D01*
X025013Y008415D01*
X025070Y008392D01*
X022266Y008392D01*
X022258Y008410D01*
X022160Y008508D01*
X022031Y008562D01*
X021892Y008562D01*
X021763Y008508D01*
X021665Y008410D01*
X021612Y008281D01*
X021612Y008142D01*
X021665Y008013D01*
X021763Y007915D01*
X021892Y007862D01*
X022031Y007862D01*
X022160Y007915D01*
X022258Y008013D01*
X022266Y008032D01*
X023820Y008032D01*
X023763Y008008D01*
X023665Y007910D01*
X023612Y007781D01*
X023612Y007642D01*
X023665Y007513D01*
X023763Y007415D01*
X023820Y007392D01*
X020829Y007392D01*
X020804Y007416D01*
X020804Y007705D01*
X020728Y007782D01*
X020499Y007782D01*
X020499Y008036D01*
X020647Y008036D01*
X020701Y008090D01*
X020710Y008074D01*
X020738Y008046D01*
X020772Y008027D01*
X020810Y008016D01*
X021036Y008016D01*
X021036Y008411D01*
X021136Y008411D01*
X021136Y008016D01*
X021361Y008016D01*
X021399Y008027D01*
X021434Y008046D01*
X021462Y008074D01*
X021481Y008108D01*
X021492Y008147D01*
X021492Y008412D01*
X021136Y008412D01*
X021136Y008512D01*
X021036Y008512D01*
X021036Y008907D01*
X020810Y008907D01*
X020772Y008897D01*
X020738Y008877D01*
X020710Y008849D01*
X020701Y008833D01*
X020647Y008887D01*
X020499Y008887D01*
X020499Y009174D01*
X020893Y009173D01*
X020961Y009105D01*
X021462Y009105D01*
X021538Y009181D01*
X021538Y009212D01*
X021662Y009212D01*
X022412Y009212D01*
X022511Y009212D01*
X022603Y009250D01*
X022853Y009500D01*
X022924Y009570D01*
X022962Y009662D01*
X022962Y014608D01*
X023565Y015212D01*
X040358Y015212D01*
X041000Y014570D01*
X041070Y014500D01*
X041162Y014462D01*
X041478Y014462D01*
X041478Y014462D01*
X041412Y014395D01*
X041412Y014392D01*
X041387Y014392D01*
X041137Y014142D01*
X041032Y014036D01*
X041032Y009811D01*
X041031Y009812D01*
X040892Y009812D01*
X040763Y009758D01*
X040665Y009660D01*
X040612Y009531D01*
X040612Y009392D01*
X040665Y009263D01*
X040763Y009165D01*
X040892Y009112D01*
X041031Y009112D01*
X041160Y009165D01*
X041258Y009263D01*
X041312Y009392D01*
X041312Y009531D01*
X041304Y009550D01*
X041392Y009637D01*
X041392Y009786D01*
X041392Y013887D01*
X041472Y013967D01*
X041478Y013962D01*
X041412Y013895D01*
X041412Y013528D01*
X041478Y013462D01*
X041412Y013395D01*
X041412Y013028D01*
X041478Y012962D01*
X041412Y012895D01*
X041412Y012528D01*
X041478Y012462D01*
X041412Y012395D01*
X041412Y012028D01*
X041478Y011962D01*
X041412Y011895D01*
X041412Y011528D01*
X041478Y011462D01*
X041412Y011395D01*
X041412Y011028D01*
X041478Y010962D01*
X041412Y010895D01*
X041412Y010528D01*
X041478Y010462D01*
X041412Y010395D01*
X041412Y010028D01*
X041478Y009962D01*
X041412Y009895D01*
X041412Y009528D01*
X041478Y009462D01*
X041412Y009395D01*
X041412Y009028D01*
X041478Y008962D01*
X041467Y008951D01*
X041410Y009008D01*
X041281Y009062D01*
X041142Y009062D01*
X041013Y009008D01*
X040915Y008910D01*
X040892Y008854D01*
X040892Y008887D01*
X040892Y009036D01*
X040142Y009786D01*
X040056Y009872D01*
X040160Y009915D01*
X040258Y010013D01*
X040312Y010142D01*
X040312Y010281D01*
X040258Y010410D01*
X040160Y010508D01*
X040031Y010562D01*
X039892Y010562D01*
X039763Y010508D01*
X039665Y010410D01*
X039657Y010392D01*
X039104Y010392D01*
X039160Y010415D01*
X039258Y010513D01*
X039312Y010642D01*
X039312Y010781D01*
X039278Y010862D01*
X039281Y010862D01*
X039410Y010915D01*
X039508Y011013D01*
X039562Y011142D01*
X039562Y011281D01*
X039528Y011362D01*
X039531Y011362D01*
X039660Y011415D01*
X039758Y011513D01*
X039812Y011642D01*
X039812Y011781D01*
X039778Y011862D01*
X039781Y011862D01*
X039910Y011915D01*
X040008Y012013D01*
X040062Y012142D01*
X040062Y012281D01*
X040008Y012410D01*
X039910Y012508D01*
X039781Y012562D01*
X039642Y012562D01*
X039513Y012508D01*
X039415Y012410D01*
X039407Y012392D01*
X038512Y012392D01*
X038512Y012395D01*
X038445Y012462D01*
X038512Y012528D01*
X038512Y012895D01*
X038445Y012962D01*
X038512Y013028D01*
X038512Y013395D01*
X038445Y013462D01*
X038512Y013528D01*
X038512Y013895D01*
X038445Y013962D01*
X038512Y014028D01*
X038512Y014395D01*
X038445Y014462D01*
X038512Y014528D01*
X038512Y014895D01*
X040675Y014895D01*
X040577Y014993D02*
X036538Y014993D01*
X036570Y014962D02*
X036390Y015142D01*
X036034Y015142D01*
X035782Y014890D01*
X035782Y014635D01*
X034500Y013353D01*
X034462Y013261D01*
X034462Y013162D01*
X034462Y012113D01*
X033583Y012845D01*
X033536Y012892D01*
X033527Y012892D01*
X033520Y012898D01*
X033453Y012892D01*
X031957Y012892D01*
X031800Y012957D01*
X031623Y012957D01*
X031469Y012893D01*
X031455Y012892D01*
X031387Y012892D01*
X031381Y012886D01*
X031374Y012885D01*
X031330Y012834D01*
X031282Y012786D01*
X031282Y012778D01*
X029829Y011084D01*
X029782Y011036D01*
X029782Y011028D01*
X029776Y011022D01*
X029782Y010955D01*
X029782Y010814D01*
X029601Y010814D01*
X029525Y010738D01*
X029525Y009685D01*
X029601Y009609D01*
X029810Y009609D01*
X029887Y009532D01*
X030536Y009532D01*
X030536Y009276D01*
X030601Y009212D01*
X030536Y009147D01*
X030536Y008791D01*
X030137Y008392D01*
X025354Y008392D01*
X025410Y008415D01*
X025508Y008513D01*
X025562Y008642D01*
X025562Y008781D01*
X025508Y008910D01*
X025457Y008962D01*
X025670Y008962D01*
X025747Y009038D01*
X025747Y009385D01*
X025678Y009454D01*
X025709Y009472D01*
X025737Y009500D01*
X025756Y009534D01*
X025767Y009572D01*
X025767Y009702D01*
X025192Y009702D01*
X025192Y009722D01*
X025767Y009722D01*
X025767Y009851D01*
X025756Y009890D01*
X025737Y009924D01*
X025709Y009952D01*
X025691Y009962D01*
X025709Y009972D01*
X025737Y010000D01*
X025756Y010034D01*
X025767Y010072D01*
X025767Y010202D01*
X025192Y010202D01*
X025192Y010222D01*
X025172Y010222D01*
X025172Y010482D01*
X025172Y010701D01*
X025192Y010701D01*
X025192Y010482D01*
X025192Y010222D01*
X025767Y010222D01*
X025767Y010351D01*
X025756Y010390D01*
X025737Y010424D01*
X025709Y010452D01*
X025691Y010462D01*
X025709Y010472D01*
X025737Y010500D01*
X025756Y010534D01*
X025767Y010572D01*
X025767Y010702D01*
X025192Y010702D01*
X025192Y010722D01*
X025172Y010722D01*
X025172Y010982D01*
X024727Y010982D01*
X024689Y010971D01*
X024655Y010952D01*
X024597Y010854D02*
X022962Y010854D01*
X022962Y010756D02*
X024597Y010756D01*
X024597Y010657D02*
X022962Y010657D01*
X022962Y010559D02*
X024600Y010559D01*
X024669Y010460D02*
X024350Y010460D01*
X024407Y010362D02*
X024599Y010362D01*
X024597Y010263D02*
X024407Y010263D01*
X024407Y010165D02*
X024597Y010165D01*
X024598Y010066D02*
X024012Y010066D01*
X024012Y010165D02*
X023912Y010165D01*
X023912Y010263D02*
X024012Y010263D01*
X024012Y010362D02*
X023912Y010362D01*
X023912Y010460D02*
X024012Y010460D01*
X023573Y010460D02*
X022962Y010460D01*
X022962Y010362D02*
X023516Y010362D01*
X023516Y010263D02*
X022962Y010263D01*
X022962Y010165D02*
X023516Y010165D01*
X023516Y009967D02*
X022962Y009967D01*
X022962Y009869D02*
X023516Y009869D01*
X023527Y009770D02*
X022962Y009770D01*
X022962Y009672D02*
X023561Y009672D01*
X023536Y009573D02*
X022925Y009573D01*
X022828Y009475D02*
X023536Y009475D01*
X023536Y009376D02*
X022730Y009376D01*
X022631Y009278D02*
X023536Y009278D01*
X023536Y009179D02*
X021536Y009179D01*
X021399Y008897D02*
X021361Y008907D01*
X021136Y008907D01*
X021136Y008512D01*
X021492Y008512D01*
X021492Y008777D01*
X021481Y008815D01*
X021462Y008849D01*
X021434Y008877D01*
X021399Y008897D01*
X021422Y008883D02*
X024904Y008883D01*
X024863Y008785D02*
X021489Y008785D01*
X021492Y008686D02*
X024862Y008686D01*
X024884Y008588D02*
X021492Y008588D01*
X021492Y008391D02*
X021657Y008391D01*
X021616Y008292D02*
X021492Y008292D01*
X021492Y008194D02*
X021612Y008194D01*
X021631Y008095D02*
X021474Y008095D01*
X021682Y007997D02*
X020499Y007997D01*
X020499Y007898D02*
X021804Y007898D01*
X022119Y007898D02*
X023660Y007898D01*
X023619Y007799D02*
X020499Y007799D01*
X020804Y007701D02*
X023612Y007701D01*
X023628Y007602D02*
X020804Y007602D01*
X020804Y007504D02*
X023674Y007504D01*
X023787Y007405D02*
X020815Y007405D01*
X020754Y007212D02*
X020564Y007402D01*
X020754Y007212D02*
X027462Y007212D01*
X027462Y005962D01*
X027695Y006223D02*
X029206Y006223D01*
X029165Y006263D02*
X029263Y006165D01*
X029392Y006112D01*
X029531Y006112D01*
X029660Y006165D01*
X029758Y006263D01*
X029766Y006282D01*
X036907Y006282D01*
X036915Y006263D01*
X037013Y006165D01*
X037142Y006112D01*
X037281Y006112D01*
X037410Y006165D01*
X037508Y006263D01*
X037562Y006392D01*
X037562Y006531D01*
X037508Y006660D01*
X037410Y006758D01*
X037281Y006812D01*
X037142Y006812D01*
X037013Y006758D01*
X036915Y006660D01*
X036907Y006642D01*
X029766Y006642D01*
X029758Y006660D01*
X029660Y006758D01*
X029531Y006812D01*
X029392Y006812D01*
X029263Y006758D01*
X029165Y006660D01*
X029112Y006531D01*
X029112Y006392D01*
X029165Y006263D01*
X029141Y006321D02*
X027642Y006321D01*
X027642Y006420D02*
X029112Y006420D01*
X029112Y006518D02*
X027642Y006518D01*
X027642Y006617D02*
X029147Y006617D01*
X029221Y006716D02*
X027642Y006716D01*
X027642Y006814D02*
X040855Y006814D01*
X040953Y006716D02*
X037453Y006716D01*
X037526Y006617D02*
X041052Y006617D01*
X041212Y006712D02*
X040212Y007712D01*
X040212Y008212D01*
X039462Y008962D01*
X038884Y008785D02*
X038512Y008785D01*
X038512Y008883D02*
X038785Y008883D01*
X038687Y008982D02*
X038466Y008982D01*
X037982Y008712D02*
X037462Y008712D01*
X036462Y007712D01*
X023962Y007712D01*
X024137Y007405D02*
X039163Y007405D01*
X039259Y007504D02*
X024249Y007504D01*
X024266Y007892D02*
X024258Y007910D01*
X024160Y008008D01*
X024104Y008032D01*
X030286Y008032D01*
X030392Y008137D01*
X030706Y008452D01*
X031311Y008452D01*
X031387Y008528D01*
X031387Y009147D01*
X031323Y009212D01*
X031387Y009276D01*
X031387Y009532D01*
X035036Y009532D01*
X035142Y009637D01*
X035142Y009786D01*
X035142Y011396D01*
X035148Y011404D01*
X035142Y011470D01*
X035142Y011536D01*
X035135Y011543D01*
X035134Y011552D01*
X035122Y011563D01*
X035122Y011631D01*
X034962Y011791D01*
X034962Y013108D01*
X036135Y014282D01*
X036390Y014282D01*
X036570Y014462D01*
X037518Y014462D01*
X037452Y014395D01*
X037452Y014028D01*
X037518Y013962D01*
X037452Y013895D01*
X037452Y013528D01*
X037518Y013462D01*
X037452Y013395D01*
X037452Y013028D01*
X037518Y012962D01*
X037452Y012895D01*
X037452Y012528D01*
X037518Y012462D01*
X037452Y012395D01*
X037452Y012028D01*
X037518Y011962D01*
X037452Y011895D01*
X037452Y011528D01*
X037518Y011462D01*
X037452Y011395D01*
X037452Y011028D01*
X037518Y010962D01*
X037452Y010895D01*
X037452Y010528D01*
X037518Y010462D01*
X037452Y010395D01*
X037452Y010028D01*
X037518Y009962D01*
X037452Y009895D01*
X037452Y009528D01*
X037518Y009462D01*
X037452Y009395D01*
X037452Y009028D01*
X037518Y008962D01*
X037452Y008895D01*
X037452Y008892D01*
X037387Y008892D01*
X036387Y007892D01*
X024266Y007892D01*
X024263Y007898D02*
X036394Y007898D01*
X036492Y007997D02*
X024172Y007997D01*
X023752Y007997D02*
X022242Y007997D01*
X021136Y008095D02*
X021036Y008095D01*
X021036Y008194D02*
X021136Y008194D01*
X021136Y008292D02*
X021036Y008292D01*
X021036Y008391D02*
X021136Y008391D01*
X021136Y008489D02*
X021744Y008489D01*
X021962Y008212D02*
X030212Y008212D01*
X030712Y008712D01*
X030962Y008838D01*
X031387Y008883D02*
X035387Y008883D01*
X035387Y008950D02*
X035387Y008762D01*
X035911Y008762D01*
X035911Y008662D01*
X035387Y008662D01*
X035387Y008473D01*
X035723Y008137D01*
X035912Y008137D01*
X035912Y008661D01*
X036012Y008661D01*
X036012Y008137D01*
X036200Y008137D01*
X036537Y008473D01*
X036537Y008662D01*
X036012Y008662D01*
X036012Y008762D01*
X036537Y008762D01*
X036537Y008950D01*
X036200Y009287D01*
X036012Y009287D01*
X036012Y008762D01*
X035912Y008762D01*
X035912Y009287D01*
X035723Y009287D01*
X035387Y008950D01*
X035419Y008982D02*
X031387Y008982D01*
X031387Y009081D02*
X035517Y009081D01*
X035616Y009179D02*
X031355Y009179D01*
X031387Y009278D02*
X035714Y009278D01*
X035912Y009278D02*
X036012Y009278D01*
X036012Y009179D02*
X035912Y009179D01*
X035912Y009081D02*
X036012Y009081D01*
X036012Y008982D02*
X035912Y008982D01*
X035912Y008883D02*
X036012Y008883D01*
X036012Y008785D02*
X035912Y008785D01*
X035911Y008686D02*
X031387Y008686D01*
X031387Y008588D02*
X035387Y008588D01*
X035387Y008489D02*
X031348Y008489D01*
X030645Y008391D02*
X035469Y008391D01*
X035568Y008292D02*
X030547Y008292D01*
X030448Y008194D02*
X035666Y008194D01*
X035912Y008194D02*
X036012Y008194D01*
X036012Y008292D02*
X035912Y008292D01*
X035912Y008391D02*
X036012Y008391D01*
X036012Y008489D02*
X035912Y008489D01*
X035912Y008588D02*
X036012Y008588D01*
X036012Y008686D02*
X037182Y008686D01*
X037083Y008588D02*
X036537Y008588D01*
X036537Y008489D02*
X036985Y008489D01*
X036886Y008391D02*
X036454Y008391D01*
X036355Y008292D02*
X036788Y008292D01*
X036689Y008194D02*
X036257Y008194D01*
X036591Y008095D02*
X030350Y008095D01*
X030235Y008489D02*
X025484Y008489D01*
X025539Y008588D02*
X030333Y008588D01*
X030432Y008686D02*
X025562Y008686D01*
X025560Y008785D02*
X026870Y008785D01*
X026883Y008772D02*
X027883Y008772D01*
X028040Y008772D01*
X028790Y009522D01*
X028902Y009633D01*
X028902Y011383D01*
X028902Y011540D01*
X028086Y012356D01*
X028048Y012447D01*
X027939Y012556D01*
X027848Y012594D01*
X027790Y012652D01*
X026883Y012652D01*
X026772Y012540D01*
X026772Y012383D01*
X026772Y010962D01*
X026753Y010962D01*
X026677Y010885D01*
X026677Y010538D01*
X026753Y010462D01*
X026772Y010462D01*
X026772Y010462D01*
X026753Y010462D01*
X026677Y010385D01*
X026677Y010038D01*
X026753Y009962D01*
X026772Y009962D01*
X026772Y009962D01*
X026753Y009962D01*
X026677Y009885D01*
X026677Y009538D01*
X026753Y009462D01*
X026772Y009462D01*
X026772Y009462D01*
X026753Y009462D01*
X026677Y009385D01*
X026677Y009038D01*
X026753Y008962D01*
X026772Y008962D01*
X026772Y008883D01*
X026883Y008772D01*
X026772Y008883D02*
X025519Y008883D01*
X025691Y008982D02*
X026732Y008982D01*
X026677Y009081D02*
X025747Y009081D01*
X025747Y009179D02*
X026677Y009179D01*
X026677Y009278D02*
X025747Y009278D01*
X025747Y009376D02*
X026677Y009376D01*
X026740Y009475D02*
X025712Y009475D01*
X025767Y009573D02*
X026677Y009573D01*
X026677Y009672D02*
X025767Y009672D01*
X025767Y009770D02*
X026677Y009770D01*
X026677Y009869D02*
X025762Y009869D01*
X025701Y009967D02*
X026747Y009967D01*
X026677Y010066D02*
X025765Y010066D01*
X025767Y010165D02*
X026677Y010165D01*
X026677Y010263D02*
X025767Y010263D01*
X025764Y010362D02*
X026677Y010362D01*
X026751Y010460D02*
X025694Y010460D01*
X025763Y010559D02*
X026677Y010559D01*
X026677Y010657D02*
X025767Y010657D01*
X025767Y010722D02*
X025192Y010722D01*
X025192Y010982D01*
X025636Y010982D01*
X025675Y010971D01*
X025709Y010952D01*
X025737Y010924D01*
X025756Y010890D01*
X025767Y010851D01*
X025767Y010722D01*
X025767Y010756D02*
X026677Y010756D01*
X026677Y010854D02*
X025766Y010854D01*
X025707Y010953D02*
X026744Y010953D01*
X025192Y010953D02*
X025172Y010953D01*
X025172Y010854D02*
X025192Y010854D01*
X025192Y010756D02*
X025172Y010756D01*
X025172Y010657D02*
X025192Y010657D01*
X025192Y010559D02*
X025172Y010559D01*
X025172Y010460D02*
X025192Y010460D01*
X025192Y010362D02*
X025172Y010362D01*
X025172Y010263D02*
X025192Y010263D01*
X025192Y010201D02*
X025192Y009982D01*
X025192Y009722D01*
X025172Y009722D01*
X025172Y009982D01*
X025172Y010201D01*
X025192Y010201D01*
X025192Y010165D02*
X025172Y010165D01*
X025172Y010066D02*
X025192Y010066D01*
X025192Y009967D02*
X025172Y009967D01*
X025172Y009869D02*
X025192Y009869D01*
X025192Y009770D02*
X025172Y009770D01*
X024662Y009967D02*
X024407Y009967D01*
X024407Y009869D02*
X024601Y009869D01*
X024597Y009770D02*
X024396Y009770D01*
X024362Y009672D02*
X024597Y009672D01*
X024597Y009573D02*
X024387Y009573D01*
X024387Y009475D02*
X024651Y009475D01*
X023536Y009081D02*
X020499Y009081D01*
X020499Y008982D02*
X023582Y008982D01*
X024341Y008982D02*
X024672Y008982D01*
X024939Y008489D02*
X022179Y008489D01*
X021136Y008588D02*
X021036Y008588D01*
X021036Y008686D02*
X021136Y008686D01*
X021136Y008785D02*
X021036Y008785D01*
X021036Y008883D02*
X021136Y008883D01*
X020749Y008883D02*
X020651Y008883D01*
X020212Y009212D02*
X020212Y010212D01*
X019712Y010712D01*
X016962Y010712D01*
X016462Y010212D01*
X016462Y008962D01*
X017212Y008962D01*
X017462Y009212D01*
X020212Y009212D01*
X020212Y009278D02*
X016462Y009278D01*
X016462Y009376D02*
X020212Y009376D01*
X020212Y009475D02*
X016462Y009475D01*
X016462Y009573D02*
X020212Y009573D01*
X020212Y009672D02*
X016462Y009672D01*
X016462Y009770D02*
X020212Y009770D01*
X020212Y009869D02*
X016462Y009869D01*
X016462Y009967D02*
X020212Y009967D01*
X020212Y010066D02*
X016462Y010066D01*
X016462Y010165D02*
X020212Y010165D01*
X020160Y010263D02*
X016513Y010263D01*
X016612Y010362D02*
X020062Y010362D01*
X019963Y010460D02*
X016710Y010460D01*
X016809Y010559D02*
X019865Y010559D01*
X019766Y010657D02*
X016907Y010657D01*
X016751Y010756D02*
X013202Y010756D01*
X013202Y010854D02*
X016850Y010854D01*
X016653Y010657D02*
X013197Y010657D01*
X013156Y010559D02*
X016554Y010559D01*
X016456Y010460D02*
X015496Y010460D01*
X015501Y010458D02*
X015466Y010477D01*
X015428Y010488D01*
X015260Y010488D01*
X015260Y009835D01*
X015558Y009835D01*
X015558Y010357D01*
X015548Y010396D01*
X015529Y010430D01*
X015501Y010458D01*
X015557Y010362D02*
X016357Y010362D01*
X016282Y010263D02*
X015558Y010263D01*
X015558Y010165D02*
X016282Y010165D01*
X016282Y010066D02*
X015558Y010066D01*
X015558Y009967D02*
X016282Y009967D01*
X016282Y009869D02*
X015558Y009869D01*
X015260Y009869D02*
X015163Y009869D01*
X015163Y009835D02*
X015163Y010488D01*
X014995Y010488D01*
X014957Y010477D01*
X014923Y010458D01*
X014895Y010430D01*
X014875Y010396D01*
X014865Y010357D01*
X014865Y009835D01*
X015163Y009835D01*
X015163Y009770D02*
X009392Y009770D01*
X009392Y009672D02*
X014865Y009672D01*
X014865Y009573D02*
X009392Y009573D01*
X009392Y009475D02*
X014865Y009475D01*
X014865Y009376D02*
X009392Y009376D01*
X009392Y009278D02*
X014865Y009278D01*
X014875Y009179D02*
X009392Y009179D01*
X009392Y009081D02*
X011784Y009081D01*
X011685Y008982D02*
X009392Y008982D01*
X009392Y008883D02*
X011586Y008883D01*
X011488Y008785D02*
X009392Y008785D01*
X009662Y008686D02*
X009762Y008686D01*
X009762Y008588D02*
X009662Y008588D01*
X009662Y008489D02*
X009762Y008489D01*
X009762Y008391D02*
X009662Y008391D01*
X009762Y008292D02*
X010995Y008292D01*
X010897Y008194D02*
X010157Y008194D01*
X010157Y008095D02*
X010798Y008095D01*
X010700Y007997D02*
X010132Y007997D01*
X010136Y007898D02*
X010601Y007898D01*
X010503Y007799D02*
X010137Y007799D01*
X010899Y007602D02*
X012282Y007602D01*
X012282Y007504D02*
X010801Y007504D01*
X010702Y007405D02*
X011046Y007405D01*
X011036Y007307D02*
X010137Y007307D01*
X010067Y007208D02*
X011036Y007208D01*
X011036Y007110D02*
X009529Y007110D01*
X009562Y007011D02*
X011036Y007011D01*
X011036Y006913D02*
X009562Y006913D01*
X009529Y006814D02*
X011036Y006814D01*
X011078Y006716D02*
X009460Y006716D01*
X009294Y006617D02*
X011017Y006617D01*
X011016Y006518D02*
X000442Y006518D01*
X000442Y006420D02*
X011016Y006420D01*
X011411Y006321D02*
X000442Y006321D01*
X000442Y006223D02*
X011016Y006223D01*
X011016Y006124D02*
X000442Y006124D01*
X000442Y006026D02*
X011026Y006026D01*
X011412Y006026D02*
X011512Y006026D01*
X011512Y006124D02*
X011412Y006124D01*
X011412Y006223D02*
X011512Y006223D01*
X011512Y006321D02*
X012036Y006321D01*
X012036Y006223D02*
X011907Y006223D01*
X011907Y006124D02*
X012036Y006124D01*
X012039Y006026D02*
X011897Y006026D01*
X012885Y006026D02*
X013039Y006026D01*
X013036Y006124D02*
X012887Y006124D01*
X012462Y006338D02*
X012336Y006338D01*
X011712Y006962D01*
X011586Y006962D01*
X011462Y007086D01*
X011887Y007110D02*
X012036Y007110D01*
X012036Y007208D02*
X011887Y007208D01*
X011887Y007307D02*
X012036Y007307D01*
X012046Y007405D02*
X011877Y007405D01*
X012227Y007701D02*
X010998Y007701D01*
X011096Y007799D02*
X012150Y007799D01*
X012112Y007898D02*
X011195Y007898D01*
X011294Y007997D02*
X012112Y007997D01*
X012138Y008095D02*
X011392Y008095D01*
X011491Y008194D02*
X012199Y008194D01*
X012345Y008292D02*
X011589Y008292D01*
X011688Y008391D02*
X015362Y008391D01*
X015362Y008489D02*
X011786Y008489D01*
X011885Y008588D02*
X015385Y008588D01*
X015441Y008686D02*
X011983Y008686D01*
X011389Y008686D02*
X010124Y008686D01*
X010157Y008588D02*
X011291Y008588D01*
X011192Y008489D02*
X010157Y008489D01*
X010157Y008391D02*
X011094Y008391D01*
X012462Y007962D02*
X012462Y007086D01*
X012887Y007110D02*
X013411Y007110D01*
X013412Y007208D02*
X013512Y007208D01*
X013512Y007110D02*
X015661Y007110D01*
X015662Y007011D02*
X015762Y007011D01*
X015762Y006913D02*
X015662Y006913D01*
X015662Y006814D02*
X015762Y006814D01*
X015762Y006716D02*
X015662Y006716D01*
X015320Y006716D02*
X013855Y006716D01*
X013887Y006617D02*
X016612Y006617D01*
X016514Y006518D02*
X013887Y006518D01*
X013462Y006338D02*
X012462Y006338D01*
X012887Y006518D02*
X013036Y006518D01*
X013036Y006617D02*
X012887Y006617D01*
X012826Y006716D02*
X013068Y006716D01*
X013016Y006814D02*
X012887Y006814D01*
X012887Y006913D02*
X013016Y006913D01*
X013016Y007011D02*
X012887Y007011D01*
X012887Y007208D02*
X013016Y007208D01*
X013016Y007307D02*
X012887Y007307D01*
X012877Y007405D02*
X013030Y007405D01*
X013412Y007405D02*
X013512Y007405D01*
X013512Y007307D02*
X013412Y007307D01*
X013893Y007405D02*
X015279Y007405D01*
X015266Y007307D02*
X013907Y007307D01*
X013907Y007208D02*
X015266Y007208D01*
X015266Y007011D02*
X013907Y007011D01*
X013907Y006913D02*
X015266Y006913D01*
X015266Y006814D02*
X013907Y006814D01*
X013462Y006338D02*
X016588Y006338D01*
X017712Y007462D01*
X018299Y007462D01*
X018359Y007402D01*
X018119Y007282D02*
X017786Y007282D01*
X017558Y007054D01*
X018075Y007054D01*
X018152Y006978D01*
X018152Y006663D01*
X018152Y006348D01*
X018152Y006033D01*
X018152Y005734D01*
X018489Y005734D01*
X018513Y005758D01*
X018642Y005812D01*
X018781Y005812D01*
X018910Y005758D01*
X019008Y005660D01*
X019062Y005531D01*
X019062Y005392D01*
X019008Y005263D01*
X018910Y005165D01*
X018781Y005112D01*
X018642Y005112D01*
X018513Y005165D01*
X018415Y005263D01*
X018369Y005374D01*
X018152Y005374D01*
X018152Y005088D01*
X018152Y004773D01*
X018152Y004445D01*
X018075Y004369D01*
X017468Y004369D01*
X017392Y004445D01*
X017392Y004637D01*
X017304Y004550D01*
X017312Y004531D01*
X017312Y004392D01*
X017258Y004263D01*
X017160Y004165D01*
X017031Y004112D01*
X016892Y004112D01*
X016763Y004165D01*
X016665Y004263D01*
X016612Y004392D01*
X016612Y004531D01*
X016665Y004660D01*
X016763Y004758D01*
X016892Y004812D01*
X017031Y004812D01*
X017050Y004804D01*
X017305Y005059D01*
X016814Y005059D01*
X016804Y005050D01*
X016812Y005031D01*
X016812Y004892D01*
X016758Y004763D01*
X016660Y004665D01*
X016531Y004612D01*
X016392Y004612D01*
X016263Y004665D01*
X016165Y004763D01*
X016112Y004892D01*
X016112Y005031D01*
X016165Y005160D01*
X016263Y005258D01*
X016331Y005286D01*
X015776Y005286D01*
X015712Y005351D01*
X015647Y005286D01*
X015518Y005286D01*
X015518Y004910D01*
X016036Y004392D01*
X016387Y004392D01*
X016536Y004392D01*
X017036Y003892D01*
X017041Y003887D01*
X017145Y003887D01*
X017222Y003811D01*
X017222Y003652D01*
X018186Y003652D01*
X018119Y003718D01*
X018119Y004325D01*
X018195Y004402D01*
X018510Y004402D01*
X018804Y004402D01*
X018821Y004411D01*
X018859Y004422D01*
X018984Y004422D01*
X018984Y004027D01*
X018994Y004027D01*
X018994Y004422D01*
X019054Y004422D01*
X019054Y005354D01*
X019092Y005446D01*
X019163Y005516D01*
X019163Y005516D01*
X019750Y006103D01*
X019820Y006174D01*
X019820Y006174D01*
X019999Y006353D01*
X019999Y007022D01*
X019783Y007022D01*
X019489Y007022D01*
X019472Y007012D01*
X019434Y007002D01*
X019309Y007002D01*
X019309Y007396D01*
X019299Y007396D01*
X019299Y007002D01*
X019174Y007002D01*
X019136Y007012D01*
X019119Y007022D01*
X018838Y007022D01*
X018523Y007022D01*
X018195Y007022D01*
X018119Y007098D01*
X018119Y007282D01*
X018119Y007208D02*
X017713Y007208D01*
X017614Y007110D02*
X018119Y007110D01*
X018118Y007011D02*
X019139Y007011D01*
X019299Y007011D02*
X019309Y007011D01*
X019299Y007110D02*
X019309Y007110D01*
X019299Y007208D02*
X019309Y007208D01*
X019299Y007307D02*
X019309Y007307D01*
X019309Y007407D02*
X019299Y007407D01*
X019299Y007802D01*
X019174Y007802D01*
X019136Y007791D01*
X019119Y007782D01*
X018854Y007782D01*
X018854Y007824D01*
X018642Y008036D01*
X018536Y008142D01*
X017536Y008142D01*
X017142Y008536D01*
X017137Y008541D01*
X017137Y008645D01*
X017061Y008722D01*
X016363Y008722D01*
X016286Y008645D01*
X016286Y008541D01*
X016282Y008536D01*
X015967Y008222D01*
X015966Y008222D01*
X016008Y008263D01*
X016062Y008392D01*
X016062Y008531D01*
X016008Y008660D01*
X015917Y008752D01*
X017125Y008752D01*
X017299Y008752D01*
X017495Y008948D01*
X018182Y008948D01*
X018182Y008708D01*
X018537Y008708D01*
X018537Y008609D01*
X018182Y008609D01*
X018182Y008343D01*
X018192Y008305D01*
X018212Y008271D01*
X018240Y008243D01*
X018274Y008223D01*
X018312Y008213D01*
X018538Y008213D01*
X018538Y008608D01*
X018638Y008608D01*
X018638Y008213D01*
X018863Y008213D01*
X018901Y008223D01*
X018936Y008243D01*
X018964Y008271D01*
X018972Y008287D01*
X019026Y008233D01*
X019429Y008233D01*
X019429Y007802D01*
X019309Y007802D01*
X019309Y007407D01*
X019299Y007504D02*
X019309Y007504D01*
X019299Y007602D02*
X019309Y007602D01*
X019299Y007701D02*
X019309Y007701D01*
X019299Y007799D02*
X019309Y007799D01*
X019166Y007799D02*
X018854Y007799D01*
X018780Y007898D02*
X019429Y007898D01*
X019429Y007997D02*
X018681Y007997D01*
X018583Y008095D02*
X019429Y008095D01*
X019429Y008194D02*
X017484Y008194D01*
X017386Y008292D02*
X018199Y008292D01*
X018182Y008391D02*
X017287Y008391D01*
X017189Y008489D02*
X018182Y008489D01*
X018182Y008588D02*
X017137Y008588D01*
X017096Y008686D02*
X018537Y008686D01*
X018538Y008588D02*
X018638Y008588D01*
X018638Y008489D02*
X018538Y008489D01*
X018538Y008391D02*
X018638Y008391D01*
X018638Y008292D02*
X018538Y008292D01*
X018462Y007962D02*
X017462Y007962D01*
X016962Y008462D01*
X016838Y008462D01*
X016712Y008336D01*
X016586Y008462D01*
X016462Y008462D01*
X015836Y007836D01*
X015712Y007836D01*
X015712Y008462D01*
X016038Y008588D02*
X016286Y008588D01*
X016282Y008536D02*
X016282Y008536D01*
X016235Y008489D02*
X016062Y008489D01*
X016061Y008391D02*
X016136Y008391D01*
X016038Y008292D02*
X016020Y008292D01*
X015403Y008292D02*
X012578Y008292D01*
X012725Y008194D02*
X015335Y008194D01*
X015286Y008095D02*
X012785Y008095D01*
X012812Y007997D02*
X015286Y007997D01*
X015286Y007898D02*
X012812Y007898D01*
X012773Y007799D02*
X015286Y007799D01*
X015286Y007701D02*
X012696Y007701D01*
X012642Y007602D02*
X015286Y007602D01*
X015308Y007504D02*
X012642Y007504D01*
X012036Y007011D02*
X011917Y007011D01*
X012015Y006913D02*
X012036Y006913D01*
X011999Y006420D02*
X011907Y006420D01*
X013887Y006124D02*
X015015Y006124D01*
X014952Y006026D02*
X013885Y006026D01*
X014952Y005927D02*
X000442Y005927D01*
X000442Y005829D02*
X014952Y005829D01*
X014952Y005730D02*
X000442Y005730D01*
X000442Y005632D02*
X014952Y005632D01*
X014952Y005533D02*
X000442Y005533D01*
X000442Y005434D02*
X014952Y005434D01*
X014978Y005336D02*
X000442Y005336D01*
X000442Y005237D02*
X015158Y005237D01*
X015158Y005139D02*
X000442Y005139D01*
X000442Y005040D02*
X015158Y005040D01*
X015158Y004942D02*
X000442Y004942D01*
X000442Y004843D02*
X015158Y004843D01*
X015174Y004745D02*
X000442Y004745D01*
X000442Y004646D02*
X015273Y004646D01*
X015371Y004548D02*
X000442Y004548D01*
X000442Y004449D02*
X015470Y004449D01*
X015568Y004350D02*
X000442Y004350D01*
X000442Y004252D02*
X015667Y004252D01*
X015765Y004153D02*
X000442Y004153D01*
X000442Y004055D02*
X015864Y004055D01*
X015962Y004212D02*
X016462Y004212D01*
X016962Y003712D01*
X016962Y003588D01*
X016836Y003462D01*
X017222Y003661D02*
X018176Y003661D01*
X018119Y003759D02*
X017222Y003759D01*
X017175Y003858D02*
X018119Y003858D01*
X018119Y003956D02*
X016971Y003956D01*
X016873Y004055D02*
X018119Y004055D01*
X018119Y004153D02*
X017132Y004153D01*
X017247Y004252D02*
X018119Y004252D01*
X018144Y004350D02*
X017294Y004350D01*
X017312Y004449D02*
X017392Y004449D01*
X017392Y004548D02*
X017305Y004548D01*
X016962Y004462D02*
X017424Y004924D01*
X017772Y004924D01*
X018152Y004942D02*
X019054Y004942D01*
X019054Y005040D02*
X018152Y005040D01*
X018152Y005139D02*
X018576Y005139D01*
X018441Y005237D02*
X018152Y005237D01*
X018152Y005336D02*
X018385Y005336D01*
X018619Y005554D02*
X017772Y005554D01*
X016243Y005554D01*
X015726Y005336D02*
X015697Y005336D01*
X015518Y005237D02*
X016242Y005237D01*
X016156Y005139D02*
X015518Y005139D01*
X015518Y005040D02*
X016115Y005040D01*
X016112Y004942D02*
X015518Y004942D01*
X015585Y004843D02*
X016132Y004843D01*
X016184Y004745D02*
X015683Y004745D01*
X015782Y004646D02*
X016309Y004646D01*
X016614Y004646D02*
X016659Y004646D01*
X016618Y004548D02*
X015880Y004548D01*
X015979Y004449D02*
X016612Y004449D01*
X016629Y004350D02*
X016577Y004350D01*
X016676Y004252D02*
X016676Y004252D01*
X016774Y004153D02*
X016791Y004153D01*
X016462Y003956D02*
X000442Y003956D01*
X000442Y003858D02*
X015720Y003858D01*
X015682Y003759D02*
X000442Y003759D01*
X000442Y003661D02*
X015682Y003661D01*
X015682Y003562D02*
X000442Y003562D01*
X000442Y003464D02*
X016037Y003464D01*
X016038Y003562D02*
X016138Y003562D01*
X016138Y003661D02*
X016038Y003661D01*
X016038Y003759D02*
X016138Y003759D01*
X016138Y003858D02*
X016038Y003858D01*
X016455Y003858D02*
X016497Y003858D01*
X015962Y004212D02*
X015338Y004836D01*
X015338Y005712D01*
X016472Y005829D02*
X017392Y005829D01*
X017392Y005927D02*
X016472Y005927D01*
X016472Y006026D02*
X017392Y006026D01*
X017392Y006124D02*
X016408Y006124D01*
X016727Y006223D02*
X017392Y006223D01*
X017392Y006321D02*
X016826Y006321D01*
X016924Y006420D02*
X017392Y006420D01*
X017392Y006518D02*
X017023Y006518D01*
X017121Y006617D02*
X017392Y006617D01*
X017392Y006716D02*
X017220Y006716D01*
X017319Y006814D02*
X017392Y006814D01*
X017007Y007011D02*
X016157Y007011D01*
X016157Y006913D02*
X016908Y006913D01*
X016810Y006814D02*
X016157Y006814D01*
X016103Y006716D02*
X016711Y006716D01*
X018152Y006716D02*
X019999Y006716D01*
X019999Y006814D02*
X018152Y006814D01*
X018152Y006913D02*
X019999Y006913D01*
X019999Y007011D02*
X019469Y007011D01*
X019999Y006617D02*
X018152Y006617D01*
X018152Y006518D02*
X019999Y006518D01*
X019999Y006420D02*
X018152Y006420D01*
X018152Y006321D02*
X019968Y006321D01*
X019869Y006223D02*
X018152Y006223D01*
X018152Y006124D02*
X019771Y006124D01*
X019672Y006026D02*
X018152Y006026D01*
X018152Y005927D02*
X019574Y005927D01*
X019475Y005829D02*
X018152Y005829D01*
X018938Y005730D02*
X019377Y005730D01*
X019278Y005632D02*
X019020Y005632D01*
X019061Y005533D02*
X019180Y005533D01*
X019088Y005434D02*
X019062Y005434D01*
X019054Y005336D02*
X019038Y005336D01*
X019054Y005237D02*
X018982Y005237D01*
X019054Y005139D02*
X018847Y005139D01*
X019554Y005139D02*
X019656Y005139D01*
X019665Y005160D02*
X019612Y005031D01*
X019612Y004892D01*
X019665Y004763D01*
X019752Y004677D01*
X019752Y004421D01*
X019749Y004422D01*
X019624Y004422D01*
X019624Y004027D01*
X019614Y004027D01*
X019614Y004422D01*
X019554Y004422D01*
X019554Y005201D01*
X019712Y005358D01*
X019712Y005207D01*
X019665Y005160D01*
X019712Y005237D02*
X019591Y005237D01*
X019689Y005336D02*
X019712Y005336D01*
X020212Y005336D02*
X020772Y005336D01*
X020772Y005434D02*
X020212Y005434D01*
X020212Y005533D02*
X020772Y005533D01*
X020772Y005632D02*
X020212Y005632D01*
X020212Y005730D02*
X020772Y005730D01*
X020772Y005829D02*
X020212Y005829D01*
X020281Y005927D02*
X020772Y005927D01*
X020772Y006026D02*
X020379Y006026D01*
X020391Y006037D02*
X020391Y006037D01*
X020468Y006124D02*
X020772Y006124D01*
X020772Y006223D02*
X020499Y006223D01*
X020499Y006321D02*
X020772Y006321D01*
X020772Y006420D02*
X020499Y006420D01*
X020499Y006518D02*
X020772Y006518D01*
X020772Y006617D02*
X020499Y006617D01*
X020499Y006716D02*
X020772Y006716D01*
X020772Y006814D02*
X020499Y006814D01*
X020499Y006913D02*
X020772Y006913D01*
X020805Y007011D02*
X020499Y007011D01*
X021152Y006814D02*
X025859Y006814D01*
X026712Y005962D01*
X027773Y006124D02*
X029362Y006124D01*
X029368Y006026D02*
X037055Y006026D01*
X037112Y006124D02*
X029562Y006124D01*
X029718Y006223D02*
X036956Y006223D01*
X036932Y005927D02*
X029491Y005927D01*
X029055Y006026D02*
X028118Y006026D01*
X028241Y005927D02*
X028932Y005927D01*
X028881Y005829D02*
X028292Y005829D01*
X028312Y005730D02*
X028862Y005730D01*
X028866Y005632D02*
X028307Y005632D01*
X028266Y005533D02*
X028907Y005533D01*
X029212Y005712D02*
X037212Y005712D01*
X037542Y005829D02*
X043340Y005829D01*
X043242Y005927D02*
X037491Y005927D01*
X037368Y006026D02*
X043143Y006026D01*
X043044Y006124D02*
X037312Y006124D01*
X037468Y006223D02*
X042946Y006223D01*
X042847Y006321D02*
X037532Y006321D01*
X037562Y006420D02*
X042749Y006420D01*
X042650Y006518D02*
X037562Y006518D01*
X037212Y006462D02*
X029462Y006462D01*
X029703Y006716D02*
X036971Y006716D01*
X039167Y007011D02*
X027642Y007011D01*
X027642Y006913D02*
X039269Y006913D01*
X039462Y007212D02*
X027462Y007212D01*
X025712Y006212D02*
X025424Y006499D01*
X021152Y006499D01*
X022119Y005869D02*
X022212Y005962D01*
X022119Y005869D02*
X021152Y005869D01*
X021152Y005554D02*
X027804Y005554D01*
X027962Y005712D01*
X030286Y005139D02*
X025017Y005139D01*
X025058Y005040D02*
X030286Y005040D01*
X030286Y004942D02*
X025062Y004942D01*
X025041Y004843D02*
X030286Y004843D01*
X030318Y004745D02*
X026924Y004745D01*
X027014Y004646D02*
X030286Y004646D01*
X030286Y004548D02*
X027055Y004548D01*
X027062Y004449D02*
X030286Y004449D01*
X030286Y004350D02*
X027077Y004350D01*
X027176Y004252D02*
X030286Y004252D01*
X030286Y004153D02*
X027274Y004153D01*
X027373Y004055D02*
X030286Y004055D01*
X030358Y003956D02*
X027471Y003956D01*
X027570Y003858D02*
X045032Y003858D01*
X045032Y003759D02*
X027669Y003759D01*
X027767Y003661D02*
X045032Y003661D01*
X045015Y003562D02*
X028366Y003562D01*
X028464Y003464D02*
X044917Y003464D01*
X044818Y003365D02*
X028563Y003365D01*
X028661Y003266D02*
X044720Y003266D01*
X044621Y003168D02*
X028760Y003168D01*
X028448Y002971D02*
X028339Y002971D01*
X028349Y003069D02*
X028240Y003069D01*
X028251Y003168D02*
X026052Y003168D01*
X025954Y003266D02*
X028152Y003266D01*
X027683Y003069D02*
X027240Y003069D01*
X027339Y002971D02*
X027584Y002971D01*
X027512Y002872D02*
X027412Y002872D01*
X027412Y002774D02*
X027512Y002774D01*
X027512Y002675D02*
X027412Y002675D01*
X027412Y002577D02*
X027512Y002577D01*
X027559Y002478D02*
X027364Y002478D01*
X028364Y002478D02*
X028512Y002478D01*
X028512Y002577D02*
X028412Y002577D01*
X028412Y002675D02*
X028512Y002675D01*
X028512Y002774D02*
X028412Y002774D01*
X028412Y002872D02*
X028512Y002872D01*
X028962Y002712D02*
X028212Y003462D01*
X027712Y003462D01*
X026712Y004462D01*
X026362Y004449D02*
X024771Y004449D01*
X024673Y004548D02*
X026368Y004548D01*
X026409Y004646D02*
X024864Y004646D01*
X024990Y004745D02*
X026500Y004745D01*
X026379Y004350D02*
X024870Y004350D01*
X024968Y004252D02*
X026426Y004252D01*
X026541Y004153D02*
X025067Y004153D01*
X025165Y004055D02*
X026864Y004055D01*
X026962Y003956D02*
X025264Y003956D01*
X025362Y003858D02*
X027061Y003858D01*
X027160Y003759D02*
X025461Y003759D01*
X025560Y003661D02*
X027258Y003661D01*
X027357Y003562D02*
X025658Y003562D01*
X025757Y003464D02*
X027455Y003464D01*
X027554Y003365D02*
X025855Y003365D01*
X025458Y003168D02*
X020744Y003168D01*
X020744Y003266D02*
X025360Y003266D01*
X025261Y003365D02*
X020744Y003365D01*
X020744Y003464D02*
X025163Y003464D01*
X025064Y003562D02*
X020744Y003562D01*
X020747Y003661D02*
X024966Y003661D01*
X024867Y003759D02*
X020804Y003759D01*
X020804Y003858D02*
X024769Y003858D01*
X024670Y003956D02*
X020804Y003956D01*
X020804Y004055D02*
X024571Y004055D01*
X024473Y004153D02*
X022382Y004153D01*
X022041Y004153D02*
X020804Y004153D01*
X020804Y004252D02*
X021926Y004252D01*
X021879Y004350D02*
X020779Y004350D01*
X020772Y004449D02*
X020172Y004449D01*
X020172Y004548D02*
X020772Y004548D01*
X020772Y004646D02*
X020172Y004646D01*
X020240Y004745D02*
X020772Y004745D01*
X020772Y004843D02*
X020291Y004843D01*
X020312Y004942D02*
X020772Y004942D01*
X020772Y005040D02*
X020308Y005040D01*
X020267Y005139D02*
X020772Y005139D01*
X020772Y005237D02*
X020212Y005237D01*
X019615Y005040D02*
X019554Y005040D01*
X019554Y004942D02*
X019612Y004942D01*
X019632Y004843D02*
X019554Y004843D01*
X019554Y004745D02*
X019684Y004745D01*
X019752Y004646D02*
X019554Y004646D01*
X019554Y004548D02*
X019752Y004548D01*
X019752Y004449D02*
X019554Y004449D01*
X019614Y004350D02*
X019624Y004350D01*
X019614Y004252D02*
X019624Y004252D01*
X019614Y004153D02*
X019624Y004153D01*
X019614Y004055D02*
X019624Y004055D01*
X019614Y003956D02*
X019624Y003956D01*
X019614Y003858D02*
X019624Y003858D01*
X019614Y003759D02*
X019624Y003759D01*
X019614Y003661D02*
X019624Y003661D01*
X019494Y003562D02*
X020032Y003562D01*
X020032Y003464D02*
X019482Y003464D01*
X019384Y003365D02*
X020032Y003365D01*
X020032Y003266D02*
X017222Y003266D01*
X017222Y003168D02*
X020032Y003168D01*
X020032Y003069D02*
X017178Y003069D01*
X016493Y003069D02*
X016459Y003069D01*
X016138Y003069D02*
X016038Y003069D01*
X016038Y003168D02*
X016138Y003168D01*
X016138Y003266D02*
X016038Y003266D01*
X016038Y003365D02*
X016138Y003365D01*
X015682Y003365D02*
X000442Y003365D01*
X000442Y003266D02*
X001208Y003266D01*
X001344Y003320D02*
X001344Y003320D01*
X000956Y003168D02*
X000442Y003168D01*
X000442Y003069D02*
X000797Y003069D01*
X000887Y003141D02*
X000887Y003141D01*
X000674Y002971D02*
X000442Y002971D01*
X000442Y002872D02*
X000550Y002872D01*
X000461Y002774D02*
X000442Y002774D01*
X002231Y003266D02*
X004594Y003266D01*
X004582Y003254D02*
X004582Y002947D01*
X004582Y002823D01*
X004822Y002583D01*
X004823Y002582D01*
X004947Y002582D01*
X004947Y002582D01*
X005035Y002669D01*
X005035Y002670D01*
X005042Y002677D01*
X005042Y002669D01*
X005130Y002582D01*
X005254Y002582D01*
X005342Y002669D01*
X005342Y002812D01*
X005408Y002812D01*
X005495Y002900D01*
X005495Y003024D01*
X005477Y003042D01*
X005502Y003042D01*
X005502Y002794D01*
X005502Y002669D01*
X005590Y002582D01*
X005820Y002582D01*
X005945Y002582D01*
X005999Y002636D01*
X006021Y002658D01*
X006021Y002658D01*
X006055Y002692D01*
X006109Y002746D01*
X006109Y002746D01*
X006109Y003053D01*
X006109Y003177D01*
X006032Y003254D01*
X005945Y003342D01*
X005590Y003342D01*
X005576Y003327D01*
X005561Y003342D01*
X005130Y003342D01*
X005115Y003327D01*
X005101Y003342D01*
X004976Y003342D01*
X004889Y003254D01*
X004889Y002947D01*
X004885Y002944D01*
X004882Y002947D01*
X004882Y003254D01*
X004794Y003342D01*
X004669Y003342D01*
X004582Y003254D01*
X004582Y003168D02*
X002452Y003168D01*
X002314Y003248D02*
X002314Y003248D01*
X002623Y003069D02*
X004582Y003069D01*
X004582Y002971D02*
X002769Y002971D01*
X002740Y003002D02*
X002740Y003002D01*
X002860Y002872D02*
X004582Y002872D01*
X004631Y002774D02*
X002952Y002774D01*
X003043Y002675D02*
X004729Y002675D01*
X004669Y002592D02*
X004582Y002504D01*
X004582Y002351D01*
X004582Y002226D01*
X004582Y002044D01*
X004582Y001919D01*
X004669Y001832D01*
X004736Y001832D01*
X004663Y001759D01*
X004658Y001754D01*
X004636Y001731D01*
X004582Y001677D01*
X004582Y001553D01*
X004582Y001246D01*
X004669Y001158D01*
X004670Y001158D02*
X004746Y001082D01*
X004870Y001082D01*
X005024Y001082D01*
X005080Y001137D01*
X005101Y001158D01*
X005133Y001191D01*
X005189Y001246D01*
X005189Y001312D01*
X005272Y001312D01*
X005272Y001169D01*
X005360Y001082D01*
X005484Y001082D01*
X005572Y001169D01*
X005572Y001323D01*
X005576Y001326D01*
X005590Y001312D01*
X005981Y001312D01*
X005963Y001294D01*
X005963Y001169D01*
X006051Y001082D01*
X006175Y001082D01*
X006482Y001082D01*
X006535Y001135D01*
X006588Y001082D01*
X006712Y001082D01*
X006865Y001082D01*
X006918Y001135D01*
X006971Y001082D01*
X007402Y001082D01*
X007455Y001135D01*
X007508Y001082D01*
X007786Y001082D01*
X007842Y001137D01*
X007863Y001158D01*
X007895Y001191D01*
X007951Y001246D01*
X007951Y001370D01*
X007951Y001677D01*
X007863Y001765D01*
X007797Y001831D01*
X007797Y001832D01*
X007939Y001832D01*
X007995Y001887D01*
X008067Y001887D01*
X008045Y001908D02*
X008122Y001832D01*
X008246Y001832D01*
X008400Y001832D01*
X008488Y001919D01*
X008488Y001996D01*
X008564Y002073D01*
X008564Y002197D01*
X008564Y002274D01*
X008477Y002362D01*
X008400Y002439D01*
X008276Y002439D01*
X008122Y002439D01*
X008068Y002384D01*
X008034Y002351D01*
X008031Y002347D01*
X008016Y002362D01*
X007939Y002439D01*
X007815Y002439D01*
X007585Y002439D01*
X007567Y002420D01*
X007567Y002581D01*
X007561Y002587D01*
X007644Y002669D01*
X007644Y002889D01*
X007651Y002889D01*
X007651Y002669D01*
X007739Y002582D01*
X007863Y002582D01*
X007951Y002669D01*
X007951Y002676D01*
X007969Y002658D01*
X008045Y002582D01*
X008170Y002582D01*
X008184Y002596D01*
X008199Y002582D01*
X008323Y002582D01*
X008411Y002669D01*
X008411Y002823D01*
X008477Y002889D01*
X008495Y002889D01*
X008495Y002870D01*
X008495Y002746D01*
X008659Y002582D01*
X008783Y002582D01*
X008813Y002582D01*
X008937Y002582D01*
X008990Y002635D01*
X009033Y002592D01*
X008966Y002592D01*
X008880Y002505D01*
X008878Y002504D01*
X008878Y002380D01*
X008878Y001919D01*
X008966Y001832D01*
X009090Y001832D01*
X009178Y001919D01*
X009178Y002139D01*
X009185Y002139D01*
X009185Y001919D01*
X009273Y001832D01*
X009397Y001832D01*
X009450Y001885D01*
X009503Y001832D01*
X009627Y001832D01*
X009858Y001832D01*
X009872Y001846D01*
X009887Y001832D01*
X010165Y001832D01*
X010179Y001846D01*
X010194Y001832D01*
X010318Y001832D01*
X010333Y001846D01*
X010347Y001832D01*
X010471Y001832D01*
X010486Y001846D01*
X010501Y001832D01*
X010625Y001832D01*
X010678Y001885D01*
X010731Y001832D01*
X010855Y001832D01*
X010884Y001832D01*
X011008Y001832D01*
X011009Y001832D02*
X011061Y001885D01*
X011114Y001832D01*
X011239Y001832D01*
X011327Y001919D01*
X011327Y002139D01*
X011333Y002139D01*
X011333Y001919D01*
X011421Y001832D01*
X011546Y001832D01*
X011633Y001919D01*
X011633Y002274D01*
X011546Y002362D01*
X011469Y002439D01*
X011345Y002439D01*
X011114Y002439D01*
X011061Y002386D01*
X011009Y002439D01*
X010855Y002439D01*
X010731Y002439D01*
X010675Y002383D01*
X010643Y002351D01*
X010643Y002351D01*
X010639Y002347D01*
X010625Y002362D01*
X010548Y002439D01*
X010424Y002439D01*
X010409Y002424D01*
X010395Y002439D01*
X010270Y002439D01*
X010194Y002439D01*
X010176Y002420D01*
X010176Y002581D01*
X010175Y002582D01*
X010241Y002582D01*
X010329Y002669D01*
X010329Y002823D01*
X010395Y002889D01*
X010471Y002889D01*
X010559Y002976D01*
X010559Y003101D01*
X010471Y003189D01*
X010270Y003189D01*
X010256Y003174D01*
X010241Y003189D01*
X010117Y003189D01*
X010064Y003136D01*
X010011Y003189D01*
X009887Y003189D01*
X009733Y003189D01*
X009679Y003134D01*
X009645Y003101D01*
X009645Y003101D01*
X009639Y003094D01*
X009639Y003254D01*
X009551Y003342D01*
X009426Y003342D01*
X009350Y003342D01*
X009297Y003289D01*
X009244Y003342D01*
X009120Y003342D01*
X009043Y003342D01*
X008955Y003254D01*
X008955Y003170D01*
X008937Y003189D01*
X008783Y003189D01*
X008659Y003189D01*
X008606Y003136D01*
X008553Y003189D01*
X008352Y003189D01*
X008338Y003174D01*
X008323Y003189D01*
X008199Y003189D01*
X008184Y003174D01*
X008170Y003189D01*
X008093Y003265D01*
X007969Y003265D01*
X007881Y003177D01*
X007839Y003136D01*
X007786Y003189D01*
X007662Y003189D01*
X007432Y003189D01*
X007379Y003136D01*
X007326Y003189D01*
X007172Y003189D01*
X007048Y003189D01*
X006995Y003136D01*
X006942Y003189D01*
X006712Y003189D01*
X006588Y003189D01*
X006532Y003133D01*
X006500Y003101D01*
X006479Y003080D01*
X006423Y003024D01*
X006423Y002870D01*
X006423Y002746D01*
X006500Y002669D01*
X006588Y002582D01*
X006942Y002582D01*
X006995Y002635D01*
X007038Y002592D01*
X006971Y002592D01*
X006883Y002504D01*
X006883Y002420D01*
X006865Y002439D01*
X006741Y002439D01*
X006588Y002439D01*
X006588Y002439D01*
X006570Y002420D01*
X006570Y002504D01*
X006482Y002592D01*
X006051Y002592D01*
X005963Y002504D01*
X005963Y002380D01*
X005963Y002274D01*
X005963Y002150D01*
X005963Y001919D01*
X006051Y001832D01*
X006117Y001832D01*
X006072Y001786D01*
X006039Y001754D01*
X005963Y001677D01*
X005963Y001612D01*
X005590Y001612D01*
X005576Y001597D01*
X005572Y001601D01*
X005572Y001630D01*
X005572Y001754D01*
X005571Y001755D01*
X005566Y001760D01*
X005572Y001766D01*
X005649Y001843D01*
X005649Y001967D01*
X005649Y002351D01*
X005561Y002439D01*
X005437Y002439D01*
X005349Y002351D01*
X005349Y002132D01*
X005342Y002132D01*
X005342Y002351D01*
X005254Y002439D01*
X005130Y002439D01*
X005077Y002386D01*
X005024Y002439D01*
X004882Y002439D01*
X004882Y002504D01*
X004794Y002592D01*
X004669Y002592D01*
X004654Y002577D02*
X003106Y002577D01*
X003153Y002478D02*
X004582Y002478D01*
X004582Y002380D02*
X003201Y002380D01*
X003248Y002281D02*
X004582Y002281D01*
X004582Y002183D02*
X003291Y002183D01*
X003288Y002198D02*
X003288Y002198D01*
X003306Y002084D02*
X004582Y002084D01*
X004582Y001985D02*
X003320Y001985D01*
X003335Y001887D02*
X004614Y001887D01*
X004693Y001788D02*
X003350Y001788D01*
X003358Y001690D02*
X004594Y001690D01*
X004582Y001677D02*
X004582Y001677D01*
X004582Y001591D02*
X003343Y001591D01*
X003329Y001493D02*
X004582Y001493D01*
X004582Y001394D02*
X003314Y001394D01*
X003299Y001296D02*
X004582Y001296D01*
X004631Y001197D02*
X003275Y001197D01*
X003227Y001099D02*
X004729Y001099D01*
X004670Y001158D02*
X004669Y001158D01*
X005041Y001099D02*
X005343Y001099D01*
X005272Y001197D02*
X005139Y001197D01*
X005101Y001158D02*
X005101Y001158D01*
X005189Y001296D02*
X005272Y001296D01*
X005572Y001296D02*
X005965Y001296D01*
X005963Y001197D02*
X005572Y001197D01*
X005501Y001099D02*
X006034Y001099D01*
X006499Y001099D02*
X006571Y001099D01*
X006882Y001099D02*
X006954Y001099D01*
X007419Y001099D02*
X007491Y001099D01*
X007803Y001099D02*
X044693Y001099D01*
X044663Y001197D02*
X007902Y001197D01*
X007863Y001158D02*
X007863Y001158D01*
X007951Y001296D02*
X026713Y001296D01*
X026614Y001394D02*
X007951Y001394D01*
X007951Y001493D02*
X026516Y001493D01*
X026492Y001591D02*
X007951Y001591D01*
X007938Y001690D02*
X026911Y001690D01*
X026912Y001591D02*
X027012Y001591D01*
X027012Y001493D02*
X026912Y001493D01*
X026912Y001394D02*
X027012Y001394D01*
X027012Y001296D02*
X026912Y001296D01*
X027210Y001296D02*
X027741Y001296D01*
X027643Y001394D02*
X027309Y001394D01*
X027407Y001493D02*
X027544Y001493D01*
X027512Y001591D02*
X027432Y001591D01*
X027512Y001690D02*
X027012Y001690D01*
X027432Y001788D02*
X027512Y001788D01*
X027512Y001887D02*
X027432Y001887D01*
X027352Y001985D02*
X027599Y001985D01*
X028324Y001985D02*
X028391Y001985D01*
X028412Y001887D02*
X028489Y001887D01*
X028512Y001788D02*
X028412Y001788D01*
X028412Y001690D02*
X028512Y001690D01*
X028512Y001591D02*
X028412Y001591D01*
X028379Y001493D02*
X028544Y001493D01*
X028643Y001394D02*
X028281Y001394D01*
X028182Y001296D02*
X028741Y001296D01*
X029182Y001296D02*
X044633Y001296D01*
X044602Y001394D02*
X029281Y001394D01*
X029379Y001493D02*
X044580Y001493D01*
X044580Y001591D02*
X043638Y001591D01*
X043737Y001690D02*
X044580Y001690D01*
X044580Y001788D02*
X043835Y001788D01*
X043934Y001887D02*
X044580Y001887D01*
X044589Y001985D02*
X044032Y001985D01*
X044131Y002084D02*
X044619Y002084D01*
X044649Y002183D02*
X044229Y002183D01*
X044328Y002281D02*
X044680Y002281D01*
X044710Y002380D02*
X044427Y002380D01*
X044525Y002478D02*
X044760Y002478D01*
X044827Y002577D02*
X044624Y002577D01*
X044722Y002675D02*
X044894Y002675D01*
X044961Y002774D02*
X044821Y002774D01*
X044919Y002872D02*
X045050Y002872D01*
X045018Y002971D02*
X045174Y002971D01*
X045116Y003069D02*
X045297Y003069D01*
X045387Y003141D02*
X045387Y003141D01*
X045456Y003168D02*
X045215Y003168D01*
X045313Y003266D02*
X045708Y003266D01*
X045723Y003365D02*
X046200Y003365D01*
X046102Y003464D02*
X045822Y003464D01*
X045892Y003562D02*
X046032Y003562D01*
X046032Y003661D02*
X045892Y003661D01*
X045892Y003759D02*
X046032Y003759D01*
X046032Y003858D02*
X045892Y003858D01*
X045825Y003956D02*
X046098Y003956D01*
X046197Y004055D02*
X045726Y004055D01*
X045197Y004055D02*
X032578Y004055D01*
X032578Y004153D02*
X046649Y004153D01*
X046747Y004252D02*
X032578Y004252D01*
X032578Y004350D02*
X045215Y004350D01*
X045116Y004449D02*
X032578Y004449D01*
X032578Y004548D02*
X044621Y004548D01*
X044523Y004646D02*
X032520Y004646D01*
X032489Y004745D02*
X044424Y004745D01*
X044326Y004843D02*
X032591Y004843D01*
X032588Y004831D02*
X032598Y004869D01*
X032598Y005075D01*
X032262Y005075D01*
X032262Y005175D01*
X032598Y005175D01*
X032598Y005381D01*
X032588Y005419D01*
X032568Y005453D01*
X032540Y005481D01*
X032506Y005501D01*
X032468Y005511D01*
X032262Y005511D01*
X032262Y005175D01*
X032162Y005175D01*
X032162Y005511D01*
X031956Y005511D01*
X031918Y005501D01*
X031883Y005481D01*
X031855Y005453D01*
X031836Y005419D01*
X031825Y005381D01*
X031825Y005175D01*
X032161Y005175D01*
X032161Y005075D01*
X031825Y005075D01*
X031825Y004869D01*
X031836Y004831D01*
X031855Y004797D01*
X031883Y004769D01*
X031918Y004749D01*
X031956Y004739D01*
X032162Y004739D01*
X032162Y005075D01*
X032262Y005075D01*
X032262Y004739D01*
X032468Y004739D01*
X032506Y004749D01*
X032540Y004769D01*
X032568Y004797D01*
X032588Y004831D01*
X032598Y004942D02*
X044227Y004942D01*
X044128Y005040D02*
X032598Y005040D01*
X032598Y005237D02*
X043931Y005237D01*
X043833Y005336D02*
X032598Y005336D01*
X032579Y005434D02*
X036994Y005434D01*
X037429Y005434D02*
X043734Y005434D01*
X043636Y005533D02*
X037516Y005533D01*
X037557Y005632D02*
X043537Y005632D01*
X043439Y005730D02*
X037562Y005730D01*
X041212Y006712D02*
X042712Y006712D01*
X044712Y004712D01*
X045462Y004712D01*
X045892Y004745D02*
X046032Y004745D01*
X046032Y004843D02*
X045892Y004843D01*
X045840Y004942D02*
X045977Y004942D01*
X045962Y005212D02*
X044712Y005212D01*
X042962Y006962D01*
X041462Y006962D01*
X040462Y007962D01*
X040462Y008712D01*
X039962Y009212D01*
X040453Y009475D02*
X040612Y009475D01*
X040618Y009376D02*
X040552Y009376D01*
X040650Y009278D02*
X040659Y009278D01*
X040749Y009179D02*
X040749Y009179D01*
X040847Y009081D02*
X041412Y009081D01*
X041412Y009179D02*
X041174Y009179D01*
X041264Y009278D02*
X041412Y009278D01*
X041412Y009376D02*
X041305Y009376D01*
X041312Y009475D02*
X041465Y009475D01*
X041412Y009573D02*
X041328Y009573D01*
X041392Y009672D02*
X041412Y009672D01*
X041412Y009770D02*
X041392Y009770D01*
X041392Y009869D02*
X041412Y009869D01*
X041392Y009967D02*
X041472Y009967D01*
X041412Y010066D02*
X041392Y010066D01*
X041392Y010165D02*
X041412Y010165D01*
X041412Y010263D02*
X041392Y010263D01*
X041392Y010362D02*
X041412Y010362D01*
X041392Y010460D02*
X041476Y010460D01*
X041412Y010559D02*
X041392Y010559D01*
X041392Y010657D02*
X041412Y010657D01*
X041412Y010756D02*
X041392Y010756D01*
X041392Y010854D02*
X041412Y010854D01*
X041392Y010953D02*
X041469Y010953D01*
X041412Y011051D02*
X041392Y011051D01*
X041392Y011150D02*
X041412Y011150D01*
X041412Y011249D02*
X041392Y011249D01*
X041392Y011347D02*
X041412Y011347D01*
X041392Y011446D02*
X041462Y011446D01*
X041412Y011544D02*
X041392Y011544D01*
X041392Y011643D02*
X041412Y011643D01*
X041412Y011741D02*
X041392Y011741D01*
X041392Y011840D02*
X041412Y011840D01*
X041392Y011938D02*
X041455Y011938D01*
X041412Y012037D02*
X041392Y012037D01*
X041392Y012135D02*
X041412Y012135D01*
X041412Y012234D02*
X041392Y012234D01*
X041392Y012332D02*
X041412Y012332D01*
X041392Y012431D02*
X041447Y012431D01*
X041412Y012530D02*
X041392Y012530D01*
X041392Y012628D02*
X041412Y012628D01*
X041412Y012727D02*
X041392Y012727D01*
X041392Y012825D02*
X041412Y012825D01*
X041392Y012924D02*
X041440Y012924D01*
X041417Y013022D02*
X041392Y013022D01*
X041392Y013121D02*
X041412Y013121D01*
X041412Y013219D02*
X041392Y013219D01*
X041392Y013318D02*
X041412Y013318D01*
X041392Y013416D02*
X041433Y013416D01*
X041424Y013515D02*
X041392Y013515D01*
X041392Y013614D02*
X041412Y013614D01*
X041412Y013712D02*
X041392Y013712D01*
X041392Y013811D02*
X041412Y013811D01*
X041414Y013909D02*
X041425Y013909D01*
X041212Y013962D02*
X041212Y009712D01*
X040962Y009462D01*
X040629Y009573D02*
X040355Y009573D01*
X040256Y009672D02*
X040677Y009672D01*
X040792Y009770D02*
X040157Y009770D01*
X040059Y009869D02*
X041032Y009869D01*
X041032Y009967D02*
X040212Y009967D01*
X040280Y010066D02*
X041032Y010066D01*
X041032Y010165D02*
X040312Y010165D01*
X040312Y010263D02*
X041032Y010263D01*
X041032Y010362D02*
X040278Y010362D01*
X040208Y010460D02*
X041032Y010460D01*
X041032Y010559D02*
X040038Y010559D01*
X039885Y010559D02*
X039277Y010559D01*
X039312Y010657D02*
X041032Y010657D01*
X041032Y010756D02*
X039312Y010756D01*
X039281Y010854D02*
X041032Y010854D01*
X041032Y010953D02*
X039448Y010953D01*
X039524Y011051D02*
X041032Y011051D01*
X041032Y011150D02*
X039562Y011150D01*
X039562Y011249D02*
X041032Y011249D01*
X041032Y011347D02*
X039534Y011347D01*
X039691Y011446D02*
X041032Y011446D01*
X041032Y011544D02*
X039771Y011544D01*
X039812Y011643D02*
X041032Y011643D01*
X041032Y011741D02*
X039812Y011741D01*
X039787Y011840D02*
X041032Y011840D01*
X041032Y011938D02*
X039933Y011938D01*
X040018Y012037D02*
X041032Y012037D01*
X041032Y012135D02*
X040059Y012135D01*
X040062Y012234D02*
X041032Y012234D01*
X041032Y012332D02*
X040040Y012332D01*
X039987Y012431D02*
X041032Y012431D01*
X041032Y012530D02*
X039859Y012530D01*
X039565Y012530D02*
X038512Y012530D01*
X038512Y012628D02*
X041032Y012628D01*
X041032Y012727D02*
X038512Y012727D01*
X038512Y012825D02*
X041032Y012825D01*
X041032Y012924D02*
X038483Y012924D01*
X038506Y013022D02*
X041032Y013022D01*
X041032Y013121D02*
X038512Y013121D01*
X038512Y013219D02*
X041032Y013219D01*
X041032Y013318D02*
X038512Y013318D01*
X038491Y013416D02*
X041032Y013416D01*
X041032Y013515D02*
X038499Y013515D01*
X038512Y013614D02*
X041032Y013614D01*
X041032Y013712D02*
X038512Y013712D01*
X038512Y013811D02*
X041032Y013811D01*
X041032Y013909D02*
X038498Y013909D01*
X038491Y014008D02*
X041032Y014008D01*
X041102Y014106D02*
X038512Y014106D01*
X038512Y014205D02*
X041200Y014205D01*
X041299Y014303D02*
X038512Y014303D01*
X038505Y014402D02*
X041418Y014402D01*
X041462Y014212D02*
X041212Y013962D01*
X041462Y014212D02*
X041942Y014212D01*
X042405Y013962D02*
X042472Y014028D01*
X042513Y014008D02*
X042436Y013931D01*
X042405Y013962D01*
X042472Y014106D02*
X044691Y014106D01*
X044721Y014008D02*
X042911Y014008D01*
X043009Y013909D02*
X044784Y013909D01*
X044851Y013811D02*
X043049Y013811D01*
X043062Y013712D02*
X044918Y013712D01*
X044986Y013614D02*
X043050Y013614D01*
X043009Y013515D02*
X045095Y013515D01*
X045002Y013589D02*
X045002Y013589D01*
X045002Y013589D01*
X045219Y013416D02*
X042911Y013416D01*
X042712Y013712D02*
X041942Y013712D01*
X041942Y013212D02*
X044962Y013212D01*
X045462Y012712D01*
X045892Y012727D02*
X046032Y012727D01*
X046032Y012825D02*
X045892Y012825D01*
X045858Y012924D02*
X046066Y012924D01*
X046164Y013022D02*
X045759Y013022D01*
X045799Y013121D02*
X045661Y013121D01*
X045548Y013219D02*
X045208Y013219D01*
X045110Y013318D02*
X045342Y013318D01*
X045387Y013283D02*
X045387Y013283D01*
X046661Y013121D02*
X047712Y013121D01*
X047712Y013219D02*
X046890Y013219D01*
X047061Y013318D02*
X047712Y013318D01*
X047712Y013416D02*
X047231Y013416D01*
X047327Y013515D02*
X047712Y013515D01*
X047712Y013614D02*
X047418Y013614D01*
X047510Y013712D02*
X047712Y013712D01*
X047712Y013811D02*
X047589Y013811D01*
X047636Y013909D02*
X047712Y013909D01*
X047712Y014008D02*
X047684Y014008D01*
X044661Y014205D02*
X042472Y014205D01*
X042472Y014303D02*
X042761Y014303D01*
X042702Y014402D02*
X042465Y014402D01*
X042444Y014500D02*
X042702Y014500D01*
X043414Y014303D02*
X043481Y014303D01*
X043786Y014303D02*
X043886Y014303D01*
X043886Y014402D02*
X043786Y014402D01*
X043786Y014500D02*
X043886Y014500D01*
X043886Y014599D02*
X043786Y014599D01*
X043886Y014698D02*
X044580Y014698D01*
X044580Y014796D02*
X044242Y014796D01*
X044242Y014762D02*
X043886Y014762D01*
X043886Y015157D01*
X044111Y015157D01*
X044149Y015147D01*
X044184Y015127D01*
X044212Y015099D01*
X044231Y015065D01*
X044242Y015027D01*
X044242Y014762D01*
X044242Y014895D02*
X044580Y014895D01*
X044591Y014993D02*
X044242Y014993D01*
X044216Y015092D02*
X044621Y015092D01*
X044652Y015190D02*
X041087Y015190D01*
X041185Y015092D02*
X042733Y015092D01*
X042702Y014993D02*
X041284Y014993D01*
X040774Y014796D02*
X038512Y014796D01*
X038512Y014698D02*
X040872Y014698D01*
X040971Y014599D02*
X038512Y014599D01*
X038484Y014500D02*
X041069Y014500D01*
X040478Y015092D02*
X036440Y015092D01*
X036570Y014962D02*
X037518Y014962D01*
X037528Y014972D01*
X038435Y014972D01*
X038512Y014895D01*
X037458Y014402D02*
X036510Y014402D01*
X036411Y014303D02*
X037452Y014303D01*
X037452Y014205D02*
X036058Y014205D01*
X035960Y014106D02*
X037452Y014106D01*
X037472Y014008D02*
X035861Y014008D01*
X035763Y013909D02*
X037465Y013909D01*
X037452Y013811D02*
X035664Y013811D01*
X035566Y013712D02*
X037452Y013712D01*
X037452Y013614D02*
X035467Y013614D01*
X035369Y013515D02*
X037464Y013515D01*
X037473Y013416D02*
X035270Y013416D01*
X035171Y013318D02*
X037452Y013318D01*
X037452Y013219D02*
X035073Y013219D01*
X034974Y013121D02*
X037452Y013121D01*
X037457Y013022D02*
X034962Y013022D01*
X034962Y012924D02*
X037480Y012924D01*
X037452Y012825D02*
X034962Y012825D01*
X034962Y012727D02*
X037452Y012727D01*
X037452Y012628D02*
X034962Y012628D01*
X034962Y012530D02*
X037452Y012530D01*
X037487Y012431D02*
X034962Y012431D01*
X034962Y012332D02*
X037452Y012332D01*
X037452Y012234D02*
X034962Y012234D01*
X034962Y012135D02*
X035999Y012135D01*
X036025Y012162D02*
X035762Y011898D01*
X035762Y011752D01*
X036171Y011752D01*
X036171Y011672D01*
X035762Y011672D01*
X035762Y011525D01*
X036025Y011262D01*
X036172Y011262D01*
X036172Y011671D01*
X036252Y011671D01*
X036252Y011262D01*
X036398Y011262D01*
X036662Y011525D01*
X036662Y011672D01*
X036252Y011672D01*
X036252Y011752D01*
X036172Y011752D01*
X036172Y012162D01*
X036025Y012162D01*
X036172Y012135D02*
X036252Y012135D01*
X036252Y012162D02*
X036252Y011752D01*
X036662Y011752D01*
X036662Y011898D01*
X036398Y012162D01*
X036252Y012162D01*
X036252Y012037D02*
X036172Y012037D01*
X036172Y011938D02*
X036252Y011938D01*
X036252Y011840D02*
X036172Y011840D01*
X036171Y011741D02*
X035012Y011741D01*
X034962Y011840D02*
X035762Y011840D01*
X035802Y011938D02*
X034962Y011938D01*
X034962Y012037D02*
X035900Y012037D01*
X036424Y012135D02*
X037452Y012135D01*
X037452Y012037D02*
X036523Y012037D01*
X036621Y011938D02*
X037494Y011938D01*
X037452Y011840D02*
X036662Y011840D01*
X036252Y011741D02*
X037452Y011741D01*
X037452Y011643D02*
X036662Y011643D01*
X036662Y011544D02*
X037452Y011544D01*
X037502Y011446D02*
X036582Y011446D01*
X036483Y011347D02*
X037452Y011347D01*
X037452Y011249D02*
X035142Y011249D01*
X035142Y011347D02*
X035940Y011347D01*
X035841Y011446D02*
X035144Y011446D01*
X035135Y011544D02*
X035762Y011544D01*
X035762Y011643D02*
X035110Y011643D01*
X034962Y011462D02*
X034962Y009712D01*
X029962Y009712D01*
X029962Y010962D01*
X031462Y012712D01*
X033462Y012712D01*
X034962Y011462D01*
X034962Y011446D02*
X030376Y011446D01*
X030461Y011544D02*
X034863Y011544D01*
X034744Y011643D02*
X030545Y011643D01*
X030630Y011741D02*
X034626Y011741D01*
X034508Y011840D02*
X030714Y011840D01*
X030799Y011938D02*
X034390Y011938D01*
X034271Y012037D02*
X030883Y012037D01*
X030968Y012135D02*
X034153Y012135D01*
X034035Y012234D02*
X031052Y012234D01*
X031137Y012332D02*
X033917Y012332D01*
X033798Y012431D02*
X031221Y012431D01*
X031306Y012530D02*
X033680Y012530D01*
X033562Y012628D02*
X031390Y012628D01*
X031237Y012727D02*
X024177Y012727D01*
X024177Y012732D02*
X023742Y012732D01*
X023742Y012792D01*
X023682Y012792D01*
X023682Y013227D01*
X023519Y013227D01*
X023247Y012954D01*
X023247Y012792D01*
X023681Y012792D01*
X023681Y012732D01*
X023247Y012732D01*
X023247Y012569D01*
X023519Y012297D01*
X023682Y012297D01*
X023682Y012731D01*
X023742Y012731D01*
X023742Y012297D01*
X023904Y012297D01*
X024177Y012569D01*
X024177Y012732D01*
X024177Y012792D02*
X024177Y012954D01*
X023904Y013227D01*
X023742Y013227D01*
X023742Y012792D01*
X024177Y012792D01*
X024177Y012825D02*
X031321Y012825D01*
X031544Y012924D02*
X024177Y012924D01*
X024109Y013022D02*
X034462Y013022D01*
X034462Y012924D02*
X031879Y012924D01*
X031153Y012628D02*
X027814Y012628D01*
X027966Y012530D02*
X031069Y012530D01*
X030984Y012431D02*
X028055Y012431D01*
X028109Y012332D02*
X030900Y012332D01*
X030815Y012234D02*
X028208Y012234D01*
X028307Y012135D02*
X030731Y012135D01*
X030646Y012037D02*
X028405Y012037D01*
X028504Y011938D02*
X030562Y011938D01*
X030477Y011840D02*
X028602Y011840D01*
X028701Y011741D02*
X030393Y011741D01*
X030308Y011643D02*
X028799Y011643D01*
X028898Y011544D02*
X030224Y011544D01*
X030139Y011446D02*
X028902Y011446D01*
X028902Y011347D02*
X030055Y011347D01*
X029970Y011249D02*
X028902Y011249D01*
X028902Y011150D02*
X029886Y011150D01*
X029797Y011051D02*
X028902Y011051D01*
X028902Y010953D02*
X029782Y010953D01*
X029782Y010854D02*
X028902Y010854D01*
X028902Y010756D02*
X029542Y010756D01*
X029525Y010657D02*
X028902Y010657D01*
X028902Y010559D02*
X029525Y010559D01*
X029525Y010460D02*
X028902Y010460D01*
X028902Y010362D02*
X029525Y010362D01*
X029525Y010263D02*
X028902Y010263D01*
X028902Y010165D02*
X029525Y010165D01*
X029525Y010066D02*
X028902Y010066D01*
X028902Y009967D02*
X029525Y009967D01*
X029525Y009869D02*
X028902Y009869D01*
X028902Y009770D02*
X029525Y009770D01*
X029538Y009672D02*
X028902Y009672D01*
X028842Y009573D02*
X029845Y009573D01*
X029962Y009770D02*
X034962Y009770D01*
X034962Y009869D02*
X029962Y009869D01*
X029962Y009967D02*
X034962Y009967D01*
X034962Y010066D02*
X029962Y010066D01*
X029962Y010165D02*
X034962Y010165D01*
X034962Y010263D02*
X029962Y010263D01*
X029962Y010362D02*
X034962Y010362D01*
X034962Y010460D02*
X029962Y010460D01*
X029962Y010559D02*
X034962Y010559D01*
X034962Y010657D02*
X029962Y010657D01*
X029962Y010756D02*
X034962Y010756D01*
X034962Y010854D02*
X029962Y010854D01*
X029962Y010953D02*
X034962Y010953D01*
X034962Y011051D02*
X030039Y011051D01*
X030123Y011150D02*
X034962Y011150D01*
X034962Y011249D02*
X030208Y011249D01*
X030292Y011347D02*
X034962Y011347D01*
X035142Y011150D02*
X037452Y011150D01*
X037452Y011051D02*
X035142Y011051D01*
X035142Y010953D02*
X037509Y010953D01*
X037452Y010854D02*
X035142Y010854D01*
X035142Y010756D02*
X037452Y010756D01*
X037452Y010657D02*
X035142Y010657D01*
X035142Y010559D02*
X037452Y010559D01*
X037516Y010460D02*
X035142Y010460D01*
X035142Y010362D02*
X037452Y010362D01*
X037452Y010263D02*
X035142Y010263D01*
X035142Y010165D02*
X037452Y010165D01*
X037452Y010066D02*
X035142Y010066D01*
X035142Y009967D02*
X037512Y009967D01*
X037452Y009869D02*
X035142Y009869D01*
X035142Y009770D02*
X037452Y009770D01*
X037452Y009672D02*
X035142Y009672D01*
X035078Y009573D02*
X037452Y009573D01*
X037505Y009475D02*
X031387Y009475D01*
X031387Y009376D02*
X037452Y009376D01*
X037452Y009278D02*
X036209Y009278D01*
X036307Y009179D02*
X037452Y009179D01*
X037452Y009081D02*
X036406Y009081D01*
X036504Y008982D02*
X037497Y008982D01*
X037379Y008883D02*
X036537Y008883D01*
X036537Y008785D02*
X037280Y008785D01*
X037395Y008391D02*
X037440Y008391D01*
X037432Y008292D02*
X037297Y008292D01*
X037198Y008194D02*
X037432Y008194D01*
X037432Y008095D02*
X037100Y008095D01*
X037001Y007997D02*
X037458Y007997D01*
X037967Y007997D02*
X037997Y007997D01*
X037997Y008095D02*
X037967Y008095D01*
X037967Y008194D02*
X037997Y008194D01*
X038532Y008194D02*
X039475Y008194D01*
X039377Y008292D02*
X038532Y008292D01*
X038524Y008391D02*
X039278Y008391D01*
X039179Y008489D02*
X038473Y008489D01*
X038512Y008588D02*
X039081Y008588D01*
X038982Y008686D02*
X038512Y008686D01*
X038532Y008095D02*
X039574Y008095D01*
X039672Y007997D02*
X038506Y007997D01*
X038712Y009212D02*
X039962Y007962D01*
X039962Y007462D01*
X040212Y007212D01*
X039862Y007208D02*
X039812Y007208D01*
X039798Y007110D02*
X039875Y007110D01*
X039917Y007011D02*
X039756Y007011D01*
X039654Y006913D02*
X040019Y006913D01*
X040404Y006913D02*
X040756Y006913D01*
X040658Y007011D02*
X040506Y007011D01*
X040548Y007110D02*
X040559Y007110D01*
X039862Y007307D02*
X039801Y007307D01*
X039782Y007405D02*
X039760Y007405D01*
X039782Y007504D02*
X039664Y007504D01*
X039782Y007602D02*
X036607Y007602D01*
X036705Y007701D02*
X039782Y007701D01*
X039782Y007799D02*
X036804Y007799D01*
X036903Y007898D02*
X039771Y007898D01*
X040712Y008212D02*
X040712Y008962D01*
X039962Y009712D01*
X037982Y009712D01*
X037982Y010212D02*
X039962Y010212D01*
X039715Y010460D02*
X039205Y010460D01*
X038962Y010712D02*
X037982Y010712D01*
X037982Y011212D02*
X039212Y011212D01*
X039462Y011712D02*
X037982Y011712D01*
X037982Y012212D02*
X039712Y012212D01*
X039436Y012431D02*
X038476Y012431D01*
X036252Y011643D02*
X036172Y011643D01*
X036172Y011544D02*
X036252Y011544D01*
X036252Y011446D02*
X036172Y011446D01*
X036172Y011347D02*
X036252Y011347D01*
X034462Y012135D02*
X034434Y012135D01*
X034462Y012234D02*
X034316Y012234D01*
X034198Y012332D02*
X034462Y012332D01*
X034462Y012431D02*
X034080Y012431D01*
X033961Y012530D02*
X034462Y012530D01*
X034462Y012628D02*
X033843Y012628D01*
X033725Y012727D02*
X034462Y012727D01*
X034462Y012825D02*
X033607Y012825D01*
X034462Y013121D02*
X024010Y013121D01*
X023911Y013219D02*
X034462Y013219D01*
X034485Y013318D02*
X022962Y013318D01*
X022962Y013416D02*
X034563Y013416D01*
X034661Y013515D02*
X031973Y013515D01*
X031904Y013447D02*
X032177Y013719D01*
X032177Y013882D01*
X031742Y013882D01*
X031742Y013942D01*
X031682Y013942D01*
X031682Y014377D01*
X031519Y014377D01*
X031247Y014104D01*
X031247Y013942D01*
X031681Y013942D01*
X031681Y013882D01*
X031247Y013882D01*
X031247Y013719D01*
X031519Y013447D01*
X031682Y013447D01*
X031682Y013881D01*
X031742Y013881D01*
X031742Y013447D01*
X031904Y013447D01*
X031742Y013515D02*
X031682Y013515D01*
X031682Y013614D02*
X031742Y013614D01*
X031742Y013712D02*
X031682Y013712D01*
X031682Y013811D02*
X031742Y013811D01*
X031742Y013909D02*
X035056Y013909D01*
X035154Y014008D02*
X032177Y014008D01*
X032177Y013942D02*
X032177Y014104D01*
X031904Y014377D01*
X031742Y014377D01*
X031742Y013942D01*
X032177Y013942D01*
X032177Y013811D02*
X034957Y013811D01*
X034859Y013712D02*
X032170Y013712D01*
X032071Y013614D02*
X034760Y013614D01*
X034742Y014032D02*
X034890Y014032D01*
X035142Y014284D01*
X035142Y014432D01*
X034742Y014432D01*
X034742Y014492D01*
X034682Y014492D01*
X034682Y014892D01*
X034534Y014892D01*
X034282Y014640D01*
X034282Y014492D01*
X034681Y014492D01*
X034681Y014432D01*
X034282Y014432D01*
X034282Y014284D01*
X034534Y014032D01*
X034682Y014032D01*
X034682Y014431D01*
X034742Y014431D01*
X034742Y014032D01*
X034742Y014106D02*
X034682Y014106D01*
X034682Y014205D02*
X034742Y014205D01*
X034742Y014303D02*
X034682Y014303D01*
X034682Y014402D02*
X034742Y014402D01*
X034742Y014492D02*
X035142Y014492D01*
X035142Y014640D01*
X034890Y014892D01*
X034742Y014892D01*
X034742Y014492D01*
X034742Y014500D02*
X034682Y014500D01*
X034682Y014599D02*
X034742Y014599D01*
X034742Y014698D02*
X034682Y014698D01*
X034682Y014796D02*
X034742Y014796D01*
X034985Y014796D02*
X035782Y014796D01*
X035782Y014698D02*
X035084Y014698D01*
X035142Y014599D02*
X035745Y014599D01*
X035647Y014500D02*
X035142Y014500D01*
X035142Y014402D02*
X035548Y014402D01*
X035450Y014303D02*
X035142Y014303D01*
X035063Y014205D02*
X035351Y014205D01*
X035253Y014106D02*
X034964Y014106D01*
X034459Y014106D02*
X032175Y014106D01*
X032076Y014205D02*
X034360Y014205D01*
X034282Y014303D02*
X031977Y014303D01*
X031742Y014303D02*
X031682Y014303D01*
X031682Y014205D02*
X031742Y014205D01*
X031742Y014106D02*
X031682Y014106D01*
X031682Y014008D02*
X031742Y014008D01*
X031681Y013909D02*
X027981Y013909D01*
X027939Y013867D02*
X028048Y013976D01*
X028107Y014119D01*
X028107Y014273D01*
X028048Y014416D01*
X027939Y014525D01*
X027797Y014584D01*
X027127Y014584D01*
X026984Y014525D01*
X026875Y014416D01*
X026816Y014273D01*
X026816Y014119D01*
X026875Y013976D01*
X026984Y013867D01*
X027127Y013808D01*
X027797Y013808D01*
X027939Y013867D01*
X027803Y013811D02*
X031247Y013811D01*
X031254Y013712D02*
X022962Y013712D01*
X022962Y013614D02*
X031352Y013614D01*
X031451Y013515D02*
X022962Y013515D01*
X023334Y013910D02*
X023460Y013784D01*
X023623Y013717D01*
X023800Y013717D01*
X023964Y013784D01*
X024089Y013910D01*
X024157Y014073D01*
X024157Y014250D01*
X024089Y014414D01*
X023964Y014539D01*
X023800Y014607D01*
X023623Y014607D01*
X023460Y014539D01*
X023334Y014414D01*
X023267Y014250D01*
X023267Y014073D01*
X023334Y013910D01*
X023335Y013909D02*
X022962Y013909D01*
X022962Y013811D02*
X023433Y013811D01*
X023294Y014008D02*
X022962Y014008D01*
X022962Y014106D02*
X023267Y014106D01*
X023267Y014205D02*
X022962Y014205D01*
X022962Y014303D02*
X023289Y014303D01*
X023330Y014402D02*
X022962Y014402D01*
X022962Y014500D02*
X023421Y014500D01*
X023605Y014599D02*
X022962Y014599D01*
X023051Y014698D02*
X034339Y014698D01*
X034282Y014599D02*
X023819Y014599D01*
X024002Y014500D02*
X026960Y014500D01*
X026869Y014402D02*
X024094Y014402D01*
X024135Y014303D02*
X026829Y014303D01*
X026816Y014205D02*
X024157Y014205D01*
X024157Y014106D02*
X026821Y014106D01*
X026862Y014008D02*
X024129Y014008D01*
X024088Y013909D02*
X026942Y013909D01*
X027121Y013811D02*
X023990Y013811D01*
X023742Y013219D02*
X023682Y013219D01*
X023682Y013121D02*
X023742Y013121D01*
X023742Y013022D02*
X023682Y013022D01*
X023682Y012924D02*
X023742Y012924D01*
X023742Y012825D02*
X023682Y012825D01*
X023682Y012727D02*
X023742Y012727D01*
X023742Y012628D02*
X023682Y012628D01*
X023682Y012530D02*
X023742Y012530D01*
X023742Y012431D02*
X023682Y012431D01*
X023682Y012332D02*
X023742Y012332D01*
X023940Y012332D02*
X026772Y012332D01*
X026772Y012234D02*
X022962Y012234D01*
X022962Y012332D02*
X023483Y012332D01*
X023385Y012431D02*
X022962Y012431D01*
X022962Y012530D02*
X023286Y012530D01*
X023247Y012628D02*
X022962Y012628D01*
X022962Y012727D02*
X023247Y012727D01*
X023247Y012825D02*
X022962Y012825D01*
X022962Y012924D02*
X023247Y012924D01*
X023315Y013022D02*
X022962Y013022D01*
X022962Y013121D02*
X023413Y013121D01*
X023512Y013219D02*
X022962Y013219D01*
X024177Y012628D02*
X026859Y012628D01*
X026772Y012530D02*
X024137Y012530D01*
X024039Y012431D02*
X026772Y012431D01*
X026772Y012135D02*
X022962Y012135D01*
X022962Y012037D02*
X026772Y012037D01*
X026772Y011938D02*
X022962Y011938D01*
X022962Y011840D02*
X026772Y011840D01*
X026772Y011741D02*
X022962Y011741D01*
X022962Y011643D02*
X026772Y011643D01*
X022462Y010854D02*
X019823Y010854D01*
X019922Y010756D02*
X022462Y010756D01*
X022462Y010657D02*
X020021Y010657D01*
X020119Y010559D02*
X022462Y010559D01*
X022462Y010460D02*
X021470Y010460D01*
X021538Y010362D02*
X022462Y010362D01*
X022462Y010263D02*
X021538Y010263D01*
X021538Y010165D02*
X022462Y010165D01*
X022462Y010066D02*
X021538Y010066D01*
X021538Y009967D02*
X022462Y009967D01*
X022462Y009869D02*
X021538Y009869D01*
X021538Y009770D02*
X022417Y009770D01*
X022962Y010066D02*
X023911Y010066D01*
X020954Y010460D02*
X020218Y010460D01*
X020316Y010362D02*
X020885Y010362D01*
X020885Y010263D02*
X020392Y010263D01*
X020392Y010165D02*
X020885Y010165D01*
X020885Y010066D02*
X020392Y010066D01*
X020392Y009967D02*
X020885Y009967D01*
X020885Y009869D02*
X020392Y009869D01*
X020392Y009770D02*
X020885Y009770D01*
X018182Y008883D02*
X017430Y008883D01*
X017332Y008785D02*
X018182Y008785D01*
X017429Y009179D02*
X016462Y009179D01*
X016462Y009081D02*
X017331Y009081D01*
X017232Y008982D02*
X016462Y008982D01*
X016282Y009179D02*
X015549Y009179D01*
X015558Y009278D02*
X016282Y009278D01*
X016282Y009376D02*
X015558Y009376D01*
X015558Y009475D02*
X016282Y009475D01*
X016282Y009573D02*
X015558Y009573D01*
X015558Y009672D02*
X016282Y009672D01*
X016282Y009770D02*
X015260Y009770D01*
X015260Y009967D02*
X015163Y009967D01*
X015163Y010066D02*
X015260Y010066D01*
X015260Y010165D02*
X015163Y010165D01*
X015163Y010263D02*
X015260Y010263D01*
X015260Y010362D02*
X015163Y010362D01*
X015163Y010460D02*
X015260Y010460D01*
X014927Y010460D02*
X013113Y010460D01*
X013015Y010362D02*
X014866Y010362D01*
X014865Y010263D02*
X012856Y010263D01*
X011568Y010263D02*
X009392Y010263D01*
X009392Y010165D02*
X014865Y010165D01*
X014865Y010066D02*
X009392Y010066D01*
X009392Y009967D02*
X014865Y009967D01*
X014865Y009869D02*
X009392Y009869D01*
X009032Y009869D02*
X008814Y009869D01*
X008814Y009967D02*
X009032Y009967D01*
X009032Y010066D02*
X008814Y010066D01*
X008814Y010165D02*
X009032Y010165D01*
X009032Y010263D02*
X008809Y010263D01*
X009032Y010362D02*
X006902Y010362D01*
X006902Y010460D02*
X009032Y010460D01*
X009032Y010559D02*
X006902Y010559D01*
X006902Y010657D02*
X009032Y010657D01*
X009032Y010756D02*
X006902Y010756D01*
X007213Y010854D02*
X007460Y010854D01*
X007452Y010953D02*
X007222Y010953D01*
X006522Y010791D02*
X006522Y009790D01*
X006023Y009291D01*
X005980Y009291D01*
X005980Y009357D01*
X005535Y009357D01*
X005535Y009357D01*
X005980Y009357D01*
X005980Y009456D01*
X005969Y009494D01*
X005960Y009511D01*
X005960Y009679D01*
X006040Y009679D01*
X006198Y009679D01*
X006290Y009772D01*
X006402Y009883D01*
X006402Y010133D01*
X006402Y010290D01*
X006152Y010540D01*
X006040Y010652D01*
X005540Y010652D01*
X005402Y010790D01*
X005402Y011383D01*
X005902Y011883D01*
X005902Y011637D01*
X005778Y011637D01*
X005702Y011561D01*
X005702Y010863D01*
X005778Y010786D01*
X006397Y010786D01*
X006462Y010851D01*
X006522Y010791D01*
X006522Y010756D02*
X005436Y010756D01*
X005402Y010854D02*
X005710Y010854D01*
X005702Y010953D02*
X005402Y010953D01*
X005402Y011051D02*
X005702Y011051D01*
X005702Y011150D02*
X005402Y011150D01*
X005402Y011249D02*
X005702Y011249D01*
X005702Y011347D02*
X005402Y011347D01*
X005464Y011446D02*
X005702Y011446D01*
X005702Y011544D02*
X005563Y011544D01*
X005661Y011643D02*
X005902Y011643D01*
X005902Y011741D02*
X005760Y011741D01*
X005858Y011840D02*
X005902Y011840D01*
X006282Y011840D02*
X009032Y011840D01*
X009032Y011938D02*
X006282Y011938D01*
X006282Y012037D02*
X009032Y012037D01*
X009032Y012135D02*
X006282Y012135D01*
X006282Y012234D02*
X009032Y012234D01*
X009032Y012332D02*
X006299Y012332D01*
X006320Y012431D02*
X009032Y012431D01*
X009032Y012530D02*
X007690Y012530D01*
X007718Y012557D02*
X007718Y013610D01*
X007641Y013686D01*
X006746Y013686D01*
X006670Y013610D01*
X006670Y012557D01*
X006746Y012481D01*
X007641Y012481D01*
X007718Y012557D01*
X007718Y012628D02*
X009032Y012628D01*
X008942Y012727D02*
X007718Y012727D01*
X007718Y012825D02*
X008844Y012825D01*
X008745Y012924D02*
X007718Y012924D01*
X007718Y013022D02*
X008646Y013022D01*
X008548Y013121D02*
X007718Y013121D01*
X007718Y013219D02*
X008449Y013219D01*
X008351Y013318D02*
X007718Y013318D01*
X007718Y013416D02*
X008282Y013416D01*
X008282Y013515D02*
X007718Y013515D01*
X007714Y013614D02*
X008282Y013614D01*
X008282Y013712D02*
X003010Y013712D01*
X003089Y013811D02*
X004390Y013811D01*
X004410Y013791D02*
X004530Y013741D01*
X004661Y013741D01*
X004781Y013791D01*
X004873Y013883D01*
X004923Y014003D01*
X004923Y014133D01*
X004873Y014253D01*
X004781Y014345D01*
X004661Y014395D01*
X004530Y014395D01*
X004410Y014345D01*
X004318Y014253D01*
X004268Y014133D01*
X004268Y014003D01*
X004318Y013883D01*
X004410Y013791D01*
X004307Y013909D02*
X003136Y013909D01*
X003184Y014008D02*
X004268Y014008D01*
X004268Y014106D02*
X003231Y014106D01*
X003278Y014205D02*
X004298Y014205D01*
X004368Y014303D02*
X003300Y014303D01*
X003315Y014402D02*
X007991Y014402D01*
X007979Y014303D02*
X006555Y014303D01*
X006513Y014345D02*
X006393Y014395D01*
X006263Y014395D01*
X006142Y014345D01*
X006050Y014253D01*
X006001Y014133D01*
X006001Y014003D01*
X006050Y013883D01*
X006142Y013791D01*
X006263Y013741D01*
X006393Y013741D01*
X006513Y013791D01*
X006605Y013883D01*
X006655Y014003D01*
X006655Y014133D01*
X006605Y014253D01*
X006513Y014345D01*
X006625Y014205D02*
X007979Y014205D01*
X007979Y014106D02*
X006655Y014106D01*
X006655Y014008D02*
X008004Y014008D01*
X008103Y013909D02*
X006616Y013909D01*
X006533Y013811D02*
X008201Y013811D01*
X008462Y014159D02*
X008409Y014212D01*
X008462Y014159D02*
X008462Y013462D01*
X009212Y012712D01*
X009212Y008212D01*
X008822Y007822D01*
X008389Y007822D01*
X007964Y007799D02*
X007421Y007799D01*
X007322Y007898D02*
X007964Y007898D01*
X007964Y007997D02*
X007224Y007997D01*
X007125Y008095D02*
X007964Y008095D01*
X007956Y008194D02*
X007027Y008194D01*
X006928Y008292D02*
X007944Y008292D01*
X007944Y008391D02*
X006829Y008391D01*
X006731Y008489D02*
X007964Y008489D01*
X007964Y008588D02*
X006632Y008588D01*
X006534Y008686D02*
X007964Y008686D01*
X007964Y008785D02*
X006435Y008785D01*
X006337Y008883D02*
X007964Y008883D01*
X007964Y008982D02*
X006251Y008982D01*
X006349Y009081D02*
X007964Y009081D01*
X007964Y009179D02*
X006448Y009179D01*
X006546Y009278D02*
X007964Y009278D01*
X007964Y009376D02*
X006645Y009376D01*
X006743Y009475D02*
X007964Y009475D01*
X007964Y009573D02*
X006842Y009573D01*
X006902Y009672D02*
X007964Y009672D01*
X007964Y009770D02*
X006902Y009770D01*
X006902Y009869D02*
X007964Y009869D01*
X007964Y009967D02*
X006902Y009967D01*
X006902Y010066D02*
X007964Y010066D01*
X007964Y010165D02*
X006902Y010165D01*
X006902Y010263D02*
X007969Y010263D01*
X006522Y010263D02*
X006402Y010263D01*
X006402Y010165D02*
X006522Y010165D01*
X006522Y010066D02*
X006402Y010066D01*
X006402Y009967D02*
X006522Y009967D01*
X006522Y009869D02*
X006388Y009869D01*
X006289Y009770D02*
X006502Y009770D01*
X006403Y009672D02*
X005960Y009672D01*
X005960Y009573D02*
X006305Y009573D01*
X006206Y009475D02*
X005975Y009475D01*
X005980Y009376D02*
X006107Y009376D01*
X005534Y009357D02*
X005089Y009357D01*
X005534Y009357D01*
X005534Y009357D01*
X005089Y009376D02*
X004887Y009376D01*
X004887Y009278D02*
X005089Y009278D01*
X005109Y009179D02*
X000442Y009179D01*
X000442Y009081D02*
X005109Y009081D01*
X004567Y008982D02*
X000442Y008982D01*
X000442Y008883D02*
X004038Y008883D01*
X004038Y008785D02*
X000442Y008785D01*
X000442Y008686D02*
X004038Y008686D01*
X004038Y008588D02*
X000442Y008588D01*
X000442Y008489D02*
X004038Y008489D01*
X004038Y008391D02*
X000442Y008391D01*
X000442Y008292D02*
X004038Y008292D01*
X004060Y008194D02*
X000442Y008194D01*
X000442Y008095D02*
X004018Y008095D01*
X004018Y007997D02*
X000442Y007997D01*
X000442Y007898D02*
X004018Y007898D01*
X004413Y007799D02*
X000442Y007799D01*
X000442Y007701D02*
X004018Y007701D01*
X004018Y007602D02*
X000442Y007602D01*
X000442Y007504D02*
X004038Y007504D01*
X004414Y007504D02*
X004514Y007504D01*
X004514Y007428D02*
X004779Y007428D01*
X004817Y007438D01*
X004851Y007458D01*
X004879Y007486D01*
X004899Y007520D01*
X004909Y007558D01*
X004909Y007784D01*
X004514Y007784D01*
X004514Y007428D01*
X004514Y007602D02*
X004414Y007602D01*
X004414Y007701D02*
X004514Y007701D01*
X004514Y007799D02*
X005109Y007799D01*
X005099Y007701D02*
X004909Y007701D01*
X004909Y007602D02*
X005089Y007602D01*
X005089Y007504D02*
X004889Y007504D01*
X005109Y007405D02*
X000442Y007405D01*
X000442Y007307D02*
X005109Y007307D01*
X005109Y007208D02*
X000442Y007208D01*
X000442Y007110D02*
X005109Y007110D01*
X005109Y007011D02*
X000442Y007011D01*
X000442Y006913D02*
X005109Y006913D01*
X005109Y006814D02*
X000442Y006814D01*
X000442Y006716D02*
X005109Y006716D01*
X005158Y006617D02*
X000442Y006617D01*
X004909Y007898D02*
X005109Y007898D01*
X005109Y007997D02*
X004909Y007997D01*
X004909Y008095D02*
X005109Y008095D01*
X005109Y008194D02*
X004867Y008194D01*
X004889Y008292D02*
X005109Y008292D01*
X005109Y008391D02*
X004889Y008391D01*
X004889Y008489D02*
X005090Y008489D01*
X005089Y008588D02*
X004889Y008588D01*
X005960Y008391D02*
X006236Y008391D01*
X006334Y008292D02*
X005960Y008292D01*
X005960Y008194D02*
X006433Y008194D01*
X006531Y008095D02*
X005960Y008095D01*
X005960Y007997D02*
X006630Y007997D01*
X006728Y007898D02*
X005960Y007898D01*
X005960Y007799D02*
X006827Y007799D01*
X006925Y007701D02*
X005970Y007701D01*
X005980Y007602D02*
X007024Y007602D01*
X007122Y007504D02*
X005980Y007504D01*
X005980Y007566D02*
X005535Y007566D01*
X005980Y007566D01*
X005960Y007405D02*
X007221Y007405D01*
X007964Y007307D02*
X005960Y007307D01*
X005960Y007208D02*
X007964Y007208D01*
X007964Y007110D02*
X005960Y007110D01*
X005960Y007011D02*
X007964Y007011D01*
X007964Y006913D02*
X005960Y006913D01*
X005960Y006814D02*
X007964Y006814D01*
X007964Y006716D02*
X005960Y006716D01*
X005911Y006617D02*
X008012Y006617D01*
X008389Y006798D02*
X009048Y006798D01*
X009212Y006962D01*
X009129Y006617D02*
X008765Y006617D01*
X005535Y007566D02*
X005535Y007566D01*
X005979Y008489D02*
X006137Y008489D01*
X006038Y008588D02*
X005980Y008588D01*
X004037Y009278D02*
X000442Y009278D01*
X000442Y009376D02*
X004036Y009376D01*
X004036Y009475D02*
X000442Y009475D01*
X000442Y009573D02*
X004036Y009573D01*
X004036Y009672D02*
X000442Y009672D01*
X000442Y009770D02*
X004036Y009770D01*
X004036Y009869D02*
X000442Y009869D01*
X000442Y009967D02*
X004067Y009967D01*
X004016Y010066D02*
X000442Y010066D01*
X000442Y010165D02*
X004016Y010165D01*
X004016Y010263D02*
X000442Y010263D01*
X000442Y010362D02*
X004411Y010362D01*
X004412Y010460D02*
X004512Y010460D01*
X004512Y010559D02*
X004412Y010559D01*
X004412Y010657D02*
X004512Y010657D01*
X004772Y010756D02*
X000442Y010756D01*
X000442Y010854D02*
X004772Y010854D01*
X004772Y010953D02*
X000442Y010953D01*
X000442Y011051D02*
X004772Y011051D01*
X004772Y011150D02*
X000442Y011150D01*
X000442Y011249D02*
X004772Y011249D01*
X004772Y011347D02*
X000442Y011347D01*
X000442Y011446D02*
X004772Y011446D01*
X004772Y011544D02*
X000442Y011544D01*
X000442Y011643D02*
X004772Y011643D01*
X004772Y011741D02*
X000442Y011741D01*
X000442Y011840D02*
X004821Y011840D01*
X004920Y011938D02*
X000442Y011938D01*
X000442Y012037D02*
X005018Y012037D01*
X005117Y012135D02*
X000442Y012135D01*
X000442Y012234D02*
X005215Y012234D01*
X004832Y012332D02*
X004831Y012332D01*
X004831Y012431D02*
X004832Y012431D01*
X004831Y012530D02*
X004832Y012530D01*
X004831Y012628D02*
X004832Y012628D01*
X004831Y012727D02*
X004832Y012727D01*
X004831Y012825D02*
X004832Y012825D01*
X004831Y012862D02*
X004583Y012862D01*
X004583Y013336D01*
X004594Y013374D01*
X004613Y013408D01*
X004641Y013436D01*
X004675Y013456D01*
X004714Y013466D01*
X004831Y013466D01*
X004831Y012862D01*
X004831Y012924D02*
X004832Y012924D01*
X004831Y013022D02*
X004832Y013022D01*
X004831Y013121D02*
X004832Y013121D01*
X004831Y013219D02*
X004832Y013219D01*
X004831Y013318D02*
X004832Y013318D01*
X004831Y013416D02*
X004832Y013416D01*
X004622Y013416D02*
X004253Y013416D01*
X004253Y013318D02*
X004583Y013318D01*
X004583Y013219D02*
X004253Y013219D01*
X004253Y013121D02*
X004583Y013121D01*
X004583Y013022D02*
X004253Y013022D01*
X004253Y012924D02*
X004583Y012924D01*
X004583Y012825D02*
X004253Y012825D01*
X004253Y012727D02*
X004583Y012727D01*
X004583Y012628D02*
X004253Y012628D01*
X004253Y012557D02*
X004253Y013610D01*
X004177Y013686D01*
X003282Y013686D01*
X003206Y013610D01*
X003206Y012557D01*
X003282Y012481D01*
X004177Y012481D01*
X004253Y012557D01*
X004225Y012530D02*
X004583Y012530D01*
X004583Y012431D02*
X000442Y012431D01*
X000442Y012332D02*
X004603Y012332D01*
X003234Y012530D02*
X000442Y012530D01*
X000442Y012628D02*
X003206Y012628D01*
X003206Y012727D02*
X000442Y012727D01*
X000442Y012825D02*
X003206Y012825D01*
X003206Y012924D02*
X000442Y012924D01*
X000442Y013022D02*
X003206Y013022D01*
X003206Y013121D02*
X002074Y013121D01*
X001835Y013066D02*
X001835Y013066D01*
X001299Y013121D02*
X000442Y013121D01*
X000442Y013219D02*
X001048Y013219D01*
X000887Y013283D02*
X000887Y013283D01*
X000842Y013318D02*
X000442Y013318D01*
X000442Y013416D02*
X000719Y013416D01*
X000595Y013515D02*
X000442Y013515D01*
X000502Y013589D02*
X000502Y013589D01*
X000502Y013589D01*
X000486Y013614D02*
X000442Y013614D01*
X002390Y013219D02*
X003206Y013219D01*
X003206Y013318D02*
X002561Y013318D01*
X002731Y013416D02*
X003206Y013416D01*
X003206Y013515D02*
X002827Y013515D01*
X002918Y013614D02*
X003209Y013614D01*
X004249Y013614D02*
X006674Y013614D01*
X006670Y013515D02*
X004253Y013515D01*
X004801Y013811D02*
X006122Y013811D01*
X006039Y013909D02*
X004884Y013909D01*
X004923Y014008D02*
X006001Y014008D01*
X006001Y014106D02*
X004923Y014106D01*
X004893Y014205D02*
X006030Y014205D01*
X006101Y014303D02*
X004823Y014303D01*
X004228Y014698D02*
X006695Y014698D01*
X006670Y014796D02*
X004253Y014796D01*
X004253Y014895D02*
X006670Y014895D01*
X006670Y014993D02*
X004253Y014993D01*
X004253Y015092D02*
X006670Y015092D01*
X006670Y015190D02*
X004253Y015190D01*
X004253Y015289D02*
X006670Y015289D01*
X006670Y015387D02*
X004253Y015387D01*
X004253Y015486D02*
X006670Y015486D01*
X006670Y015584D02*
X004253Y015584D01*
X004253Y015683D02*
X006670Y015683D01*
X006676Y015781D02*
X004247Y015781D01*
X003212Y015781D02*
X002945Y015781D01*
X003036Y015683D02*
X003206Y015683D01*
X003206Y015584D02*
X003102Y015584D01*
X003150Y015486D02*
X003206Y015486D01*
X003197Y015387D02*
X003206Y015387D01*
X002853Y015880D02*
X045060Y015880D01*
X045002Y015834D02*
X045002Y015834D01*
X044966Y015781D02*
X021705Y015781D01*
X021803Y015683D02*
X022398Y015683D01*
X022300Y015584D02*
X021902Y015584D01*
X022001Y015486D02*
X022201Y015486D01*
X022157Y015387D02*
X022037Y015387D01*
X022037Y015289D02*
X022157Y015289D01*
X021512Y015289D02*
X021412Y015289D01*
X021412Y015387D02*
X021512Y015387D01*
X021512Y015486D02*
X021412Y015486D01*
X021412Y015584D02*
X021512Y015584D01*
X021512Y015683D02*
X021412Y015683D01*
X021412Y015781D02*
X021512Y015781D01*
X021021Y015584D02*
X009644Y015584D01*
X009742Y015486D02*
X020923Y015486D01*
X020887Y015387D02*
X009838Y015387D01*
X009838Y015289D02*
X020887Y015289D01*
X023025Y015683D02*
X023343Y015683D01*
X023231Y015584D02*
X023124Y015584D01*
X023544Y015190D02*
X040380Y015190D01*
X040889Y015387D02*
X044713Y015387D01*
X044682Y015289D02*
X040988Y015289D01*
X040791Y015486D02*
X044765Y015486D01*
X044832Y015584D02*
X040692Y015584D01*
X040581Y015683D02*
X044899Y015683D01*
X045184Y015979D02*
X002762Y015979D01*
X003345Y014599D02*
X008188Y014599D01*
X008089Y014500D02*
X003330Y014500D01*
X006273Y013416D02*
X006670Y013416D01*
X006670Y013318D02*
X006320Y013318D01*
X006320Y013219D02*
X006670Y013219D01*
X006670Y013121D02*
X006320Y013121D01*
X006320Y013022D02*
X006670Y013022D01*
X006670Y012924D02*
X006320Y012924D01*
X006320Y012825D02*
X006670Y012825D01*
X006670Y012727D02*
X006320Y012727D01*
X006320Y012628D02*
X006670Y012628D01*
X006698Y012530D02*
X006320Y012530D01*
X009156Y013022D02*
X011214Y013022D01*
X011243Y012924D02*
X010555Y012924D01*
X010545Y012929D02*
X010458Y012957D01*
X010368Y012972D01*
X010351Y012972D01*
X010351Y011991D01*
X010293Y011991D01*
X010293Y012972D01*
X010276Y012972D01*
X010186Y012957D01*
X010099Y012929D01*
X010018Y012888D01*
X009944Y012834D01*
X009879Y012769D01*
X009826Y012696D01*
X009784Y012614D01*
X009756Y012527D01*
X009742Y012437D01*
X009742Y011990D01*
X010293Y011990D01*
X010293Y011933D01*
X009742Y011933D01*
X009742Y011486D01*
X009756Y011396D01*
X009784Y011309D01*
X009826Y011228D01*
X009879Y011154D01*
X009944Y011089D01*
X010018Y011036D01*
X010099Y010994D01*
X010186Y010966D01*
X010276Y010952D01*
X010293Y010952D01*
X010293Y011933D01*
X010351Y011933D01*
X010351Y011990D01*
X010902Y011990D01*
X010902Y012437D01*
X010888Y012527D01*
X010859Y012614D01*
X010818Y012696D01*
X010764Y012769D01*
X010700Y012834D01*
X010626Y012888D01*
X010545Y012929D01*
X010709Y012825D02*
X011295Y012825D01*
X011377Y012727D02*
X010795Y012727D01*
X010852Y012628D02*
X011514Y012628D01*
X010887Y012530D02*
X013742Y012530D01*
X013841Y012628D02*
X012909Y012628D01*
X013046Y012727D02*
X013939Y012727D01*
X014038Y012825D02*
X013128Y012825D01*
X013180Y012924D02*
X014136Y012924D01*
X014235Y013022D02*
X013210Y013022D01*
X012240Y013022D02*
X012183Y013022D01*
X012183Y012924D02*
X012240Y012924D01*
X012240Y012825D02*
X012183Y012825D01*
X012183Y012727D02*
X012240Y012727D01*
X012240Y012628D02*
X012183Y012628D01*
X010902Y012431D02*
X013644Y012431D01*
X013545Y012332D02*
X010902Y012332D01*
X010902Y012234D02*
X013447Y012234D01*
X013348Y012135D02*
X010902Y012135D01*
X010902Y012037D02*
X013249Y012037D01*
X013151Y011938D02*
X010351Y011938D01*
X010351Y011933D02*
X010902Y011933D01*
X010902Y011486D01*
X010888Y011396D01*
X010859Y011309D01*
X010818Y011228D01*
X010764Y011154D01*
X010700Y011089D01*
X010626Y011036D01*
X010545Y010994D01*
X010458Y010966D01*
X010368Y010952D01*
X010351Y010952D01*
X010351Y011933D01*
X010293Y011938D02*
X009392Y011938D01*
X009392Y011840D02*
X009742Y011840D01*
X009742Y011741D02*
X009392Y011741D01*
X009392Y011643D02*
X009742Y011643D01*
X009742Y011544D02*
X009392Y011544D01*
X009392Y011446D02*
X009748Y011446D01*
X009772Y011347D02*
X009392Y011347D01*
X009392Y011249D02*
X009815Y011249D01*
X009883Y011150D02*
X009392Y011150D01*
X009392Y011051D02*
X009996Y011051D01*
X010269Y010953D02*
X009392Y010953D01*
X009392Y010854D02*
X011222Y010854D01*
X011222Y010756D02*
X009392Y010756D01*
X009392Y010657D02*
X011227Y010657D01*
X011267Y010559D02*
X009392Y010559D01*
X009392Y010460D02*
X011310Y010460D01*
X011409Y010362D02*
X009392Y010362D01*
X009032Y010854D02*
X008979Y010854D01*
X008992Y010953D02*
X009032Y010953D01*
X009032Y011051D02*
X008992Y011051D01*
X008992Y011150D02*
X009032Y011150D01*
X009032Y011249D02*
X008636Y011249D01*
X008636Y011262D02*
X008992Y011262D01*
X008992Y011527D01*
X008981Y011565D01*
X008962Y011599D01*
X008934Y011627D01*
X008899Y011647D01*
X008861Y011657D01*
X008636Y011657D01*
X008636Y011262D01*
X008636Y011347D02*
X008536Y011347D01*
X008536Y011446D02*
X008636Y011446D01*
X008636Y011544D02*
X008536Y011544D01*
X008536Y011643D02*
X008636Y011643D01*
X008906Y011643D02*
X009032Y011643D01*
X009032Y011741D02*
X006282Y011741D01*
X006282Y011643D02*
X008265Y011643D01*
X008987Y011544D02*
X009032Y011544D01*
X009032Y011446D02*
X008992Y011446D01*
X008992Y011347D02*
X009032Y011347D01*
X008636Y011150D02*
X008536Y011150D01*
X008536Y011051D02*
X008636Y011051D01*
X008636Y010953D02*
X008536Y010953D01*
X008536Y010854D02*
X008636Y010854D01*
X007452Y011446D02*
X007222Y011446D01*
X007222Y011544D02*
X007452Y011544D01*
X009392Y012037D02*
X009742Y012037D01*
X009742Y012135D02*
X009392Y012135D01*
X009392Y012234D02*
X009742Y012234D01*
X009742Y012332D02*
X009392Y012332D01*
X009392Y012431D02*
X009742Y012431D01*
X009757Y012530D02*
X009392Y012530D01*
X009392Y012628D02*
X009791Y012628D01*
X009848Y012727D02*
X009392Y012727D01*
X009353Y012825D02*
X009935Y012825D01*
X010089Y012924D02*
X009254Y012924D01*
X010293Y012924D02*
X010351Y012924D01*
X010351Y012825D02*
X010293Y012825D01*
X010293Y012727D02*
X010351Y012727D01*
X010351Y012628D02*
X010293Y012628D01*
X010293Y012530D02*
X010351Y012530D01*
X010351Y012431D02*
X010293Y012431D01*
X010293Y012332D02*
X010351Y012332D01*
X010351Y012234D02*
X010293Y012234D01*
X010293Y012135D02*
X010351Y012135D01*
X010351Y012037D02*
X010293Y012037D01*
X010293Y011840D02*
X010351Y011840D01*
X010351Y011741D02*
X010293Y011741D01*
X010293Y011643D02*
X010351Y011643D01*
X010351Y011544D02*
X010293Y011544D01*
X010293Y011446D02*
X010351Y011446D01*
X010351Y011347D02*
X010293Y011347D01*
X010293Y011249D02*
X010351Y011249D01*
X010351Y011150D02*
X010293Y011150D01*
X010293Y011051D02*
X010351Y011051D01*
X010351Y010953D02*
X010293Y010953D01*
X010375Y010953D02*
X011247Y010953D01*
X011288Y011051D02*
X010648Y011051D01*
X010760Y011150D02*
X011359Y011150D01*
X011458Y011249D02*
X010829Y011249D01*
X010872Y011347D02*
X012560Y011347D01*
X012658Y011446D02*
X010895Y011446D01*
X010902Y011544D02*
X012757Y011544D01*
X012855Y011643D02*
X010902Y011643D01*
X010902Y011741D02*
X012954Y011741D01*
X013052Y011840D02*
X010902Y011840D01*
X012183Y013219D02*
X012240Y013219D01*
X012240Y013318D02*
X012183Y013318D01*
X012183Y013416D02*
X012240Y013416D01*
X012240Y013515D02*
X012183Y013515D01*
X012183Y013614D02*
X012240Y013614D01*
X012240Y013712D02*
X012183Y013712D01*
X017762Y012234D02*
X017786Y012234D01*
X017786Y012135D02*
X017762Y012135D01*
X017762Y012037D02*
X017786Y012037D01*
X017786Y011938D02*
X017762Y011938D01*
X017762Y011840D02*
X017786Y011840D01*
X017786Y011741D02*
X017762Y011741D01*
X017762Y011643D02*
X017786Y011643D01*
X017786Y011544D02*
X017751Y011544D01*
X017673Y011446D02*
X017845Y011446D01*
X019512Y011446D02*
X020865Y011446D01*
X020865Y011347D02*
X016086Y011347D01*
X015987Y011249D02*
X020865Y011249D01*
X020865Y011150D02*
X015889Y011150D01*
X018637Y012037D02*
X018672Y012037D01*
X018672Y012135D02*
X018637Y012135D01*
X018637Y012234D02*
X018672Y012234D01*
X018672Y012332D02*
X018637Y012332D01*
X018605Y012431D02*
X018698Y012431D01*
X019067Y012431D02*
X019167Y012431D01*
X019167Y012332D02*
X019067Y012332D01*
X019067Y012234D02*
X019167Y012234D01*
X019167Y012135D02*
X019067Y012135D01*
X019067Y012037D02*
X019167Y012037D01*
X028061Y014008D02*
X031247Y014008D01*
X031249Y014106D02*
X028102Y014106D01*
X028107Y014205D02*
X031347Y014205D01*
X031446Y014303D02*
X028095Y014303D01*
X028054Y014402D02*
X034282Y014402D01*
X034282Y014500D02*
X027963Y014500D01*
X023445Y015092D02*
X035984Y015092D01*
X035885Y014993D02*
X023347Y014993D01*
X023248Y014895D02*
X035787Y014895D01*
X034438Y014796D02*
X023150Y014796D01*
X006522Y010657D02*
X005535Y010657D01*
X006133Y010559D02*
X006522Y010559D01*
X006522Y010460D02*
X006232Y010460D01*
X006330Y010362D02*
X006522Y010362D01*
X008814Y009770D02*
X009032Y009770D01*
X009032Y009672D02*
X008814Y009672D01*
X008814Y009573D02*
X009032Y009573D01*
X009032Y009475D02*
X008814Y009475D01*
X008814Y009376D02*
X009032Y009376D01*
X009032Y009278D02*
X008814Y009278D01*
X008814Y009179D02*
X009032Y009179D01*
X009032Y009081D02*
X008814Y009081D01*
X008814Y008982D02*
X009032Y008982D01*
X009032Y008883D02*
X008814Y008883D01*
X008814Y008785D02*
X009032Y008785D01*
X009032Y008686D02*
X008814Y008686D01*
X008814Y008588D02*
X009032Y008588D01*
X009032Y008489D02*
X008814Y008489D01*
X008834Y008391D02*
X009032Y008391D01*
X009032Y008292D02*
X008834Y008292D01*
X008822Y008194D02*
X008939Y008194D01*
X008841Y008095D02*
X008814Y008095D01*
X015762Y007110D02*
X017105Y007110D01*
X017093Y007208D02*
X017204Y007208D01*
X017155Y007307D02*
X017302Y007307D01*
X017401Y007405D02*
X017157Y007405D01*
X017157Y007504D02*
X017499Y007504D01*
X017598Y007602D02*
X016762Y007602D01*
X016762Y007504D02*
X016662Y007504D01*
X016661Y007602D02*
X016137Y007602D01*
X016137Y007701D02*
X016266Y007701D01*
X016266Y007799D02*
X016137Y007799D01*
X016153Y007898D02*
X016276Y007898D01*
X016251Y007997D02*
X016316Y007997D01*
X017108Y007997D02*
X017172Y007997D01*
X017148Y007898D02*
X017271Y007898D01*
X017369Y007799D02*
X017157Y007799D01*
X017157Y007701D02*
X018119Y007701D01*
X018462Y007962D02*
X018674Y007749D01*
X018674Y007402D01*
X016762Y007405D02*
X016662Y007405D01*
X016662Y007307D02*
X016762Y007307D01*
X016762Y007208D02*
X016662Y007208D01*
X016330Y007208D02*
X016157Y007208D01*
X016157Y007307D02*
X016268Y007307D01*
X016266Y007405D02*
X016144Y007405D01*
X016115Y007504D02*
X016266Y007504D01*
X016327Y008686D02*
X015982Y008686D01*
X015763Y006124D02*
X015660Y006124D01*
X018619Y005554D02*
X018712Y005462D01*
X017772Y005239D02*
X016739Y005239D01*
X016462Y004962D01*
X016791Y004843D02*
X017089Y004843D01*
X017187Y004942D02*
X016812Y004942D01*
X016808Y005040D02*
X017286Y005040D01*
X016750Y004745D02*
X016740Y004745D01*
X018152Y004745D02*
X019054Y004745D01*
X019054Y004843D02*
X018152Y004843D01*
X018152Y004646D02*
X019054Y004646D01*
X019054Y004548D02*
X018152Y004548D01*
X018152Y004449D02*
X019054Y004449D01*
X018994Y004350D02*
X018984Y004350D01*
X018984Y004252D02*
X018994Y004252D01*
X018984Y004153D02*
X018994Y004153D01*
X018984Y004055D02*
X018994Y004055D01*
X020212Y003962D02*
X020212Y002962D01*
X019462Y002212D01*
X018562Y002212D01*
X016836Y002212D01*
X017222Y001985D02*
X017382Y001985D01*
X017382Y001887D02*
X017222Y001887D01*
X017147Y001788D02*
X017382Y001788D01*
X016524Y001788D02*
X016422Y001788D01*
X016138Y001788D02*
X016038Y001788D01*
X016038Y001887D02*
X016138Y001887D01*
X016138Y001985D02*
X016038Y001985D01*
X016038Y002084D02*
X016138Y002084D01*
X016037Y002183D02*
X011633Y002183D01*
X011626Y002281D02*
X015682Y002281D01*
X015682Y002380D02*
X011528Y002380D01*
X010672Y002380D02*
X010607Y002380D01*
X010176Y002478D02*
X015682Y002478D01*
X015699Y002577D02*
X010176Y002577D01*
X010329Y002675D02*
X017411Y002675D01*
X017382Y002577D02*
X017206Y002577D01*
X017222Y002478D02*
X017382Y002478D01*
X016138Y002478D02*
X016038Y002478D01*
X016038Y002380D02*
X016138Y002380D01*
X016138Y002281D02*
X016038Y002281D01*
X015682Y002084D02*
X011633Y002084D01*
X011633Y001985D02*
X015682Y001985D01*
X015684Y001887D02*
X011601Y001887D01*
X011366Y001887D02*
X011294Y001887D01*
X011327Y001985D02*
X011333Y001985D01*
X011327Y002084D02*
X011333Y002084D01*
X011009Y001832D02*
X011008Y001832D01*
X009218Y001887D02*
X009146Y001887D01*
X009178Y001985D02*
X009185Y001985D01*
X009178Y002084D02*
X009185Y002084D01*
X008878Y002084D02*
X008564Y002084D01*
X008564Y002183D02*
X008878Y002183D01*
X008878Y002281D02*
X008557Y002281D01*
X008459Y002380D02*
X008878Y002380D01*
X008878Y002478D02*
X007567Y002478D01*
X007567Y002577D02*
X008951Y002577D01*
X008937Y002582D02*
X008937Y002582D01*
X008966Y002592D02*
X008966Y002592D01*
X008566Y002675D02*
X008411Y002675D01*
X008411Y002774D02*
X008495Y002774D01*
X008495Y002872D02*
X008460Y002872D01*
X007969Y002658D02*
X007969Y002658D01*
X007951Y002675D02*
X007952Y002675D01*
X007651Y002675D02*
X007644Y002675D01*
X007644Y002774D02*
X007651Y002774D01*
X007644Y002872D02*
X007651Y002872D01*
X007807Y003168D02*
X007871Y003168D01*
X007881Y003177D02*
X007881Y003177D01*
X007411Y003168D02*
X007346Y003168D01*
X007027Y003168D02*
X006963Y003168D01*
X006567Y003168D02*
X006109Y003168D01*
X006109Y003069D02*
X006469Y003069D01*
X006500Y003101D02*
X006500Y003101D01*
X006423Y002971D02*
X006109Y002971D01*
X006109Y002872D02*
X006423Y002872D01*
X006423Y002774D02*
X006109Y002774D01*
X006038Y002675D02*
X006494Y002675D01*
X006497Y002577D02*
X006956Y002577D01*
X006883Y002478D02*
X006570Y002478D01*
X006035Y002577D02*
X004809Y002577D01*
X004882Y002478D02*
X005963Y002478D01*
X005963Y002380D02*
X005620Y002380D01*
X005649Y002281D02*
X005963Y002281D01*
X005963Y002183D02*
X005649Y002183D01*
X005649Y002084D02*
X005963Y002084D01*
X005963Y001985D02*
X005649Y001985D01*
X005649Y001887D02*
X005995Y001887D01*
X006074Y001788D02*
X005594Y001788D01*
X005572Y001690D02*
X005975Y001690D01*
X006039Y001754D02*
X006039Y001754D01*
X004658Y001754D02*
X004658Y001754D01*
X005342Y002183D02*
X005349Y002183D01*
X005342Y002281D02*
X005349Y002281D01*
X005378Y002380D02*
X005313Y002380D01*
X005945Y002582D02*
X005945Y002582D01*
X005502Y002675D02*
X005342Y002675D01*
X005342Y002774D02*
X005502Y002774D01*
X005502Y002872D02*
X005468Y002872D01*
X005495Y002971D02*
X005502Y002971D01*
X006020Y003266D02*
X008967Y003266D01*
X008639Y003168D02*
X008574Y003168D01*
X009626Y003266D02*
X015682Y003266D01*
X015682Y003168D02*
X010492Y003168D01*
X010559Y003069D02*
X015717Y003069D01*
X016038Y002577D02*
X016138Y002577D01*
X015753Y001788D02*
X007840Y001788D01*
X007995Y001887D02*
X008016Y001908D01*
X008031Y001923D01*
X008045Y001908D01*
X008016Y001908D02*
X008016Y001908D01*
X008455Y001887D02*
X008911Y001887D01*
X008878Y001985D02*
X008488Y001985D01*
X008063Y002380D02*
X007998Y002380D01*
X008034Y002351D02*
X008034Y002351D01*
X008122Y002439D02*
X008122Y002439D01*
X010329Y002774D02*
X019769Y002774D01*
X019868Y002872D02*
X010378Y002872D01*
X010554Y002971D02*
X019966Y002971D01*
X020377Y002872D02*
X020384Y002872D01*
X020395Y002774D02*
X020278Y002774D01*
X020180Y002675D02*
X020494Y002675D01*
X020592Y002577D02*
X020081Y002577D01*
X019983Y002478D02*
X020691Y002478D01*
X020789Y002380D02*
X019884Y002380D01*
X019786Y002281D02*
X020888Y002281D01*
X020986Y002183D02*
X019742Y002183D01*
X019742Y002084D02*
X021085Y002084D01*
X021182Y001985D02*
X019742Y001985D01*
X019742Y001887D02*
X021182Y001887D01*
X021182Y001788D02*
X019742Y001788D01*
X020564Y002859D02*
X021212Y002212D01*
X022362Y002212D01*
X024088Y002212D01*
X023702Y001985D02*
X023542Y001985D01*
X023542Y001887D02*
X023702Y001887D01*
X023776Y001788D02*
X023542Y001788D01*
X024399Y001788D02*
X024501Y001788D01*
X024786Y001788D02*
X024886Y001788D01*
X024886Y001887D02*
X024786Y001887D01*
X024786Y001985D02*
X024886Y001985D01*
X024886Y002084D02*
X024786Y002084D01*
X024886Y002183D02*
X026444Y002183D01*
X026345Y002281D02*
X025242Y002281D01*
X025242Y002262D02*
X025242Y002527D01*
X025231Y002565D01*
X025212Y002599D01*
X025184Y002627D01*
X025149Y002647D01*
X025111Y002657D01*
X024886Y002657D01*
X024886Y002262D01*
X025242Y002262D01*
X025242Y002380D02*
X026247Y002380D01*
X026148Y002478D02*
X025242Y002478D01*
X025224Y002577D02*
X026050Y002577D01*
X025951Y002675D02*
X023512Y002675D01*
X023542Y002577D02*
X023718Y002577D01*
X023702Y002478D02*
X023542Y002478D01*
X024786Y002478D02*
X024886Y002478D01*
X024886Y002380D02*
X024786Y002380D01*
X024786Y002281D02*
X024886Y002281D01*
X025242Y002084D02*
X026542Y002084D01*
X026571Y001985D02*
X025242Y001985D01*
X025239Y001887D02*
X026492Y001887D01*
X026492Y001788D02*
X025170Y001788D01*
X024886Y002577D02*
X024786Y002577D01*
X025853Y002774D02*
X020904Y002774D01*
X020805Y002872D02*
X025754Y002872D01*
X025655Y002971D02*
X020744Y002971D01*
X020744Y003069D02*
X025557Y003069D01*
X026151Y003069D02*
X026683Y003069D01*
X026584Y002971D02*
X026249Y002971D01*
X026348Y002872D02*
X026512Y002872D01*
X026512Y002774D02*
X026446Y002774D01*
X028788Y002183D02*
X043636Y002183D01*
X043734Y002281D02*
X029355Y002281D01*
X029412Y002380D02*
X043833Y002380D01*
X043931Y002478D02*
X029412Y002478D01*
X029412Y002577D02*
X044030Y002577D01*
X044128Y002675D02*
X029412Y002675D01*
X029412Y002774D02*
X044227Y002774D01*
X044325Y002872D02*
X029412Y002872D01*
X029412Y002971D02*
X044424Y002971D01*
X044522Y003069D02*
X029412Y003069D01*
X029226Y002084D02*
X043537Y002084D01*
X043438Y001985D02*
X029324Y001985D01*
X031065Y003956D02*
X031897Y003956D01*
X031845Y004055D02*
X031137Y004055D01*
X031137Y004153D02*
X031845Y004153D01*
X032172Y004338D02*
X032212Y004298D01*
X032172Y004338D02*
X030712Y004338D01*
X031137Y004548D02*
X031845Y004548D01*
X031903Y004646D02*
X031137Y004646D01*
X031106Y004745D02*
X031934Y004745D01*
X031832Y004843D02*
X031137Y004843D01*
X031137Y004942D02*
X031825Y004942D01*
X031825Y005040D02*
X031137Y005040D01*
X031137Y005139D02*
X032161Y005139D01*
X032162Y005237D02*
X032262Y005237D01*
X032262Y005139D02*
X044030Y005139D01*
X045892Y004646D02*
X046032Y004646D01*
X046032Y004548D02*
X045892Y004548D01*
X045807Y004449D02*
X046116Y004449D01*
X046215Y004350D02*
X045709Y004350D01*
X045098Y003956D02*
X032526Y003956D01*
X032262Y004745D02*
X032162Y004745D01*
X032162Y004843D02*
X032262Y004843D01*
X032262Y004942D02*
X032162Y004942D01*
X032162Y005040D02*
X032262Y005040D01*
X031825Y005237D02*
X031137Y005237D01*
X031137Y005336D02*
X031825Y005336D01*
X031845Y005434D02*
X031098Y005434D01*
X030712Y005086D02*
X030468Y005330D01*
X023440Y005330D01*
X023349Y005239D01*
X021152Y005239D01*
X021532Y004745D02*
X022000Y004745D01*
X021909Y004646D02*
X021532Y004646D01*
X021532Y004548D02*
X021868Y004548D01*
X021862Y004449D02*
X021532Y004449D01*
X020564Y004022D02*
X020564Y002859D01*
X021003Y002675D02*
X021211Y002675D01*
X021182Y002577D02*
X021101Y002577D01*
X020212Y003962D02*
X020249Y003999D01*
X020249Y004022D01*
X010096Y003168D02*
X010032Y003168D01*
X009733Y003189D02*
X009733Y003189D01*
X009713Y003168D02*
X009639Y003168D01*
X005042Y002675D02*
X005041Y002675D01*
X004889Y002971D02*
X004882Y002971D01*
X004882Y003069D02*
X004889Y003069D01*
X004882Y003168D02*
X004889Y003168D01*
X004901Y003266D02*
X004869Y003266D01*
X003180Y001000D02*
X044724Y001000D01*
X044789Y000901D02*
X003132Y000901D01*
X003085Y000803D02*
X044856Y000803D01*
X044924Y000704D02*
X003003Y000704D01*
X002911Y000606D02*
X044991Y000606D01*
X045002Y000589D02*
X045002Y000589D01*
X045002Y000589D01*
X045105Y000507D02*
X002820Y000507D01*
X032162Y005336D02*
X032262Y005336D01*
X032262Y005434D02*
X032162Y005434D01*
X040712Y008212D02*
X041712Y007212D01*
X045712Y007212D01*
X046462Y006712D01*
X047142Y006716D02*
X047712Y006716D01*
X047712Y006814D02*
X047142Y006814D01*
X047142Y006913D02*
X047712Y006913D01*
X047712Y007011D02*
X047142Y007011D01*
X047142Y007110D02*
X047712Y007110D01*
X047712Y007208D02*
X047142Y007208D01*
X047142Y007307D02*
X047712Y007307D01*
X047712Y007405D02*
X047142Y007405D01*
X047142Y007504D02*
X047712Y007504D01*
X047712Y007602D02*
X047142Y007602D01*
X047142Y007701D02*
X047712Y007701D01*
X047712Y007799D02*
X047142Y007799D01*
X047142Y007898D02*
X047712Y007898D01*
X047712Y007997D02*
X047142Y007997D01*
X047083Y008095D02*
X047712Y008095D01*
X047712Y008194D02*
X046984Y008194D01*
X046886Y008292D02*
X047712Y008292D01*
X047712Y008391D02*
X046787Y008391D01*
X046847Y008489D02*
X047712Y008489D01*
X047712Y008588D02*
X046892Y008588D01*
X046892Y008686D02*
X047712Y008686D01*
X047712Y008785D02*
X046892Y008785D01*
X046892Y008883D02*
X047712Y008883D01*
X047712Y008982D02*
X046799Y008982D01*
X046701Y009081D02*
X047712Y009081D01*
X047712Y009179D02*
X044749Y009179D01*
X044847Y009081D02*
X045222Y009081D01*
X045124Y008982D02*
X044946Y008982D01*
X044962Y008712D02*
X045462Y008712D01*
X045892Y008686D02*
X046032Y008686D01*
X046032Y008588D02*
X045892Y008588D01*
X045847Y008489D02*
X046076Y008489D01*
X046712Y008212D02*
X044712Y008212D01*
X043712Y009212D01*
X041942Y009212D01*
X041457Y008982D02*
X041436Y008982D01*
X041212Y008712D02*
X041942Y008712D01*
X040987Y008982D02*
X040892Y008982D01*
X040892Y008883D02*
X040904Y008883D01*
X038712Y009212D02*
X037982Y009212D01*
X035387Y008785D02*
X031387Y008785D01*
X030536Y008883D02*
X028152Y008883D01*
X028054Y008785D02*
X030530Y008785D01*
X030536Y008982D02*
X028251Y008982D01*
X028349Y009081D02*
X030536Y009081D01*
X030568Y009179D02*
X028448Y009179D01*
X028546Y009278D02*
X030536Y009278D01*
X030536Y009376D02*
X028645Y009376D01*
X028743Y009475D02*
X030536Y009475D01*
X041942Y009712D02*
X043962Y009712D01*
X044962Y008712D01*
X045701Y009081D02*
X046222Y009081D01*
X046124Y008982D02*
X045799Y008982D01*
X045892Y008883D02*
X046032Y008883D01*
X046032Y008785D02*
X045892Y008785D01*
X045640Y009282D02*
X045892Y009534D01*
X045892Y009890D01*
X045640Y010142D01*
X045284Y010142D01*
X045032Y009890D01*
X045032Y009534D01*
X045284Y009282D01*
X045640Y009282D01*
X045734Y009376D02*
X046189Y009376D01*
X046284Y009282D02*
X046640Y009282D01*
X046892Y009534D01*
X046892Y009890D01*
X046640Y010142D01*
X046284Y010142D01*
X046032Y009890D01*
X046032Y009534D01*
X046284Y009282D01*
X046090Y009475D02*
X045833Y009475D01*
X045892Y009573D02*
X046032Y009573D01*
X046032Y009672D02*
X045892Y009672D01*
X045892Y009770D02*
X046032Y009770D01*
X046032Y009869D02*
X045892Y009869D01*
X045814Y009967D02*
X046109Y009967D01*
X046208Y010066D02*
X045715Y010066D01*
X045208Y010066D02*
X044321Y010066D01*
X044419Y010165D02*
X047712Y010165D01*
X047712Y010263D02*
X044518Y010263D01*
X044616Y010362D02*
X045204Y010362D01*
X045105Y010460D02*
X044715Y010460D01*
X044712Y010712D02*
X044212Y010212D01*
X041942Y010212D01*
X042411Y009967D02*
X045109Y009967D01*
X045032Y009869D02*
X044059Y009869D01*
X044157Y009770D02*
X045032Y009770D01*
X045032Y009672D02*
X044256Y009672D01*
X044355Y009573D02*
X045032Y009573D01*
X045090Y009475D02*
X044453Y009475D01*
X044552Y009376D02*
X045189Y009376D01*
X044650Y009278D02*
X047712Y009278D01*
X047712Y009376D02*
X046734Y009376D01*
X046833Y009475D02*
X047712Y009475D01*
X047712Y009573D02*
X046892Y009573D01*
X046892Y009672D02*
X047712Y009672D01*
X047712Y009770D02*
X046892Y009770D01*
X046892Y009869D02*
X047712Y009869D01*
X047712Y009967D02*
X046814Y009967D01*
X046715Y010066D02*
X047712Y010066D01*
X047712Y010362D02*
X046720Y010362D01*
X046818Y010460D02*
X047712Y010460D01*
X047712Y010559D02*
X046892Y010559D01*
X046892Y010657D02*
X047712Y010657D01*
X047712Y010756D02*
X046892Y010756D01*
X046892Y010854D02*
X047712Y010854D01*
X047712Y010953D02*
X046828Y010953D01*
X046730Y011051D02*
X047712Y011051D01*
X047712Y011150D02*
X046278Y011150D01*
X046179Y011249D02*
X047712Y011249D01*
X047712Y011347D02*
X046705Y011347D01*
X046804Y011446D02*
X047712Y011446D01*
X047712Y011544D02*
X046892Y011544D01*
X046892Y011643D02*
X047712Y011643D01*
X047712Y011741D02*
X046892Y011741D01*
X046892Y011840D02*
X047712Y011840D01*
X047712Y011938D02*
X046843Y011938D01*
X046744Y012037D02*
X047712Y012037D01*
X047712Y012135D02*
X046646Y012135D01*
X046462Y011712D02*
X045962Y012212D01*
X041942Y012212D01*
X041942Y012712D02*
X043212Y012712D01*
X045789Y012431D02*
X046134Y012431D01*
X046095Y012332D02*
X046233Y012332D01*
X046194Y012234D02*
X047712Y012234D01*
X047712Y012332D02*
X046691Y012332D01*
X046789Y012431D02*
X047712Y012431D01*
X047712Y012530D02*
X046888Y012530D01*
X046892Y012628D02*
X047712Y012628D01*
X047712Y012727D02*
X046892Y012727D01*
X046892Y012825D02*
X047712Y012825D01*
X047712Y012924D02*
X046858Y012924D01*
X046759Y013022D02*
X047712Y013022D01*
X046032Y012628D02*
X045892Y012628D01*
X045888Y012530D02*
X046036Y012530D01*
X045980Y011938D02*
X045843Y011938D01*
X045892Y011840D02*
X046032Y011840D01*
X046032Y011741D02*
X045892Y011741D01*
X045892Y011643D02*
X046032Y011643D01*
X046032Y011544D02*
X045892Y011544D01*
X045804Y011446D02*
X046120Y011446D01*
X046081Y011347D02*
X046218Y011347D01*
X045962Y011212D02*
X044712Y011212D01*
X044212Y010712D01*
X041942Y010712D01*
X041942Y011212D02*
X043962Y011212D01*
X044462Y011712D01*
X045462Y011712D01*
X045962Y011212D02*
X046462Y010712D01*
X046032Y010756D02*
X045892Y010756D01*
X045892Y010854D02*
X046032Y010854D01*
X045966Y010953D02*
X045828Y010953D01*
X045462Y010712D02*
X044712Y010712D01*
X045720Y010362D02*
X046204Y010362D01*
X046105Y010460D02*
X045818Y010460D01*
X045892Y010559D02*
X046032Y010559D01*
X046032Y010657D02*
X045892Y010657D01*
X043712Y011712D02*
X041942Y011712D01*
X044191Y014303D02*
X044630Y014303D01*
X044600Y014402D02*
X044242Y014402D01*
X044242Y014500D02*
X044580Y014500D01*
X044580Y014599D02*
X044242Y014599D01*
X043886Y014796D02*
X043786Y014796D01*
X043786Y014895D02*
X043886Y014895D01*
X043886Y014993D02*
X043786Y014993D01*
X043786Y015092D02*
X043886Y015092D01*
X043456Y015092D02*
X043443Y015092D01*
X046712Y008212D02*
X046962Y007962D01*
X046962Y004212D01*
X046462Y003712D01*
X046892Y003759D02*
X047712Y003759D01*
X047712Y003661D02*
X046892Y003661D01*
X046892Y003562D02*
X047712Y003562D01*
X047712Y003464D02*
X046822Y003464D01*
X046723Y003365D02*
X047712Y003365D01*
X047712Y003266D02*
X046731Y003266D01*
X046814Y003248D02*
X046814Y003248D01*
X046952Y003168D02*
X047712Y003168D01*
X047712Y003069D02*
X047123Y003069D01*
X047240Y003002D02*
X047240Y003002D01*
X047269Y002971D02*
X047712Y002971D01*
X047712Y002872D02*
X047360Y002872D01*
X047452Y002774D02*
X047712Y002774D01*
X047712Y002675D02*
X047543Y002675D01*
X047606Y002577D02*
X047712Y002577D01*
X047712Y002478D02*
X047653Y002478D01*
X047701Y002380D02*
X047712Y002380D01*
X045844Y003320D02*
X045844Y003320D01*
X046892Y003858D02*
X047712Y003858D01*
X047712Y003956D02*
X046961Y003956D01*
X047059Y004055D02*
X047712Y004055D01*
X047712Y004153D02*
X047142Y004153D01*
X047142Y004252D02*
X047712Y004252D01*
X047712Y004350D02*
X047142Y004350D01*
X047142Y004449D02*
X047712Y004449D01*
X047712Y004548D02*
X047142Y004548D01*
X047142Y004646D02*
X047712Y004646D01*
X047712Y004745D02*
X047142Y004745D01*
X047142Y004843D02*
X047712Y004843D01*
X047712Y004942D02*
X047142Y004942D01*
X047142Y005040D02*
X047712Y005040D01*
X047712Y005139D02*
X047142Y005139D01*
X047142Y005237D02*
X047712Y005237D01*
X047712Y005336D02*
X047142Y005336D01*
X047142Y005434D02*
X047712Y005434D01*
X047712Y005533D02*
X047142Y005533D01*
X047142Y005632D02*
X047712Y005632D01*
X047712Y005730D02*
X047142Y005730D01*
X047142Y005829D02*
X047712Y005829D01*
X047712Y005927D02*
X047142Y005927D01*
X047142Y006026D02*
X047712Y006026D01*
X047712Y006124D02*
X047142Y006124D01*
X047142Y006223D02*
X047712Y006223D01*
X047712Y006321D02*
X047142Y006321D01*
X047142Y006420D02*
X047712Y006420D01*
X047712Y006518D02*
X047142Y006518D01*
X047142Y006617D02*
X047712Y006617D01*
X046782Y007000D02*
X046640Y007142D01*
X046284Y007142D01*
X046227Y007085D01*
X045826Y007352D01*
X045786Y007392D01*
X045766Y007392D01*
X045756Y007398D01*
X045892Y007534D01*
X045892Y007890D01*
X045750Y008032D01*
X046145Y008032D01*
X046012Y007898D01*
X045883Y007898D01*
X045892Y007799D02*
X046012Y007799D01*
X046012Y007752D02*
X046421Y007752D01*
X046421Y007672D01*
X046012Y007672D01*
X046012Y007525D01*
X046275Y007262D01*
X046422Y007262D01*
X046422Y007671D01*
X046502Y007671D01*
X046502Y007262D01*
X046648Y007262D01*
X046782Y007395D01*
X046782Y007000D01*
X046782Y007011D02*
X046770Y007011D01*
X046782Y007110D02*
X046672Y007110D01*
X046782Y007208D02*
X046041Y007208D01*
X045893Y007307D02*
X046230Y007307D01*
X046132Y007405D02*
X045763Y007405D01*
X045862Y007504D02*
X046033Y007504D01*
X046012Y007602D02*
X045892Y007602D01*
X045892Y007701D02*
X046421Y007701D01*
X046422Y007602D02*
X046502Y007602D01*
X046502Y007504D02*
X046422Y007504D01*
X046422Y007405D02*
X046502Y007405D01*
X046502Y007307D02*
X046422Y007307D01*
X046252Y007110D02*
X046189Y007110D01*
X046693Y007307D02*
X046782Y007307D01*
X046012Y007752D02*
X046012Y007898D01*
X046110Y007997D02*
X045785Y007997D01*
X041962Y008192D02*
X041962Y007712D01*
X045962Y005212D02*
X046462Y004712D01*
X046709Y004350D02*
X046782Y004350D01*
X004016Y010460D02*
X000442Y010460D01*
X000442Y010559D02*
X004016Y010559D01*
X004031Y010657D02*
X000442Y010657D01*
D40*
X012462Y007962D03*
X014712Y007712D03*
X015712Y008462D03*
X017962Y008712D03*
X016962Y009712D03*
X017212Y010462D03*
X017962Y010462D03*
X018712Y010462D03*
X019462Y010462D03*
X019712Y009712D03*
X021962Y008212D03*
X023962Y007712D03*
X025212Y008712D03*
X029462Y006462D03*
X027462Y005962D03*
X026712Y005962D03*
X025712Y006212D03*
X027962Y005712D03*
X029212Y005712D03*
X026712Y004462D03*
X024712Y004962D03*
X022212Y004462D03*
X019962Y004962D03*
X018712Y004712D03*
X016962Y004462D03*
X016462Y004962D03*
X018712Y005462D03*
X016962Y006212D03*
X011962Y005462D03*
X006962Y004962D03*
X009212Y006962D03*
X022212Y005962D03*
X034212Y008462D03*
X037462Y007712D03*
X039462Y007212D03*
X040212Y007212D03*
X041962Y007712D03*
X041212Y008712D03*
X039962Y009212D03*
X039462Y008962D03*
X040962Y009462D03*
X039962Y010212D03*
X038962Y010712D03*
X039212Y011212D03*
X040462Y010962D03*
X039462Y011712D03*
X039712Y012212D03*
X043212Y012712D03*
X042712Y013712D03*
X043962Y013962D03*
X039962Y013712D03*
X043712Y011712D03*
X037212Y006462D03*
X037212Y005712D03*
X038962Y005212D03*
X042962Y005212D03*
X025712Y002212D03*
X015212Y002212D03*
X016212Y011962D03*
X019015Y012712D03*
X019765Y012712D03*
X020515Y012712D03*
X020212Y013212D03*
X019515Y013212D03*
X020962Y013212D03*
X019712Y014962D03*
D41*
X021212Y009786D02*
X021212Y009462D01*
X018452Y009471D01*
X018212Y009471D01*
D42*
X020249Y009424D02*
X020249Y008462D01*
X020249Y007402D01*
X020249Y006249D01*
X019962Y005962D01*
X019962Y004962D01*
X019304Y005304D02*
X019962Y005962D01*
X019304Y005304D02*
X019304Y004022D01*
X021212Y009462D02*
X021712Y009462D01*
X022462Y009462D01*
X022712Y009712D01*
X022712Y014712D01*
X022712Y015212D01*
X022712Y014712D02*
X023462Y015462D01*
X040462Y015462D01*
X041212Y014712D01*
X041942Y014712D01*
X037982Y014712D02*
X036212Y014712D01*
X034712Y013212D01*
X034712Y011462D01*
D43*
X028712Y011462D02*
X028712Y009712D01*
X027962Y008962D01*
X026962Y008962D01*
X026962Y012462D01*
X027712Y012462D01*
X028712Y011462D01*
X028700Y011473D02*
X026962Y011473D01*
X026962Y011355D02*
X028712Y011355D01*
X028712Y011236D02*
X026962Y011236D01*
X026962Y011118D02*
X028712Y011118D01*
X028712Y010999D02*
X026962Y010999D01*
X026962Y010881D02*
X028712Y010881D01*
X028712Y010762D02*
X026962Y010762D01*
X026962Y010643D02*
X028712Y010643D01*
X028712Y010525D02*
X026962Y010525D01*
X026962Y010406D02*
X028712Y010406D01*
X028712Y010288D02*
X026962Y010288D01*
X026962Y010169D02*
X028712Y010169D01*
X028712Y010051D02*
X026962Y010051D01*
X026962Y009932D02*
X028712Y009932D01*
X028712Y009814D02*
X026962Y009814D01*
X026962Y009695D02*
X028695Y009695D01*
X028577Y009577D02*
X026962Y009577D01*
X026962Y009458D02*
X028458Y009458D01*
X028339Y009339D02*
X026962Y009339D01*
X026962Y009221D02*
X028221Y009221D01*
X028102Y009102D02*
X026962Y009102D01*
X026962Y008984D02*
X027984Y008984D01*
X025212Y008712D02*
X025182Y008742D01*
X025182Y009212D01*
X023962Y009212D01*
X023962Y009338D01*
X020338Y008462D02*
X020249Y008462D01*
X019619Y008428D02*
X019336Y008659D01*
X019619Y008428D02*
X019619Y007402D01*
X021189Y004962D02*
X024712Y004962D01*
X021189Y004962D02*
X021152Y004924D01*
X019304Y004022D02*
X019304Y003554D01*
X019212Y003462D01*
X016836Y003462D01*
X009712Y007588D02*
X009690Y007566D01*
X006712Y009712D02*
X006101Y009101D01*
X005534Y009101D01*
X006712Y009712D02*
X006712Y011086D01*
X006836Y011212D01*
X007838Y011212D01*
X006092Y011216D02*
X006088Y011212D01*
X006092Y011216D02*
X006092Y012862D01*
X005777Y012862D02*
X005777Y012027D01*
X005212Y011462D01*
X005212Y010712D01*
X005462Y010462D01*
X005962Y010462D01*
X006212Y010212D01*
X006212Y009962D01*
X006119Y009869D01*
X005534Y009869D01*
X005534Y010125D02*
X005048Y010125D01*
X004962Y010212D01*
X004962Y011712D01*
X005462Y012212D01*
X005462Y012862D01*
X026962Y012422D02*
X027752Y012422D01*
X027870Y012303D02*
X026962Y012303D01*
X026962Y012185D02*
X027989Y012185D01*
X028107Y012066D02*
X026962Y012066D01*
X026962Y011947D02*
X028226Y011947D01*
X028344Y011829D02*
X026962Y011829D01*
X026962Y011710D02*
X028463Y011710D01*
X028581Y011592D02*
X026962Y011592D01*
X041942Y008212D02*
X041962Y008192D01*
D44*
X003212Y004212D03*
X002212Y004212D03*
X001212Y004212D03*
X001212Y012212D03*
X002212Y012212D03*
X003212Y012212D03*
D45*
X012212Y010781D02*
X012531Y010781D01*
X014712Y012962D01*
X014712Y013962D01*
M02*
