G75*
G70*
%OFA0B0*%
%FSLAX24Y24*%
%IPPOS*%
%LPD*%
%AMOC8*
5,1,8,0,0,1.08239X$1,22.5*
%
%ADD10C,0.0100*%
%ADD11R,0.0256X0.0551*%
%ADD12C,0.0060*%
%ADD13C,0.0040*%
%ADD14R,0.0551X0.0256*%
%ADD15R,0.0571X0.0295*%
%ADD16R,0.0295X0.0571*%
%ADD17C,0.0020*%
%ADD18C,0.0050*%
%ADD19C,0.0030*%
%ADD20C,0.0080*%
%ADD21R,0.1000X0.0200*%
%ADD22C,0.0200*%
%ADD23R,0.0200X0.0150*%
%ADD24R,0.0050X0.0200*%
%ADD25R,0.0580X0.0200*%
%ADD26C,0.0160*%
%ADD27R,0.0400X0.0140*%
%ADD28R,0.0256X0.0866*%
%ADD29R,0.0266X0.0965*%
%ADD30R,0.0180X0.0390*%
%ADD31R,0.0390X0.0180*%
%ADD32R,0.0200X0.0200*%
%ADD33C,0.0039*%
%ADD34R,0.0197X0.0984*%
%ADD35R,0.1181X0.0197*%
%ADD36R,0.0984X0.0079*%
%ADD37R,0.0200X0.1000*%
%ADD38C,0.0300*%
%ADD39R,0.0750X0.0300*%
%ADD40C,0.0180*%
%ADD41R,0.0510X0.0140*%
%ADD42C,0.0348*%
%ADD43R,0.1260X0.0730*%
%ADD44R,0.0340X0.0730*%
%ADD45R,0.0300X0.0260*%
%ADD46C,0.0260*%
%ADD47R,0.0260X0.0260*%
%ADD48R,0.0320X0.0260*%
%ADD49R,0.0680X0.0260*%
%ADD50R,0.0460X0.0260*%
%ADD51R,0.0128X0.0197*%
%ADD52R,0.0059X0.0098*%
%ADD53R,0.0157X0.0069*%
%ADD54R,0.0079X0.0079*%
%ADD55R,0.0118X0.0118*%
%ADD56R,0.0128X0.0030*%
%ADD57R,0.0240X0.0240*%
%ADD58C,0.0000*%
D10*
X003001Y001761D02*
X002118Y001761D01*
X002119Y001762D02*
X002112Y001800D01*
X002102Y001838D01*
X002089Y001874D01*
X002072Y001909D01*
X002051Y001942D01*
X002028Y001973D01*
X002002Y002002D01*
X001973Y002028D01*
X001942Y002051D01*
X001909Y002072D01*
X001874Y002089D01*
X001838Y002102D01*
X001800Y002112D01*
X001762Y002119D01*
X001761Y003001D01*
X001762Y003001D01*
X001833Y002996D01*
X001904Y002988D01*
X001974Y002975D01*
X002044Y002959D01*
X002112Y002938D01*
X002179Y002914D01*
X002245Y002887D01*
X002309Y002856D01*
X002371Y002821D01*
X002432Y002783D01*
X002490Y002741D01*
X002545Y002697D01*
X002599Y002649D01*
X002649Y002599D01*
X002697Y002545D01*
X002741Y002490D01*
X002783Y002432D01*
X002821Y002371D01*
X002856Y002309D01*
X002887Y002245D01*
X002914Y002179D01*
X002938Y002112D01*
X002959Y002044D01*
X002975Y001974D01*
X002988Y001904D01*
X002996Y001833D01*
X003001Y001762D01*
X002907Y001762D01*
X002902Y001830D01*
X002893Y001898D01*
X002881Y001965D01*
X002864Y002032D01*
X002844Y002097D01*
X002820Y002161D01*
X002793Y002224D01*
X002762Y002285D01*
X002727Y002344D01*
X002690Y002401D01*
X002649Y002456D01*
X002605Y002508D01*
X002558Y002558D01*
X002508Y002605D01*
X002456Y002649D01*
X002401Y002690D01*
X002344Y002727D01*
X002285Y002762D01*
X002224Y002793D01*
X002161Y002820D01*
X002097Y002844D01*
X002032Y002864D01*
X001965Y002881D01*
X001898Y002893D01*
X001830Y002902D01*
X001762Y002907D01*
X001762Y002813D01*
X001827Y002808D01*
X001892Y002799D01*
X001956Y002787D01*
X002019Y002770D01*
X002081Y002750D01*
X002142Y002727D01*
X002201Y002700D01*
X002259Y002669D01*
X002314Y002635D01*
X002368Y002598D01*
X002419Y002557D01*
X002468Y002514D01*
X002514Y002468D01*
X002557Y002419D01*
X002598Y002368D01*
X002635Y002314D01*
X002669Y002259D01*
X002700Y002201D01*
X002727Y002142D01*
X002750Y002081D01*
X002770Y002019D01*
X002787Y001956D01*
X002799Y001892D01*
X002808Y001827D01*
X002813Y001762D01*
X002719Y001762D01*
X002714Y001824D01*
X002705Y001885D01*
X002693Y001945D01*
X002676Y002005D01*
X002657Y002063D01*
X002633Y002121D01*
X002607Y002176D01*
X002577Y002230D01*
X002543Y002282D01*
X002507Y002332D01*
X002467Y002380D01*
X002425Y002425D01*
X002380Y002467D01*
X002332Y002507D01*
X002282Y002543D01*
X002230Y002577D01*
X002176Y002607D01*
X002121Y002633D01*
X002063Y002657D01*
X002005Y002676D01*
X001945Y002693D01*
X001885Y002705D01*
X001824Y002714D01*
X001762Y002719D01*
X001762Y002625D01*
X001820Y002620D01*
X001877Y002611D01*
X001934Y002599D01*
X001990Y002583D01*
X002045Y002563D01*
X002098Y002541D01*
X002150Y002514D01*
X002200Y002485D01*
X002248Y002452D01*
X002294Y002417D01*
X002337Y002378D01*
X002378Y002337D01*
X002417Y002294D01*
X002452Y002248D01*
X002485Y002200D01*
X002514Y002150D01*
X002541Y002098D01*
X002563Y002045D01*
X002583Y001990D01*
X002599Y001934D01*
X002611Y001877D01*
X002620Y001820D01*
X002625Y001762D01*
X002530Y001762D01*
X002525Y001818D01*
X002516Y001874D01*
X002503Y001929D01*
X002486Y001983D01*
X002465Y002036D01*
X002441Y002087D01*
X002414Y002136D01*
X002383Y002184D01*
X002349Y002229D01*
X002311Y002271D01*
X002271Y002311D01*
X002229Y002349D01*
X002184Y002383D01*
X002136Y002414D01*
X002087Y002441D01*
X002036Y002465D01*
X001983Y002486D01*
X001929Y002503D01*
X001874Y002516D01*
X001818Y002525D01*
X001762Y002530D01*
X001762Y002436D01*
X001814Y002431D01*
X001865Y002422D01*
X001915Y002409D01*
X001965Y002393D01*
X002013Y002373D01*
X002059Y002350D01*
X002104Y002323D01*
X002147Y002293D01*
X002187Y002261D01*
X002225Y002225D01*
X002261Y002187D01*
X002293Y002147D01*
X002323Y002104D01*
X002350Y002059D01*
X002373Y002013D01*
X002393Y001965D01*
X002409Y001915D01*
X002422Y001865D01*
X002431Y001814D01*
X002436Y001762D01*
X002342Y001762D01*
X002336Y001811D01*
X002326Y001860D01*
X002313Y001908D01*
X002296Y001954D01*
X002275Y001999D01*
X002251Y002042D01*
X002223Y002084D01*
X002193Y002122D01*
X002159Y002159D01*
X002122Y002193D01*
X002084Y002223D01*
X002042Y002251D01*
X001999Y002275D01*
X001954Y002296D01*
X001908Y002313D01*
X001860Y002326D01*
X001811Y002336D01*
X001762Y002342D01*
X001762Y002248D01*
X001805Y002242D01*
X001848Y002232D01*
X001890Y002220D01*
X001931Y002204D01*
X001970Y002184D01*
X002008Y002162D01*
X002043Y002136D01*
X002077Y002108D01*
X002108Y002077D01*
X002136Y002043D01*
X002162Y002008D01*
X002184Y001970D01*
X002204Y001931D01*
X002220Y001890D01*
X002232Y001848D01*
X002242Y001805D01*
X002248Y001762D01*
X002153Y001762D01*
X002147Y001801D01*
X002137Y001840D01*
X002124Y001877D01*
X002108Y001914D01*
X002088Y001948D01*
X002065Y001981D01*
X002040Y002012D01*
X002012Y002040D01*
X001981Y002065D01*
X001948Y002088D01*
X001914Y002108D01*
X001877Y002124D01*
X001840Y002137D01*
X001801Y002147D01*
X001762Y002153D01*
X000423Y001663D02*
X001306Y001663D01*
X001305Y001662D02*
X001312Y001624D01*
X001322Y001586D01*
X001335Y001550D01*
X001352Y001515D01*
X001373Y001482D01*
X001396Y001451D01*
X001422Y001422D01*
X001451Y001396D01*
X001482Y001373D01*
X001515Y001352D01*
X001550Y001335D01*
X001586Y001322D01*
X001624Y001312D01*
X001662Y001305D01*
X001663Y000423D01*
X001662Y000423D01*
X001591Y000428D01*
X001520Y000436D01*
X001450Y000449D01*
X001380Y000465D01*
X001312Y000486D01*
X001245Y000510D01*
X001179Y000537D01*
X001115Y000568D01*
X001053Y000603D01*
X000992Y000641D01*
X000934Y000683D01*
X000879Y000727D01*
X000825Y000775D01*
X000775Y000825D01*
X000727Y000879D01*
X000683Y000934D01*
X000641Y000992D01*
X000603Y001053D01*
X000568Y001115D01*
X000537Y001179D01*
X000510Y001245D01*
X000486Y001312D01*
X000465Y001380D01*
X000449Y001450D01*
X000436Y001520D01*
X000428Y001591D01*
X000423Y001662D01*
X000517Y001662D01*
X000522Y001594D01*
X000531Y001526D01*
X000543Y001459D01*
X000560Y001392D01*
X000580Y001327D01*
X000604Y001263D01*
X000631Y001200D01*
X000662Y001139D01*
X000697Y001080D01*
X000734Y001023D01*
X000775Y000968D01*
X000819Y000916D01*
X000866Y000866D01*
X000916Y000819D01*
X000968Y000775D01*
X001023Y000734D01*
X001080Y000697D01*
X001139Y000662D01*
X001200Y000631D01*
X001263Y000604D01*
X001327Y000580D01*
X001392Y000560D01*
X001459Y000543D01*
X001526Y000531D01*
X001594Y000522D01*
X001662Y000517D01*
X001662Y000611D01*
X001597Y000616D01*
X001532Y000625D01*
X001468Y000637D01*
X001405Y000654D01*
X001343Y000674D01*
X001282Y000697D01*
X001223Y000724D01*
X001165Y000755D01*
X001110Y000789D01*
X001056Y000826D01*
X001005Y000867D01*
X000956Y000910D01*
X000910Y000956D01*
X000867Y001005D01*
X000826Y001056D01*
X000789Y001110D01*
X000755Y001165D01*
X000724Y001223D01*
X000697Y001282D01*
X000674Y001343D01*
X000654Y001405D01*
X000637Y001468D01*
X000625Y001532D01*
X000616Y001597D01*
X000611Y001662D01*
X000705Y001662D01*
X000710Y001600D01*
X000719Y001539D01*
X000731Y001479D01*
X000748Y001419D01*
X000767Y001361D01*
X000791Y001303D01*
X000817Y001248D01*
X000847Y001194D01*
X000881Y001142D01*
X000917Y001092D01*
X000957Y001044D01*
X000999Y000999D01*
X001044Y000957D01*
X001092Y000917D01*
X001142Y000881D01*
X001194Y000847D01*
X001248Y000817D01*
X001303Y000791D01*
X001361Y000767D01*
X001419Y000748D01*
X001479Y000731D01*
X001539Y000719D01*
X001600Y000710D01*
X001662Y000705D01*
X001662Y000799D01*
X001604Y000804D01*
X001547Y000813D01*
X001490Y000825D01*
X001434Y000841D01*
X001379Y000861D01*
X001326Y000883D01*
X001274Y000910D01*
X001224Y000939D01*
X001176Y000972D01*
X001130Y001007D01*
X001087Y001046D01*
X001046Y001087D01*
X001007Y001130D01*
X000972Y001176D01*
X000939Y001224D01*
X000910Y001274D01*
X000883Y001326D01*
X000861Y001379D01*
X000841Y001434D01*
X000825Y001490D01*
X000813Y001547D01*
X000804Y001604D01*
X000799Y001662D01*
X000894Y001662D01*
X000899Y001606D01*
X000908Y001550D01*
X000921Y001495D01*
X000938Y001441D01*
X000959Y001388D01*
X000983Y001337D01*
X001010Y001288D01*
X001041Y001240D01*
X001075Y001195D01*
X001113Y001153D01*
X001153Y001113D01*
X001195Y001075D01*
X001240Y001041D01*
X001288Y001010D01*
X001337Y000983D01*
X001388Y000959D01*
X001441Y000938D01*
X001495Y000921D01*
X001550Y000908D01*
X001606Y000899D01*
X001662Y000894D01*
X001662Y000988D01*
X001610Y000993D01*
X001559Y001002D01*
X001509Y001015D01*
X001459Y001031D01*
X001411Y001051D01*
X001365Y001074D01*
X001320Y001101D01*
X001277Y001131D01*
X001237Y001163D01*
X001199Y001199D01*
X001163Y001237D01*
X001131Y001277D01*
X001101Y001320D01*
X001074Y001365D01*
X001051Y001411D01*
X001031Y001459D01*
X001015Y001509D01*
X001002Y001559D01*
X000993Y001610D01*
X000988Y001662D01*
X001082Y001662D01*
X001088Y001613D01*
X001098Y001564D01*
X001111Y001516D01*
X001128Y001470D01*
X001149Y001425D01*
X001173Y001382D01*
X001201Y001340D01*
X001231Y001302D01*
X001265Y001265D01*
X001302Y001231D01*
X001340Y001201D01*
X001382Y001173D01*
X001425Y001149D01*
X001470Y001128D01*
X001516Y001111D01*
X001564Y001098D01*
X001613Y001088D01*
X001662Y001082D01*
X001662Y001176D01*
X001619Y001182D01*
X001576Y001192D01*
X001534Y001204D01*
X001493Y001220D01*
X001454Y001240D01*
X001416Y001262D01*
X001381Y001288D01*
X001347Y001316D01*
X001316Y001347D01*
X001288Y001381D01*
X001262Y001416D01*
X001240Y001454D01*
X001220Y001493D01*
X001204Y001534D01*
X001192Y001576D01*
X001182Y001619D01*
X001176Y001662D01*
X001271Y001662D01*
X001277Y001623D01*
X001287Y001584D01*
X001300Y001547D01*
X001316Y001510D01*
X001336Y001476D01*
X001359Y001443D01*
X001384Y001412D01*
X001412Y001384D01*
X001443Y001359D01*
X001476Y001336D01*
X001510Y001316D01*
X001547Y001300D01*
X001584Y001287D01*
X001623Y001277D01*
X001662Y001271D01*
X026462Y001212D02*
X026462Y003212D01*
X029462Y003212D01*
X029462Y001212D01*
X026462Y001212D01*
X047501Y001761D02*
X046618Y001761D01*
X046619Y001762D02*
X046612Y001800D01*
X046602Y001838D01*
X046589Y001874D01*
X046572Y001909D01*
X046551Y001942D01*
X046528Y001973D01*
X046502Y002002D01*
X046473Y002028D01*
X046442Y002051D01*
X046409Y002072D01*
X046374Y002089D01*
X046338Y002102D01*
X046300Y002112D01*
X046262Y002119D01*
X046261Y003001D01*
X046262Y003001D01*
X046333Y002996D01*
X046404Y002988D01*
X046474Y002975D01*
X046544Y002959D01*
X046612Y002938D01*
X046679Y002914D01*
X046745Y002887D01*
X046809Y002856D01*
X046871Y002821D01*
X046932Y002783D01*
X046990Y002741D01*
X047045Y002697D01*
X047099Y002649D01*
X047149Y002599D01*
X047197Y002545D01*
X047241Y002490D01*
X047283Y002432D01*
X047321Y002371D01*
X047356Y002309D01*
X047387Y002245D01*
X047414Y002179D01*
X047438Y002112D01*
X047459Y002044D01*
X047475Y001974D01*
X047488Y001904D01*
X047496Y001833D01*
X047501Y001762D01*
X047407Y001762D01*
X047402Y001830D01*
X047393Y001898D01*
X047381Y001965D01*
X047364Y002032D01*
X047344Y002097D01*
X047320Y002161D01*
X047293Y002224D01*
X047262Y002285D01*
X047227Y002344D01*
X047190Y002401D01*
X047149Y002456D01*
X047105Y002508D01*
X047058Y002558D01*
X047008Y002605D01*
X046956Y002649D01*
X046901Y002690D01*
X046844Y002727D01*
X046785Y002762D01*
X046724Y002793D01*
X046661Y002820D01*
X046597Y002844D01*
X046532Y002864D01*
X046465Y002881D01*
X046398Y002893D01*
X046330Y002902D01*
X046262Y002907D01*
X046262Y002813D01*
X046327Y002808D01*
X046392Y002799D01*
X046456Y002787D01*
X046519Y002770D01*
X046581Y002750D01*
X046642Y002727D01*
X046701Y002700D01*
X046759Y002669D01*
X046814Y002635D01*
X046868Y002598D01*
X046919Y002557D01*
X046968Y002514D01*
X047014Y002468D01*
X047057Y002419D01*
X047098Y002368D01*
X047135Y002314D01*
X047169Y002259D01*
X047200Y002201D01*
X047227Y002142D01*
X047250Y002081D01*
X047270Y002019D01*
X047287Y001956D01*
X047299Y001892D01*
X047308Y001827D01*
X047313Y001762D01*
X047219Y001762D01*
X047214Y001824D01*
X047205Y001885D01*
X047193Y001945D01*
X047176Y002005D01*
X047157Y002063D01*
X047133Y002121D01*
X047107Y002176D01*
X047077Y002230D01*
X047043Y002282D01*
X047007Y002332D01*
X046967Y002380D01*
X046925Y002425D01*
X046880Y002467D01*
X046832Y002507D01*
X046782Y002543D01*
X046730Y002577D01*
X046676Y002607D01*
X046621Y002633D01*
X046563Y002657D01*
X046505Y002676D01*
X046445Y002693D01*
X046385Y002705D01*
X046324Y002714D01*
X046262Y002719D01*
X046262Y002625D01*
X046320Y002620D01*
X046377Y002611D01*
X046434Y002599D01*
X046490Y002583D01*
X046545Y002563D01*
X046598Y002541D01*
X046650Y002514D01*
X046700Y002485D01*
X046748Y002452D01*
X046794Y002417D01*
X046837Y002378D01*
X046878Y002337D01*
X046917Y002294D01*
X046952Y002248D01*
X046985Y002200D01*
X047014Y002150D01*
X047041Y002098D01*
X047063Y002045D01*
X047083Y001990D01*
X047099Y001934D01*
X047111Y001877D01*
X047120Y001820D01*
X047125Y001762D01*
X047030Y001762D01*
X047025Y001818D01*
X047016Y001874D01*
X047003Y001929D01*
X046986Y001983D01*
X046965Y002036D01*
X046941Y002087D01*
X046914Y002136D01*
X046883Y002184D01*
X046849Y002229D01*
X046811Y002271D01*
X046771Y002311D01*
X046729Y002349D01*
X046684Y002383D01*
X046636Y002414D01*
X046587Y002441D01*
X046536Y002465D01*
X046483Y002486D01*
X046429Y002503D01*
X046374Y002516D01*
X046318Y002525D01*
X046262Y002530D01*
X046262Y002436D01*
X046314Y002431D01*
X046365Y002422D01*
X046415Y002409D01*
X046465Y002393D01*
X046513Y002373D01*
X046559Y002350D01*
X046604Y002323D01*
X046647Y002293D01*
X046687Y002261D01*
X046725Y002225D01*
X046761Y002187D01*
X046793Y002147D01*
X046823Y002104D01*
X046850Y002059D01*
X046873Y002013D01*
X046893Y001965D01*
X046909Y001915D01*
X046922Y001865D01*
X046931Y001814D01*
X046936Y001762D01*
X046842Y001762D01*
X046836Y001811D01*
X046826Y001860D01*
X046813Y001908D01*
X046796Y001954D01*
X046775Y001999D01*
X046751Y002042D01*
X046723Y002084D01*
X046693Y002122D01*
X046659Y002159D01*
X046622Y002193D01*
X046584Y002223D01*
X046542Y002251D01*
X046499Y002275D01*
X046454Y002296D01*
X046408Y002313D01*
X046360Y002326D01*
X046311Y002336D01*
X046262Y002342D01*
X046262Y002248D01*
X046305Y002242D01*
X046348Y002232D01*
X046390Y002220D01*
X046431Y002204D01*
X046470Y002184D01*
X046508Y002162D01*
X046543Y002136D01*
X046577Y002108D01*
X046608Y002077D01*
X046636Y002043D01*
X046662Y002008D01*
X046684Y001970D01*
X046704Y001931D01*
X046720Y001890D01*
X046732Y001848D01*
X046742Y001805D01*
X046748Y001762D01*
X046653Y001762D01*
X046647Y001801D01*
X046637Y001840D01*
X046624Y001877D01*
X046608Y001914D01*
X046588Y001948D01*
X046565Y001981D01*
X046540Y002012D01*
X046512Y002040D01*
X046481Y002065D01*
X046448Y002088D01*
X046414Y002108D01*
X046377Y002124D01*
X046340Y002137D01*
X046301Y002147D01*
X046262Y002153D01*
X044923Y001663D02*
X045806Y001663D01*
X045805Y001662D02*
X045812Y001624D01*
X045822Y001586D01*
X045835Y001550D01*
X045852Y001515D01*
X045873Y001482D01*
X045896Y001451D01*
X045922Y001422D01*
X045951Y001396D01*
X045982Y001373D01*
X046015Y001352D01*
X046050Y001335D01*
X046086Y001322D01*
X046124Y001312D01*
X046162Y001305D01*
X046163Y000423D01*
X046162Y000423D01*
X046091Y000428D01*
X046020Y000436D01*
X045950Y000449D01*
X045880Y000465D01*
X045812Y000486D01*
X045745Y000510D01*
X045679Y000537D01*
X045615Y000568D01*
X045553Y000603D01*
X045492Y000641D01*
X045434Y000683D01*
X045379Y000727D01*
X045325Y000775D01*
X045275Y000825D01*
X045227Y000879D01*
X045183Y000934D01*
X045141Y000992D01*
X045103Y001053D01*
X045068Y001115D01*
X045037Y001179D01*
X045010Y001245D01*
X044986Y001312D01*
X044965Y001380D01*
X044949Y001450D01*
X044936Y001520D01*
X044928Y001591D01*
X044923Y001662D01*
X045017Y001662D01*
X045022Y001594D01*
X045031Y001526D01*
X045043Y001459D01*
X045060Y001392D01*
X045080Y001327D01*
X045104Y001263D01*
X045131Y001200D01*
X045162Y001139D01*
X045197Y001080D01*
X045234Y001023D01*
X045275Y000968D01*
X045319Y000916D01*
X045366Y000866D01*
X045416Y000819D01*
X045468Y000775D01*
X045523Y000734D01*
X045580Y000697D01*
X045639Y000662D01*
X045700Y000631D01*
X045763Y000604D01*
X045827Y000580D01*
X045892Y000560D01*
X045959Y000543D01*
X046026Y000531D01*
X046094Y000522D01*
X046162Y000517D01*
X046162Y000611D01*
X046097Y000616D01*
X046032Y000625D01*
X045968Y000637D01*
X045905Y000654D01*
X045843Y000674D01*
X045782Y000697D01*
X045723Y000724D01*
X045665Y000755D01*
X045610Y000789D01*
X045556Y000826D01*
X045505Y000867D01*
X045456Y000910D01*
X045410Y000956D01*
X045367Y001005D01*
X045326Y001056D01*
X045289Y001110D01*
X045255Y001165D01*
X045224Y001223D01*
X045197Y001282D01*
X045174Y001343D01*
X045154Y001405D01*
X045137Y001468D01*
X045125Y001532D01*
X045116Y001597D01*
X045111Y001662D01*
X045205Y001662D01*
X045210Y001600D01*
X045219Y001539D01*
X045231Y001479D01*
X045248Y001419D01*
X045267Y001361D01*
X045291Y001303D01*
X045317Y001248D01*
X045347Y001194D01*
X045381Y001142D01*
X045417Y001092D01*
X045457Y001044D01*
X045499Y000999D01*
X045544Y000957D01*
X045592Y000917D01*
X045642Y000881D01*
X045694Y000847D01*
X045748Y000817D01*
X045803Y000791D01*
X045861Y000767D01*
X045919Y000748D01*
X045979Y000731D01*
X046039Y000719D01*
X046100Y000710D01*
X046162Y000705D01*
X046162Y000799D01*
X046104Y000804D01*
X046047Y000813D01*
X045990Y000825D01*
X045934Y000841D01*
X045879Y000861D01*
X045826Y000883D01*
X045774Y000910D01*
X045724Y000939D01*
X045676Y000972D01*
X045630Y001007D01*
X045587Y001046D01*
X045546Y001087D01*
X045507Y001130D01*
X045472Y001176D01*
X045439Y001224D01*
X045410Y001274D01*
X045383Y001326D01*
X045361Y001379D01*
X045341Y001434D01*
X045325Y001490D01*
X045313Y001547D01*
X045304Y001604D01*
X045299Y001662D01*
X045394Y001662D01*
X045399Y001606D01*
X045408Y001550D01*
X045421Y001495D01*
X045438Y001441D01*
X045459Y001388D01*
X045483Y001337D01*
X045510Y001288D01*
X045541Y001240D01*
X045575Y001195D01*
X045613Y001153D01*
X045653Y001113D01*
X045695Y001075D01*
X045740Y001041D01*
X045788Y001010D01*
X045837Y000983D01*
X045888Y000959D01*
X045941Y000938D01*
X045995Y000921D01*
X046050Y000908D01*
X046106Y000899D01*
X046162Y000894D01*
X046162Y000988D01*
X046110Y000993D01*
X046059Y001002D01*
X046009Y001015D01*
X045959Y001031D01*
X045911Y001051D01*
X045865Y001074D01*
X045820Y001101D01*
X045777Y001131D01*
X045737Y001163D01*
X045699Y001199D01*
X045663Y001237D01*
X045631Y001277D01*
X045601Y001320D01*
X045574Y001365D01*
X045551Y001411D01*
X045531Y001459D01*
X045515Y001509D01*
X045502Y001559D01*
X045493Y001610D01*
X045488Y001662D01*
X045582Y001662D01*
X045588Y001613D01*
X045598Y001564D01*
X045611Y001516D01*
X045628Y001470D01*
X045649Y001425D01*
X045673Y001382D01*
X045701Y001340D01*
X045731Y001302D01*
X045765Y001265D01*
X045802Y001231D01*
X045840Y001201D01*
X045882Y001173D01*
X045925Y001149D01*
X045970Y001128D01*
X046016Y001111D01*
X046064Y001098D01*
X046113Y001088D01*
X046162Y001082D01*
X046162Y001176D01*
X046119Y001182D01*
X046076Y001192D01*
X046034Y001204D01*
X045993Y001220D01*
X045954Y001240D01*
X045916Y001262D01*
X045881Y001288D01*
X045847Y001316D01*
X045816Y001347D01*
X045788Y001381D01*
X045762Y001416D01*
X045740Y001454D01*
X045720Y001493D01*
X045704Y001534D01*
X045692Y001576D01*
X045682Y001619D01*
X045676Y001662D01*
X045771Y001662D01*
X045777Y001623D01*
X045787Y001584D01*
X045800Y001547D01*
X045816Y001510D01*
X045836Y001476D01*
X045859Y001443D01*
X045884Y001412D01*
X045912Y001384D01*
X045943Y001359D01*
X045976Y001336D01*
X046010Y001316D01*
X046047Y001300D01*
X046084Y001287D01*
X046123Y001277D01*
X046162Y001271D01*
X047712Y001457D02*
X047712Y001031D01*
X047712Y000638D02*
X047712Y000212D01*
X047712Y001851D02*
X047712Y002277D01*
X047712Y002671D02*
X047712Y003097D01*
X047712Y003490D02*
X047712Y003916D01*
X047712Y004310D02*
X047712Y004736D01*
X047712Y005130D02*
X047712Y005556D01*
X047712Y005949D02*
X047712Y006375D01*
X047712Y006769D02*
X047712Y007195D01*
X047712Y007589D02*
X047712Y008015D01*
X047712Y008409D02*
X047712Y008834D01*
X047712Y009228D02*
X047712Y009654D01*
X047712Y010048D02*
X047712Y010474D01*
X047712Y010868D02*
X047712Y011294D01*
X047712Y011687D02*
X047712Y012113D01*
X047712Y012507D02*
X047712Y012933D01*
X047712Y013327D02*
X047712Y013753D01*
X047712Y014146D02*
X047712Y014572D01*
X047712Y014966D02*
X047712Y015392D01*
X047712Y015786D02*
X047712Y016212D01*
X047501Y014761D02*
X046618Y014761D01*
X046619Y014762D02*
X046612Y014800D01*
X046602Y014838D01*
X046589Y014874D01*
X046572Y014909D01*
X046551Y014942D01*
X046528Y014973D01*
X046502Y015002D01*
X046473Y015028D01*
X046442Y015051D01*
X046409Y015072D01*
X046374Y015089D01*
X046338Y015102D01*
X046300Y015112D01*
X046262Y015119D01*
X046261Y016001D01*
X046262Y016001D01*
X046333Y015996D01*
X046404Y015988D01*
X046474Y015975D01*
X046544Y015959D01*
X046612Y015938D01*
X046679Y015914D01*
X046745Y015887D01*
X046809Y015856D01*
X046871Y015821D01*
X046932Y015783D01*
X046990Y015741D01*
X047045Y015697D01*
X047099Y015649D01*
X047149Y015599D01*
X047197Y015545D01*
X047241Y015490D01*
X047283Y015432D01*
X047321Y015371D01*
X047356Y015309D01*
X047387Y015245D01*
X047414Y015179D01*
X047438Y015112D01*
X047459Y015044D01*
X047475Y014974D01*
X047488Y014904D01*
X047496Y014833D01*
X047501Y014762D01*
X047407Y014762D01*
X047402Y014830D01*
X047393Y014898D01*
X047381Y014965D01*
X047364Y015032D01*
X047344Y015097D01*
X047320Y015161D01*
X047293Y015224D01*
X047262Y015285D01*
X047227Y015344D01*
X047190Y015401D01*
X047149Y015456D01*
X047105Y015508D01*
X047058Y015558D01*
X047008Y015605D01*
X046956Y015649D01*
X046901Y015690D01*
X046844Y015727D01*
X046785Y015762D01*
X046724Y015793D01*
X046661Y015820D01*
X046597Y015844D01*
X046532Y015864D01*
X046465Y015881D01*
X046398Y015893D01*
X046330Y015902D01*
X046262Y015907D01*
X046262Y015813D01*
X046327Y015808D01*
X046392Y015799D01*
X046456Y015787D01*
X046519Y015770D01*
X046581Y015750D01*
X046642Y015727D01*
X046701Y015700D01*
X046759Y015669D01*
X046814Y015635D01*
X046868Y015598D01*
X046919Y015557D01*
X046968Y015514D01*
X047014Y015468D01*
X047057Y015419D01*
X047098Y015368D01*
X047135Y015314D01*
X047169Y015259D01*
X047200Y015201D01*
X047227Y015142D01*
X047250Y015081D01*
X047270Y015019D01*
X047287Y014956D01*
X047299Y014892D01*
X047308Y014827D01*
X047313Y014762D01*
X047219Y014762D01*
X047214Y014824D01*
X047205Y014885D01*
X047193Y014945D01*
X047176Y015005D01*
X047157Y015063D01*
X047133Y015121D01*
X047107Y015176D01*
X047077Y015230D01*
X047043Y015282D01*
X047007Y015332D01*
X046967Y015380D01*
X046925Y015425D01*
X046880Y015467D01*
X046832Y015507D01*
X046782Y015543D01*
X046730Y015577D01*
X046676Y015607D01*
X046621Y015633D01*
X046563Y015657D01*
X046505Y015676D01*
X046445Y015693D01*
X046385Y015705D01*
X046324Y015714D01*
X046262Y015719D01*
X046262Y015625D01*
X046320Y015620D01*
X046377Y015611D01*
X046434Y015599D01*
X046490Y015583D01*
X046545Y015563D01*
X046598Y015541D01*
X046650Y015514D01*
X046700Y015485D01*
X046748Y015452D01*
X046794Y015417D01*
X046837Y015378D01*
X046878Y015337D01*
X046917Y015294D01*
X046952Y015248D01*
X046985Y015200D01*
X047014Y015150D01*
X047041Y015098D01*
X047063Y015045D01*
X047083Y014990D01*
X047099Y014934D01*
X047111Y014877D01*
X047120Y014820D01*
X047125Y014762D01*
X047030Y014762D01*
X047025Y014818D01*
X047016Y014874D01*
X047003Y014929D01*
X046986Y014983D01*
X046965Y015036D01*
X046941Y015087D01*
X046914Y015136D01*
X046883Y015184D01*
X046849Y015229D01*
X046811Y015271D01*
X046771Y015311D01*
X046729Y015349D01*
X046684Y015383D01*
X046636Y015414D01*
X046587Y015441D01*
X046536Y015465D01*
X046483Y015486D01*
X046429Y015503D01*
X046374Y015516D01*
X046318Y015525D01*
X046262Y015530D01*
X046262Y015436D01*
X046314Y015431D01*
X046365Y015422D01*
X046415Y015409D01*
X046465Y015393D01*
X046513Y015373D01*
X046559Y015350D01*
X046604Y015323D01*
X046647Y015293D01*
X046687Y015261D01*
X046725Y015225D01*
X046761Y015187D01*
X046793Y015147D01*
X046823Y015104D01*
X046850Y015059D01*
X046873Y015013D01*
X046893Y014965D01*
X046909Y014915D01*
X046922Y014865D01*
X046931Y014814D01*
X046936Y014762D01*
X046842Y014762D01*
X046836Y014811D01*
X046826Y014860D01*
X046813Y014908D01*
X046796Y014954D01*
X046775Y014999D01*
X046751Y015042D01*
X046723Y015084D01*
X046693Y015122D01*
X046659Y015159D01*
X046622Y015193D01*
X046584Y015223D01*
X046542Y015251D01*
X046499Y015275D01*
X046454Y015296D01*
X046408Y015313D01*
X046360Y015326D01*
X046311Y015336D01*
X046262Y015342D01*
X046262Y015248D01*
X046305Y015242D01*
X046348Y015232D01*
X046390Y015220D01*
X046431Y015204D01*
X046470Y015184D01*
X046508Y015162D01*
X046543Y015136D01*
X046577Y015108D01*
X046608Y015077D01*
X046636Y015043D01*
X046662Y015008D01*
X046684Y014970D01*
X046704Y014931D01*
X046720Y014890D01*
X046732Y014848D01*
X046742Y014805D01*
X046748Y014762D01*
X046653Y014762D01*
X046647Y014801D01*
X046637Y014840D01*
X046624Y014877D01*
X046608Y014914D01*
X046588Y014948D01*
X046565Y014981D01*
X046540Y015012D01*
X046512Y015040D01*
X046481Y015065D01*
X046448Y015088D01*
X046414Y015108D01*
X046377Y015124D01*
X046340Y015137D01*
X046301Y015147D01*
X046262Y015153D01*
X044923Y014663D02*
X045806Y014663D01*
X045805Y014662D02*
X045812Y014624D01*
X045822Y014586D01*
X045835Y014550D01*
X045852Y014515D01*
X045873Y014482D01*
X045896Y014451D01*
X045922Y014422D01*
X045951Y014396D01*
X045982Y014373D01*
X046015Y014352D01*
X046050Y014335D01*
X046086Y014322D01*
X046124Y014312D01*
X046162Y014305D01*
X046163Y013423D01*
X046162Y013423D01*
X046091Y013428D01*
X046020Y013436D01*
X045950Y013449D01*
X045880Y013465D01*
X045812Y013486D01*
X045745Y013510D01*
X045679Y013537D01*
X045615Y013568D01*
X045553Y013603D01*
X045492Y013641D01*
X045434Y013683D01*
X045379Y013727D01*
X045325Y013775D01*
X045275Y013825D01*
X045227Y013879D01*
X045183Y013934D01*
X045141Y013992D01*
X045103Y014053D01*
X045068Y014115D01*
X045037Y014179D01*
X045010Y014245D01*
X044986Y014312D01*
X044965Y014380D01*
X044949Y014450D01*
X044936Y014520D01*
X044928Y014591D01*
X044923Y014662D01*
X045017Y014662D01*
X045022Y014594D01*
X045031Y014526D01*
X045043Y014459D01*
X045060Y014392D01*
X045080Y014327D01*
X045104Y014263D01*
X045131Y014200D01*
X045162Y014139D01*
X045197Y014080D01*
X045234Y014023D01*
X045275Y013968D01*
X045319Y013916D01*
X045366Y013866D01*
X045416Y013819D01*
X045468Y013775D01*
X045523Y013734D01*
X045580Y013697D01*
X045639Y013662D01*
X045700Y013631D01*
X045763Y013604D01*
X045827Y013580D01*
X045892Y013560D01*
X045959Y013543D01*
X046026Y013531D01*
X046094Y013522D01*
X046162Y013517D01*
X046162Y013611D01*
X046097Y013616D01*
X046032Y013625D01*
X045968Y013637D01*
X045905Y013654D01*
X045843Y013674D01*
X045782Y013697D01*
X045723Y013724D01*
X045665Y013755D01*
X045610Y013789D01*
X045556Y013826D01*
X045505Y013867D01*
X045456Y013910D01*
X045410Y013956D01*
X045367Y014005D01*
X045326Y014056D01*
X045289Y014110D01*
X045255Y014165D01*
X045224Y014223D01*
X045197Y014282D01*
X045174Y014343D01*
X045154Y014405D01*
X045137Y014468D01*
X045125Y014532D01*
X045116Y014597D01*
X045111Y014662D01*
X045205Y014662D01*
X045210Y014600D01*
X045219Y014539D01*
X045231Y014479D01*
X045248Y014419D01*
X045267Y014361D01*
X045291Y014303D01*
X045317Y014248D01*
X045347Y014194D01*
X045381Y014142D01*
X045417Y014092D01*
X045457Y014044D01*
X045499Y013999D01*
X045544Y013957D01*
X045592Y013917D01*
X045642Y013881D01*
X045694Y013847D01*
X045748Y013817D01*
X045803Y013791D01*
X045861Y013767D01*
X045919Y013748D01*
X045979Y013731D01*
X046039Y013719D01*
X046100Y013710D01*
X046162Y013705D01*
X046162Y013799D01*
X046104Y013804D01*
X046047Y013813D01*
X045990Y013825D01*
X045934Y013841D01*
X045879Y013861D01*
X045826Y013883D01*
X045774Y013910D01*
X045724Y013939D01*
X045676Y013972D01*
X045630Y014007D01*
X045587Y014046D01*
X045546Y014087D01*
X045507Y014130D01*
X045472Y014176D01*
X045439Y014224D01*
X045410Y014274D01*
X045383Y014326D01*
X045361Y014379D01*
X045341Y014434D01*
X045325Y014490D01*
X045313Y014547D01*
X045304Y014604D01*
X045299Y014662D01*
X045394Y014662D01*
X045399Y014606D01*
X045408Y014550D01*
X045421Y014495D01*
X045438Y014441D01*
X045459Y014388D01*
X045483Y014337D01*
X045510Y014288D01*
X045541Y014240D01*
X045575Y014195D01*
X045613Y014153D01*
X045653Y014113D01*
X045695Y014075D01*
X045740Y014041D01*
X045788Y014010D01*
X045837Y013983D01*
X045888Y013959D01*
X045941Y013938D01*
X045995Y013921D01*
X046050Y013908D01*
X046106Y013899D01*
X046162Y013894D01*
X046162Y013988D01*
X046110Y013993D01*
X046059Y014002D01*
X046009Y014015D01*
X045959Y014031D01*
X045911Y014051D01*
X045865Y014074D01*
X045820Y014101D01*
X045777Y014131D01*
X045737Y014163D01*
X045699Y014199D01*
X045663Y014237D01*
X045631Y014277D01*
X045601Y014320D01*
X045574Y014365D01*
X045551Y014411D01*
X045531Y014459D01*
X045515Y014509D01*
X045502Y014559D01*
X045493Y014610D01*
X045488Y014662D01*
X045582Y014662D01*
X045588Y014613D01*
X045598Y014564D01*
X045611Y014516D01*
X045628Y014470D01*
X045649Y014425D01*
X045673Y014382D01*
X045701Y014340D01*
X045731Y014302D01*
X045765Y014265D01*
X045802Y014231D01*
X045840Y014201D01*
X045882Y014173D01*
X045925Y014149D01*
X045970Y014128D01*
X046016Y014111D01*
X046064Y014098D01*
X046113Y014088D01*
X046162Y014082D01*
X046162Y014176D01*
X046119Y014182D01*
X046076Y014192D01*
X046034Y014204D01*
X045993Y014220D01*
X045954Y014240D01*
X045916Y014262D01*
X045881Y014288D01*
X045847Y014316D01*
X045816Y014347D01*
X045788Y014381D01*
X045762Y014416D01*
X045740Y014454D01*
X045720Y014493D01*
X045704Y014534D01*
X045692Y014576D01*
X045682Y014619D01*
X045676Y014662D01*
X045771Y014662D01*
X045777Y014623D01*
X045787Y014584D01*
X045800Y014547D01*
X045816Y014510D01*
X045836Y014476D01*
X045859Y014443D01*
X045884Y014412D01*
X045912Y014384D01*
X045943Y014359D01*
X045976Y014336D01*
X046010Y014316D01*
X046047Y014300D01*
X046084Y014287D01*
X046123Y014277D01*
X046162Y014271D01*
X003001Y014761D02*
X002118Y014761D01*
X002119Y014762D02*
X002112Y014800D01*
X002102Y014838D01*
X002089Y014874D01*
X002072Y014909D01*
X002051Y014942D01*
X002028Y014973D01*
X002002Y015002D01*
X001973Y015028D01*
X001942Y015051D01*
X001909Y015072D01*
X001874Y015089D01*
X001838Y015102D01*
X001800Y015112D01*
X001762Y015119D01*
X001761Y016001D01*
X001762Y016001D01*
X001833Y015996D01*
X001904Y015988D01*
X001974Y015975D01*
X002044Y015959D01*
X002112Y015938D01*
X002179Y015914D01*
X002245Y015887D01*
X002309Y015856D01*
X002371Y015821D01*
X002432Y015783D01*
X002490Y015741D01*
X002545Y015697D01*
X002599Y015649D01*
X002649Y015599D01*
X002697Y015545D01*
X002741Y015490D01*
X002783Y015432D01*
X002821Y015371D01*
X002856Y015309D01*
X002887Y015245D01*
X002914Y015179D01*
X002938Y015112D01*
X002959Y015044D01*
X002975Y014974D01*
X002988Y014904D01*
X002996Y014833D01*
X003001Y014762D01*
X002907Y014762D01*
X002902Y014830D01*
X002893Y014898D01*
X002881Y014965D01*
X002864Y015032D01*
X002844Y015097D01*
X002820Y015161D01*
X002793Y015224D01*
X002762Y015285D01*
X002727Y015344D01*
X002690Y015401D01*
X002649Y015456D01*
X002605Y015508D01*
X002558Y015558D01*
X002508Y015605D01*
X002456Y015649D01*
X002401Y015690D01*
X002344Y015727D01*
X002285Y015762D01*
X002224Y015793D01*
X002161Y015820D01*
X002097Y015844D01*
X002032Y015864D01*
X001965Y015881D01*
X001898Y015893D01*
X001830Y015902D01*
X001762Y015907D01*
X001762Y015813D01*
X001827Y015808D01*
X001892Y015799D01*
X001956Y015787D01*
X002019Y015770D01*
X002081Y015750D01*
X002142Y015727D01*
X002201Y015700D01*
X002259Y015669D01*
X002314Y015635D01*
X002368Y015598D01*
X002419Y015557D01*
X002468Y015514D01*
X002514Y015468D01*
X002557Y015419D01*
X002598Y015368D01*
X002635Y015314D01*
X002669Y015259D01*
X002700Y015201D01*
X002727Y015142D01*
X002750Y015081D01*
X002770Y015019D01*
X002787Y014956D01*
X002799Y014892D01*
X002808Y014827D01*
X002813Y014762D01*
X002719Y014762D01*
X002714Y014824D01*
X002705Y014885D01*
X002693Y014945D01*
X002676Y015005D01*
X002657Y015063D01*
X002633Y015121D01*
X002607Y015176D01*
X002577Y015230D01*
X002543Y015282D01*
X002507Y015332D01*
X002467Y015380D01*
X002425Y015425D01*
X002380Y015467D01*
X002332Y015507D01*
X002282Y015543D01*
X002230Y015577D01*
X002176Y015607D01*
X002121Y015633D01*
X002063Y015657D01*
X002005Y015676D01*
X001945Y015693D01*
X001885Y015705D01*
X001824Y015714D01*
X001762Y015719D01*
X001762Y015625D01*
X001820Y015620D01*
X001877Y015611D01*
X001934Y015599D01*
X001990Y015583D01*
X002045Y015563D01*
X002098Y015541D01*
X002150Y015514D01*
X002200Y015485D01*
X002248Y015452D01*
X002294Y015417D01*
X002337Y015378D01*
X002378Y015337D01*
X002417Y015294D01*
X002452Y015248D01*
X002485Y015200D01*
X002514Y015150D01*
X002541Y015098D01*
X002563Y015045D01*
X002583Y014990D01*
X002599Y014934D01*
X002611Y014877D01*
X002620Y014820D01*
X002625Y014762D01*
X002530Y014762D01*
X002525Y014818D01*
X002516Y014874D01*
X002503Y014929D01*
X002486Y014983D01*
X002465Y015036D01*
X002441Y015087D01*
X002414Y015136D01*
X002383Y015184D01*
X002349Y015229D01*
X002311Y015271D01*
X002271Y015311D01*
X002229Y015349D01*
X002184Y015383D01*
X002136Y015414D01*
X002087Y015441D01*
X002036Y015465D01*
X001983Y015486D01*
X001929Y015503D01*
X001874Y015516D01*
X001818Y015525D01*
X001762Y015530D01*
X001762Y015436D01*
X001814Y015431D01*
X001865Y015422D01*
X001915Y015409D01*
X001965Y015393D01*
X002013Y015373D01*
X002059Y015350D01*
X002104Y015323D01*
X002147Y015293D01*
X002187Y015261D01*
X002225Y015225D01*
X002261Y015187D01*
X002293Y015147D01*
X002323Y015104D01*
X002350Y015059D01*
X002373Y015013D01*
X002393Y014965D01*
X002409Y014915D01*
X002422Y014865D01*
X002431Y014814D01*
X002436Y014762D01*
X002342Y014762D01*
X002336Y014811D01*
X002326Y014860D01*
X002313Y014908D01*
X002296Y014954D01*
X002275Y014999D01*
X002251Y015042D01*
X002223Y015084D01*
X002193Y015122D01*
X002159Y015159D01*
X002122Y015193D01*
X002084Y015223D01*
X002042Y015251D01*
X001999Y015275D01*
X001954Y015296D01*
X001908Y015313D01*
X001860Y015326D01*
X001811Y015336D01*
X001762Y015342D01*
X001762Y015248D01*
X001805Y015242D01*
X001848Y015232D01*
X001890Y015220D01*
X001931Y015204D01*
X001970Y015184D01*
X002008Y015162D01*
X002043Y015136D01*
X002077Y015108D01*
X002108Y015077D01*
X002136Y015043D01*
X002162Y015008D01*
X002184Y014970D01*
X002204Y014931D01*
X002220Y014890D01*
X002232Y014848D01*
X002242Y014805D01*
X002248Y014762D01*
X002153Y014762D01*
X002147Y014801D01*
X002137Y014840D01*
X002124Y014877D01*
X002108Y014914D01*
X002088Y014948D01*
X002065Y014981D01*
X002040Y015012D01*
X002012Y015040D01*
X001981Y015065D01*
X001948Y015088D01*
X001914Y015108D01*
X001877Y015124D01*
X001840Y015137D01*
X001801Y015147D01*
X001762Y015153D01*
X000423Y014663D02*
X001306Y014663D01*
X001305Y014662D02*
X001312Y014624D01*
X001322Y014586D01*
X001335Y014550D01*
X001352Y014515D01*
X001373Y014482D01*
X001396Y014451D01*
X001422Y014422D01*
X001451Y014396D01*
X001482Y014373D01*
X001515Y014352D01*
X001550Y014335D01*
X001586Y014322D01*
X001624Y014312D01*
X001662Y014305D01*
X001663Y013423D01*
X001662Y013423D01*
X001591Y013428D01*
X001520Y013436D01*
X001450Y013449D01*
X001380Y013465D01*
X001312Y013486D01*
X001245Y013510D01*
X001179Y013537D01*
X001115Y013568D01*
X001053Y013603D01*
X000992Y013641D01*
X000934Y013683D01*
X000879Y013727D01*
X000825Y013775D01*
X000775Y013825D01*
X000727Y013879D01*
X000683Y013934D01*
X000641Y013992D01*
X000603Y014053D01*
X000568Y014115D01*
X000537Y014179D01*
X000510Y014245D01*
X000486Y014312D01*
X000465Y014380D01*
X000449Y014450D01*
X000436Y014520D01*
X000428Y014591D01*
X000423Y014662D01*
X000517Y014662D01*
X000522Y014594D01*
X000531Y014526D01*
X000543Y014459D01*
X000560Y014392D01*
X000580Y014327D01*
X000604Y014263D01*
X000631Y014200D01*
X000662Y014139D01*
X000697Y014080D01*
X000734Y014023D01*
X000775Y013968D01*
X000819Y013916D01*
X000866Y013866D01*
X000916Y013819D01*
X000968Y013775D01*
X001023Y013734D01*
X001080Y013697D01*
X001139Y013662D01*
X001200Y013631D01*
X001263Y013604D01*
X001327Y013580D01*
X001392Y013560D01*
X001459Y013543D01*
X001526Y013531D01*
X001594Y013522D01*
X001662Y013517D01*
X001662Y013611D01*
X001597Y013616D01*
X001532Y013625D01*
X001468Y013637D01*
X001405Y013654D01*
X001343Y013674D01*
X001282Y013697D01*
X001223Y013724D01*
X001165Y013755D01*
X001110Y013789D01*
X001056Y013826D01*
X001005Y013867D01*
X000956Y013910D01*
X000910Y013956D01*
X000867Y014005D01*
X000826Y014056D01*
X000789Y014110D01*
X000755Y014165D01*
X000724Y014223D01*
X000697Y014282D01*
X000674Y014343D01*
X000654Y014405D01*
X000637Y014468D01*
X000625Y014532D01*
X000616Y014597D01*
X000611Y014662D01*
X000705Y014662D01*
X000710Y014600D01*
X000719Y014539D01*
X000731Y014479D01*
X000748Y014419D01*
X000767Y014361D01*
X000791Y014303D01*
X000817Y014248D01*
X000847Y014194D01*
X000881Y014142D01*
X000917Y014092D01*
X000957Y014044D01*
X000999Y013999D01*
X001044Y013957D01*
X001092Y013917D01*
X001142Y013881D01*
X001194Y013847D01*
X001248Y013817D01*
X001303Y013791D01*
X001361Y013767D01*
X001419Y013748D01*
X001479Y013731D01*
X001539Y013719D01*
X001600Y013710D01*
X001662Y013705D01*
X001662Y013799D01*
X001604Y013804D01*
X001547Y013813D01*
X001490Y013825D01*
X001434Y013841D01*
X001379Y013861D01*
X001326Y013883D01*
X001274Y013910D01*
X001224Y013939D01*
X001176Y013972D01*
X001130Y014007D01*
X001087Y014046D01*
X001046Y014087D01*
X001007Y014130D01*
X000972Y014176D01*
X000939Y014224D01*
X000910Y014274D01*
X000883Y014326D01*
X000861Y014379D01*
X000841Y014434D01*
X000825Y014490D01*
X000813Y014547D01*
X000804Y014604D01*
X000799Y014662D01*
X000894Y014662D01*
X000899Y014606D01*
X000908Y014550D01*
X000921Y014495D01*
X000938Y014441D01*
X000959Y014388D01*
X000983Y014337D01*
X001010Y014288D01*
X001041Y014240D01*
X001075Y014195D01*
X001113Y014153D01*
X001153Y014113D01*
X001195Y014075D01*
X001240Y014041D01*
X001288Y014010D01*
X001337Y013983D01*
X001388Y013959D01*
X001441Y013938D01*
X001495Y013921D01*
X001550Y013908D01*
X001606Y013899D01*
X001662Y013894D01*
X001662Y013988D01*
X001610Y013993D01*
X001559Y014002D01*
X001509Y014015D01*
X001459Y014031D01*
X001411Y014051D01*
X001365Y014074D01*
X001320Y014101D01*
X001277Y014131D01*
X001237Y014163D01*
X001199Y014199D01*
X001163Y014237D01*
X001131Y014277D01*
X001101Y014320D01*
X001074Y014365D01*
X001051Y014411D01*
X001031Y014459D01*
X001015Y014509D01*
X001002Y014559D01*
X000993Y014610D01*
X000988Y014662D01*
X001082Y014662D01*
X001088Y014613D01*
X001098Y014564D01*
X001111Y014516D01*
X001128Y014470D01*
X001149Y014425D01*
X001173Y014382D01*
X001201Y014340D01*
X001231Y014302D01*
X001265Y014265D01*
X001302Y014231D01*
X001340Y014201D01*
X001382Y014173D01*
X001425Y014149D01*
X001470Y014128D01*
X001516Y014111D01*
X001564Y014098D01*
X001613Y014088D01*
X001662Y014082D01*
X001662Y014176D01*
X001619Y014182D01*
X001576Y014192D01*
X001534Y014204D01*
X001493Y014220D01*
X001454Y014240D01*
X001416Y014262D01*
X001381Y014288D01*
X001347Y014316D01*
X001316Y014347D01*
X001288Y014381D01*
X001262Y014416D01*
X001240Y014454D01*
X001220Y014493D01*
X001204Y014534D01*
X001192Y014576D01*
X001182Y014619D01*
X001176Y014662D01*
X001271Y014662D01*
X001277Y014623D01*
X001287Y014584D01*
X001300Y014547D01*
X001316Y014510D01*
X001336Y014476D01*
X001359Y014443D01*
X001384Y014412D01*
X001412Y014384D01*
X001443Y014359D01*
X001476Y014336D01*
X001510Y014316D01*
X001547Y014300D01*
X001584Y014287D01*
X001623Y014277D01*
X001662Y014271D01*
D11*
X006174Y011211D03*
X006754Y011211D03*
X007924Y011211D03*
X008504Y011211D03*
X015424Y005711D03*
X016004Y005711D03*
D12*
X015873Y005462D02*
X015550Y005462D01*
X015550Y005962D02*
X015873Y005962D01*
X012712Y006550D02*
X012712Y006873D01*
X012212Y006873D02*
X012212Y006550D01*
X011712Y006550D02*
X011712Y006873D01*
X011212Y006873D02*
X011212Y006550D01*
X015462Y007300D02*
X015462Y007623D01*
X015962Y007623D02*
X015962Y007300D01*
X018082Y007092D02*
X018082Y004471D01*
X018221Y004332D01*
X020842Y004332D01*
X020842Y007092D01*
X018082Y007092D01*
X025502Y009032D02*
X026921Y009032D01*
X026921Y010892D01*
X025502Y010892D01*
X025502Y009032D01*
X024212Y009550D02*
X024212Y009873D01*
X023712Y009873D02*
X023712Y009550D01*
X030712Y009373D02*
X030712Y009050D01*
X031212Y009050D02*
X031212Y009373D01*
X032912Y010212D02*
X032914Y010246D01*
X032920Y010280D01*
X032929Y010313D01*
X032943Y010344D01*
X032960Y010374D01*
X032980Y010402D01*
X033003Y010427D01*
X033029Y010450D01*
X033057Y010469D01*
X033087Y010485D01*
X033119Y010497D01*
X033152Y010506D01*
X033186Y010511D01*
X033221Y010512D01*
X033255Y010509D01*
X033288Y010502D01*
X033321Y010492D01*
X033352Y010477D01*
X033381Y010460D01*
X033408Y010439D01*
X033433Y010415D01*
X033455Y010388D01*
X033473Y010360D01*
X033488Y010329D01*
X033500Y010297D01*
X033508Y010263D01*
X033512Y010229D01*
X033512Y010195D01*
X033508Y010161D01*
X033500Y010127D01*
X033488Y010095D01*
X033473Y010064D01*
X033455Y010036D01*
X033433Y010009D01*
X033408Y009985D01*
X033381Y009964D01*
X033352Y009947D01*
X033321Y009932D01*
X033288Y009922D01*
X033255Y009915D01*
X033221Y009912D01*
X033186Y009913D01*
X033152Y009918D01*
X033119Y009927D01*
X033087Y009939D01*
X033057Y009955D01*
X033029Y009974D01*
X033003Y009997D01*
X032980Y010022D01*
X032960Y010050D01*
X032943Y010080D01*
X032929Y010111D01*
X032920Y010144D01*
X032914Y010178D01*
X032912Y010212D01*
X035612Y011312D02*
X035612Y015112D01*
X035614Y015129D01*
X035618Y015146D01*
X035625Y015162D01*
X035635Y015176D01*
X035648Y015189D01*
X035662Y015199D01*
X035678Y015206D01*
X035695Y015210D01*
X035712Y015212D01*
X036712Y015212D01*
X036729Y015210D01*
X036746Y015206D01*
X036762Y015199D01*
X036776Y015189D01*
X036789Y015176D01*
X036799Y015162D01*
X036806Y015146D01*
X036810Y015129D01*
X036812Y015112D01*
X036812Y011312D01*
X036810Y011295D01*
X036806Y011278D01*
X036799Y011262D01*
X036789Y011248D01*
X036776Y011235D01*
X036762Y011225D01*
X036746Y011218D01*
X036729Y011214D01*
X036712Y011212D01*
X035712Y011212D01*
X035695Y011214D01*
X035678Y011218D01*
X035662Y011225D01*
X035648Y011235D01*
X035635Y011248D01*
X035625Y011262D01*
X035618Y011278D01*
X035614Y011295D01*
X035612Y011312D01*
X035012Y011962D02*
X034412Y011962D01*
X034395Y011964D01*
X034378Y011968D01*
X034362Y011975D01*
X034348Y011985D01*
X034335Y011998D01*
X034325Y012012D01*
X034318Y012028D01*
X034314Y012045D01*
X034312Y012062D01*
X034312Y012212D01*
X034362Y012262D01*
X034362Y013662D01*
X034312Y013712D01*
X034312Y013862D01*
X034314Y013879D01*
X034318Y013896D01*
X034325Y013912D01*
X034335Y013926D01*
X034348Y013939D01*
X034362Y013949D01*
X034378Y013956D01*
X034395Y013960D01*
X034412Y013962D01*
X035012Y013962D01*
X035029Y013960D01*
X035046Y013956D01*
X035062Y013949D01*
X035076Y013939D01*
X035089Y013926D01*
X035099Y013912D01*
X035106Y013896D01*
X035110Y013879D01*
X035112Y013862D01*
X035112Y013712D01*
X035062Y013662D01*
X035062Y012262D01*
X035112Y012212D01*
X035112Y012062D01*
X035110Y012045D01*
X035106Y012028D01*
X035099Y012012D01*
X035089Y011998D01*
X035076Y011985D01*
X035062Y011975D01*
X035046Y011968D01*
X035029Y011964D01*
X035012Y011962D01*
X036212Y012212D02*
X036212Y013012D01*
X036212Y013412D02*
X036212Y014212D01*
X038492Y014862D02*
X038492Y008062D01*
X038494Y008039D01*
X038499Y008016D01*
X038508Y007994D01*
X038521Y007974D01*
X038536Y007956D01*
X038554Y007941D01*
X038574Y007928D01*
X038596Y007919D01*
X038619Y007914D01*
X038642Y007912D01*
X041282Y007912D01*
X041305Y007914D01*
X041328Y007919D01*
X041350Y007928D01*
X041370Y007941D01*
X041388Y007956D01*
X041403Y007974D01*
X041416Y007994D01*
X041425Y008016D01*
X041430Y008039D01*
X041432Y008062D01*
X041432Y014862D01*
X041430Y014885D01*
X041425Y014908D01*
X041416Y014930D01*
X041403Y014950D01*
X041388Y014968D01*
X041370Y014983D01*
X041350Y014996D01*
X041328Y015005D01*
X041305Y015010D01*
X041282Y015012D01*
X040462Y015012D01*
X039462Y015012D01*
X038642Y015012D01*
X038619Y015010D01*
X038596Y015005D01*
X038574Y014996D01*
X038554Y014983D01*
X038536Y014968D01*
X038521Y014950D01*
X038508Y014930D01*
X038499Y014908D01*
X038494Y014885D01*
X038492Y014862D01*
X039462Y015012D02*
X039464Y014968D01*
X039470Y014925D01*
X039479Y014883D01*
X039492Y014841D01*
X039509Y014801D01*
X039529Y014762D01*
X039552Y014725D01*
X039579Y014691D01*
X039608Y014658D01*
X039641Y014629D01*
X039675Y014602D01*
X039712Y014579D01*
X039751Y014559D01*
X039791Y014542D01*
X039833Y014529D01*
X039875Y014520D01*
X039918Y014514D01*
X039962Y014512D01*
X040006Y014514D01*
X040049Y014520D01*
X040091Y014529D01*
X040133Y014542D01*
X040173Y014559D01*
X040212Y014579D01*
X040249Y014602D01*
X040283Y014629D01*
X040316Y014658D01*
X040345Y014691D01*
X040372Y014725D01*
X040395Y014762D01*
X040415Y014801D01*
X040432Y014841D01*
X040445Y014883D01*
X040454Y014925D01*
X040460Y014968D01*
X040462Y015012D01*
X044862Y014712D02*
X044864Y014785D01*
X044870Y014858D01*
X044880Y014930D01*
X044894Y015002D01*
X044911Y015073D01*
X044933Y015143D01*
X044958Y015212D01*
X044987Y015279D01*
X045019Y015344D01*
X045055Y015408D01*
X045095Y015470D01*
X045137Y015529D01*
X045183Y015586D01*
X045232Y015640D01*
X045284Y015692D01*
X045338Y015741D01*
X045395Y015787D01*
X045454Y015829D01*
X045516Y015869D01*
X045580Y015905D01*
X045645Y015937D01*
X045712Y015966D01*
X045781Y015991D01*
X045851Y016013D01*
X045922Y016030D01*
X045994Y016044D01*
X046066Y016054D01*
X046139Y016060D01*
X046212Y016062D01*
X046285Y016060D01*
X046358Y016054D01*
X046430Y016044D01*
X046502Y016030D01*
X046573Y016013D01*
X046643Y015991D01*
X046712Y015966D01*
X046779Y015937D01*
X046844Y015905D01*
X046908Y015869D01*
X046970Y015829D01*
X047029Y015787D01*
X047086Y015741D01*
X047140Y015692D01*
X047192Y015640D01*
X047241Y015586D01*
X047287Y015529D01*
X047329Y015470D01*
X047369Y015408D01*
X047405Y015344D01*
X047437Y015279D01*
X047466Y015212D01*
X047491Y015143D01*
X047513Y015073D01*
X047530Y015002D01*
X047544Y014930D01*
X047554Y014858D01*
X047560Y014785D01*
X047562Y014712D01*
X047560Y014639D01*
X047554Y014566D01*
X047544Y014494D01*
X047530Y014422D01*
X047513Y014351D01*
X047491Y014281D01*
X047466Y014212D01*
X047437Y014145D01*
X047405Y014080D01*
X047369Y014016D01*
X047329Y013954D01*
X047287Y013895D01*
X047241Y013838D01*
X047192Y013784D01*
X047140Y013732D01*
X047086Y013683D01*
X047029Y013637D01*
X046970Y013595D01*
X046908Y013555D01*
X046844Y013519D01*
X046779Y013487D01*
X046712Y013458D01*
X046643Y013433D01*
X046573Y013411D01*
X046502Y013394D01*
X046430Y013380D01*
X046358Y013370D01*
X046285Y013364D01*
X046212Y013362D01*
X046139Y013364D01*
X046066Y013370D01*
X045994Y013380D01*
X045922Y013394D01*
X045851Y013411D01*
X045781Y013433D01*
X045712Y013458D01*
X045645Y013487D01*
X045580Y013519D01*
X045516Y013555D01*
X045454Y013595D01*
X045395Y013637D01*
X045338Y013683D01*
X045284Y013732D01*
X045232Y013784D01*
X045183Y013838D01*
X045137Y013895D01*
X045095Y013954D01*
X045055Y014016D01*
X045019Y014080D01*
X044987Y014145D01*
X044958Y014212D01*
X044933Y014281D01*
X044911Y014351D01*
X044894Y014422D01*
X044880Y014494D01*
X044870Y014566D01*
X044864Y014639D01*
X044862Y014712D01*
X045012Y013212D02*
X046912Y013212D01*
X046942Y013210D01*
X046972Y013205D01*
X047001Y013196D01*
X047028Y013183D01*
X047054Y013168D01*
X047078Y013149D01*
X047099Y013128D01*
X047118Y013104D01*
X047133Y013078D01*
X047146Y013051D01*
X047155Y013022D01*
X047160Y012992D01*
X047162Y012962D01*
X047162Y003462D01*
X047160Y003432D01*
X047155Y003402D01*
X047146Y003373D01*
X047133Y003346D01*
X047118Y003320D01*
X047099Y003296D01*
X047078Y003275D01*
X047054Y003256D01*
X047028Y003241D01*
X047001Y003228D01*
X046972Y003219D01*
X046942Y003214D01*
X046912Y003212D01*
X045012Y003212D01*
X044982Y003214D01*
X044952Y003219D01*
X044923Y003228D01*
X044896Y003241D01*
X044870Y003256D01*
X044846Y003275D01*
X044825Y003296D01*
X044806Y003320D01*
X044791Y003346D01*
X044778Y003373D01*
X044769Y003402D01*
X044764Y003432D01*
X044762Y003462D01*
X044762Y012962D01*
X044764Y012992D01*
X044769Y013022D01*
X044778Y013051D01*
X044791Y013078D01*
X044806Y013104D01*
X044825Y013128D01*
X044846Y013149D01*
X044870Y013168D01*
X044896Y013183D01*
X044923Y013196D01*
X044952Y013205D01*
X044982Y013210D01*
X045012Y013212D01*
X045112Y012712D02*
X045114Y012749D01*
X045120Y012786D01*
X045130Y012822D01*
X045143Y012857D01*
X045160Y012890D01*
X045181Y012921D01*
X045205Y012949D01*
X045232Y012975D01*
X045261Y012998D01*
X045292Y013018D01*
X045326Y013034D01*
X045361Y013047D01*
X045397Y013056D01*
X045434Y013061D01*
X045471Y013062D01*
X045508Y013059D01*
X045545Y013052D01*
X045581Y013041D01*
X045615Y013027D01*
X045648Y013009D01*
X045678Y012987D01*
X045706Y012963D01*
X045731Y012935D01*
X045754Y012905D01*
X045773Y012873D01*
X045788Y012839D01*
X045800Y012804D01*
X045808Y012768D01*
X045812Y012731D01*
X045812Y012693D01*
X045808Y012656D01*
X045800Y012620D01*
X045788Y012585D01*
X045773Y012551D01*
X045754Y012519D01*
X045731Y012489D01*
X045706Y012461D01*
X045678Y012437D01*
X045648Y012415D01*
X045615Y012397D01*
X045581Y012383D01*
X045545Y012372D01*
X045508Y012365D01*
X045471Y012362D01*
X045434Y012363D01*
X045397Y012368D01*
X045361Y012377D01*
X045326Y012390D01*
X045292Y012406D01*
X045261Y012426D01*
X045232Y012449D01*
X045205Y012475D01*
X045181Y012503D01*
X045160Y012534D01*
X045143Y012567D01*
X045130Y012602D01*
X045120Y012638D01*
X045114Y012675D01*
X045112Y012712D01*
X046112Y012712D02*
X046114Y012749D01*
X046120Y012786D01*
X046130Y012822D01*
X046143Y012857D01*
X046160Y012890D01*
X046181Y012921D01*
X046205Y012949D01*
X046232Y012975D01*
X046261Y012998D01*
X046292Y013018D01*
X046326Y013034D01*
X046361Y013047D01*
X046397Y013056D01*
X046434Y013061D01*
X046471Y013062D01*
X046508Y013059D01*
X046545Y013052D01*
X046581Y013041D01*
X046615Y013027D01*
X046648Y013009D01*
X046678Y012987D01*
X046706Y012963D01*
X046731Y012935D01*
X046754Y012905D01*
X046773Y012873D01*
X046788Y012839D01*
X046800Y012804D01*
X046808Y012768D01*
X046812Y012731D01*
X046812Y012693D01*
X046808Y012656D01*
X046800Y012620D01*
X046788Y012585D01*
X046773Y012551D01*
X046754Y012519D01*
X046731Y012489D01*
X046706Y012461D01*
X046678Y012437D01*
X046648Y012415D01*
X046615Y012397D01*
X046581Y012383D01*
X046545Y012372D01*
X046508Y012365D01*
X046471Y012362D01*
X046434Y012363D01*
X046397Y012368D01*
X046361Y012377D01*
X046326Y012390D01*
X046292Y012406D01*
X046261Y012426D01*
X046232Y012449D01*
X046205Y012475D01*
X046181Y012503D01*
X046160Y012534D01*
X046143Y012567D01*
X046130Y012602D01*
X046120Y012638D01*
X046114Y012675D01*
X046112Y012712D01*
X046112Y011712D02*
X046114Y011749D01*
X046120Y011786D01*
X046130Y011822D01*
X046143Y011857D01*
X046160Y011890D01*
X046181Y011921D01*
X046205Y011949D01*
X046232Y011975D01*
X046261Y011998D01*
X046292Y012018D01*
X046326Y012034D01*
X046361Y012047D01*
X046397Y012056D01*
X046434Y012061D01*
X046471Y012062D01*
X046508Y012059D01*
X046545Y012052D01*
X046581Y012041D01*
X046615Y012027D01*
X046648Y012009D01*
X046678Y011987D01*
X046706Y011963D01*
X046731Y011935D01*
X046754Y011905D01*
X046773Y011873D01*
X046788Y011839D01*
X046800Y011804D01*
X046808Y011768D01*
X046812Y011731D01*
X046812Y011693D01*
X046808Y011656D01*
X046800Y011620D01*
X046788Y011585D01*
X046773Y011551D01*
X046754Y011519D01*
X046731Y011489D01*
X046706Y011461D01*
X046678Y011437D01*
X046648Y011415D01*
X046615Y011397D01*
X046581Y011383D01*
X046545Y011372D01*
X046508Y011365D01*
X046471Y011362D01*
X046434Y011363D01*
X046397Y011368D01*
X046361Y011377D01*
X046326Y011390D01*
X046292Y011406D01*
X046261Y011426D01*
X046232Y011449D01*
X046205Y011475D01*
X046181Y011503D01*
X046160Y011534D01*
X046143Y011567D01*
X046130Y011602D01*
X046120Y011638D01*
X046114Y011675D01*
X046112Y011712D01*
X045112Y011712D02*
X045114Y011749D01*
X045120Y011786D01*
X045130Y011822D01*
X045143Y011857D01*
X045160Y011890D01*
X045181Y011921D01*
X045205Y011949D01*
X045232Y011975D01*
X045261Y011998D01*
X045292Y012018D01*
X045326Y012034D01*
X045361Y012047D01*
X045397Y012056D01*
X045434Y012061D01*
X045471Y012062D01*
X045508Y012059D01*
X045545Y012052D01*
X045581Y012041D01*
X045615Y012027D01*
X045648Y012009D01*
X045678Y011987D01*
X045706Y011963D01*
X045731Y011935D01*
X045754Y011905D01*
X045773Y011873D01*
X045788Y011839D01*
X045800Y011804D01*
X045808Y011768D01*
X045812Y011731D01*
X045812Y011693D01*
X045808Y011656D01*
X045800Y011620D01*
X045788Y011585D01*
X045773Y011551D01*
X045754Y011519D01*
X045731Y011489D01*
X045706Y011461D01*
X045678Y011437D01*
X045648Y011415D01*
X045615Y011397D01*
X045581Y011383D01*
X045545Y011372D01*
X045508Y011365D01*
X045471Y011362D01*
X045434Y011363D01*
X045397Y011368D01*
X045361Y011377D01*
X045326Y011390D01*
X045292Y011406D01*
X045261Y011426D01*
X045232Y011449D01*
X045205Y011475D01*
X045181Y011503D01*
X045160Y011534D01*
X045143Y011567D01*
X045130Y011602D01*
X045120Y011638D01*
X045114Y011675D01*
X045112Y011712D01*
X045112Y010712D02*
X045114Y010749D01*
X045120Y010786D01*
X045130Y010822D01*
X045143Y010857D01*
X045160Y010890D01*
X045181Y010921D01*
X045205Y010949D01*
X045232Y010975D01*
X045261Y010998D01*
X045292Y011018D01*
X045326Y011034D01*
X045361Y011047D01*
X045397Y011056D01*
X045434Y011061D01*
X045471Y011062D01*
X045508Y011059D01*
X045545Y011052D01*
X045581Y011041D01*
X045615Y011027D01*
X045648Y011009D01*
X045678Y010987D01*
X045706Y010963D01*
X045731Y010935D01*
X045754Y010905D01*
X045773Y010873D01*
X045788Y010839D01*
X045800Y010804D01*
X045808Y010768D01*
X045812Y010731D01*
X045812Y010693D01*
X045808Y010656D01*
X045800Y010620D01*
X045788Y010585D01*
X045773Y010551D01*
X045754Y010519D01*
X045731Y010489D01*
X045706Y010461D01*
X045678Y010437D01*
X045648Y010415D01*
X045615Y010397D01*
X045581Y010383D01*
X045545Y010372D01*
X045508Y010365D01*
X045471Y010362D01*
X045434Y010363D01*
X045397Y010368D01*
X045361Y010377D01*
X045326Y010390D01*
X045292Y010406D01*
X045261Y010426D01*
X045232Y010449D01*
X045205Y010475D01*
X045181Y010503D01*
X045160Y010534D01*
X045143Y010567D01*
X045130Y010602D01*
X045120Y010638D01*
X045114Y010675D01*
X045112Y010712D01*
X046112Y010712D02*
X046114Y010749D01*
X046120Y010786D01*
X046130Y010822D01*
X046143Y010857D01*
X046160Y010890D01*
X046181Y010921D01*
X046205Y010949D01*
X046232Y010975D01*
X046261Y010998D01*
X046292Y011018D01*
X046326Y011034D01*
X046361Y011047D01*
X046397Y011056D01*
X046434Y011061D01*
X046471Y011062D01*
X046508Y011059D01*
X046545Y011052D01*
X046581Y011041D01*
X046615Y011027D01*
X046648Y011009D01*
X046678Y010987D01*
X046706Y010963D01*
X046731Y010935D01*
X046754Y010905D01*
X046773Y010873D01*
X046788Y010839D01*
X046800Y010804D01*
X046808Y010768D01*
X046812Y010731D01*
X046812Y010693D01*
X046808Y010656D01*
X046800Y010620D01*
X046788Y010585D01*
X046773Y010551D01*
X046754Y010519D01*
X046731Y010489D01*
X046706Y010461D01*
X046678Y010437D01*
X046648Y010415D01*
X046615Y010397D01*
X046581Y010383D01*
X046545Y010372D01*
X046508Y010365D01*
X046471Y010362D01*
X046434Y010363D01*
X046397Y010368D01*
X046361Y010377D01*
X046326Y010390D01*
X046292Y010406D01*
X046261Y010426D01*
X046232Y010449D01*
X046205Y010475D01*
X046181Y010503D01*
X046160Y010534D01*
X046143Y010567D01*
X046130Y010602D01*
X046120Y010638D01*
X046114Y010675D01*
X046112Y010712D01*
X046112Y009712D02*
X046114Y009749D01*
X046120Y009786D01*
X046130Y009822D01*
X046143Y009857D01*
X046160Y009890D01*
X046181Y009921D01*
X046205Y009949D01*
X046232Y009975D01*
X046261Y009998D01*
X046292Y010018D01*
X046326Y010034D01*
X046361Y010047D01*
X046397Y010056D01*
X046434Y010061D01*
X046471Y010062D01*
X046508Y010059D01*
X046545Y010052D01*
X046581Y010041D01*
X046615Y010027D01*
X046648Y010009D01*
X046678Y009987D01*
X046706Y009963D01*
X046731Y009935D01*
X046754Y009905D01*
X046773Y009873D01*
X046788Y009839D01*
X046800Y009804D01*
X046808Y009768D01*
X046812Y009731D01*
X046812Y009693D01*
X046808Y009656D01*
X046800Y009620D01*
X046788Y009585D01*
X046773Y009551D01*
X046754Y009519D01*
X046731Y009489D01*
X046706Y009461D01*
X046678Y009437D01*
X046648Y009415D01*
X046615Y009397D01*
X046581Y009383D01*
X046545Y009372D01*
X046508Y009365D01*
X046471Y009362D01*
X046434Y009363D01*
X046397Y009368D01*
X046361Y009377D01*
X046326Y009390D01*
X046292Y009406D01*
X046261Y009426D01*
X046232Y009449D01*
X046205Y009475D01*
X046181Y009503D01*
X046160Y009534D01*
X046143Y009567D01*
X046130Y009602D01*
X046120Y009638D01*
X046114Y009675D01*
X046112Y009712D01*
X045112Y009712D02*
X045114Y009749D01*
X045120Y009786D01*
X045130Y009822D01*
X045143Y009857D01*
X045160Y009890D01*
X045181Y009921D01*
X045205Y009949D01*
X045232Y009975D01*
X045261Y009998D01*
X045292Y010018D01*
X045326Y010034D01*
X045361Y010047D01*
X045397Y010056D01*
X045434Y010061D01*
X045471Y010062D01*
X045508Y010059D01*
X045545Y010052D01*
X045581Y010041D01*
X045615Y010027D01*
X045648Y010009D01*
X045678Y009987D01*
X045706Y009963D01*
X045731Y009935D01*
X045754Y009905D01*
X045773Y009873D01*
X045788Y009839D01*
X045800Y009804D01*
X045808Y009768D01*
X045812Y009731D01*
X045812Y009693D01*
X045808Y009656D01*
X045800Y009620D01*
X045788Y009585D01*
X045773Y009551D01*
X045754Y009519D01*
X045731Y009489D01*
X045706Y009461D01*
X045678Y009437D01*
X045648Y009415D01*
X045615Y009397D01*
X045581Y009383D01*
X045545Y009372D01*
X045508Y009365D01*
X045471Y009362D01*
X045434Y009363D01*
X045397Y009368D01*
X045361Y009377D01*
X045326Y009390D01*
X045292Y009406D01*
X045261Y009426D01*
X045232Y009449D01*
X045205Y009475D01*
X045181Y009503D01*
X045160Y009534D01*
X045143Y009567D01*
X045130Y009602D01*
X045120Y009638D01*
X045114Y009675D01*
X045112Y009712D01*
X045112Y008712D02*
X045114Y008749D01*
X045120Y008786D01*
X045130Y008822D01*
X045143Y008857D01*
X045160Y008890D01*
X045181Y008921D01*
X045205Y008949D01*
X045232Y008975D01*
X045261Y008998D01*
X045292Y009018D01*
X045326Y009034D01*
X045361Y009047D01*
X045397Y009056D01*
X045434Y009061D01*
X045471Y009062D01*
X045508Y009059D01*
X045545Y009052D01*
X045581Y009041D01*
X045615Y009027D01*
X045648Y009009D01*
X045678Y008987D01*
X045706Y008963D01*
X045731Y008935D01*
X045754Y008905D01*
X045773Y008873D01*
X045788Y008839D01*
X045800Y008804D01*
X045808Y008768D01*
X045812Y008731D01*
X045812Y008693D01*
X045808Y008656D01*
X045800Y008620D01*
X045788Y008585D01*
X045773Y008551D01*
X045754Y008519D01*
X045731Y008489D01*
X045706Y008461D01*
X045678Y008437D01*
X045648Y008415D01*
X045615Y008397D01*
X045581Y008383D01*
X045545Y008372D01*
X045508Y008365D01*
X045471Y008362D01*
X045434Y008363D01*
X045397Y008368D01*
X045361Y008377D01*
X045326Y008390D01*
X045292Y008406D01*
X045261Y008426D01*
X045232Y008449D01*
X045205Y008475D01*
X045181Y008503D01*
X045160Y008534D01*
X045143Y008567D01*
X045130Y008602D01*
X045120Y008638D01*
X045114Y008675D01*
X045112Y008712D01*
X046112Y008712D02*
X046114Y008749D01*
X046120Y008786D01*
X046130Y008822D01*
X046143Y008857D01*
X046160Y008890D01*
X046181Y008921D01*
X046205Y008949D01*
X046232Y008975D01*
X046261Y008998D01*
X046292Y009018D01*
X046326Y009034D01*
X046361Y009047D01*
X046397Y009056D01*
X046434Y009061D01*
X046471Y009062D01*
X046508Y009059D01*
X046545Y009052D01*
X046581Y009041D01*
X046615Y009027D01*
X046648Y009009D01*
X046678Y008987D01*
X046706Y008963D01*
X046731Y008935D01*
X046754Y008905D01*
X046773Y008873D01*
X046788Y008839D01*
X046800Y008804D01*
X046808Y008768D01*
X046812Y008731D01*
X046812Y008693D01*
X046808Y008656D01*
X046800Y008620D01*
X046788Y008585D01*
X046773Y008551D01*
X046754Y008519D01*
X046731Y008489D01*
X046706Y008461D01*
X046678Y008437D01*
X046648Y008415D01*
X046615Y008397D01*
X046581Y008383D01*
X046545Y008372D01*
X046508Y008365D01*
X046471Y008362D01*
X046434Y008363D01*
X046397Y008368D01*
X046361Y008377D01*
X046326Y008390D01*
X046292Y008406D01*
X046261Y008426D01*
X046232Y008449D01*
X046205Y008475D01*
X046181Y008503D01*
X046160Y008534D01*
X046143Y008567D01*
X046130Y008602D01*
X046120Y008638D01*
X046114Y008675D01*
X046112Y008712D01*
X046112Y007712D02*
X046114Y007749D01*
X046120Y007786D01*
X046130Y007822D01*
X046143Y007857D01*
X046160Y007890D01*
X046181Y007921D01*
X046205Y007949D01*
X046232Y007975D01*
X046261Y007998D01*
X046292Y008018D01*
X046326Y008034D01*
X046361Y008047D01*
X046397Y008056D01*
X046434Y008061D01*
X046471Y008062D01*
X046508Y008059D01*
X046545Y008052D01*
X046581Y008041D01*
X046615Y008027D01*
X046648Y008009D01*
X046678Y007987D01*
X046706Y007963D01*
X046731Y007935D01*
X046754Y007905D01*
X046773Y007873D01*
X046788Y007839D01*
X046800Y007804D01*
X046808Y007768D01*
X046812Y007731D01*
X046812Y007693D01*
X046808Y007656D01*
X046800Y007620D01*
X046788Y007585D01*
X046773Y007551D01*
X046754Y007519D01*
X046731Y007489D01*
X046706Y007461D01*
X046678Y007437D01*
X046648Y007415D01*
X046615Y007397D01*
X046581Y007383D01*
X046545Y007372D01*
X046508Y007365D01*
X046471Y007362D01*
X046434Y007363D01*
X046397Y007368D01*
X046361Y007377D01*
X046326Y007390D01*
X046292Y007406D01*
X046261Y007426D01*
X046232Y007449D01*
X046205Y007475D01*
X046181Y007503D01*
X046160Y007534D01*
X046143Y007567D01*
X046130Y007602D01*
X046120Y007638D01*
X046114Y007675D01*
X046112Y007712D01*
X045112Y007712D02*
X045114Y007749D01*
X045120Y007786D01*
X045130Y007822D01*
X045143Y007857D01*
X045160Y007890D01*
X045181Y007921D01*
X045205Y007949D01*
X045232Y007975D01*
X045261Y007998D01*
X045292Y008018D01*
X045326Y008034D01*
X045361Y008047D01*
X045397Y008056D01*
X045434Y008061D01*
X045471Y008062D01*
X045508Y008059D01*
X045545Y008052D01*
X045581Y008041D01*
X045615Y008027D01*
X045648Y008009D01*
X045678Y007987D01*
X045706Y007963D01*
X045731Y007935D01*
X045754Y007905D01*
X045773Y007873D01*
X045788Y007839D01*
X045800Y007804D01*
X045808Y007768D01*
X045812Y007731D01*
X045812Y007693D01*
X045808Y007656D01*
X045800Y007620D01*
X045788Y007585D01*
X045773Y007551D01*
X045754Y007519D01*
X045731Y007489D01*
X045706Y007461D01*
X045678Y007437D01*
X045648Y007415D01*
X045615Y007397D01*
X045581Y007383D01*
X045545Y007372D01*
X045508Y007365D01*
X045471Y007362D01*
X045434Y007363D01*
X045397Y007368D01*
X045361Y007377D01*
X045326Y007390D01*
X045292Y007406D01*
X045261Y007426D01*
X045232Y007449D01*
X045205Y007475D01*
X045181Y007503D01*
X045160Y007534D01*
X045143Y007567D01*
X045130Y007602D01*
X045120Y007638D01*
X045114Y007675D01*
X045112Y007712D01*
X045112Y006712D02*
X045114Y006749D01*
X045120Y006786D01*
X045130Y006822D01*
X045143Y006857D01*
X045160Y006890D01*
X045181Y006921D01*
X045205Y006949D01*
X045232Y006975D01*
X045261Y006998D01*
X045292Y007018D01*
X045326Y007034D01*
X045361Y007047D01*
X045397Y007056D01*
X045434Y007061D01*
X045471Y007062D01*
X045508Y007059D01*
X045545Y007052D01*
X045581Y007041D01*
X045615Y007027D01*
X045648Y007009D01*
X045678Y006987D01*
X045706Y006963D01*
X045731Y006935D01*
X045754Y006905D01*
X045773Y006873D01*
X045788Y006839D01*
X045800Y006804D01*
X045808Y006768D01*
X045812Y006731D01*
X045812Y006693D01*
X045808Y006656D01*
X045800Y006620D01*
X045788Y006585D01*
X045773Y006551D01*
X045754Y006519D01*
X045731Y006489D01*
X045706Y006461D01*
X045678Y006437D01*
X045648Y006415D01*
X045615Y006397D01*
X045581Y006383D01*
X045545Y006372D01*
X045508Y006365D01*
X045471Y006362D01*
X045434Y006363D01*
X045397Y006368D01*
X045361Y006377D01*
X045326Y006390D01*
X045292Y006406D01*
X045261Y006426D01*
X045232Y006449D01*
X045205Y006475D01*
X045181Y006503D01*
X045160Y006534D01*
X045143Y006567D01*
X045130Y006602D01*
X045120Y006638D01*
X045114Y006675D01*
X045112Y006712D01*
X046112Y006712D02*
X046114Y006749D01*
X046120Y006786D01*
X046130Y006822D01*
X046143Y006857D01*
X046160Y006890D01*
X046181Y006921D01*
X046205Y006949D01*
X046232Y006975D01*
X046261Y006998D01*
X046292Y007018D01*
X046326Y007034D01*
X046361Y007047D01*
X046397Y007056D01*
X046434Y007061D01*
X046471Y007062D01*
X046508Y007059D01*
X046545Y007052D01*
X046581Y007041D01*
X046615Y007027D01*
X046648Y007009D01*
X046678Y006987D01*
X046706Y006963D01*
X046731Y006935D01*
X046754Y006905D01*
X046773Y006873D01*
X046788Y006839D01*
X046800Y006804D01*
X046808Y006768D01*
X046812Y006731D01*
X046812Y006693D01*
X046808Y006656D01*
X046800Y006620D01*
X046788Y006585D01*
X046773Y006551D01*
X046754Y006519D01*
X046731Y006489D01*
X046706Y006461D01*
X046678Y006437D01*
X046648Y006415D01*
X046615Y006397D01*
X046581Y006383D01*
X046545Y006372D01*
X046508Y006365D01*
X046471Y006362D01*
X046434Y006363D01*
X046397Y006368D01*
X046361Y006377D01*
X046326Y006390D01*
X046292Y006406D01*
X046261Y006426D01*
X046232Y006449D01*
X046205Y006475D01*
X046181Y006503D01*
X046160Y006534D01*
X046143Y006567D01*
X046130Y006602D01*
X046120Y006638D01*
X046114Y006675D01*
X046112Y006712D01*
X046112Y005712D02*
X046114Y005749D01*
X046120Y005786D01*
X046130Y005822D01*
X046143Y005857D01*
X046160Y005890D01*
X046181Y005921D01*
X046205Y005949D01*
X046232Y005975D01*
X046261Y005998D01*
X046292Y006018D01*
X046326Y006034D01*
X046361Y006047D01*
X046397Y006056D01*
X046434Y006061D01*
X046471Y006062D01*
X046508Y006059D01*
X046545Y006052D01*
X046581Y006041D01*
X046615Y006027D01*
X046648Y006009D01*
X046678Y005987D01*
X046706Y005963D01*
X046731Y005935D01*
X046754Y005905D01*
X046773Y005873D01*
X046788Y005839D01*
X046800Y005804D01*
X046808Y005768D01*
X046812Y005731D01*
X046812Y005693D01*
X046808Y005656D01*
X046800Y005620D01*
X046788Y005585D01*
X046773Y005551D01*
X046754Y005519D01*
X046731Y005489D01*
X046706Y005461D01*
X046678Y005437D01*
X046648Y005415D01*
X046615Y005397D01*
X046581Y005383D01*
X046545Y005372D01*
X046508Y005365D01*
X046471Y005362D01*
X046434Y005363D01*
X046397Y005368D01*
X046361Y005377D01*
X046326Y005390D01*
X046292Y005406D01*
X046261Y005426D01*
X046232Y005449D01*
X046205Y005475D01*
X046181Y005503D01*
X046160Y005534D01*
X046143Y005567D01*
X046130Y005602D01*
X046120Y005638D01*
X046114Y005675D01*
X046112Y005712D01*
X045112Y005712D02*
X045114Y005749D01*
X045120Y005786D01*
X045130Y005822D01*
X045143Y005857D01*
X045160Y005890D01*
X045181Y005921D01*
X045205Y005949D01*
X045232Y005975D01*
X045261Y005998D01*
X045292Y006018D01*
X045326Y006034D01*
X045361Y006047D01*
X045397Y006056D01*
X045434Y006061D01*
X045471Y006062D01*
X045508Y006059D01*
X045545Y006052D01*
X045581Y006041D01*
X045615Y006027D01*
X045648Y006009D01*
X045678Y005987D01*
X045706Y005963D01*
X045731Y005935D01*
X045754Y005905D01*
X045773Y005873D01*
X045788Y005839D01*
X045800Y005804D01*
X045808Y005768D01*
X045812Y005731D01*
X045812Y005693D01*
X045808Y005656D01*
X045800Y005620D01*
X045788Y005585D01*
X045773Y005551D01*
X045754Y005519D01*
X045731Y005489D01*
X045706Y005461D01*
X045678Y005437D01*
X045648Y005415D01*
X045615Y005397D01*
X045581Y005383D01*
X045545Y005372D01*
X045508Y005365D01*
X045471Y005362D01*
X045434Y005363D01*
X045397Y005368D01*
X045361Y005377D01*
X045326Y005390D01*
X045292Y005406D01*
X045261Y005426D01*
X045232Y005449D01*
X045205Y005475D01*
X045181Y005503D01*
X045160Y005534D01*
X045143Y005567D01*
X045130Y005602D01*
X045120Y005638D01*
X045114Y005675D01*
X045112Y005712D01*
X045112Y004712D02*
X045114Y004749D01*
X045120Y004786D01*
X045130Y004822D01*
X045143Y004857D01*
X045160Y004890D01*
X045181Y004921D01*
X045205Y004949D01*
X045232Y004975D01*
X045261Y004998D01*
X045292Y005018D01*
X045326Y005034D01*
X045361Y005047D01*
X045397Y005056D01*
X045434Y005061D01*
X045471Y005062D01*
X045508Y005059D01*
X045545Y005052D01*
X045581Y005041D01*
X045615Y005027D01*
X045648Y005009D01*
X045678Y004987D01*
X045706Y004963D01*
X045731Y004935D01*
X045754Y004905D01*
X045773Y004873D01*
X045788Y004839D01*
X045800Y004804D01*
X045808Y004768D01*
X045812Y004731D01*
X045812Y004693D01*
X045808Y004656D01*
X045800Y004620D01*
X045788Y004585D01*
X045773Y004551D01*
X045754Y004519D01*
X045731Y004489D01*
X045706Y004461D01*
X045678Y004437D01*
X045648Y004415D01*
X045615Y004397D01*
X045581Y004383D01*
X045545Y004372D01*
X045508Y004365D01*
X045471Y004362D01*
X045434Y004363D01*
X045397Y004368D01*
X045361Y004377D01*
X045326Y004390D01*
X045292Y004406D01*
X045261Y004426D01*
X045232Y004449D01*
X045205Y004475D01*
X045181Y004503D01*
X045160Y004534D01*
X045143Y004567D01*
X045130Y004602D01*
X045120Y004638D01*
X045114Y004675D01*
X045112Y004712D01*
X046112Y004712D02*
X046114Y004749D01*
X046120Y004786D01*
X046130Y004822D01*
X046143Y004857D01*
X046160Y004890D01*
X046181Y004921D01*
X046205Y004949D01*
X046232Y004975D01*
X046261Y004998D01*
X046292Y005018D01*
X046326Y005034D01*
X046361Y005047D01*
X046397Y005056D01*
X046434Y005061D01*
X046471Y005062D01*
X046508Y005059D01*
X046545Y005052D01*
X046581Y005041D01*
X046615Y005027D01*
X046648Y005009D01*
X046678Y004987D01*
X046706Y004963D01*
X046731Y004935D01*
X046754Y004905D01*
X046773Y004873D01*
X046788Y004839D01*
X046800Y004804D01*
X046808Y004768D01*
X046812Y004731D01*
X046812Y004693D01*
X046808Y004656D01*
X046800Y004620D01*
X046788Y004585D01*
X046773Y004551D01*
X046754Y004519D01*
X046731Y004489D01*
X046706Y004461D01*
X046678Y004437D01*
X046648Y004415D01*
X046615Y004397D01*
X046581Y004383D01*
X046545Y004372D01*
X046508Y004365D01*
X046471Y004362D01*
X046434Y004363D01*
X046397Y004368D01*
X046361Y004377D01*
X046326Y004390D01*
X046292Y004406D01*
X046261Y004426D01*
X046232Y004449D01*
X046205Y004475D01*
X046181Y004503D01*
X046160Y004534D01*
X046143Y004567D01*
X046130Y004602D01*
X046120Y004638D01*
X046114Y004675D01*
X046112Y004712D01*
X046112Y003712D02*
X046114Y003749D01*
X046120Y003786D01*
X046130Y003822D01*
X046143Y003857D01*
X046160Y003890D01*
X046181Y003921D01*
X046205Y003949D01*
X046232Y003975D01*
X046261Y003998D01*
X046292Y004018D01*
X046326Y004034D01*
X046361Y004047D01*
X046397Y004056D01*
X046434Y004061D01*
X046471Y004062D01*
X046508Y004059D01*
X046545Y004052D01*
X046581Y004041D01*
X046615Y004027D01*
X046648Y004009D01*
X046678Y003987D01*
X046706Y003963D01*
X046731Y003935D01*
X046754Y003905D01*
X046773Y003873D01*
X046788Y003839D01*
X046800Y003804D01*
X046808Y003768D01*
X046812Y003731D01*
X046812Y003693D01*
X046808Y003656D01*
X046800Y003620D01*
X046788Y003585D01*
X046773Y003551D01*
X046754Y003519D01*
X046731Y003489D01*
X046706Y003461D01*
X046678Y003437D01*
X046648Y003415D01*
X046615Y003397D01*
X046581Y003383D01*
X046545Y003372D01*
X046508Y003365D01*
X046471Y003362D01*
X046434Y003363D01*
X046397Y003368D01*
X046361Y003377D01*
X046326Y003390D01*
X046292Y003406D01*
X046261Y003426D01*
X046232Y003449D01*
X046205Y003475D01*
X046181Y003503D01*
X046160Y003534D01*
X046143Y003567D01*
X046130Y003602D01*
X046120Y003638D01*
X046114Y003675D01*
X046112Y003712D01*
X045112Y003712D02*
X045114Y003749D01*
X045120Y003786D01*
X045130Y003822D01*
X045143Y003857D01*
X045160Y003890D01*
X045181Y003921D01*
X045205Y003949D01*
X045232Y003975D01*
X045261Y003998D01*
X045292Y004018D01*
X045326Y004034D01*
X045361Y004047D01*
X045397Y004056D01*
X045434Y004061D01*
X045471Y004062D01*
X045508Y004059D01*
X045545Y004052D01*
X045581Y004041D01*
X045615Y004027D01*
X045648Y004009D01*
X045678Y003987D01*
X045706Y003963D01*
X045731Y003935D01*
X045754Y003905D01*
X045773Y003873D01*
X045788Y003839D01*
X045800Y003804D01*
X045808Y003768D01*
X045812Y003731D01*
X045812Y003693D01*
X045808Y003656D01*
X045800Y003620D01*
X045788Y003585D01*
X045773Y003551D01*
X045754Y003519D01*
X045731Y003489D01*
X045706Y003461D01*
X045678Y003437D01*
X045648Y003415D01*
X045615Y003397D01*
X045581Y003383D01*
X045545Y003372D01*
X045508Y003365D01*
X045471Y003362D01*
X045434Y003363D01*
X045397Y003368D01*
X045361Y003377D01*
X045326Y003390D01*
X045292Y003406D01*
X045261Y003426D01*
X045232Y003449D01*
X045205Y003475D01*
X045181Y003503D01*
X045160Y003534D01*
X045143Y003567D01*
X045130Y003602D01*
X045120Y003638D01*
X045114Y003675D01*
X045112Y003712D01*
X050262Y004212D02*
X050262Y005212D01*
X051362Y005212D01*
X051362Y004212D01*
X051362Y003212D01*
X050262Y003212D01*
X050262Y004212D01*
X051362Y004212D01*
X051362Y005212D02*
X051362Y006212D01*
X050262Y006212D01*
X050262Y005212D01*
X050262Y006212D02*
X050262Y007212D01*
X050262Y008212D01*
X051362Y008212D01*
X051362Y007212D01*
X051362Y006212D01*
X051362Y007212D02*
X050262Y007212D01*
X050262Y008212D02*
X050262Y009212D01*
X050262Y010212D01*
X051362Y010212D01*
X051362Y009212D01*
X051362Y008212D01*
X051362Y009212D02*
X050262Y009212D01*
X050262Y010212D02*
X050262Y011212D01*
X050262Y012212D01*
X050262Y013212D01*
X051362Y013212D01*
X051362Y012212D01*
X051362Y011212D01*
X051362Y010212D01*
X051362Y011212D02*
X050262Y011212D01*
X050262Y012212D02*
X051362Y012212D01*
X035662Y008712D02*
X035664Y008746D01*
X035670Y008780D01*
X035679Y008813D01*
X035693Y008844D01*
X035710Y008874D01*
X035730Y008902D01*
X035753Y008927D01*
X035779Y008950D01*
X035807Y008969D01*
X035837Y008985D01*
X035869Y008997D01*
X035902Y009006D01*
X035936Y009011D01*
X035971Y009012D01*
X036005Y009009D01*
X036038Y009002D01*
X036071Y008992D01*
X036102Y008977D01*
X036131Y008960D01*
X036158Y008939D01*
X036183Y008915D01*
X036205Y008888D01*
X036223Y008860D01*
X036238Y008829D01*
X036250Y008797D01*
X036258Y008763D01*
X036262Y008729D01*
X036262Y008695D01*
X036258Y008661D01*
X036250Y008627D01*
X036238Y008595D01*
X036223Y008564D01*
X036205Y008536D01*
X036183Y008509D01*
X036158Y008485D01*
X036131Y008464D01*
X036102Y008447D01*
X036071Y008432D01*
X036038Y008422D01*
X036005Y008415D01*
X035971Y008412D01*
X035936Y008413D01*
X035902Y008418D01*
X035869Y008427D01*
X035837Y008439D01*
X035807Y008455D01*
X035779Y008474D01*
X035753Y008497D01*
X035730Y008522D01*
X035710Y008550D01*
X035693Y008580D01*
X035679Y008611D01*
X035670Y008644D01*
X035664Y008678D01*
X035662Y008712D01*
X031262Y011862D02*
X031262Y012162D01*
X031412Y012012D02*
X031112Y012012D01*
X031712Y012562D02*
X031712Y012912D01*
X031212Y012912D01*
X031212Y013112D01*
X032212Y013112D01*
X032212Y012912D01*
X031712Y012912D01*
X029712Y013212D02*
X029714Y013310D01*
X029722Y013408D01*
X029734Y013505D01*
X029750Y013602D01*
X029772Y013698D01*
X029798Y013793D01*
X029829Y013886D01*
X029864Y013977D01*
X029904Y014067D01*
X029948Y014155D01*
X029997Y014240D01*
X030049Y014323D01*
X030106Y014403D01*
X030166Y014481D01*
X030230Y014555D01*
X030298Y014626D01*
X030369Y014694D01*
X030443Y014758D01*
X030521Y014818D01*
X030601Y014875D01*
X030684Y014927D01*
X030769Y014976D01*
X030857Y015020D01*
X030947Y015060D01*
X031038Y015095D01*
X031131Y015126D01*
X031226Y015152D01*
X031322Y015174D01*
X031419Y015190D01*
X031516Y015202D01*
X031614Y015210D01*
X031712Y015212D01*
X031810Y015210D01*
X031908Y015202D01*
X032005Y015190D01*
X032102Y015174D01*
X032198Y015152D01*
X032293Y015126D01*
X032386Y015095D01*
X032477Y015060D01*
X032567Y015020D01*
X032655Y014976D01*
X032740Y014927D01*
X032823Y014875D01*
X032903Y014818D01*
X032981Y014758D01*
X033055Y014694D01*
X033126Y014626D01*
X033194Y014555D01*
X033258Y014481D01*
X033318Y014403D01*
X033375Y014323D01*
X033427Y014240D01*
X033476Y014155D01*
X033520Y014067D01*
X033560Y013977D01*
X033595Y013886D01*
X033626Y013793D01*
X033652Y013698D01*
X033674Y013602D01*
X033690Y013505D01*
X033702Y013408D01*
X033710Y013310D01*
X033712Y013212D01*
X033710Y013114D01*
X033702Y013016D01*
X033690Y012919D01*
X033674Y012822D01*
X033652Y012726D01*
X033626Y012631D01*
X033595Y012538D01*
X033560Y012447D01*
X033520Y012357D01*
X033476Y012269D01*
X033427Y012184D01*
X033375Y012101D01*
X033318Y012021D01*
X033258Y011943D01*
X033194Y011869D01*
X033126Y011798D01*
X033055Y011730D01*
X032981Y011666D01*
X032903Y011606D01*
X032823Y011549D01*
X032740Y011497D01*
X032655Y011448D01*
X032567Y011404D01*
X032477Y011364D01*
X032386Y011329D01*
X032293Y011298D01*
X032198Y011272D01*
X032102Y011250D01*
X032005Y011234D01*
X031908Y011222D01*
X031810Y011214D01*
X031712Y011212D01*
X031614Y011214D01*
X031516Y011222D01*
X031419Y011234D01*
X031322Y011250D01*
X031226Y011272D01*
X031131Y011298D01*
X031038Y011329D01*
X030947Y011364D01*
X030857Y011404D01*
X030769Y011448D01*
X030684Y011497D01*
X030601Y011549D01*
X030521Y011606D01*
X030443Y011666D01*
X030369Y011730D01*
X030298Y011798D01*
X030230Y011869D01*
X030166Y011943D01*
X030106Y012021D01*
X030049Y012101D01*
X029997Y012184D01*
X029948Y012269D01*
X029904Y012357D01*
X029864Y012447D01*
X029829Y012538D01*
X029798Y012631D01*
X029772Y012726D01*
X029750Y012822D01*
X029734Y012919D01*
X029722Y013016D01*
X029714Y013114D01*
X029712Y013212D01*
X031712Y013462D02*
X031712Y013862D01*
X024312Y014662D02*
X024012Y014662D01*
X024162Y014812D02*
X024162Y014512D01*
X023712Y014112D02*
X023712Y013762D01*
X024212Y013762D01*
X024212Y013562D01*
X023212Y013562D01*
X023212Y013762D01*
X023712Y013762D01*
X022112Y013462D02*
X022114Y013542D01*
X022120Y013621D01*
X022130Y013700D01*
X022144Y013779D01*
X022161Y013857D01*
X022183Y013934D01*
X022208Y014009D01*
X022238Y014083D01*
X022270Y014156D01*
X022307Y014227D01*
X022347Y014296D01*
X022390Y014363D01*
X022437Y014428D01*
X022486Y014490D01*
X022539Y014550D01*
X022595Y014607D01*
X022653Y014662D01*
X022714Y014713D01*
X022778Y014761D01*
X022844Y014806D01*
X022912Y014848D01*
X022982Y014886D01*
X023054Y014920D01*
X023127Y014951D01*
X023202Y014979D01*
X023279Y015002D01*
X023356Y015022D01*
X023434Y015038D01*
X023513Y015050D01*
X023592Y015058D01*
X023672Y015062D01*
X023752Y015062D01*
X023832Y015058D01*
X023911Y015050D01*
X023990Y015038D01*
X024068Y015022D01*
X024145Y015002D01*
X024222Y014979D01*
X024297Y014951D01*
X024370Y014920D01*
X024442Y014886D01*
X024512Y014848D01*
X024580Y014806D01*
X024646Y014761D01*
X024710Y014713D01*
X024771Y014662D01*
X024829Y014607D01*
X024885Y014550D01*
X024938Y014490D01*
X024987Y014428D01*
X025034Y014363D01*
X025077Y014296D01*
X025117Y014227D01*
X025154Y014156D01*
X025186Y014083D01*
X025216Y014009D01*
X025241Y013934D01*
X025263Y013857D01*
X025280Y013779D01*
X025294Y013700D01*
X025304Y013621D01*
X025310Y013542D01*
X025312Y013462D01*
X025310Y013382D01*
X025304Y013303D01*
X025294Y013224D01*
X025280Y013145D01*
X025263Y013067D01*
X025241Y012990D01*
X025216Y012915D01*
X025186Y012841D01*
X025154Y012768D01*
X025117Y012697D01*
X025077Y012628D01*
X025034Y012561D01*
X024987Y012496D01*
X024938Y012434D01*
X024885Y012374D01*
X024829Y012317D01*
X024771Y012262D01*
X024710Y012211D01*
X024646Y012163D01*
X024580Y012118D01*
X024512Y012076D01*
X024442Y012038D01*
X024370Y012004D01*
X024297Y011973D01*
X024222Y011945D01*
X024145Y011922D01*
X024068Y011902D01*
X023990Y011886D01*
X023911Y011874D01*
X023832Y011866D01*
X023752Y011862D01*
X023672Y011862D01*
X023592Y011866D01*
X023513Y011874D01*
X023434Y011886D01*
X023356Y011902D01*
X023279Y011922D01*
X023202Y011945D01*
X023127Y011973D01*
X023054Y012004D01*
X022982Y012038D01*
X022912Y012076D01*
X022844Y012118D01*
X022778Y012163D01*
X022714Y012211D01*
X022653Y012262D01*
X022595Y012317D01*
X022539Y012374D01*
X022486Y012434D01*
X022437Y012496D01*
X022390Y012561D01*
X022347Y012628D01*
X022307Y012697D01*
X022270Y012768D01*
X022238Y012841D01*
X022208Y012915D01*
X022183Y012990D01*
X022161Y013067D01*
X022144Y013145D01*
X022130Y013224D01*
X022120Y013303D01*
X022114Y013382D01*
X022112Y013462D01*
X023712Y013212D02*
X023712Y012812D01*
X017512Y013462D02*
X017512Y014462D01*
X015912Y014462D01*
X015912Y013462D01*
X017512Y013462D01*
X016712Y013712D02*
X016712Y013962D01*
X016712Y014212D01*
X016712Y013962D02*
X016112Y013962D01*
X016312Y014212D02*
X016712Y013962D01*
X016312Y013712D01*
X016312Y014212D01*
X016712Y013962D02*
X016962Y013962D01*
X021162Y015212D02*
X021164Y015246D01*
X021170Y015280D01*
X021179Y015313D01*
X021193Y015344D01*
X021210Y015374D01*
X021230Y015402D01*
X021253Y015427D01*
X021279Y015450D01*
X021307Y015469D01*
X021337Y015485D01*
X021369Y015497D01*
X021402Y015506D01*
X021436Y015511D01*
X021471Y015512D01*
X021505Y015509D01*
X021538Y015502D01*
X021571Y015492D01*
X021602Y015477D01*
X021631Y015460D01*
X021658Y015439D01*
X021683Y015415D01*
X021705Y015388D01*
X021723Y015360D01*
X021738Y015329D01*
X021750Y015297D01*
X021758Y015263D01*
X021762Y015229D01*
X021762Y015195D01*
X021758Y015161D01*
X021750Y015127D01*
X021738Y015095D01*
X021723Y015064D01*
X021705Y015036D01*
X021683Y015009D01*
X021658Y014985D01*
X021631Y014964D01*
X021602Y014947D01*
X021571Y014932D01*
X021538Y014922D01*
X021505Y014915D01*
X021471Y014912D01*
X021436Y014913D01*
X021402Y014918D01*
X021369Y014927D01*
X021337Y014939D01*
X021307Y014955D01*
X021279Y014974D01*
X021253Y014997D01*
X021230Y015022D01*
X021210Y015050D01*
X021193Y015080D01*
X021179Y015111D01*
X021170Y015144D01*
X021164Y015178D01*
X021162Y015212D01*
X022412Y015212D02*
X022414Y015246D01*
X022420Y015280D01*
X022429Y015313D01*
X022443Y015344D01*
X022460Y015374D01*
X022480Y015402D01*
X022503Y015427D01*
X022529Y015450D01*
X022557Y015469D01*
X022587Y015485D01*
X022619Y015497D01*
X022652Y015506D01*
X022686Y015511D01*
X022721Y015512D01*
X022755Y015509D01*
X022788Y015502D01*
X022821Y015492D01*
X022852Y015477D01*
X022881Y015460D01*
X022908Y015439D01*
X022933Y015415D01*
X022955Y015388D01*
X022973Y015360D01*
X022988Y015329D01*
X023000Y015297D01*
X023008Y015263D01*
X023012Y015229D01*
X023012Y015195D01*
X023008Y015161D01*
X023000Y015127D01*
X022988Y015095D01*
X022973Y015064D01*
X022955Y015036D01*
X022933Y015009D01*
X022908Y014985D01*
X022881Y014964D01*
X022852Y014947D01*
X022821Y014932D01*
X022788Y014922D01*
X022755Y014915D01*
X022721Y014912D01*
X022686Y014913D01*
X022652Y014918D01*
X022619Y014927D01*
X022587Y014939D01*
X022557Y014955D01*
X022529Y014974D01*
X022503Y014997D01*
X022480Y015022D01*
X022460Y015050D01*
X022443Y015080D01*
X022429Y015111D01*
X022420Y015144D01*
X022414Y015178D01*
X022412Y015212D01*
X015912Y012712D02*
X015914Y012746D01*
X015920Y012780D01*
X015929Y012813D01*
X015943Y012844D01*
X015960Y012874D01*
X015980Y012902D01*
X016003Y012927D01*
X016029Y012950D01*
X016057Y012969D01*
X016087Y012985D01*
X016119Y012997D01*
X016152Y013006D01*
X016186Y013011D01*
X016221Y013012D01*
X016255Y013009D01*
X016288Y013002D01*
X016321Y012992D01*
X016352Y012977D01*
X016381Y012960D01*
X016408Y012939D01*
X016433Y012915D01*
X016455Y012888D01*
X016473Y012860D01*
X016488Y012829D01*
X016500Y012797D01*
X016508Y012763D01*
X016512Y012729D01*
X016512Y012695D01*
X016508Y012661D01*
X016500Y012627D01*
X016488Y012595D01*
X016473Y012564D01*
X016455Y012536D01*
X016433Y012509D01*
X016408Y012485D01*
X016381Y012464D01*
X016352Y012447D01*
X016321Y012432D01*
X016288Y012422D01*
X016255Y012415D01*
X016221Y012412D01*
X016186Y012413D01*
X016152Y012418D01*
X016119Y012427D01*
X016087Y012439D01*
X016057Y012455D01*
X016029Y012474D01*
X016003Y012497D01*
X015980Y012522D01*
X015960Y012550D01*
X015943Y012580D01*
X015929Y012611D01*
X015920Y012644D01*
X015914Y012678D01*
X015912Y012712D01*
X009909Y013862D02*
X009759Y013712D01*
X009059Y013712D01*
X008909Y013862D01*
X008759Y013712D01*
X008059Y013712D01*
X007909Y013862D01*
X007909Y015562D01*
X008059Y015712D01*
X008759Y015712D01*
X008909Y015562D01*
X009059Y015712D01*
X009759Y015712D01*
X009909Y015562D01*
X009909Y013862D01*
X000362Y014712D02*
X000364Y014785D01*
X000370Y014858D01*
X000380Y014930D01*
X000394Y015002D01*
X000411Y015073D01*
X000433Y015143D01*
X000458Y015212D01*
X000487Y015279D01*
X000519Y015344D01*
X000555Y015408D01*
X000595Y015470D01*
X000637Y015529D01*
X000683Y015586D01*
X000732Y015640D01*
X000784Y015692D01*
X000838Y015741D01*
X000895Y015787D01*
X000954Y015829D01*
X001016Y015869D01*
X001080Y015905D01*
X001145Y015937D01*
X001212Y015966D01*
X001281Y015991D01*
X001351Y016013D01*
X001422Y016030D01*
X001494Y016044D01*
X001566Y016054D01*
X001639Y016060D01*
X001712Y016062D01*
X001785Y016060D01*
X001858Y016054D01*
X001930Y016044D01*
X002002Y016030D01*
X002073Y016013D01*
X002143Y015991D01*
X002212Y015966D01*
X002279Y015937D01*
X002344Y015905D01*
X002408Y015869D01*
X002470Y015829D01*
X002529Y015787D01*
X002586Y015741D01*
X002640Y015692D01*
X002692Y015640D01*
X002741Y015586D01*
X002787Y015529D01*
X002829Y015470D01*
X002869Y015408D01*
X002905Y015344D01*
X002937Y015279D01*
X002966Y015212D01*
X002991Y015143D01*
X003013Y015073D01*
X003030Y015002D01*
X003044Y014930D01*
X003054Y014858D01*
X003060Y014785D01*
X003062Y014712D01*
X003060Y014639D01*
X003054Y014566D01*
X003044Y014494D01*
X003030Y014422D01*
X003013Y014351D01*
X002991Y014281D01*
X002966Y014212D01*
X002937Y014145D01*
X002905Y014080D01*
X002869Y014016D01*
X002829Y013954D01*
X002787Y013895D01*
X002741Y013838D01*
X002692Y013784D01*
X002640Y013732D01*
X002586Y013683D01*
X002529Y013637D01*
X002470Y013595D01*
X002408Y013555D01*
X002344Y013519D01*
X002279Y013487D01*
X002212Y013458D01*
X002143Y013433D01*
X002073Y013411D01*
X002002Y013394D01*
X001930Y013380D01*
X001858Y013370D01*
X001785Y013364D01*
X001712Y013362D01*
X001639Y013364D01*
X001566Y013370D01*
X001494Y013380D01*
X001422Y013394D01*
X001351Y013411D01*
X001281Y013433D01*
X001212Y013458D01*
X001145Y013487D01*
X001080Y013519D01*
X001016Y013555D01*
X000954Y013595D01*
X000895Y013637D01*
X000838Y013683D01*
X000784Y013732D01*
X000732Y013784D01*
X000683Y013838D01*
X000637Y013895D01*
X000595Y013954D01*
X000555Y014016D01*
X000519Y014080D01*
X000487Y014145D01*
X000458Y014212D01*
X000433Y014281D01*
X000411Y014351D01*
X000394Y014422D01*
X000380Y014494D01*
X000370Y014566D01*
X000364Y014639D01*
X000362Y014712D01*
X006300Y011462D02*
X006623Y011462D01*
X006623Y010962D02*
X006300Y010962D01*
X008050Y010962D02*
X008373Y010962D01*
X008373Y011462D02*
X008050Y011462D01*
X030462Y004873D02*
X030462Y004550D01*
X030962Y004550D02*
X030962Y004873D01*
X022712Y003062D02*
X022712Y002662D01*
X022712Y002362D01*
X023012Y002362D01*
X023012Y002062D01*
X022712Y002062D01*
X022712Y001762D01*
X022712Y001362D01*
X022710Y001345D01*
X022706Y001328D01*
X022699Y001312D01*
X022689Y001298D01*
X022676Y001285D01*
X022662Y001275D01*
X022646Y001268D01*
X022629Y001264D01*
X022612Y001262D01*
X018312Y001262D01*
X018295Y001264D01*
X018278Y001268D01*
X018262Y001275D01*
X018248Y001285D01*
X018235Y001298D01*
X018225Y001312D01*
X018218Y001328D01*
X018214Y001345D01*
X018212Y001362D01*
X018212Y001762D01*
X018212Y002662D01*
X018212Y003062D01*
X018214Y003079D01*
X018218Y003096D01*
X018225Y003112D01*
X018235Y003126D01*
X018248Y003139D01*
X018262Y003149D01*
X018278Y003156D01*
X018295Y003160D01*
X018312Y003162D01*
X022612Y003162D01*
X022629Y003160D01*
X022646Y003156D01*
X022662Y003149D01*
X022676Y003139D01*
X022689Y003126D01*
X022699Y003112D01*
X022706Y003096D01*
X022710Y003079D01*
X022712Y003062D01*
X022712Y002362D02*
X022712Y002062D01*
X020712Y001962D02*
X020712Y002212D01*
X020712Y002462D01*
X020562Y002462D02*
X020362Y002462D01*
X020362Y001962D01*
X020562Y001962D01*
X020562Y002462D01*
X020212Y002462D02*
X020212Y002212D01*
X020212Y001962D01*
X018212Y002062D02*
X017912Y002062D01*
X017912Y002362D01*
X018212Y002362D01*
X025502Y000785D02*
X025502Y000492D01*
X025795Y000492D02*
X025795Y000785D01*
X025648Y000932D01*
X025502Y000785D01*
X025502Y000712D02*
X025795Y000712D01*
X025962Y000638D02*
X026109Y000492D01*
X026256Y000638D01*
X026256Y000932D01*
X026422Y000932D02*
X026642Y000932D01*
X026716Y000859D01*
X026716Y000712D01*
X026642Y000638D01*
X026422Y000638D01*
X026422Y000492D02*
X026422Y000932D01*
X025962Y000932D02*
X025962Y000638D01*
X026569Y000638D02*
X026716Y000492D01*
X027343Y000492D02*
X027490Y000492D01*
X027416Y000492D02*
X027416Y000932D01*
X027343Y000932D02*
X027490Y000932D01*
X027650Y000859D02*
X027650Y000785D01*
X027723Y000712D01*
X027870Y000712D01*
X027944Y000638D01*
X027944Y000565D01*
X027870Y000492D01*
X027723Y000492D01*
X027650Y000565D01*
X028110Y000492D02*
X028110Y000932D01*
X028330Y000932D01*
X028404Y000859D01*
X028404Y000712D01*
X028330Y000638D01*
X028110Y000638D01*
X028571Y000712D02*
X028864Y000712D01*
X029031Y000712D02*
X029251Y000712D01*
X029325Y000638D01*
X029325Y000565D01*
X029251Y000492D01*
X029104Y000492D01*
X029031Y000565D01*
X029031Y000712D01*
X029178Y000859D01*
X029325Y000932D01*
X027944Y000859D02*
X027870Y000932D01*
X027723Y000932D01*
X027650Y000859D01*
X027176Y000712D02*
X026883Y000712D01*
X018241Y004632D02*
X018243Y004655D01*
X018249Y004678D01*
X018258Y004699D01*
X018271Y004719D01*
X018287Y004736D01*
X018305Y004750D01*
X018325Y004761D01*
X018347Y004769D01*
X018370Y004773D01*
X018394Y004773D01*
X018417Y004769D01*
X018439Y004761D01*
X018459Y004750D01*
X018477Y004736D01*
X018493Y004719D01*
X018506Y004699D01*
X018515Y004678D01*
X018521Y004655D01*
X018523Y004632D01*
X018521Y004609D01*
X018515Y004586D01*
X018506Y004565D01*
X018493Y004545D01*
X018477Y004528D01*
X018459Y004514D01*
X018439Y004503D01*
X018417Y004495D01*
X018394Y004491D01*
X018370Y004491D01*
X018347Y004495D01*
X018325Y004503D01*
X018305Y004514D01*
X018287Y004528D01*
X018271Y004545D01*
X018258Y004565D01*
X018249Y004586D01*
X018243Y004609D01*
X018241Y004632D01*
X000362Y001712D02*
X000364Y001785D01*
X000370Y001858D01*
X000380Y001930D01*
X000394Y002002D01*
X000411Y002073D01*
X000433Y002143D01*
X000458Y002212D01*
X000487Y002279D01*
X000519Y002344D01*
X000555Y002408D01*
X000595Y002470D01*
X000637Y002529D01*
X000683Y002586D01*
X000732Y002640D01*
X000784Y002692D01*
X000838Y002741D01*
X000895Y002787D01*
X000954Y002829D01*
X001016Y002869D01*
X001080Y002905D01*
X001145Y002937D01*
X001212Y002966D01*
X001281Y002991D01*
X001351Y003013D01*
X001422Y003030D01*
X001494Y003044D01*
X001566Y003054D01*
X001639Y003060D01*
X001712Y003062D01*
X001785Y003060D01*
X001858Y003054D01*
X001930Y003044D01*
X002002Y003030D01*
X002073Y003013D01*
X002143Y002991D01*
X002212Y002966D01*
X002279Y002937D01*
X002344Y002905D01*
X002408Y002869D01*
X002470Y002829D01*
X002529Y002787D01*
X002586Y002741D01*
X002640Y002692D01*
X002692Y002640D01*
X002741Y002586D01*
X002787Y002529D01*
X002829Y002470D01*
X002869Y002408D01*
X002905Y002344D01*
X002937Y002279D01*
X002966Y002212D01*
X002991Y002143D01*
X003013Y002073D01*
X003030Y002002D01*
X003044Y001930D01*
X003054Y001858D01*
X003060Y001785D01*
X003062Y001712D01*
X003060Y001639D01*
X003054Y001566D01*
X003044Y001494D01*
X003030Y001422D01*
X003013Y001351D01*
X002991Y001281D01*
X002966Y001212D01*
X002937Y001145D01*
X002905Y001080D01*
X002869Y001016D01*
X002829Y000954D01*
X002787Y000895D01*
X002741Y000838D01*
X002692Y000784D01*
X002640Y000732D01*
X002586Y000683D01*
X002529Y000637D01*
X002470Y000595D01*
X002408Y000555D01*
X002344Y000519D01*
X002279Y000487D01*
X002212Y000458D01*
X002143Y000433D01*
X002073Y000411D01*
X002002Y000394D01*
X001930Y000380D01*
X001858Y000370D01*
X001785Y000364D01*
X001712Y000362D01*
X001639Y000364D01*
X001566Y000370D01*
X001494Y000380D01*
X001422Y000394D01*
X001351Y000411D01*
X001281Y000433D01*
X001212Y000458D01*
X001145Y000487D01*
X001080Y000519D01*
X001016Y000555D01*
X000954Y000595D01*
X000895Y000637D01*
X000838Y000683D01*
X000784Y000732D01*
X000732Y000784D01*
X000683Y000838D01*
X000637Y000895D01*
X000595Y000954D01*
X000555Y001016D01*
X000519Y001080D01*
X000487Y001145D01*
X000458Y001212D01*
X000433Y001281D01*
X000411Y001351D01*
X000394Y001422D01*
X000380Y001494D01*
X000370Y001566D01*
X000364Y001639D01*
X000362Y001712D01*
X044862Y001712D02*
X044864Y001785D01*
X044870Y001858D01*
X044880Y001930D01*
X044894Y002002D01*
X044911Y002073D01*
X044933Y002143D01*
X044958Y002212D01*
X044987Y002279D01*
X045019Y002344D01*
X045055Y002408D01*
X045095Y002470D01*
X045137Y002529D01*
X045183Y002586D01*
X045232Y002640D01*
X045284Y002692D01*
X045338Y002741D01*
X045395Y002787D01*
X045454Y002829D01*
X045516Y002869D01*
X045580Y002905D01*
X045645Y002937D01*
X045712Y002966D01*
X045781Y002991D01*
X045851Y003013D01*
X045922Y003030D01*
X045994Y003044D01*
X046066Y003054D01*
X046139Y003060D01*
X046212Y003062D01*
X046285Y003060D01*
X046358Y003054D01*
X046430Y003044D01*
X046502Y003030D01*
X046573Y003013D01*
X046643Y002991D01*
X046712Y002966D01*
X046779Y002937D01*
X046844Y002905D01*
X046908Y002869D01*
X046970Y002829D01*
X047029Y002787D01*
X047086Y002741D01*
X047140Y002692D01*
X047192Y002640D01*
X047241Y002586D01*
X047287Y002529D01*
X047329Y002470D01*
X047369Y002408D01*
X047405Y002344D01*
X047437Y002279D01*
X047466Y002212D01*
X047491Y002143D01*
X047513Y002073D01*
X047530Y002002D01*
X047544Y001930D01*
X047554Y001858D01*
X047560Y001785D01*
X047562Y001712D01*
X047560Y001639D01*
X047554Y001566D01*
X047544Y001494D01*
X047530Y001422D01*
X047513Y001351D01*
X047491Y001281D01*
X047466Y001212D01*
X047437Y001145D01*
X047405Y001080D01*
X047369Y001016D01*
X047329Y000954D01*
X047287Y000895D01*
X047241Y000838D01*
X047192Y000784D01*
X047140Y000732D01*
X047086Y000683D01*
X047029Y000637D01*
X046970Y000595D01*
X046908Y000555D01*
X046844Y000519D01*
X046779Y000487D01*
X046712Y000458D01*
X046643Y000433D01*
X046573Y000411D01*
X046502Y000394D01*
X046430Y000380D01*
X046358Y000370D01*
X046285Y000364D01*
X046212Y000362D01*
X046139Y000364D01*
X046066Y000370D01*
X045994Y000380D01*
X045922Y000394D01*
X045851Y000411D01*
X045781Y000433D01*
X045712Y000458D01*
X045645Y000487D01*
X045580Y000519D01*
X045516Y000555D01*
X045454Y000595D01*
X045395Y000637D01*
X045338Y000683D01*
X045284Y000732D01*
X045232Y000784D01*
X045183Y000838D01*
X045137Y000895D01*
X045095Y000954D01*
X045055Y001016D01*
X045019Y001080D01*
X044987Y001145D01*
X044958Y001212D01*
X044933Y001281D01*
X044911Y001351D01*
X044894Y001422D01*
X044880Y001494D01*
X044870Y001566D01*
X044864Y001639D01*
X044862Y001712D01*
D13*
X032438Y004505D02*
X032438Y004918D01*
X031993Y005046D02*
X031995Y005058D01*
X032000Y005069D01*
X032008Y005078D01*
X032019Y005084D01*
X032031Y005087D01*
X032043Y005086D01*
X032055Y005082D01*
X032064Y005074D01*
X032071Y005064D01*
X032075Y005052D01*
X032075Y005040D01*
X032071Y005028D01*
X032064Y005018D01*
X032054Y005010D01*
X032043Y005006D01*
X032031Y005005D01*
X032019Y005008D01*
X032008Y005014D01*
X032000Y005023D01*
X031995Y005034D01*
X031993Y005046D01*
X031985Y005076D02*
X031985Y004515D01*
X031692Y004539D02*
X031692Y004232D01*
X031231Y004232D01*
X032075Y004347D02*
X032080Y004369D01*
X032088Y004389D01*
X032099Y004407D01*
X032114Y004424D01*
X032130Y004438D01*
X032149Y004450D01*
X032169Y004458D01*
X032190Y004463D01*
X032212Y004465D01*
X032234Y004463D01*
X032255Y004458D01*
X032275Y004450D01*
X032294Y004438D01*
X032310Y004424D01*
X032325Y004407D01*
X032336Y004389D01*
X032344Y004369D01*
X032349Y004347D01*
X031692Y004692D02*
X031231Y004692D01*
X031231Y004999D01*
X031231Y005152D02*
X031231Y005383D01*
X031308Y005459D01*
X031615Y005459D01*
X031692Y005383D01*
X031692Y005152D01*
X031231Y005152D01*
X031692Y004999D02*
X031692Y004692D01*
X031461Y004692D02*
X031461Y004845D01*
X032075Y005076D02*
X032080Y005054D01*
X032088Y005034D01*
X032099Y005016D01*
X032114Y004999D01*
X032130Y004985D01*
X032149Y004973D01*
X032169Y004965D01*
X032190Y004960D01*
X032212Y004958D01*
X032234Y004960D01*
X032255Y004965D01*
X032275Y004973D01*
X032294Y004985D01*
X032310Y004999D01*
X032325Y005016D01*
X032336Y005034D01*
X032344Y005054D01*
X032349Y005076D01*
X031692Y005613D02*
X031692Y005920D01*
X031692Y005766D02*
X031231Y005766D01*
X031385Y005613D01*
X030192Y005633D02*
X030192Y005479D01*
X030115Y005402D01*
X029808Y005709D01*
X030115Y005709D01*
X030192Y005633D01*
X029808Y005709D02*
X029731Y005633D01*
X029731Y005479D01*
X029808Y005402D01*
X030115Y005402D01*
X030192Y005249D02*
X030192Y004942D01*
X030192Y005095D02*
X029731Y005095D01*
X029885Y004942D01*
X029961Y004789D02*
X030038Y004712D01*
X030038Y004482D01*
X030038Y004635D02*
X030192Y004789D01*
X029961Y004789D02*
X029808Y004789D01*
X029731Y004712D01*
X029731Y004482D01*
X030192Y004482D01*
X024749Y003192D02*
X024595Y003115D01*
X024442Y002962D01*
X024672Y002962D01*
X024749Y002885D01*
X024749Y002808D01*
X024672Y002732D01*
X024519Y002732D01*
X024442Y002808D01*
X024442Y002962D01*
X024289Y003115D02*
X024212Y003192D01*
X024058Y003192D01*
X023982Y003115D01*
X023982Y002808D01*
X024058Y002732D01*
X024212Y002732D01*
X024289Y002808D01*
X024312Y002471D02*
X024612Y002471D01*
X024612Y001952D02*
X024321Y001952D01*
X016828Y001692D02*
X016828Y001615D01*
X016521Y001308D01*
X016521Y001232D01*
X016368Y001308D02*
X016291Y001232D01*
X016138Y001232D01*
X016061Y001308D01*
X016061Y001615D01*
X016138Y001692D01*
X016291Y001692D01*
X016368Y001615D01*
X016521Y001692D02*
X016828Y001692D01*
X016612Y001952D02*
X016312Y001952D01*
X016312Y002471D02*
X016602Y002471D01*
X016612Y003202D02*
X016312Y003202D01*
X015578Y003308D02*
X015501Y003232D01*
X015348Y003232D01*
X015271Y003308D01*
X015118Y003308D02*
X015041Y003232D01*
X014888Y003232D01*
X014811Y003308D01*
X014811Y003615D01*
X014888Y003692D01*
X015041Y003692D01*
X015118Y003615D01*
X015271Y003615D02*
X015348Y003692D01*
X015501Y003692D01*
X015578Y003615D01*
X015578Y003539D01*
X015501Y003462D01*
X015578Y003385D01*
X015578Y003308D01*
X015501Y003462D02*
X015425Y003462D01*
X016312Y003721D02*
X016602Y003721D01*
X014828Y005482D02*
X014521Y005482D01*
X014368Y005482D02*
X014214Y005635D01*
X014291Y005635D02*
X014061Y005635D01*
X014061Y005482D02*
X014061Y005942D01*
X014291Y005942D01*
X014368Y005865D01*
X014368Y005712D01*
X014291Y005635D01*
X014521Y005789D02*
X014675Y005942D01*
X014675Y005482D01*
X015311Y006232D02*
X015311Y006692D01*
X015541Y006692D01*
X015618Y006615D01*
X015618Y006462D01*
X015541Y006385D01*
X015311Y006385D01*
X015464Y006385D02*
X015618Y006232D01*
X015771Y006232D02*
X016078Y006539D01*
X016078Y006615D01*
X016001Y006692D01*
X015848Y006692D01*
X015771Y006615D01*
X015771Y006232D02*
X016078Y006232D01*
X013721Y006571D02*
X013721Y006862D01*
X013202Y006862D02*
X013202Y006562D01*
X013212Y007482D02*
X013289Y007558D01*
X013212Y007482D02*
X013058Y007482D01*
X012982Y007558D01*
X012982Y007865D01*
X013058Y007942D01*
X013212Y007942D01*
X013289Y007865D01*
X013442Y007865D02*
X013519Y007942D01*
X013672Y007942D01*
X013749Y007865D01*
X013749Y007789D01*
X013442Y007482D01*
X013749Y007482D01*
X012749Y007712D02*
X012442Y007712D01*
X012672Y007942D01*
X012672Y007482D01*
X012289Y007482D02*
X012135Y007635D01*
X012212Y007635D02*
X011982Y007635D01*
X011982Y007482D02*
X011982Y007942D01*
X012212Y007942D01*
X012289Y007865D01*
X012289Y007712D01*
X012212Y007635D01*
X011749Y007558D02*
X011672Y007482D01*
X011519Y007482D01*
X011442Y007558D01*
X011442Y007712D02*
X011595Y007789D01*
X011672Y007789D01*
X011749Y007712D01*
X011749Y007558D01*
X011442Y007712D02*
X011442Y007942D01*
X011749Y007942D01*
X011289Y007865D02*
X011212Y007942D01*
X010982Y007942D01*
X010982Y007482D01*
X010982Y007635D02*
X011212Y007635D01*
X011289Y007712D01*
X011289Y007865D01*
X011135Y007635D02*
X011289Y007482D01*
X009971Y007821D02*
X009971Y008112D01*
X009452Y008112D02*
X009452Y007812D01*
X009558Y008732D02*
X009865Y008732D01*
X009942Y008808D01*
X009942Y008962D01*
X009865Y009039D01*
X009942Y009192D02*
X009942Y009499D01*
X009942Y009345D02*
X009481Y009345D01*
X009635Y009192D01*
X009558Y009039D02*
X009481Y008962D01*
X009481Y008808D01*
X009558Y008732D01*
X009711Y009652D02*
X009711Y009883D01*
X009788Y009959D01*
X009865Y009959D01*
X009942Y009883D01*
X009942Y009729D01*
X009865Y009652D01*
X009711Y009652D01*
X009558Y009806D01*
X009481Y009959D01*
X005578Y011058D02*
X005501Y010982D01*
X005348Y010982D01*
X005271Y011058D01*
X005271Y011135D01*
X005348Y011212D01*
X005501Y011212D01*
X005578Y011135D01*
X005578Y011058D01*
X005501Y011212D02*
X005578Y011289D01*
X005578Y011365D01*
X005501Y011442D01*
X005348Y011442D01*
X005271Y011365D01*
X005271Y011289D01*
X005348Y011212D01*
X005118Y011212D02*
X005041Y011135D01*
X004811Y011135D01*
X004811Y010982D02*
X004811Y011442D01*
X005041Y011442D01*
X005118Y011365D01*
X005118Y011212D01*
X004964Y011135D02*
X005118Y010982D01*
X003942Y010383D02*
X003481Y010383D01*
X003711Y010152D01*
X003711Y010459D01*
X004202Y010112D02*
X004202Y009812D01*
X003942Y009845D02*
X003481Y009845D01*
X003635Y009692D01*
X003558Y009539D02*
X003481Y009462D01*
X003481Y009308D01*
X003558Y009232D01*
X003865Y009232D01*
X003942Y009308D01*
X003942Y009462D01*
X003865Y009539D01*
X003942Y009692D02*
X003942Y009999D01*
X004721Y010112D02*
X004721Y009821D01*
X004723Y008358D02*
X004723Y008068D01*
X004204Y008058D02*
X004204Y008358D01*
X004229Y007332D02*
X004229Y007025D01*
X004460Y007025D01*
X004383Y007179D01*
X004383Y007255D01*
X004460Y007332D01*
X004613Y007332D01*
X004690Y007255D01*
X004690Y007102D01*
X004613Y007025D01*
X004690Y006872D02*
X004690Y006565D01*
X004690Y006718D02*
X004229Y006718D01*
X004383Y006565D01*
X004306Y006411D02*
X004229Y006335D01*
X004229Y006181D01*
X004306Y006104D01*
X004613Y006104D01*
X004690Y006181D01*
X004690Y006335D01*
X004613Y006411D01*
X006789Y006286D02*
X006943Y006286D01*
X006866Y006286D02*
X006866Y005826D01*
X006789Y005826D02*
X006943Y005826D01*
X007096Y005902D02*
X007173Y005826D01*
X007326Y005826D01*
X007403Y005902D01*
X007557Y005902D02*
X007633Y005826D01*
X007787Y005826D01*
X007864Y005902D01*
X007864Y005979D01*
X007787Y006056D01*
X007710Y006056D01*
X007787Y006056D02*
X007864Y006133D01*
X007864Y006209D01*
X007787Y006286D01*
X007633Y006286D01*
X007557Y006209D01*
X007403Y006209D02*
X007326Y006286D01*
X007173Y006286D01*
X007096Y006209D01*
X007096Y005902D01*
X016452Y007812D02*
X016452Y008102D01*
X016971Y008112D02*
X016971Y007812D01*
X017388Y008429D02*
X017311Y008505D01*
X017311Y008812D01*
X017388Y008889D01*
X017541Y008889D01*
X017618Y008812D01*
X017771Y008889D02*
X017771Y008659D01*
X017925Y008735D01*
X018001Y008735D01*
X018078Y008659D01*
X018078Y008505D01*
X018001Y008429D01*
X017848Y008429D01*
X017771Y008505D01*
X017618Y008505D02*
X017541Y008429D01*
X017388Y008429D01*
X016999Y008732D02*
X016692Y008732D01*
X016845Y008732D02*
X016845Y009192D01*
X016692Y009039D01*
X016539Y009115D02*
X016462Y009192D01*
X016308Y009192D01*
X016232Y009115D01*
X016232Y008808D01*
X016308Y008732D01*
X016462Y008732D01*
X016539Y008808D01*
X017771Y008889D02*
X018078Y008889D01*
X018812Y008918D02*
X019102Y008918D01*
X019112Y008399D02*
X018812Y008399D01*
X020571Y008202D02*
X020862Y008202D01*
X021482Y008308D02*
X021558Y008232D01*
X021712Y008232D01*
X021789Y008308D01*
X021942Y008462D02*
X022249Y008462D01*
X022172Y008692D02*
X021942Y008462D01*
X021789Y008615D02*
X021712Y008692D01*
X021558Y008692D01*
X021482Y008615D01*
X021482Y008308D01*
X022172Y008232D02*
X022172Y008692D01*
X020862Y008721D02*
X020562Y008721D01*
X020247Y009432D02*
X019932Y009747D01*
X019932Y011991D01*
X020936Y011991D01*
X020958Y011895D02*
X020794Y011848D01*
X020639Y011779D01*
X020495Y011688D01*
X020365Y011578D01*
X022058Y011578D01*
X021928Y011688D01*
X021784Y011779D01*
X021629Y011848D01*
X021465Y011895D01*
X021297Y011919D01*
X021127Y011919D01*
X020958Y011895D01*
X020940Y011890D02*
X021483Y011890D01*
X021527Y011991D02*
X022491Y011991D01*
X022491Y009747D01*
X022176Y009432D01*
X020247Y009432D01*
X019932Y009747D01*
X019932Y011991D01*
X022491Y011991D01*
X022491Y009747D01*
X022176Y009432D01*
X022981Y009482D02*
X022981Y009712D01*
X023058Y009789D01*
X023211Y009789D01*
X023288Y009712D01*
X023288Y009482D01*
X023288Y009635D02*
X023442Y009789D01*
X023442Y009942D02*
X023365Y009942D01*
X023058Y010249D01*
X022981Y010249D01*
X022981Y009942D01*
X022981Y009482D02*
X023442Y009482D01*
X021547Y009541D02*
X021613Y009562D01*
X021677Y009587D01*
X021740Y009615D01*
X021802Y009646D01*
X021862Y009681D01*
X021919Y009720D01*
X021974Y009762D01*
X022027Y009806D01*
X022077Y009854D01*
X022125Y009904D01*
X022169Y009957D01*
X022211Y010013D01*
X022249Y010071D01*
X022284Y010130D01*
X022315Y010192D01*
X022343Y010255D01*
X022367Y010320D01*
X022387Y010386D01*
X022404Y010453D01*
X022417Y010521D01*
X022426Y010590D01*
X022431Y010659D01*
X022432Y010728D01*
X022429Y010797D01*
X022422Y010866D01*
X022412Y010935D01*
X022397Y011002D01*
X022379Y011069D01*
X022357Y011135D01*
X022331Y011199D01*
X022302Y011261D01*
X022269Y011322D01*
X022232Y011381D01*
X022193Y011438D01*
X022150Y011492D01*
X022104Y011544D01*
X022056Y011594D01*
X022004Y011640D01*
X021950Y011683D01*
X021894Y011724D01*
X021836Y011760D01*
X021775Y011794D01*
X021713Y011824D01*
X021649Y011851D01*
X021584Y011874D01*
X021517Y011893D01*
X021617Y011852D02*
X020807Y011852D01*
X020716Y011813D02*
X021707Y011813D01*
X021790Y011775D02*
X020633Y011775D01*
X020572Y011736D02*
X021852Y011736D01*
X021913Y011698D02*
X020511Y011698D01*
X020461Y011659D02*
X021962Y011659D01*
X022008Y011620D02*
X020416Y011620D01*
X020370Y011582D02*
X022053Y011582D01*
X019991Y010712D02*
X019993Y010782D01*
X019999Y010851D01*
X020009Y010920D01*
X020023Y010989D01*
X020040Y011056D01*
X020062Y011122D01*
X020087Y011187D01*
X020116Y011251D01*
X020149Y011312D01*
X020185Y011372D01*
X020224Y011430D01*
X020267Y011485D01*
X020312Y011538D01*
X020361Y011588D01*
X020412Y011635D01*
X020466Y011679D01*
X020523Y011720D01*
X020581Y011758D01*
X020642Y011792D01*
X020705Y011823D01*
X020769Y011850D01*
X020835Y011873D01*
X020902Y011893D01*
X020970Y011909D01*
X021038Y011921D01*
X021108Y011929D01*
X021177Y011933D01*
X021247Y011933D01*
X021316Y011929D01*
X021386Y011921D01*
X021454Y011909D01*
X021522Y011893D01*
X021589Y011873D01*
X021655Y011850D01*
X021719Y011823D01*
X021782Y011792D01*
X021843Y011758D01*
X021901Y011720D01*
X021958Y011679D01*
X022012Y011635D01*
X022063Y011588D01*
X022112Y011538D01*
X022157Y011485D01*
X022200Y011430D01*
X022239Y011372D01*
X022275Y011312D01*
X022308Y011251D01*
X022337Y011187D01*
X022362Y011122D01*
X022384Y011056D01*
X022401Y010989D01*
X022415Y010920D01*
X022425Y010851D01*
X022431Y010782D01*
X022433Y010712D01*
X022431Y010642D01*
X022425Y010573D01*
X022415Y010504D01*
X022401Y010435D01*
X022384Y010368D01*
X022362Y010302D01*
X022337Y010237D01*
X022308Y010173D01*
X022275Y010112D01*
X022239Y010052D01*
X022200Y009994D01*
X022157Y009939D01*
X022112Y009886D01*
X022063Y009836D01*
X022012Y009789D01*
X021958Y009745D01*
X021901Y009704D01*
X021843Y009666D01*
X021782Y009632D01*
X021719Y009601D01*
X021655Y009574D01*
X021589Y009551D01*
X021522Y009531D01*
X021454Y009515D01*
X021386Y009503D01*
X021316Y009495D01*
X021247Y009491D01*
X021177Y009491D01*
X021108Y009495D01*
X021038Y009503D01*
X020970Y009515D01*
X020902Y009531D01*
X020835Y009551D01*
X020769Y009574D01*
X020705Y009601D01*
X020642Y009632D01*
X020581Y009666D01*
X020523Y009704D01*
X020466Y009745D01*
X020412Y009789D01*
X020361Y009836D01*
X020312Y009886D01*
X020267Y009939D01*
X020224Y009994D01*
X020185Y010052D01*
X020149Y010112D01*
X020116Y010173D01*
X020087Y010237D01*
X020062Y010302D01*
X020040Y010368D01*
X020023Y010435D01*
X020009Y010504D01*
X019999Y010573D01*
X019993Y010642D01*
X019991Y010712D01*
X020877Y011883D02*
X020811Y011862D01*
X020747Y011837D01*
X020684Y011809D01*
X020622Y011778D01*
X020562Y011743D01*
X020505Y011704D01*
X020450Y011662D01*
X020397Y011618D01*
X020347Y011570D01*
X020299Y011520D01*
X020255Y011467D01*
X020213Y011411D01*
X020175Y011353D01*
X020140Y011294D01*
X020109Y011232D01*
X020081Y011169D01*
X020057Y011104D01*
X020037Y011038D01*
X020020Y010971D01*
X020007Y010903D01*
X019998Y010834D01*
X019993Y010765D01*
X019992Y010696D01*
X019995Y010627D01*
X020002Y010558D01*
X020012Y010489D01*
X020027Y010422D01*
X020045Y010355D01*
X020067Y010289D01*
X020093Y010225D01*
X020122Y010163D01*
X020155Y010102D01*
X020192Y010043D01*
X020231Y009986D01*
X020274Y009932D01*
X020320Y009880D01*
X020368Y009830D01*
X020420Y009784D01*
X020474Y009741D01*
X020530Y009700D01*
X020588Y009664D01*
X020649Y009630D01*
X020711Y009600D01*
X020775Y009573D01*
X020840Y009550D01*
X020907Y009531D01*
X016491Y009432D02*
X015487Y009432D01*
X015465Y009528D02*
X015629Y009575D01*
X015784Y009645D01*
X015928Y009736D01*
X016058Y009846D01*
X014365Y009846D01*
X014495Y009736D01*
X014639Y009645D01*
X014794Y009575D01*
X014958Y009528D01*
X015127Y009504D01*
X015297Y009504D01*
X015465Y009528D01*
X015504Y009539D02*
X014919Y009539D01*
X014897Y009432D02*
X013932Y009432D01*
X013932Y011676D01*
X014247Y011991D01*
X016176Y011991D01*
X016491Y011676D01*
X016491Y009432D01*
X013932Y009432D01*
X013932Y011676D01*
X014247Y011991D01*
X016176Y011991D02*
X016491Y011676D01*
X016491Y009432D01*
X015800Y009655D02*
X014623Y009655D01*
X014562Y009693D02*
X015861Y009693D01*
X015922Y009732D02*
X014501Y009732D01*
X014454Y009770D02*
X015969Y009770D01*
X016015Y009809D02*
X014408Y009809D01*
X014703Y009616D02*
X015721Y009616D01*
X015635Y009578D02*
X014789Y009578D01*
X014907Y009531D02*
X014840Y009550D01*
X014775Y009573D01*
X014711Y009600D01*
X014649Y009630D01*
X014588Y009664D01*
X014530Y009700D01*
X014474Y009741D01*
X014420Y009784D01*
X014368Y009830D01*
X014320Y009880D01*
X014274Y009932D01*
X014231Y009986D01*
X014192Y010043D01*
X014155Y010102D01*
X014122Y010163D01*
X014093Y010225D01*
X014067Y010289D01*
X014045Y010355D01*
X014027Y010422D01*
X014012Y010489D01*
X014002Y010558D01*
X013995Y010627D01*
X013992Y010696D01*
X013993Y010765D01*
X013998Y010834D01*
X014007Y010903D01*
X014020Y010971D01*
X014037Y011038D01*
X014057Y011104D01*
X014081Y011169D01*
X014109Y011232D01*
X014140Y011294D01*
X014175Y011353D01*
X014213Y011411D01*
X014255Y011467D01*
X014299Y011520D01*
X014347Y011570D01*
X014397Y011618D01*
X014450Y011662D01*
X014505Y011704D01*
X014562Y011743D01*
X014622Y011778D01*
X014684Y011809D01*
X014747Y011837D01*
X014811Y011862D01*
X014877Y011883D01*
X017732Y012502D02*
X017885Y012502D01*
X017808Y012502D02*
X017808Y012962D01*
X017732Y012962D02*
X017885Y012962D01*
X018039Y012885D02*
X018039Y012578D01*
X018115Y012502D01*
X018269Y012502D01*
X018345Y012578D01*
X018499Y012502D02*
X018806Y012809D01*
X018806Y012885D01*
X018729Y012962D01*
X018576Y012962D01*
X018499Y012885D01*
X018345Y012885D02*
X018269Y012962D01*
X018115Y012962D01*
X018039Y012885D01*
X018499Y012502D02*
X018806Y012502D01*
X015517Y011893D02*
X015584Y011874D01*
X015649Y011851D01*
X015713Y011824D01*
X015775Y011794D01*
X015836Y011760D01*
X015894Y011724D01*
X015950Y011683D01*
X016004Y011640D01*
X016056Y011594D01*
X016104Y011544D01*
X016150Y011492D01*
X016193Y011438D01*
X016232Y011381D01*
X016269Y011322D01*
X016302Y011261D01*
X016331Y011199D01*
X016357Y011135D01*
X016379Y011069D01*
X016397Y011002D01*
X016412Y010935D01*
X016422Y010866D01*
X016429Y010797D01*
X016432Y010728D01*
X016431Y010659D01*
X016426Y010590D01*
X016417Y010521D01*
X016404Y010453D01*
X016387Y010386D01*
X016367Y010320D01*
X016343Y010255D01*
X016315Y010192D01*
X016284Y010130D01*
X016249Y010071D01*
X016211Y010013D01*
X016169Y009957D01*
X016125Y009904D01*
X016077Y009854D01*
X016027Y009806D01*
X015974Y009762D01*
X015919Y009720D01*
X015862Y009681D01*
X015802Y009646D01*
X015740Y009615D01*
X015677Y009587D01*
X015613Y009562D01*
X015547Y009541D01*
X013991Y010712D02*
X013993Y010782D01*
X013999Y010851D01*
X014009Y010920D01*
X014023Y010989D01*
X014040Y011056D01*
X014062Y011122D01*
X014087Y011187D01*
X014116Y011251D01*
X014149Y011312D01*
X014185Y011372D01*
X014224Y011430D01*
X014267Y011485D01*
X014312Y011538D01*
X014361Y011588D01*
X014412Y011635D01*
X014466Y011679D01*
X014523Y011720D01*
X014581Y011758D01*
X014642Y011792D01*
X014705Y011823D01*
X014769Y011850D01*
X014835Y011873D01*
X014902Y011893D01*
X014970Y011909D01*
X015038Y011921D01*
X015108Y011929D01*
X015177Y011933D01*
X015247Y011933D01*
X015316Y011929D01*
X015386Y011921D01*
X015454Y011909D01*
X015522Y011893D01*
X015589Y011873D01*
X015655Y011850D01*
X015719Y011823D01*
X015782Y011792D01*
X015843Y011758D01*
X015901Y011720D01*
X015958Y011679D01*
X016012Y011635D01*
X016063Y011588D01*
X016112Y011538D01*
X016157Y011485D01*
X016200Y011430D01*
X016239Y011372D01*
X016275Y011312D01*
X016308Y011251D01*
X016337Y011187D01*
X016362Y011122D01*
X016384Y011056D01*
X016401Y010989D01*
X016415Y010920D01*
X016425Y010851D01*
X016431Y010782D01*
X016433Y010712D01*
X016431Y010642D01*
X016425Y010573D01*
X016415Y010504D01*
X016401Y010435D01*
X016384Y010368D01*
X016362Y010302D01*
X016337Y010237D01*
X016308Y010173D01*
X016275Y010112D01*
X016239Y010052D01*
X016200Y009994D01*
X016157Y009939D01*
X016112Y009886D01*
X016063Y009836D01*
X016012Y009789D01*
X015958Y009745D01*
X015901Y009704D01*
X015843Y009666D01*
X015782Y009632D01*
X015719Y009601D01*
X015655Y009574D01*
X015589Y009551D01*
X015522Y009531D01*
X015454Y009515D01*
X015386Y009503D01*
X015316Y009495D01*
X015247Y009491D01*
X015177Y009491D01*
X015108Y009495D01*
X015038Y009503D01*
X014970Y009515D01*
X014902Y009531D01*
X014835Y009551D01*
X014769Y009574D01*
X014705Y009601D01*
X014642Y009632D01*
X014581Y009666D01*
X014523Y009704D01*
X014466Y009745D01*
X014412Y009789D01*
X014361Y009836D01*
X014312Y009886D01*
X014267Y009939D01*
X014224Y009994D01*
X014185Y010052D01*
X014149Y010112D01*
X014116Y010173D01*
X014087Y010237D01*
X014062Y010302D01*
X014040Y010368D01*
X014023Y010435D01*
X014009Y010504D01*
X013999Y010573D01*
X013993Y010642D01*
X013991Y010712D01*
X008499Y011808D02*
X008499Y012115D01*
X008422Y012192D01*
X008269Y012192D01*
X008192Y012115D01*
X008192Y012039D01*
X008269Y011962D01*
X008499Y011962D01*
X008499Y011808D02*
X008422Y011732D01*
X008269Y011732D01*
X008192Y011808D01*
X008039Y011732D02*
X007885Y011885D01*
X007962Y011885D02*
X007732Y011885D01*
X007732Y011732D02*
X007732Y012192D01*
X007962Y012192D01*
X008039Y012115D01*
X008039Y011962D01*
X007962Y011885D01*
X006631Y011875D02*
X006324Y011875D01*
X006171Y011875D02*
X006171Y012336D01*
X006324Y012182D02*
X006478Y012336D01*
X006478Y011875D01*
X006171Y011875D02*
X005864Y012336D01*
X005864Y011875D01*
X005711Y011952D02*
X005634Y011875D01*
X005480Y011875D01*
X005404Y011952D01*
X005404Y012259D01*
X005480Y012336D01*
X005634Y012336D01*
X005711Y012259D01*
X006544Y012690D02*
X006544Y012985D01*
X004379Y012985D01*
X004379Y012690D01*
X003934Y012785D02*
X003481Y012785D01*
X003473Y012788D02*
X003473Y012926D01*
X003493Y012928D01*
X003513Y012933D01*
X003532Y012942D01*
X003549Y012954D01*
X003563Y012968D01*
X003575Y012985D01*
X003584Y013004D01*
X003589Y013024D01*
X003591Y013044D01*
X003589Y013064D01*
X003584Y013084D01*
X003575Y013103D01*
X003563Y013120D01*
X003549Y013134D01*
X003532Y013146D01*
X003513Y013155D01*
X003493Y013160D01*
X003473Y013162D01*
X003473Y013320D01*
X003481Y013327D02*
X003934Y013327D01*
X004281Y013379D02*
X004281Y013084D01*
X004576Y013084D01*
X004576Y013379D01*
X004281Y013379D01*
X005135Y014084D02*
X005789Y014084D01*
X005807Y014087D01*
X005824Y014094D01*
X005839Y014103D01*
X005852Y014116D01*
X005861Y014131D01*
X005868Y014148D01*
X005871Y014166D01*
X005870Y014166D02*
X005952Y015760D01*
X005950Y015776D01*
X005946Y015791D01*
X005938Y015806D01*
X005928Y015818D01*
X005916Y015828D01*
X005901Y015836D01*
X005886Y015840D01*
X005870Y015842D01*
X005870Y015842D01*
X005854Y015840D01*
X005839Y015836D01*
X005824Y015828D01*
X005812Y015818D01*
X005802Y015806D01*
X005794Y015791D01*
X005790Y015776D01*
X005788Y015760D01*
X005789Y015760D02*
X005707Y014411D01*
X005216Y014411D01*
X005135Y015760D01*
X005133Y015776D01*
X005129Y015791D01*
X005121Y015806D01*
X005111Y015818D01*
X005099Y015828D01*
X005084Y015836D01*
X005069Y015840D01*
X005053Y015842D01*
X005037Y015840D01*
X005022Y015836D01*
X005007Y015828D01*
X004995Y015818D01*
X004985Y015806D01*
X004977Y015791D01*
X004973Y015776D01*
X004971Y015760D01*
X005053Y014166D01*
X005052Y014166D02*
X005055Y014148D01*
X005062Y014131D01*
X005071Y014116D01*
X005084Y014103D01*
X005099Y014094D01*
X005116Y014087D01*
X005134Y014084D01*
X004869Y014677D02*
X004787Y014677D01*
X004685Y015617D01*
X004481Y015617D01*
X004379Y014677D01*
X004297Y014677D01*
X004379Y015760D01*
X004378Y015760D02*
X004382Y015779D01*
X004388Y015798D01*
X004398Y015815D01*
X004410Y015831D01*
X004425Y015844D01*
X004442Y015855D01*
X004460Y015862D01*
X004685Y015862D02*
X004703Y015855D01*
X004720Y015844D01*
X004735Y015831D01*
X004747Y015815D01*
X004757Y015798D01*
X004763Y015779D01*
X004767Y015760D01*
X004869Y014677D01*
X003934Y014966D02*
X003481Y014966D01*
X003473Y014970D02*
X003473Y015107D01*
X003493Y015109D01*
X003513Y015114D01*
X003532Y015123D01*
X003549Y015135D01*
X003563Y015149D01*
X003575Y015166D01*
X003584Y015185D01*
X003589Y015205D01*
X003591Y015225D01*
X003589Y015245D01*
X003584Y015265D01*
X003575Y015284D01*
X003563Y015301D01*
X003549Y015315D01*
X003532Y015327D01*
X003513Y015336D01*
X003493Y015341D01*
X003473Y015343D01*
X003473Y015344D02*
X003473Y015501D01*
X003481Y015509D02*
X003934Y015509D01*
X004461Y015862D02*
X004497Y015871D01*
X004535Y015877D01*
X004573Y015879D01*
X004611Y015877D01*
X004648Y015871D01*
X004685Y015862D01*
X006157Y015760D02*
X006054Y014677D01*
X006136Y014677D01*
X006238Y015617D01*
X006443Y015617D01*
X006545Y014677D01*
X006627Y014677D01*
X006545Y015760D01*
X006541Y015779D01*
X006535Y015798D01*
X006525Y015815D01*
X006513Y015831D01*
X006498Y015844D01*
X006481Y015855D01*
X006463Y015862D01*
X006238Y015862D02*
X006220Y015855D01*
X006203Y015844D01*
X006188Y015831D01*
X006176Y015815D01*
X006166Y015798D01*
X006160Y015779D01*
X006156Y015760D01*
X006239Y015862D02*
X006275Y015871D01*
X006313Y015877D01*
X006351Y015879D01*
X006389Y015877D01*
X006426Y015871D01*
X006463Y015862D01*
X007001Y015517D02*
X007454Y015517D01*
X007462Y015513D02*
X007462Y015375D01*
X007442Y015373D01*
X007422Y015368D01*
X007403Y015359D01*
X007386Y015347D01*
X007372Y015333D01*
X007360Y015316D01*
X007351Y015297D01*
X007346Y015277D01*
X007344Y015257D01*
X007346Y015237D01*
X007351Y015217D01*
X007360Y015198D01*
X007372Y015181D01*
X007386Y015167D01*
X007403Y015155D01*
X007422Y015146D01*
X007442Y015141D01*
X007462Y015139D01*
X007462Y014981D01*
X007454Y014974D02*
X007001Y014974D01*
X006643Y013379D02*
X006643Y013084D01*
X006347Y013084D01*
X006347Y013379D01*
X006643Y013379D01*
X007001Y013335D02*
X007454Y013335D01*
X007462Y013332D02*
X007462Y013194D01*
X007442Y013192D01*
X007422Y013187D01*
X007403Y013178D01*
X007386Y013166D01*
X007372Y013152D01*
X007360Y013135D01*
X007351Y013116D01*
X007346Y013096D01*
X007344Y013076D01*
X007346Y013056D01*
X007351Y013036D01*
X007360Y013017D01*
X007372Y013000D01*
X007386Y012986D01*
X007403Y012974D01*
X007422Y012965D01*
X007442Y012960D01*
X007462Y012958D01*
X007462Y012800D01*
X007454Y012793D02*
X007001Y012793D01*
X014615Y015061D02*
X014692Y015138D01*
X014692Y015214D01*
X014615Y015291D01*
X014231Y015291D01*
X014231Y015214D02*
X014231Y015368D01*
X014385Y015521D02*
X014231Y015675D01*
X014692Y015675D01*
X014692Y015828D02*
X014692Y015521D01*
X025394Y015363D02*
X025547Y015209D01*
X025394Y015363D02*
X025854Y015363D01*
X025854Y015516D02*
X025854Y015209D01*
X025854Y015056D02*
X025854Y014749D01*
X025394Y014749D01*
X028316Y013640D02*
X028623Y013640D01*
X028623Y013410D01*
X028546Y013333D01*
X028316Y013333D01*
X028239Y013180D02*
X028546Y012873D01*
X028623Y012950D01*
X028623Y013103D01*
X028546Y013180D01*
X028239Y013180D01*
X028162Y013103D01*
X028162Y012950D01*
X028239Y012873D01*
X028546Y012873D01*
X028546Y012719D02*
X028239Y012719D01*
X028546Y012412D01*
X028623Y012489D01*
X028623Y012643D01*
X028546Y012719D01*
X028239Y012719D02*
X028162Y012643D01*
X028162Y012489D01*
X028239Y012412D01*
X028546Y012412D01*
X028623Y012259D02*
X028623Y011952D01*
X028623Y012106D02*
X028162Y012106D01*
X028316Y011952D01*
X029311Y009442D02*
X029541Y009442D01*
X029618Y009365D01*
X029618Y009058D01*
X029541Y008982D01*
X029311Y008982D01*
X029311Y009442D01*
X029771Y009289D02*
X029925Y009442D01*
X029925Y008982D01*
X030078Y008982D02*
X029771Y008982D01*
X031482Y008942D02*
X031712Y008942D01*
X031789Y008865D01*
X031789Y008712D01*
X031712Y008635D01*
X031482Y008635D01*
X031635Y008635D02*
X031789Y008482D01*
X031942Y008558D02*
X032019Y008482D01*
X032172Y008482D01*
X032249Y008558D01*
X032249Y008635D01*
X032172Y008712D01*
X032095Y008712D01*
X032172Y008712D02*
X032249Y008789D01*
X032249Y008865D01*
X032172Y008942D01*
X032019Y008942D01*
X031942Y008865D01*
X031482Y008942D02*
X031482Y008482D01*
X043321Y014452D02*
X043612Y014452D01*
X043612Y014971D02*
X043312Y014971D01*
X043212Y015232D02*
X043289Y015308D01*
X043212Y015232D02*
X043058Y015232D01*
X042982Y015308D01*
X042982Y015615D01*
X043058Y015692D01*
X043212Y015692D01*
X043289Y015615D01*
X043442Y015539D02*
X043595Y015692D01*
X043595Y015232D01*
X043442Y015232D02*
X043749Y015232D01*
X043902Y015308D02*
X043979Y015232D01*
X044133Y015232D01*
X044209Y015308D01*
X044209Y015385D01*
X044133Y015462D01*
X044056Y015462D01*
X044133Y015462D02*
X044209Y015539D01*
X044209Y015615D01*
X044133Y015692D01*
X043979Y015692D01*
X043902Y015615D01*
D14*
X023961Y010000D03*
X023961Y009420D03*
X030962Y009504D03*
X030962Y008924D03*
X030711Y005000D03*
X030711Y004420D03*
X015711Y007170D03*
X015711Y007750D03*
X012462Y007004D03*
X011462Y007004D03*
X011462Y006424D03*
X012462Y006424D03*
D15*
X013461Y006429D03*
X013461Y006999D03*
X016712Y007674D03*
X016712Y008244D03*
X009711Y008249D03*
X009711Y007679D03*
X004463Y007925D03*
X004463Y008495D03*
X004461Y009679D03*
X004461Y010249D03*
D16*
X018674Y008658D03*
X019244Y008658D03*
X020429Y008462D03*
X020999Y008462D03*
X016744Y003461D03*
X016174Y003461D03*
X016174Y002211D03*
X016744Y002211D03*
X024179Y002212D03*
X024749Y002212D03*
X043179Y014712D03*
X043749Y014712D03*
D17*
X038632Y015012D02*
X038632Y007912D01*
X025682Y010672D02*
X025684Y010695D01*
X025690Y010717D01*
X025699Y010739D01*
X025712Y010758D01*
X025727Y010775D01*
X025745Y010789D01*
X025766Y010800D01*
X025788Y010808D01*
X025810Y010812D01*
X025834Y010812D01*
X025856Y010808D01*
X025878Y010800D01*
X025899Y010789D01*
X025917Y010775D01*
X025932Y010758D01*
X025945Y010739D01*
X025954Y010717D01*
X025960Y010695D01*
X025962Y010672D01*
X025960Y010649D01*
X025954Y010627D01*
X025945Y010605D01*
X025932Y010586D01*
X025917Y010569D01*
X025899Y010555D01*
X025878Y010544D01*
X025856Y010536D01*
X025834Y010532D01*
X025810Y010532D01*
X025788Y010536D01*
X025766Y010544D01*
X025745Y010555D01*
X025727Y010569D01*
X025712Y010586D01*
X025699Y010605D01*
X025690Y010627D01*
X025684Y010649D01*
X025682Y010672D01*
X021812Y003012D02*
X019112Y003012D01*
X019112Y002712D02*
X021812Y002712D01*
X022473Y002662D02*
X022503Y002614D01*
X022530Y002565D01*
X022553Y002514D01*
X022572Y002461D01*
X022588Y002407D01*
X022600Y002352D01*
X022608Y002296D01*
X022612Y002240D01*
X022612Y002184D01*
X022608Y002128D01*
X022600Y002072D01*
X022588Y002017D01*
X022572Y001963D01*
X022553Y001910D01*
X022530Y001859D01*
X022503Y001810D01*
X022473Y001762D01*
X021812Y001712D02*
X019112Y001712D01*
X019112Y001412D02*
X021812Y001412D01*
X021812Y001712D02*
X021850Y001713D01*
X021887Y001718D01*
X021924Y001725D01*
X021960Y001734D01*
X021996Y001747D01*
X022030Y001762D01*
X022030Y002662D02*
X021996Y002677D01*
X021960Y002690D01*
X021924Y002699D01*
X021887Y002706D01*
X021850Y002711D01*
X021812Y002712D01*
X022030Y002662D02*
X022068Y002642D01*
X022104Y002618D01*
X022138Y002591D01*
X022169Y002562D01*
X022198Y002530D01*
X022224Y002496D01*
X022247Y002459D01*
X022266Y002421D01*
X022283Y002381D01*
X022295Y002340D01*
X022305Y002298D01*
X022310Y002255D01*
X022312Y002212D01*
X022310Y002169D01*
X022305Y002126D01*
X022295Y002084D01*
X022283Y002043D01*
X022266Y002003D01*
X022247Y001965D01*
X022224Y001928D01*
X022198Y001894D01*
X022169Y001862D01*
X022138Y001833D01*
X022104Y001806D01*
X022068Y001782D01*
X022030Y001762D01*
X022473Y002662D02*
X022441Y002707D01*
X022405Y002749D01*
X022366Y002789D01*
X022324Y002826D01*
X022281Y002860D01*
X022234Y002891D01*
X022186Y002919D01*
X022136Y002943D01*
X022085Y002964D01*
X022032Y002981D01*
X021978Y002995D01*
X021923Y003004D01*
X021868Y003010D01*
X021812Y003012D01*
X022473Y001762D02*
X022441Y001717D01*
X022405Y001675D01*
X022366Y001635D01*
X022325Y001598D01*
X022281Y001564D01*
X022234Y001533D01*
X022186Y001505D01*
X022136Y001481D01*
X022085Y001460D01*
X022032Y001443D01*
X021978Y001429D01*
X021923Y001420D01*
X021868Y001414D01*
X021812Y001412D01*
X020862Y002212D02*
X020712Y002212D01*
X020212Y002212D02*
X020062Y002212D01*
X019112Y003012D02*
X019056Y003010D01*
X019001Y003004D01*
X018946Y002995D01*
X018892Y002981D01*
X018839Y002964D01*
X018788Y002943D01*
X018738Y002919D01*
X018690Y002891D01*
X018643Y002860D01*
X018599Y002826D01*
X018558Y002789D01*
X018519Y002749D01*
X018483Y002707D01*
X018451Y002662D01*
X018421Y002614D01*
X018394Y002565D01*
X018371Y002514D01*
X018352Y002461D01*
X018336Y002407D01*
X018324Y002352D01*
X018316Y002296D01*
X018312Y002240D01*
X018312Y002184D01*
X018316Y002128D01*
X018324Y002072D01*
X018336Y002017D01*
X018352Y001963D01*
X018371Y001910D01*
X018394Y001859D01*
X018421Y001810D01*
X018451Y001762D01*
X018894Y001762D02*
X018856Y001782D01*
X018820Y001806D01*
X018786Y001833D01*
X018755Y001862D01*
X018726Y001894D01*
X018700Y001928D01*
X018677Y001965D01*
X018658Y002003D01*
X018641Y002043D01*
X018629Y002084D01*
X018619Y002126D01*
X018614Y002169D01*
X018612Y002212D01*
X018614Y002255D01*
X018619Y002298D01*
X018629Y002340D01*
X018641Y002381D01*
X018658Y002421D01*
X018677Y002459D01*
X018700Y002496D01*
X018726Y002530D01*
X018755Y002562D01*
X018786Y002591D01*
X018820Y002618D01*
X018856Y002642D01*
X018894Y002662D01*
X018894Y001762D02*
X018928Y001747D01*
X018964Y001734D01*
X019000Y001725D01*
X019037Y001718D01*
X019074Y001713D01*
X019112Y001712D01*
X018894Y002662D02*
X018928Y002677D01*
X018964Y002690D01*
X019000Y002699D01*
X019037Y002706D01*
X019074Y002711D01*
X019112Y002712D01*
X018451Y001762D02*
X018483Y001717D01*
X018519Y001675D01*
X018558Y001635D01*
X018600Y001598D01*
X018643Y001564D01*
X018690Y001533D01*
X018738Y001505D01*
X018788Y001481D01*
X018839Y001460D01*
X018892Y001443D01*
X018946Y001429D01*
X019001Y001420D01*
X019056Y001414D01*
X019112Y001412D01*
D18*
X021816Y001012D02*
X021816Y000712D01*
X021891Y000637D01*
X022041Y000637D01*
X022116Y000712D01*
X022116Y001012D01*
X022041Y001087D01*
X021891Y001087D01*
X021816Y001012D01*
X022276Y000937D02*
X022426Y001087D01*
X022426Y000637D01*
X022276Y000637D02*
X022576Y000637D01*
X022116Y000637D02*
X021966Y000787D01*
X028106Y003562D02*
X028181Y003487D01*
X028256Y003487D01*
X028331Y003562D01*
X028331Y003937D01*
X028256Y003937D02*
X028406Y003937D01*
X028566Y003937D02*
X028791Y003937D01*
X028866Y003862D01*
X028866Y003712D01*
X028791Y003637D01*
X028566Y003637D01*
X028566Y003487D02*
X028566Y003937D01*
X029026Y003787D02*
X029176Y003937D01*
X029176Y003487D01*
X029026Y003487D02*
X029326Y003487D01*
X044136Y003737D02*
X044286Y003587D01*
X044136Y003737D02*
X044587Y003737D01*
X044587Y003587D02*
X044587Y003887D01*
X044512Y005237D02*
X044587Y005312D01*
X044587Y005462D01*
X044512Y005537D01*
X044437Y005537D01*
X044361Y005462D01*
X044361Y005312D01*
X044286Y005237D01*
X044211Y005237D01*
X044136Y005312D01*
X044136Y005462D01*
X044211Y005537D01*
X044136Y005697D02*
X044437Y005697D01*
X044587Y005847D01*
X044437Y005997D01*
X044136Y005997D01*
X044286Y006157D02*
X044136Y006307D01*
X044587Y006307D01*
X044587Y006157D02*
X044587Y006458D01*
X050316Y007487D02*
X050616Y007487D01*
X050466Y007487D02*
X050466Y007937D01*
X050316Y007787D01*
X050776Y007862D02*
X050776Y007562D01*
X051076Y007862D01*
X051076Y007562D01*
X051001Y007487D01*
X050851Y007487D01*
X050776Y007562D01*
X050776Y007862D02*
X050851Y007937D01*
X051001Y007937D01*
X051076Y007862D01*
X051076Y008487D02*
X050776Y008487D01*
X051076Y008787D01*
X051076Y008862D01*
X051001Y008937D01*
X050851Y008937D01*
X050776Y008862D01*
X050466Y008937D02*
X050466Y008487D01*
X050316Y008487D02*
X050616Y008487D01*
X050316Y008787D02*
X050466Y008937D01*
X050466Y009487D02*
X050466Y009937D01*
X050316Y009787D01*
X050776Y009712D02*
X051001Y009937D01*
X051001Y009487D01*
X050616Y009487D02*
X050316Y009487D01*
X050776Y009712D02*
X051076Y009712D01*
X051001Y010487D02*
X051076Y010562D01*
X051076Y010637D01*
X051001Y010712D01*
X050776Y010712D01*
X050776Y010562D01*
X050851Y010487D01*
X051001Y010487D01*
X050616Y010487D02*
X050316Y010487D01*
X050466Y010487D02*
X050466Y010937D01*
X050316Y010787D01*
X050776Y010712D02*
X050926Y010862D01*
X051076Y010937D01*
X051001Y011487D02*
X050851Y011487D01*
X050776Y011562D01*
X050776Y011637D01*
X050851Y011712D01*
X051001Y011712D01*
X051076Y011637D01*
X051076Y011562D01*
X051001Y011487D01*
X050616Y011487D02*
X050316Y011487D01*
X050466Y011487D02*
X050466Y011937D01*
X050316Y011787D01*
X050776Y011787D02*
X050776Y011862D01*
X050851Y011937D01*
X051001Y011937D01*
X051076Y011862D01*
X051076Y011787D01*
X051001Y011712D01*
X050851Y011712D02*
X050776Y011787D01*
X050666Y012487D02*
X050366Y012487D01*
X050666Y012787D01*
X050666Y012862D01*
X050591Y012937D01*
X050441Y012937D01*
X050366Y012862D01*
X050826Y012862D02*
X050901Y012937D01*
X051051Y012937D01*
X051126Y012862D01*
X050826Y012562D01*
X050901Y012487D01*
X051051Y012487D01*
X051126Y012562D01*
X051126Y012862D01*
X050826Y012862D02*
X050826Y012562D01*
X047787Y012687D02*
X047787Y012387D01*
X047486Y012687D01*
X047411Y012687D01*
X047336Y012612D01*
X047336Y012462D01*
X047411Y012387D01*
X047411Y012847D02*
X047336Y012922D01*
X047336Y013072D01*
X047411Y013147D01*
X047712Y012847D01*
X047787Y012922D01*
X047787Y013072D01*
X047712Y013147D01*
X047411Y013147D01*
X047411Y012847D02*
X047712Y012847D01*
X039497Y015187D02*
X039197Y015187D01*
X039347Y015187D02*
X039347Y015637D01*
X039197Y015487D01*
X039037Y015637D02*
X039037Y015262D01*
X038962Y015187D01*
X038812Y015187D01*
X038737Y015262D01*
X038737Y015637D01*
X034308Y014837D02*
X034007Y014837D01*
X034157Y014837D02*
X034157Y015287D01*
X034007Y015137D01*
X033697Y015287D02*
X033547Y015137D01*
X033387Y015212D02*
X033312Y015287D01*
X033162Y015287D01*
X033087Y015212D01*
X033087Y014912D01*
X033162Y014837D01*
X033312Y014837D01*
X033387Y014912D01*
X033547Y014837D02*
X033847Y014837D01*
X033697Y014837D02*
X033697Y015287D01*
X033836Y012573D02*
X033893Y012459D01*
X034007Y012346D01*
X034007Y012516D01*
X034063Y012573D01*
X034120Y012573D01*
X034177Y012516D01*
X034177Y012402D01*
X034120Y012346D01*
X034007Y012346D01*
X034007Y012214D02*
X034063Y012157D01*
X034063Y011987D01*
X034063Y012100D02*
X034177Y012214D01*
X034007Y012214D02*
X033893Y012214D01*
X033836Y012157D01*
X033836Y011987D01*
X034177Y011987D01*
X033983Y011187D02*
X033757Y010962D01*
X034058Y010962D01*
X033983Y010737D02*
X033983Y011187D01*
X033597Y011112D02*
X033522Y011187D01*
X033297Y011187D01*
X033297Y010737D01*
X033297Y010887D02*
X033522Y010887D01*
X033597Y010962D01*
X033597Y011112D01*
X033137Y011187D02*
X032837Y011187D01*
X032987Y011187D02*
X032987Y010737D01*
X035706Y010762D02*
X035781Y010687D01*
X035931Y010687D01*
X036006Y010762D01*
X036166Y010687D02*
X036466Y010687D01*
X036316Y010687D02*
X036316Y011137D01*
X036166Y010987D01*
X036006Y011062D02*
X035931Y011137D01*
X035781Y011137D01*
X035706Y011062D01*
X035706Y010762D01*
X036626Y010687D02*
X036926Y010987D01*
X036926Y011062D01*
X036851Y011137D01*
X036701Y011137D01*
X036626Y011062D01*
X036626Y010687D02*
X036926Y010687D01*
X036808Y009687D02*
X036507Y009687D01*
X036507Y009462D01*
X036657Y009537D01*
X036733Y009537D01*
X036808Y009462D01*
X036808Y009312D01*
X036733Y009237D01*
X036582Y009237D01*
X036507Y009312D01*
X036347Y009462D02*
X036272Y009387D01*
X036047Y009387D01*
X036047Y009237D02*
X036047Y009687D01*
X036272Y009687D01*
X036347Y009612D01*
X036347Y009462D01*
X035737Y009237D02*
X035737Y009687D01*
X035587Y009687D02*
X035887Y009687D01*
X026197Y011062D02*
X025897Y011062D01*
X026197Y011362D01*
X026197Y011437D01*
X026122Y011512D01*
X025972Y011512D01*
X025897Y011437D01*
X025737Y011437D02*
X025737Y011137D01*
X025662Y011062D01*
X025512Y011062D01*
X025437Y011137D01*
X025437Y011437D01*
X025512Y011512D01*
X025662Y011512D01*
X025737Y011437D01*
X025587Y011212D02*
X025737Y011062D01*
X024258Y011412D02*
X024183Y011337D01*
X024032Y011337D01*
X023957Y011412D01*
X024258Y011712D01*
X024258Y011412D01*
X023957Y011412D02*
X023957Y011712D01*
X024032Y011787D01*
X024183Y011787D01*
X024258Y011712D01*
X023647Y011787D02*
X023647Y011337D01*
X023497Y011337D02*
X023797Y011337D01*
X023497Y011637D02*
X023647Y011787D01*
X023337Y011712D02*
X023262Y011787D01*
X023112Y011787D01*
X023037Y011712D01*
X023037Y011412D01*
X023112Y011337D01*
X023262Y011337D01*
X023337Y011412D01*
X017376Y012837D02*
X017076Y012837D01*
X017376Y013137D01*
X017376Y013212D01*
X017301Y013287D01*
X017151Y013287D01*
X017076Y013212D01*
X016916Y013212D02*
X016841Y013287D01*
X016616Y013287D01*
X016616Y012837D01*
X016841Y012837D01*
X016916Y012912D01*
X016916Y013212D01*
X015476Y012862D02*
X015476Y012787D01*
X015401Y012712D01*
X015476Y012637D01*
X015476Y012562D01*
X015401Y012487D01*
X015251Y012487D01*
X015176Y012562D01*
X015326Y012712D02*
X015401Y012712D01*
X015476Y012862D02*
X015401Y012937D01*
X015251Y012937D01*
X015176Y012862D01*
X015016Y012862D02*
X015016Y012712D01*
X014941Y012637D01*
X014716Y012637D01*
X014716Y012487D02*
X014716Y012937D01*
X014941Y012937D01*
X015016Y012862D01*
X014556Y012937D02*
X014256Y012937D01*
X014406Y012937D02*
X014406Y012487D01*
X009534Y013087D02*
X009234Y013087D01*
X009534Y013387D01*
X009534Y013462D01*
X009459Y013537D01*
X009309Y013537D01*
X009234Y013462D01*
X008384Y013537D02*
X008384Y013087D01*
X008234Y013087D02*
X008534Y013087D01*
X008566Y012934D02*
X008791Y012934D01*
X008866Y012859D01*
X008866Y012709D01*
X008791Y012634D01*
X008566Y012634D01*
X008566Y012484D02*
X008566Y012934D01*
X008406Y012934D02*
X008256Y012934D01*
X008331Y012934D02*
X008331Y012559D01*
X008256Y012484D01*
X008181Y012484D01*
X008106Y012559D01*
X009026Y012484D02*
X009326Y012784D01*
X009326Y012859D01*
X009251Y012934D01*
X009101Y012934D01*
X009026Y012859D01*
X009026Y012484D02*
X009326Y012484D01*
X006997Y012651D02*
X006997Y012788D01*
X006997Y012651D02*
X003926Y012651D01*
X003926Y012769D01*
X004202Y012651D02*
X004635Y012651D01*
X006288Y012651D02*
X006721Y012651D01*
X006997Y013355D02*
X006997Y014970D01*
X006997Y014698D02*
X006997Y013635D01*
X008234Y013387D02*
X008384Y013537D01*
X003926Y013635D02*
X003926Y014698D01*
X003926Y014950D02*
X003926Y013336D01*
X003926Y015525D02*
X003926Y016273D01*
X006997Y016273D01*
X006997Y015525D01*
X014940Y015212D02*
X015334Y015212D01*
X015137Y015015D02*
X015137Y015409D01*
X015727Y015212D02*
X016515Y015212D01*
X016520Y015255D01*
X016534Y015297D01*
X016558Y015334D01*
X016589Y015366D01*
X016626Y015389D01*
X016668Y015404D01*
X016712Y015409D01*
X016755Y015404D01*
X016797Y015389D01*
X016834Y015366D01*
X016866Y015334D01*
X016889Y015297D01*
X016904Y015255D01*
X016909Y015212D01*
X016904Y015168D01*
X016889Y015126D01*
X016866Y015089D01*
X016834Y015058D01*
X016797Y015034D01*
X016755Y015020D01*
X016712Y015015D01*
X016668Y015020D01*
X016626Y015034D01*
X016589Y015058D01*
X016558Y015089D01*
X016534Y015126D01*
X016520Y015168D01*
X016515Y015212D01*
X016908Y015212D01*
X016902Y015260D02*
X016521Y015260D01*
X016542Y015309D02*
X016882Y015309D01*
X016843Y015357D02*
X016581Y015357D01*
X016687Y015406D02*
X016737Y015406D01*
X016318Y015606D02*
X016352Y015637D01*
X016388Y015665D01*
X016427Y015690D01*
X016467Y015712D01*
X016510Y015731D01*
X016553Y015746D01*
X016598Y015757D01*
X016643Y015765D01*
X016689Y015769D01*
X016735Y015769D01*
X016781Y015765D01*
X016826Y015757D01*
X016871Y015746D01*
X016914Y015731D01*
X016957Y015712D01*
X016997Y015690D01*
X017036Y015665D01*
X017072Y015637D01*
X017106Y015606D01*
X017137Y015572D01*
X017165Y015536D01*
X017190Y015497D01*
X017212Y015457D01*
X017231Y015414D01*
X017246Y015371D01*
X017257Y015326D01*
X017265Y015281D01*
X017269Y015235D01*
X017269Y015189D01*
X017265Y015143D01*
X017257Y015098D01*
X017246Y015053D01*
X017231Y015010D01*
X017212Y014967D01*
X017190Y014927D01*
X017165Y014888D01*
X017137Y014852D01*
X017106Y014818D01*
X017072Y014787D01*
X017036Y014759D01*
X016997Y014734D01*
X016957Y014712D01*
X016914Y014693D01*
X016871Y014678D01*
X016826Y014667D01*
X016781Y014659D01*
X016735Y014655D01*
X016689Y014655D01*
X016643Y014659D01*
X016598Y014667D01*
X016553Y014678D01*
X016510Y014693D01*
X016467Y014712D01*
X016427Y014734D01*
X016388Y014759D01*
X016352Y014787D01*
X016318Y014818D01*
X016581Y015066D02*
X016843Y015066D01*
X016882Y015114D02*
X016542Y015114D01*
X016521Y015163D02*
X016902Y015163D01*
X016734Y015017D02*
X016689Y015017D01*
X017302Y015212D02*
X017696Y015212D01*
X018090Y015212D02*
X018483Y015212D01*
X020506Y014687D02*
X020806Y014687D01*
X020656Y014687D02*
X020656Y014237D01*
X020966Y014237D02*
X020966Y014687D01*
X021191Y014687D01*
X021266Y014612D01*
X021266Y014462D01*
X021191Y014387D01*
X020966Y014387D01*
X021426Y014537D02*
X021576Y014687D01*
X021576Y014237D01*
X021426Y014237D02*
X021726Y014237D01*
X021906Y014237D02*
X021906Y014687D01*
X021756Y014687D02*
X022056Y014687D01*
X022216Y014687D02*
X022441Y014687D01*
X022516Y014612D01*
X022516Y014462D01*
X022441Y014387D01*
X022216Y014387D01*
X022216Y014237D02*
X022216Y014687D01*
X022676Y014612D02*
X022751Y014687D01*
X022901Y014687D01*
X022976Y014612D01*
X022976Y014537D01*
X022676Y014237D01*
X022976Y014237D01*
X050626Y006862D02*
X050701Y006937D01*
X050851Y006937D01*
X050927Y006862D01*
X050927Y006787D01*
X050851Y006712D01*
X050701Y006712D01*
X050626Y006787D01*
X050626Y006862D01*
X050701Y006712D02*
X050626Y006637D01*
X050626Y006562D01*
X050701Y006487D01*
X050851Y006487D01*
X050927Y006562D01*
X050927Y006637D01*
X050851Y006712D01*
X050927Y005937D02*
X050776Y005862D01*
X050626Y005712D01*
X050851Y005712D01*
X050927Y005637D01*
X050927Y005562D01*
X050851Y005487D01*
X050701Y005487D01*
X050626Y005562D01*
X050626Y005712D01*
X050851Y004937D02*
X050626Y004712D01*
X050927Y004712D01*
X050851Y004487D02*
X050851Y004937D01*
X053486Y004383D02*
X053561Y004458D01*
X053636Y004458D01*
X053711Y004383D01*
X053787Y004458D01*
X053862Y004458D01*
X053937Y004383D01*
X053937Y004232D01*
X053862Y004157D01*
X053787Y003997D02*
X053486Y003997D01*
X053561Y004157D02*
X053486Y004232D01*
X053486Y004383D01*
X053711Y004383D02*
X053711Y004307D01*
X053787Y003997D02*
X053937Y003847D01*
X053787Y003697D01*
X053486Y003697D01*
X053561Y003537D02*
X053486Y003462D01*
X053486Y003312D01*
X053561Y003237D01*
X053636Y003237D01*
X053711Y003312D01*
X053711Y003462D01*
X053787Y003537D01*
X053862Y003537D01*
X053937Y003462D01*
X053937Y003312D01*
X053862Y003237D01*
X050927Y003487D02*
X050626Y003487D01*
X050927Y003787D01*
X050927Y003862D01*
X050851Y003937D01*
X050701Y003937D01*
X050626Y003862D01*
X056562Y005762D02*
X056562Y006162D01*
X058462Y006162D01*
X058462Y005762D01*
X059162Y007762D02*
X059362Y007962D01*
X059162Y008162D01*
X059362Y007962D02*
X057962Y007962D01*
X054762Y007962D02*
X054765Y008094D01*
X054775Y008227D01*
X054791Y008358D01*
X054814Y008489D01*
X054843Y008618D01*
X054878Y008746D01*
X054920Y008872D01*
X054968Y008995D01*
X055021Y009116D01*
X055081Y009235D01*
X055146Y009350D01*
X055217Y009462D01*
X055293Y009570D01*
X055375Y009675D01*
X055461Y009775D01*
X055553Y009871D01*
X055649Y009963D01*
X055749Y010049D01*
X055854Y010131D01*
X055962Y010207D01*
X056074Y010278D01*
X056189Y010343D01*
X056308Y010403D01*
X056429Y010456D01*
X056552Y010504D01*
X056678Y010546D01*
X056806Y010581D01*
X056935Y010610D01*
X057066Y010633D01*
X057197Y010649D01*
X057330Y010659D01*
X057462Y010662D01*
X057594Y010659D01*
X057727Y010649D01*
X057858Y010633D01*
X057989Y010610D01*
X058118Y010581D01*
X058246Y010546D01*
X058372Y010504D01*
X058495Y010456D01*
X058616Y010403D01*
X058735Y010343D01*
X058850Y010278D01*
X058962Y010207D01*
X059070Y010131D01*
X059175Y010049D01*
X059275Y009963D01*
X059371Y009871D01*
X059463Y009775D01*
X059549Y009675D01*
X059631Y009570D01*
X059707Y009462D01*
X059778Y009350D01*
X059843Y009235D01*
X059903Y009116D01*
X059956Y008995D01*
X060004Y008872D01*
X060046Y008746D01*
X060081Y008618D01*
X060110Y008489D01*
X060133Y008358D01*
X060149Y008227D01*
X060159Y008094D01*
X060162Y007962D01*
X060159Y007830D01*
X060149Y007697D01*
X060133Y007566D01*
X060110Y007435D01*
X060081Y007306D01*
X060046Y007178D01*
X060004Y007052D01*
X059956Y006929D01*
X059903Y006808D01*
X059843Y006689D01*
X059778Y006574D01*
X059707Y006462D01*
X059631Y006354D01*
X059549Y006249D01*
X059463Y006149D01*
X059371Y006053D01*
X059275Y005961D01*
X059175Y005875D01*
X059070Y005793D01*
X058962Y005717D01*
X058850Y005646D01*
X058735Y005581D01*
X058616Y005521D01*
X058495Y005468D01*
X058372Y005420D01*
X058246Y005378D01*
X058118Y005343D01*
X057989Y005314D01*
X057858Y005291D01*
X057727Y005275D01*
X057594Y005265D01*
X057462Y005262D01*
X057330Y005265D01*
X057197Y005275D01*
X057066Y005291D01*
X056935Y005314D01*
X056806Y005343D01*
X056678Y005378D01*
X056552Y005420D01*
X056429Y005468D01*
X056308Y005521D01*
X056189Y005581D01*
X056074Y005646D01*
X055962Y005717D01*
X055854Y005793D01*
X055749Y005875D01*
X055649Y005961D01*
X055553Y006053D01*
X055461Y006149D01*
X055375Y006249D01*
X055293Y006354D01*
X055217Y006462D01*
X055146Y006574D01*
X055081Y006689D01*
X055021Y006808D01*
X054968Y006929D01*
X054920Y007052D01*
X054878Y007178D01*
X054843Y007306D01*
X054814Y007435D01*
X054791Y007566D01*
X054775Y007697D01*
X054765Y007830D01*
X054762Y007962D01*
X055061Y007962D02*
X055064Y008080D01*
X055073Y008197D01*
X055087Y008314D01*
X055107Y008430D01*
X055133Y008545D01*
X055164Y008659D01*
X055201Y008771D01*
X055244Y008881D01*
X055292Y008989D01*
X055345Y009094D01*
X055403Y009196D01*
X055466Y009296D01*
X055533Y009392D01*
X055606Y009485D01*
X055683Y009574D01*
X055764Y009660D01*
X055850Y009741D01*
X055939Y009818D01*
X056032Y009891D01*
X056128Y009958D01*
X056228Y010021D01*
X056330Y010079D01*
X056435Y010132D01*
X056543Y010180D01*
X056653Y010223D01*
X056765Y010260D01*
X056879Y010291D01*
X056994Y010317D01*
X057110Y010337D01*
X057227Y010351D01*
X057344Y010360D01*
X057462Y010363D01*
X057580Y010360D01*
X057697Y010351D01*
X057814Y010337D01*
X057930Y010317D01*
X058045Y010291D01*
X058159Y010260D01*
X058271Y010223D01*
X058381Y010180D01*
X058489Y010132D01*
X058594Y010079D01*
X058696Y010021D01*
X058796Y009958D01*
X058892Y009891D01*
X058985Y009818D01*
X059074Y009741D01*
X059160Y009660D01*
X059241Y009574D01*
X059318Y009485D01*
X059391Y009392D01*
X059458Y009296D01*
X059521Y009196D01*
X059579Y009094D01*
X059632Y008989D01*
X059680Y008881D01*
X059723Y008771D01*
X059760Y008659D01*
X059791Y008545D01*
X059817Y008430D01*
X059837Y008314D01*
X059851Y008197D01*
X059860Y008080D01*
X059863Y007962D01*
X059860Y007844D01*
X059851Y007727D01*
X059837Y007610D01*
X059817Y007494D01*
X059791Y007379D01*
X059760Y007265D01*
X059723Y007153D01*
X059680Y007043D01*
X059632Y006935D01*
X059579Y006830D01*
X059521Y006728D01*
X059458Y006628D01*
X059391Y006532D01*
X059318Y006439D01*
X059241Y006350D01*
X059160Y006264D01*
X059074Y006183D01*
X058985Y006106D01*
X058892Y006033D01*
X058796Y005966D01*
X058696Y005903D01*
X058594Y005845D01*
X058489Y005792D01*
X058381Y005744D01*
X058271Y005701D01*
X058159Y005664D01*
X058045Y005633D01*
X057930Y005607D01*
X057814Y005587D01*
X057697Y005573D01*
X057580Y005564D01*
X057462Y005561D01*
X057344Y005564D01*
X057227Y005573D01*
X057110Y005587D01*
X056994Y005607D01*
X056879Y005633D01*
X056765Y005664D01*
X056653Y005701D01*
X056543Y005744D01*
X056435Y005792D01*
X056330Y005845D01*
X056228Y005903D01*
X056128Y005966D01*
X056032Y006033D01*
X055939Y006106D01*
X055850Y006183D01*
X055764Y006264D01*
X055683Y006350D01*
X055606Y006439D01*
X055533Y006532D01*
X055466Y006628D01*
X055403Y006728D01*
X055345Y006830D01*
X055292Y006935D01*
X055244Y007043D01*
X055201Y007153D01*
X055164Y007265D01*
X055133Y007379D01*
X055107Y007494D01*
X055087Y007610D01*
X055073Y007727D01*
X055064Y007844D01*
X055061Y007962D01*
D19*
X058077Y008525D02*
X058125Y008477D01*
X058270Y008477D01*
X058270Y008670D01*
X058077Y008670D02*
X058077Y008525D01*
X058677Y008477D02*
X058822Y008477D01*
X058870Y008525D01*
X058870Y008622D01*
X058822Y008670D01*
X058677Y008670D01*
X058677Y008380D01*
X058442Y006570D02*
X058442Y006328D01*
X058393Y006280D01*
X058345Y006280D01*
X058296Y006377D02*
X058442Y006377D01*
X058296Y006377D02*
X058248Y006425D01*
X058248Y006570D01*
X058147Y006522D02*
X058147Y006377D01*
X058002Y006377D01*
X057953Y006425D01*
X058002Y006473D01*
X058147Y006473D01*
X058147Y006522D02*
X058099Y006570D01*
X058002Y006570D01*
X057805Y006667D02*
X057805Y006377D01*
X057757Y006377D02*
X057854Y006377D01*
X057656Y006425D02*
X057607Y006377D01*
X057462Y006377D01*
X057462Y006280D02*
X057462Y006570D01*
X057607Y006570D01*
X057656Y006522D01*
X057656Y006425D01*
X057757Y006667D02*
X057805Y006667D01*
X057361Y006570D02*
X057216Y006570D01*
X057168Y006522D01*
X057216Y006473D01*
X057313Y006473D01*
X057361Y006425D01*
X057313Y006377D01*
X057168Y006377D01*
X057068Y006377D02*
X056971Y006377D01*
X057020Y006377D02*
X057020Y006570D01*
X056971Y006570D01*
X056870Y006570D02*
X056725Y006570D01*
X056677Y006522D01*
X056677Y006425D01*
X056725Y006377D01*
X056870Y006377D01*
X056870Y006667D01*
X057020Y006667D02*
X057020Y006715D01*
X057277Y006070D02*
X057422Y006070D01*
X057470Y006022D01*
X057470Y005877D01*
X057571Y005925D02*
X057620Y005877D01*
X057765Y005877D01*
X057765Y006070D02*
X057620Y006070D01*
X057571Y006022D01*
X057571Y005925D01*
X057277Y005877D02*
X057277Y006070D01*
X023097Y011302D02*
X023097Y011425D01*
X023035Y011487D01*
X023035Y011608D02*
X023097Y011670D01*
X023097Y011794D01*
X023035Y011855D01*
X022788Y011855D01*
X022726Y011794D01*
X022726Y011670D01*
X022788Y011608D01*
X022850Y011608D01*
X022911Y011670D01*
X022911Y011855D01*
X022788Y011487D02*
X022726Y011425D01*
X022726Y011302D01*
X022788Y011240D01*
X023035Y011240D01*
X023097Y011302D01*
X013697Y010030D02*
X013697Y009907D01*
X013635Y009845D01*
X013573Y009845D01*
X013511Y009907D01*
X013511Y010030D01*
X013573Y010092D01*
X013635Y010092D01*
X013697Y010030D01*
X013511Y010030D02*
X013450Y010092D01*
X013388Y010092D01*
X013326Y010030D01*
X013326Y009907D01*
X013388Y009845D01*
X013450Y009845D01*
X013511Y009907D01*
X013388Y009724D02*
X013326Y009662D01*
X013326Y009538D01*
X013388Y009477D01*
X013635Y009477D01*
X013697Y009538D01*
X013697Y009662D01*
X013635Y009724D01*
X017447Y005321D02*
X017447Y005128D01*
X017447Y005224D02*
X017156Y005224D01*
X017253Y005128D01*
X017205Y005027D02*
X017156Y004978D01*
X017156Y004881D01*
X017205Y004833D01*
X017398Y004833D01*
X017447Y004881D01*
X017447Y004978D01*
X017398Y005027D01*
X017447Y004733D02*
X017447Y004637D01*
X017447Y004685D02*
X017156Y004685D01*
X017156Y004637D02*
X017156Y004733D01*
D20*
X001043Y001712D02*
X001045Y001763D01*
X001051Y001814D01*
X001061Y001864D01*
X001074Y001914D01*
X001092Y001962D01*
X001112Y002009D01*
X001137Y002054D01*
X001165Y002097D01*
X001196Y002138D01*
X001230Y002176D01*
X001267Y002211D01*
X001306Y002244D01*
X001348Y002274D01*
X001392Y002300D01*
X001438Y002322D01*
X001486Y002342D01*
X001535Y002357D01*
X001585Y002369D01*
X001635Y002377D01*
X001686Y002381D01*
X001738Y002381D01*
X001789Y002377D01*
X001839Y002369D01*
X001889Y002357D01*
X001938Y002342D01*
X001986Y002322D01*
X002032Y002300D01*
X002076Y002274D01*
X002118Y002244D01*
X002157Y002211D01*
X002194Y002176D01*
X002228Y002138D01*
X002259Y002097D01*
X002287Y002054D01*
X002312Y002009D01*
X002332Y001962D01*
X002350Y001914D01*
X002363Y001864D01*
X002373Y001814D01*
X002379Y001763D01*
X002381Y001712D01*
X002379Y001661D01*
X002373Y001610D01*
X002363Y001560D01*
X002350Y001510D01*
X002332Y001462D01*
X002312Y001415D01*
X002287Y001370D01*
X002259Y001327D01*
X002228Y001286D01*
X002194Y001248D01*
X002157Y001213D01*
X002118Y001180D01*
X002076Y001150D01*
X002032Y001124D01*
X001986Y001102D01*
X001938Y001082D01*
X001889Y001067D01*
X001839Y001055D01*
X001789Y001047D01*
X001738Y001043D01*
X001686Y001043D01*
X001635Y001047D01*
X001585Y001055D01*
X001535Y001067D01*
X001486Y001082D01*
X001438Y001102D01*
X001392Y001124D01*
X001348Y001150D01*
X001306Y001180D01*
X001267Y001213D01*
X001230Y001248D01*
X001196Y001286D01*
X001165Y001327D01*
X001137Y001370D01*
X001112Y001415D01*
X001092Y001462D01*
X001074Y001510D01*
X001061Y001560D01*
X001051Y001610D01*
X001045Y001661D01*
X001043Y001712D01*
X005938Y006454D02*
X007985Y006454D01*
X007985Y010470D01*
X005938Y010470D01*
X005938Y006454D01*
X016921Y010012D02*
X019502Y010012D01*
X019502Y011412D01*
X016921Y011412D01*
X016921Y010012D01*
X028365Y009700D02*
X028365Y010723D01*
X030058Y010723D01*
X030058Y009700D01*
X028365Y009700D01*
X028808Y009700D02*
X029619Y009700D01*
X029619Y010723D02*
X028808Y010723D01*
X025434Y013212D02*
X025436Y013312D01*
X025444Y013411D01*
X025456Y013510D01*
X025473Y013608D01*
X025495Y013705D01*
X025521Y013801D01*
X025553Y013895D01*
X025588Y013988D01*
X025629Y014079D01*
X025673Y014168D01*
X025723Y014255D01*
X025776Y014339D01*
X025833Y014420D01*
X025894Y014499D01*
X025959Y014574D01*
X026028Y014646D01*
X026100Y014715D01*
X026175Y014780D01*
X026254Y014841D01*
X026335Y014898D01*
X026419Y014951D01*
X026506Y015001D01*
X026595Y015045D01*
X026686Y015086D01*
X026779Y015121D01*
X026873Y015153D01*
X026969Y015179D01*
X027066Y015201D01*
X027164Y015218D01*
X027263Y015230D01*
X027362Y015238D01*
X027462Y015240D01*
X027562Y015238D01*
X027661Y015230D01*
X027760Y015218D01*
X027858Y015201D01*
X027955Y015179D01*
X028051Y015153D01*
X028145Y015121D01*
X028238Y015086D01*
X028329Y015045D01*
X028418Y015001D01*
X028505Y014951D01*
X028589Y014898D01*
X028670Y014841D01*
X028749Y014780D01*
X028824Y014715D01*
X028896Y014646D01*
X028965Y014574D01*
X029030Y014499D01*
X029091Y014420D01*
X029148Y014339D01*
X029201Y014255D01*
X029251Y014168D01*
X029295Y014079D01*
X029336Y013988D01*
X029371Y013895D01*
X029403Y013801D01*
X029429Y013705D01*
X029451Y013608D01*
X029468Y013510D01*
X029480Y013411D01*
X029488Y013312D01*
X029490Y013212D01*
X029488Y013112D01*
X029480Y013013D01*
X029468Y012914D01*
X029451Y012816D01*
X029429Y012719D01*
X029403Y012623D01*
X029371Y012529D01*
X029336Y012436D01*
X029295Y012345D01*
X029251Y012256D01*
X029201Y012169D01*
X029148Y012085D01*
X029091Y012004D01*
X029030Y011925D01*
X028965Y011850D01*
X028896Y011778D01*
X028824Y011709D01*
X028749Y011644D01*
X028670Y011583D01*
X028589Y011526D01*
X028505Y011473D01*
X028418Y011423D01*
X028329Y011379D01*
X028238Y011338D01*
X028145Y011303D01*
X028051Y011271D01*
X027955Y011245D01*
X027858Y011223D01*
X027760Y011206D01*
X027661Y011194D01*
X027562Y011186D01*
X027462Y011184D01*
X027362Y011186D01*
X027263Y011194D01*
X027164Y011206D01*
X027066Y011223D01*
X026969Y011245D01*
X026873Y011271D01*
X026779Y011303D01*
X026686Y011338D01*
X026595Y011379D01*
X026506Y011423D01*
X026419Y011473D01*
X026335Y011526D01*
X026254Y011583D01*
X026175Y011644D01*
X026100Y011709D01*
X026028Y011778D01*
X025959Y011850D01*
X025894Y011925D01*
X025833Y012004D01*
X025776Y012085D01*
X025723Y012169D01*
X025673Y012256D01*
X025629Y012345D01*
X025588Y012436D01*
X025553Y012529D01*
X025521Y012623D01*
X025495Y012719D01*
X025473Y012816D01*
X025456Y012914D01*
X025444Y013013D01*
X025436Y013112D01*
X025434Y013212D01*
X045543Y014712D02*
X045545Y014763D01*
X045551Y014814D01*
X045561Y014864D01*
X045574Y014914D01*
X045592Y014962D01*
X045612Y015009D01*
X045637Y015054D01*
X045665Y015097D01*
X045696Y015138D01*
X045730Y015176D01*
X045767Y015211D01*
X045806Y015244D01*
X045848Y015274D01*
X045892Y015300D01*
X045938Y015322D01*
X045986Y015342D01*
X046035Y015357D01*
X046085Y015369D01*
X046135Y015377D01*
X046186Y015381D01*
X046238Y015381D01*
X046289Y015377D01*
X046339Y015369D01*
X046389Y015357D01*
X046438Y015342D01*
X046486Y015322D01*
X046532Y015300D01*
X046576Y015274D01*
X046618Y015244D01*
X046657Y015211D01*
X046694Y015176D01*
X046728Y015138D01*
X046759Y015097D01*
X046787Y015054D01*
X046812Y015009D01*
X046832Y014962D01*
X046850Y014914D01*
X046863Y014864D01*
X046873Y014814D01*
X046879Y014763D01*
X046881Y014712D01*
X046879Y014661D01*
X046873Y014610D01*
X046863Y014560D01*
X046850Y014510D01*
X046832Y014462D01*
X046812Y014415D01*
X046787Y014370D01*
X046759Y014327D01*
X046728Y014286D01*
X046694Y014248D01*
X046657Y014213D01*
X046618Y014180D01*
X046576Y014150D01*
X046532Y014124D01*
X046486Y014102D01*
X046438Y014082D01*
X046389Y014067D01*
X046339Y014055D01*
X046289Y014047D01*
X046238Y014043D01*
X046186Y014043D01*
X046135Y014047D01*
X046085Y014055D01*
X046035Y014067D01*
X045986Y014082D01*
X045938Y014102D01*
X045892Y014124D01*
X045848Y014150D01*
X045806Y014180D01*
X045767Y014213D01*
X045730Y014248D01*
X045696Y014286D01*
X045665Y014327D01*
X045637Y014370D01*
X045612Y014415D01*
X045592Y014462D01*
X045574Y014510D01*
X045561Y014560D01*
X045551Y014610D01*
X045545Y014661D01*
X045543Y014712D01*
X001043Y014712D02*
X001045Y014763D01*
X001051Y014814D01*
X001061Y014864D01*
X001074Y014914D01*
X001092Y014962D01*
X001112Y015009D01*
X001137Y015054D01*
X001165Y015097D01*
X001196Y015138D01*
X001230Y015176D01*
X001267Y015211D01*
X001306Y015244D01*
X001348Y015274D01*
X001392Y015300D01*
X001438Y015322D01*
X001486Y015342D01*
X001535Y015357D01*
X001585Y015369D01*
X001635Y015377D01*
X001686Y015381D01*
X001738Y015381D01*
X001789Y015377D01*
X001839Y015369D01*
X001889Y015357D01*
X001938Y015342D01*
X001986Y015322D01*
X002032Y015300D01*
X002076Y015274D01*
X002118Y015244D01*
X002157Y015211D01*
X002194Y015176D01*
X002228Y015138D01*
X002259Y015097D01*
X002287Y015054D01*
X002312Y015009D01*
X002332Y014962D01*
X002350Y014914D01*
X002363Y014864D01*
X002373Y014814D01*
X002379Y014763D01*
X002381Y014712D01*
X002379Y014661D01*
X002373Y014610D01*
X002363Y014560D01*
X002350Y014510D01*
X002332Y014462D01*
X002312Y014415D01*
X002287Y014370D01*
X002259Y014327D01*
X002228Y014286D01*
X002194Y014248D01*
X002157Y014213D01*
X002118Y014180D01*
X002076Y014150D01*
X002032Y014124D01*
X001986Y014102D01*
X001938Y014082D01*
X001889Y014067D01*
X001839Y014055D01*
X001789Y014047D01*
X001738Y014043D01*
X001686Y014043D01*
X001635Y014047D01*
X001585Y014055D01*
X001535Y014067D01*
X001486Y014082D01*
X001438Y014102D01*
X001392Y014124D01*
X001348Y014150D01*
X001306Y014180D01*
X001267Y014213D01*
X001230Y014248D01*
X001196Y014286D01*
X001165Y014327D01*
X001137Y014370D01*
X001112Y014415D01*
X001092Y014462D01*
X001074Y014510D01*
X001061Y014560D01*
X001051Y014610D01*
X001045Y014661D01*
X001043Y014712D01*
X045543Y001712D02*
X045545Y001763D01*
X045551Y001814D01*
X045561Y001864D01*
X045574Y001914D01*
X045592Y001962D01*
X045612Y002009D01*
X045637Y002054D01*
X045665Y002097D01*
X045696Y002138D01*
X045730Y002176D01*
X045767Y002211D01*
X045806Y002244D01*
X045848Y002274D01*
X045892Y002300D01*
X045938Y002322D01*
X045986Y002342D01*
X046035Y002357D01*
X046085Y002369D01*
X046135Y002377D01*
X046186Y002381D01*
X046238Y002381D01*
X046289Y002377D01*
X046339Y002369D01*
X046389Y002357D01*
X046438Y002342D01*
X046486Y002322D01*
X046532Y002300D01*
X046576Y002274D01*
X046618Y002244D01*
X046657Y002211D01*
X046694Y002176D01*
X046728Y002138D01*
X046759Y002097D01*
X046787Y002054D01*
X046812Y002009D01*
X046832Y001962D01*
X046850Y001914D01*
X046863Y001864D01*
X046873Y001814D01*
X046879Y001763D01*
X046881Y001712D01*
X046879Y001661D01*
X046873Y001610D01*
X046863Y001560D01*
X046850Y001510D01*
X046832Y001462D01*
X046812Y001415D01*
X046787Y001370D01*
X046759Y001327D01*
X046728Y001286D01*
X046694Y001248D01*
X046657Y001213D01*
X046618Y001180D01*
X046576Y001150D01*
X046532Y001124D01*
X046486Y001102D01*
X046438Y001082D01*
X046389Y001067D01*
X046339Y001055D01*
X046289Y001047D01*
X046238Y001043D01*
X046186Y001043D01*
X046135Y001047D01*
X046085Y001055D01*
X046035Y001067D01*
X045986Y001082D01*
X045938Y001102D01*
X045892Y001124D01*
X045848Y001150D01*
X045806Y001180D01*
X045767Y001213D01*
X045730Y001248D01*
X045696Y001286D01*
X045665Y001327D01*
X045637Y001370D01*
X045612Y001415D01*
X045592Y001462D01*
X045574Y001510D01*
X045561Y001560D01*
X045551Y001610D01*
X045545Y001661D01*
X045543Y001712D01*
D21*
X023712Y013262D03*
X031712Y013412D03*
D22*
X034712Y014112D02*
X034712Y014462D01*
X034712Y011812D02*
X034712Y011462D01*
D23*
X034712Y011887D03*
X034712Y014037D03*
D24*
X038467Y014212D03*
X038467Y014712D03*
X041457Y014712D03*
X041457Y014212D03*
X041457Y013712D03*
X041457Y013212D03*
X041457Y012712D03*
X041457Y012212D03*
X041457Y011712D03*
X041457Y011212D03*
X041457Y010712D03*
X041457Y010212D03*
X041457Y009712D03*
X041457Y009212D03*
X041457Y008712D03*
X041457Y008212D03*
X038467Y008212D03*
X038467Y008712D03*
X038467Y009212D03*
X038467Y009712D03*
X038467Y010212D03*
X038467Y010712D03*
X038467Y011212D03*
X038467Y011712D03*
X038467Y012212D03*
X038467Y012712D03*
X038467Y013212D03*
X038467Y013712D03*
D25*
X038152Y013712D03*
X038152Y014212D03*
X038152Y014712D03*
X041772Y014712D03*
X041772Y014212D03*
X041772Y013712D03*
X041772Y013212D03*
X041772Y012712D03*
X041772Y012212D03*
X041772Y011712D03*
X041772Y011212D03*
X041772Y010712D03*
X041772Y010212D03*
X041772Y009712D03*
X041772Y009212D03*
X041772Y008712D03*
X041772Y008212D03*
X038152Y008212D03*
X038152Y008712D03*
X038152Y009212D03*
X038152Y009712D03*
X038152Y010212D03*
X038152Y010712D03*
X038152Y011212D03*
X038152Y011712D03*
X038152Y012212D03*
X038152Y012712D03*
X038152Y013212D03*
D26*
X036562Y013412D02*
X036212Y013412D01*
X035862Y013412D01*
X035862Y013012D02*
X036212Y013012D01*
X036562Y013012D01*
X045412Y012712D02*
X045414Y012725D01*
X045419Y012738D01*
X045428Y012749D01*
X045439Y012756D01*
X045452Y012761D01*
X045465Y012762D01*
X045479Y012759D01*
X045491Y012753D01*
X045501Y012744D01*
X045508Y012732D01*
X045512Y012719D01*
X045512Y012705D01*
X045508Y012692D01*
X045501Y012680D01*
X045491Y012671D01*
X045479Y012665D01*
X045465Y012662D01*
X045452Y012663D01*
X045439Y012668D01*
X045428Y012675D01*
X045419Y012686D01*
X045414Y012699D01*
X045412Y012712D01*
X046412Y012712D02*
X046414Y012725D01*
X046419Y012738D01*
X046428Y012749D01*
X046439Y012756D01*
X046452Y012761D01*
X046465Y012762D01*
X046479Y012759D01*
X046491Y012753D01*
X046501Y012744D01*
X046508Y012732D01*
X046512Y012719D01*
X046512Y012705D01*
X046508Y012692D01*
X046501Y012680D01*
X046491Y012671D01*
X046479Y012665D01*
X046465Y012662D01*
X046452Y012663D01*
X046439Y012668D01*
X046428Y012675D01*
X046419Y012686D01*
X046414Y012699D01*
X046412Y012712D01*
X046412Y011712D02*
X046414Y011725D01*
X046419Y011738D01*
X046428Y011749D01*
X046439Y011756D01*
X046452Y011761D01*
X046465Y011762D01*
X046479Y011759D01*
X046491Y011753D01*
X046501Y011744D01*
X046508Y011732D01*
X046512Y011719D01*
X046512Y011705D01*
X046508Y011692D01*
X046501Y011680D01*
X046491Y011671D01*
X046479Y011665D01*
X046465Y011662D01*
X046452Y011663D01*
X046439Y011668D01*
X046428Y011675D01*
X046419Y011686D01*
X046414Y011699D01*
X046412Y011712D01*
X045412Y011712D02*
X045414Y011725D01*
X045419Y011738D01*
X045428Y011749D01*
X045439Y011756D01*
X045452Y011761D01*
X045465Y011762D01*
X045479Y011759D01*
X045491Y011753D01*
X045501Y011744D01*
X045508Y011732D01*
X045512Y011719D01*
X045512Y011705D01*
X045508Y011692D01*
X045501Y011680D01*
X045491Y011671D01*
X045479Y011665D01*
X045465Y011662D01*
X045452Y011663D01*
X045439Y011668D01*
X045428Y011675D01*
X045419Y011686D01*
X045414Y011699D01*
X045412Y011712D01*
X045412Y010712D02*
X045414Y010725D01*
X045419Y010738D01*
X045428Y010749D01*
X045439Y010756D01*
X045452Y010761D01*
X045465Y010762D01*
X045479Y010759D01*
X045491Y010753D01*
X045501Y010744D01*
X045508Y010732D01*
X045512Y010719D01*
X045512Y010705D01*
X045508Y010692D01*
X045501Y010680D01*
X045491Y010671D01*
X045479Y010665D01*
X045465Y010662D01*
X045452Y010663D01*
X045439Y010668D01*
X045428Y010675D01*
X045419Y010686D01*
X045414Y010699D01*
X045412Y010712D01*
X046412Y010712D02*
X046414Y010725D01*
X046419Y010738D01*
X046428Y010749D01*
X046439Y010756D01*
X046452Y010761D01*
X046465Y010762D01*
X046479Y010759D01*
X046491Y010753D01*
X046501Y010744D01*
X046508Y010732D01*
X046512Y010719D01*
X046512Y010705D01*
X046508Y010692D01*
X046501Y010680D01*
X046491Y010671D01*
X046479Y010665D01*
X046465Y010662D01*
X046452Y010663D01*
X046439Y010668D01*
X046428Y010675D01*
X046419Y010686D01*
X046414Y010699D01*
X046412Y010712D01*
X046412Y009712D02*
X046414Y009725D01*
X046419Y009738D01*
X046428Y009749D01*
X046439Y009756D01*
X046452Y009761D01*
X046465Y009762D01*
X046479Y009759D01*
X046491Y009753D01*
X046501Y009744D01*
X046508Y009732D01*
X046512Y009719D01*
X046512Y009705D01*
X046508Y009692D01*
X046501Y009680D01*
X046491Y009671D01*
X046479Y009665D01*
X046465Y009662D01*
X046452Y009663D01*
X046439Y009668D01*
X046428Y009675D01*
X046419Y009686D01*
X046414Y009699D01*
X046412Y009712D01*
X045412Y009712D02*
X045414Y009725D01*
X045419Y009738D01*
X045428Y009749D01*
X045439Y009756D01*
X045452Y009761D01*
X045465Y009762D01*
X045479Y009759D01*
X045491Y009753D01*
X045501Y009744D01*
X045508Y009732D01*
X045512Y009719D01*
X045512Y009705D01*
X045508Y009692D01*
X045501Y009680D01*
X045491Y009671D01*
X045479Y009665D01*
X045465Y009662D01*
X045452Y009663D01*
X045439Y009668D01*
X045428Y009675D01*
X045419Y009686D01*
X045414Y009699D01*
X045412Y009712D01*
X045412Y008712D02*
X045414Y008725D01*
X045419Y008738D01*
X045428Y008749D01*
X045439Y008756D01*
X045452Y008761D01*
X045465Y008762D01*
X045479Y008759D01*
X045491Y008753D01*
X045501Y008744D01*
X045508Y008732D01*
X045512Y008719D01*
X045512Y008705D01*
X045508Y008692D01*
X045501Y008680D01*
X045491Y008671D01*
X045479Y008665D01*
X045465Y008662D01*
X045452Y008663D01*
X045439Y008668D01*
X045428Y008675D01*
X045419Y008686D01*
X045414Y008699D01*
X045412Y008712D01*
X046412Y008712D02*
X046414Y008725D01*
X046419Y008738D01*
X046428Y008749D01*
X046439Y008756D01*
X046452Y008761D01*
X046465Y008762D01*
X046479Y008759D01*
X046491Y008753D01*
X046501Y008744D01*
X046508Y008732D01*
X046512Y008719D01*
X046512Y008705D01*
X046508Y008692D01*
X046501Y008680D01*
X046491Y008671D01*
X046479Y008665D01*
X046465Y008662D01*
X046452Y008663D01*
X046439Y008668D01*
X046428Y008675D01*
X046419Y008686D01*
X046414Y008699D01*
X046412Y008712D01*
X046412Y007712D02*
X046414Y007725D01*
X046419Y007738D01*
X046428Y007749D01*
X046439Y007756D01*
X046452Y007761D01*
X046465Y007762D01*
X046479Y007759D01*
X046491Y007753D01*
X046501Y007744D01*
X046508Y007732D01*
X046512Y007719D01*
X046512Y007705D01*
X046508Y007692D01*
X046501Y007680D01*
X046491Y007671D01*
X046479Y007665D01*
X046465Y007662D01*
X046452Y007663D01*
X046439Y007668D01*
X046428Y007675D01*
X046419Y007686D01*
X046414Y007699D01*
X046412Y007712D01*
X045412Y007712D02*
X045414Y007725D01*
X045419Y007738D01*
X045428Y007749D01*
X045439Y007756D01*
X045452Y007761D01*
X045465Y007762D01*
X045479Y007759D01*
X045491Y007753D01*
X045501Y007744D01*
X045508Y007732D01*
X045512Y007719D01*
X045512Y007705D01*
X045508Y007692D01*
X045501Y007680D01*
X045491Y007671D01*
X045479Y007665D01*
X045465Y007662D01*
X045452Y007663D01*
X045439Y007668D01*
X045428Y007675D01*
X045419Y007686D01*
X045414Y007699D01*
X045412Y007712D01*
X045412Y006712D02*
X045414Y006725D01*
X045419Y006738D01*
X045428Y006749D01*
X045439Y006756D01*
X045452Y006761D01*
X045465Y006762D01*
X045479Y006759D01*
X045491Y006753D01*
X045501Y006744D01*
X045508Y006732D01*
X045512Y006719D01*
X045512Y006705D01*
X045508Y006692D01*
X045501Y006680D01*
X045491Y006671D01*
X045479Y006665D01*
X045465Y006662D01*
X045452Y006663D01*
X045439Y006668D01*
X045428Y006675D01*
X045419Y006686D01*
X045414Y006699D01*
X045412Y006712D01*
X046412Y006712D02*
X046414Y006725D01*
X046419Y006738D01*
X046428Y006749D01*
X046439Y006756D01*
X046452Y006761D01*
X046465Y006762D01*
X046479Y006759D01*
X046491Y006753D01*
X046501Y006744D01*
X046508Y006732D01*
X046512Y006719D01*
X046512Y006705D01*
X046508Y006692D01*
X046501Y006680D01*
X046491Y006671D01*
X046479Y006665D01*
X046465Y006662D01*
X046452Y006663D01*
X046439Y006668D01*
X046428Y006675D01*
X046419Y006686D01*
X046414Y006699D01*
X046412Y006712D01*
X046412Y005712D02*
X046414Y005725D01*
X046419Y005738D01*
X046428Y005749D01*
X046439Y005756D01*
X046452Y005761D01*
X046465Y005762D01*
X046479Y005759D01*
X046491Y005753D01*
X046501Y005744D01*
X046508Y005732D01*
X046512Y005719D01*
X046512Y005705D01*
X046508Y005692D01*
X046501Y005680D01*
X046491Y005671D01*
X046479Y005665D01*
X046465Y005662D01*
X046452Y005663D01*
X046439Y005668D01*
X046428Y005675D01*
X046419Y005686D01*
X046414Y005699D01*
X046412Y005712D01*
X045412Y005712D02*
X045414Y005725D01*
X045419Y005738D01*
X045428Y005749D01*
X045439Y005756D01*
X045452Y005761D01*
X045465Y005762D01*
X045479Y005759D01*
X045491Y005753D01*
X045501Y005744D01*
X045508Y005732D01*
X045512Y005719D01*
X045512Y005705D01*
X045508Y005692D01*
X045501Y005680D01*
X045491Y005671D01*
X045479Y005665D01*
X045465Y005662D01*
X045452Y005663D01*
X045439Y005668D01*
X045428Y005675D01*
X045419Y005686D01*
X045414Y005699D01*
X045412Y005712D01*
X045412Y004712D02*
X045414Y004725D01*
X045419Y004738D01*
X045428Y004749D01*
X045439Y004756D01*
X045452Y004761D01*
X045465Y004762D01*
X045479Y004759D01*
X045491Y004753D01*
X045501Y004744D01*
X045508Y004732D01*
X045512Y004719D01*
X045512Y004705D01*
X045508Y004692D01*
X045501Y004680D01*
X045491Y004671D01*
X045479Y004665D01*
X045465Y004662D01*
X045452Y004663D01*
X045439Y004668D01*
X045428Y004675D01*
X045419Y004686D01*
X045414Y004699D01*
X045412Y004712D01*
X046412Y004712D02*
X046414Y004725D01*
X046419Y004738D01*
X046428Y004749D01*
X046439Y004756D01*
X046452Y004761D01*
X046465Y004762D01*
X046479Y004759D01*
X046491Y004753D01*
X046501Y004744D01*
X046508Y004732D01*
X046512Y004719D01*
X046512Y004705D01*
X046508Y004692D01*
X046501Y004680D01*
X046491Y004671D01*
X046479Y004665D01*
X046465Y004662D01*
X046452Y004663D01*
X046439Y004668D01*
X046428Y004675D01*
X046419Y004686D01*
X046414Y004699D01*
X046412Y004712D01*
X046412Y003712D02*
X046414Y003725D01*
X046419Y003738D01*
X046428Y003749D01*
X046439Y003756D01*
X046452Y003761D01*
X046465Y003762D01*
X046479Y003759D01*
X046491Y003753D01*
X046501Y003744D01*
X046508Y003732D01*
X046512Y003719D01*
X046512Y003705D01*
X046508Y003692D01*
X046501Y003680D01*
X046491Y003671D01*
X046479Y003665D01*
X046465Y003662D01*
X046452Y003663D01*
X046439Y003668D01*
X046428Y003675D01*
X046419Y003686D01*
X046414Y003699D01*
X046412Y003712D01*
X045412Y003712D02*
X045414Y003725D01*
X045419Y003738D01*
X045428Y003749D01*
X045439Y003756D01*
X045452Y003761D01*
X045465Y003762D01*
X045479Y003759D01*
X045491Y003753D01*
X045501Y003744D01*
X045508Y003732D01*
X045512Y003719D01*
X045512Y003705D01*
X045508Y003692D01*
X045501Y003680D01*
X045491Y003671D01*
X045479Y003665D01*
X045465Y003662D01*
X045452Y003663D01*
X045439Y003668D01*
X045428Y003675D01*
X045419Y003686D01*
X045414Y003699D01*
X045412Y003712D01*
D27*
X027142Y009212D03*
X027142Y009712D03*
X027142Y010212D03*
X027142Y010712D03*
X025282Y010712D03*
X025282Y010212D03*
X025282Y009712D03*
X025282Y009212D03*
D28*
X028227Y010212D03*
X030196Y010212D03*
D29*
X029768Y010212D03*
X029498Y010212D03*
D30*
X020564Y007307D03*
X020249Y007307D03*
X019934Y007307D03*
X019619Y007307D03*
X019304Y007307D03*
X018989Y007307D03*
X018674Y007307D03*
X018359Y007307D03*
X018359Y004117D03*
X018674Y004117D03*
X018989Y004117D03*
X019304Y004117D03*
X019619Y004117D03*
X019934Y004117D03*
X020249Y004117D03*
X020564Y004117D03*
D31*
X021057Y004609D03*
X021057Y004924D03*
X021057Y005239D03*
X021057Y005554D03*
X021057Y005869D03*
X021057Y006184D03*
X021057Y006499D03*
X021057Y006814D03*
X017867Y006814D03*
X017867Y006499D03*
X017867Y006184D03*
X017867Y005869D03*
X017867Y005554D03*
X017867Y005239D03*
X017867Y004924D03*
X017867Y004609D03*
D32*
X026962Y002712D03*
X027962Y002712D03*
X028962Y002712D03*
X028962Y001712D03*
X027962Y001712D03*
X026962Y001712D03*
D33*
X013786Y010682D02*
X010637Y010682D01*
X010637Y010879D01*
X011286Y010879D01*
X011286Y010682D02*
X010637Y010682D01*
X010637Y010879D01*
X013786Y010879D01*
X013137Y010879D01*
X013137Y010682D02*
X013786Y010682D01*
X013786Y010879D01*
X013786Y011470D01*
X011137Y011470D01*
X010637Y011470D02*
X010637Y010879D01*
X010637Y011470D02*
X010440Y011470D01*
X010440Y016194D01*
X010440Y012970D01*
X010952Y013044D02*
X010952Y012651D01*
X011720Y012651D01*
X011720Y013044D01*
X011720Y012651D02*
X012015Y012651D01*
X012409Y012651D02*
X012704Y012651D01*
X012704Y013044D01*
X013471Y013044D02*
X013471Y012651D01*
X012704Y012651D01*
X012704Y013438D02*
X012704Y013832D01*
X013471Y013832D02*
X013471Y013438D01*
X011720Y013438D02*
X011720Y013832D01*
X010952Y013832D02*
X010952Y013438D01*
X010952Y014225D02*
X010952Y014619D01*
X010637Y014816D02*
X010637Y011470D01*
X013786Y011470D01*
X013983Y011470D01*
X013983Y016194D01*
X013471Y016194D01*
X013471Y015800D01*
X013471Y016194D02*
X010952Y016194D01*
X010952Y015800D01*
X010952Y016194D02*
X010440Y016194D01*
X010952Y015407D02*
X010952Y015013D01*
X010440Y014816D02*
X013786Y014816D01*
X013786Y011470D01*
X013471Y014225D02*
X013471Y014619D01*
X013786Y014816D02*
X013983Y014816D01*
X013471Y015013D02*
X013471Y015407D01*
X012704Y015407D02*
X012704Y015013D01*
X012704Y014619D02*
X012704Y014225D01*
X011720Y014225D02*
X011720Y014619D01*
X011720Y015013D02*
X011720Y015407D01*
X011722Y015450D01*
X011727Y015492D01*
X011737Y015534D01*
X011750Y015575D01*
X011766Y015615D01*
X011786Y015653D01*
X011809Y015689D01*
X011835Y015723D01*
X011864Y015755D01*
X011896Y015784D01*
X011930Y015810D01*
X011966Y015833D01*
X012004Y015853D01*
X012044Y015869D01*
X012085Y015882D01*
X012127Y015892D01*
X012169Y015897D01*
X012212Y015899D01*
X012255Y015897D01*
X012297Y015892D01*
X012339Y015882D01*
X012380Y015869D01*
X012420Y015853D01*
X012458Y015833D01*
X012494Y015810D01*
X012528Y015784D01*
X012560Y015755D01*
X012589Y015723D01*
X012615Y015689D01*
X012638Y015653D01*
X012658Y015615D01*
X012674Y015575D01*
X012687Y015534D01*
X012697Y015492D01*
X012702Y015450D01*
X012704Y015407D01*
D34*
X010322Y011962D03*
D35*
X012212Y010781D03*
D36*
X012212Y013143D03*
D37*
X017262Y013962D03*
D38*
X018312Y013962D02*
X018712Y013962D01*
X015112Y013962D02*
X014712Y013962D01*
D39*
X015537Y013962D03*
X017887Y013962D03*
D40*
X001412Y014712D02*
X001414Y014746D01*
X001420Y014780D01*
X001429Y014813D01*
X001443Y014844D01*
X001460Y014874D01*
X001480Y014902D01*
X001503Y014927D01*
X001529Y014950D01*
X001557Y014969D01*
X001587Y014985D01*
X001619Y014997D01*
X001652Y015006D01*
X001686Y015011D01*
X001721Y015012D01*
X001755Y015009D01*
X001788Y015002D01*
X001821Y014992D01*
X001852Y014977D01*
X001881Y014960D01*
X001908Y014939D01*
X001933Y014915D01*
X001955Y014888D01*
X001973Y014860D01*
X001988Y014829D01*
X002000Y014797D01*
X002008Y014763D01*
X002012Y014729D01*
X002012Y014695D01*
X002008Y014661D01*
X002000Y014627D01*
X001988Y014595D01*
X001973Y014564D01*
X001955Y014536D01*
X001933Y014509D01*
X001908Y014485D01*
X001881Y014464D01*
X001852Y014447D01*
X001821Y014432D01*
X001788Y014422D01*
X001755Y014415D01*
X001721Y014412D01*
X001686Y014413D01*
X001652Y014418D01*
X001619Y014427D01*
X001587Y014439D01*
X001557Y014455D01*
X001529Y014474D01*
X001503Y014497D01*
X001480Y014522D01*
X001460Y014550D01*
X001443Y014580D01*
X001429Y014611D01*
X001420Y014644D01*
X001414Y014678D01*
X001412Y014712D01*
X045912Y014712D02*
X045914Y014746D01*
X045920Y014780D01*
X045929Y014813D01*
X045943Y014844D01*
X045960Y014874D01*
X045980Y014902D01*
X046003Y014927D01*
X046029Y014950D01*
X046057Y014969D01*
X046087Y014985D01*
X046119Y014997D01*
X046152Y015006D01*
X046186Y015011D01*
X046221Y015012D01*
X046255Y015009D01*
X046288Y015002D01*
X046321Y014992D01*
X046352Y014977D01*
X046381Y014960D01*
X046408Y014939D01*
X046433Y014915D01*
X046455Y014888D01*
X046473Y014860D01*
X046488Y014829D01*
X046500Y014797D01*
X046508Y014763D01*
X046512Y014729D01*
X046512Y014695D01*
X046508Y014661D01*
X046500Y014627D01*
X046488Y014595D01*
X046473Y014564D01*
X046455Y014536D01*
X046433Y014509D01*
X046408Y014485D01*
X046381Y014464D01*
X046352Y014447D01*
X046321Y014432D01*
X046288Y014422D01*
X046255Y014415D01*
X046221Y014412D01*
X046186Y014413D01*
X046152Y014418D01*
X046119Y014427D01*
X046087Y014439D01*
X046057Y014455D01*
X046029Y014474D01*
X046003Y014497D01*
X045980Y014522D01*
X045960Y014550D01*
X045943Y014580D01*
X045929Y014611D01*
X045920Y014644D01*
X045914Y014678D01*
X045912Y014712D01*
X045912Y001712D02*
X045914Y001746D01*
X045920Y001780D01*
X045929Y001813D01*
X045943Y001844D01*
X045960Y001874D01*
X045980Y001902D01*
X046003Y001927D01*
X046029Y001950D01*
X046057Y001969D01*
X046087Y001985D01*
X046119Y001997D01*
X046152Y002006D01*
X046186Y002011D01*
X046221Y002012D01*
X046255Y002009D01*
X046288Y002002D01*
X046321Y001992D01*
X046352Y001977D01*
X046381Y001960D01*
X046408Y001939D01*
X046433Y001915D01*
X046455Y001888D01*
X046473Y001860D01*
X046488Y001829D01*
X046500Y001797D01*
X046508Y001763D01*
X046512Y001729D01*
X046512Y001695D01*
X046508Y001661D01*
X046500Y001627D01*
X046488Y001595D01*
X046473Y001564D01*
X046455Y001536D01*
X046433Y001509D01*
X046408Y001485D01*
X046381Y001464D01*
X046352Y001447D01*
X046321Y001432D01*
X046288Y001422D01*
X046255Y001415D01*
X046221Y001412D01*
X046186Y001413D01*
X046152Y001418D01*
X046119Y001427D01*
X046087Y001439D01*
X046057Y001455D01*
X046029Y001474D01*
X046003Y001497D01*
X045980Y001522D01*
X045960Y001550D01*
X045943Y001580D01*
X045929Y001611D01*
X045920Y001644D01*
X045914Y001678D01*
X045912Y001712D01*
X001412Y001712D02*
X001414Y001746D01*
X001420Y001780D01*
X001429Y001813D01*
X001443Y001844D01*
X001460Y001874D01*
X001480Y001902D01*
X001503Y001927D01*
X001529Y001950D01*
X001557Y001969D01*
X001587Y001985D01*
X001619Y001997D01*
X001652Y002006D01*
X001686Y002011D01*
X001721Y002012D01*
X001755Y002009D01*
X001788Y002002D01*
X001821Y001992D01*
X001852Y001977D01*
X001881Y001960D01*
X001908Y001939D01*
X001933Y001915D01*
X001955Y001888D01*
X001973Y001860D01*
X001988Y001829D01*
X002000Y001797D01*
X002008Y001763D01*
X002012Y001729D01*
X002012Y001695D01*
X002008Y001661D01*
X002000Y001627D01*
X001988Y001595D01*
X001973Y001564D01*
X001955Y001536D01*
X001933Y001509D01*
X001908Y001485D01*
X001881Y001464D01*
X001852Y001447D01*
X001821Y001432D01*
X001788Y001422D01*
X001755Y001415D01*
X001721Y001412D01*
X001686Y001413D01*
X001652Y001418D01*
X001619Y001427D01*
X001587Y001439D01*
X001557Y001455D01*
X001529Y001474D01*
X001503Y001497D01*
X001480Y001522D01*
X001460Y001550D01*
X001443Y001580D01*
X001429Y001611D01*
X001420Y001644D01*
X001414Y001678D01*
X001412Y001712D01*
D41*
X005667Y006798D03*
X005667Y007054D03*
X005667Y007310D03*
X005667Y007566D03*
X005667Y007822D03*
X005667Y008078D03*
X005667Y008334D03*
X005667Y008590D03*
X005667Y008846D03*
X005667Y009101D03*
X005667Y009357D03*
X005667Y009613D03*
X005667Y009869D03*
X005667Y010125D03*
X008257Y010125D03*
X008257Y009869D03*
X008257Y009613D03*
X008257Y009357D03*
X008257Y009101D03*
X008257Y008846D03*
X008257Y008590D03*
X008257Y008334D03*
X008257Y008078D03*
X008257Y007822D03*
X008257Y007566D03*
X008257Y007310D03*
X008257Y007054D03*
X008257Y006798D03*
D42*
X007601Y006808D03*
D43*
X018212Y009637D03*
X018212Y009637D03*
D44*
X018212Y011787D03*
X018212Y011787D03*
X019122Y011787D03*
X019122Y011787D03*
X017302Y011787D03*
X017302Y011787D03*
D45*
X050112Y011712D03*
X050112Y012712D03*
X050112Y010712D03*
X050112Y009712D03*
X050112Y008712D03*
X050112Y007712D03*
X050112Y006712D03*
X050112Y005712D03*
X050112Y004712D03*
X050112Y003712D03*
D46*
X049962Y003712D02*
X048112Y003712D01*
X048112Y004712D02*
X049962Y004712D01*
X049962Y005712D02*
X048112Y005712D01*
X048112Y006712D02*
X049962Y006712D01*
X049962Y007712D02*
X048112Y007712D01*
X048112Y008712D02*
X049962Y008712D01*
X049962Y009712D02*
X048112Y009712D01*
X048112Y010712D02*
X049962Y010712D01*
X049962Y011712D02*
X048112Y011712D01*
X048112Y012712D02*
X049962Y012712D01*
D47*
X051492Y012712D03*
X051492Y011712D03*
X051492Y010712D03*
X051492Y009712D03*
X051492Y008712D03*
X051492Y007712D03*
X051492Y006712D03*
X051492Y005712D03*
X051492Y004712D03*
X051492Y003712D03*
X035962Y008712D03*
X033212Y010212D03*
X016212Y012712D03*
X021462Y015212D03*
X022712Y015212D03*
D48*
X052462Y012712D03*
X052462Y011712D03*
X052462Y010712D03*
X052462Y009712D03*
X052462Y008712D03*
X052462Y007712D03*
X052462Y006712D03*
X052462Y005712D03*
X052462Y004712D03*
X052462Y003712D03*
D49*
X051962Y003712D03*
X051962Y004712D03*
X051962Y005712D03*
X051962Y006712D03*
X051962Y007712D03*
X051962Y008712D03*
X051962Y009712D03*
X051962Y010712D03*
X051962Y011712D03*
X051962Y012712D03*
D50*
X052852Y012712D03*
X052852Y011712D03*
X052852Y010712D03*
X052852Y009712D03*
X052852Y008712D03*
X052852Y007712D03*
X052852Y006712D03*
X052852Y005712D03*
X052852Y004712D03*
X052852Y003712D03*
D51*
X032394Y004416D03*
X032030Y004416D03*
X032394Y005007D03*
D52*
X032310Y004958D03*
X032113Y004958D03*
X032113Y004466D03*
X032310Y004466D03*
D53*
X032212Y004480D03*
X032212Y004943D03*
D54*
X032212Y004751D03*
D55*
X032034Y004968D03*
D56*
X032030Y005091D03*
D57*
X009409Y014212D03*
X008409Y014212D03*
X008409Y015212D03*
X009409Y015212D03*
D58*
X016212Y012722D02*
X016218Y012722D01*
X016221Y012722D02*
X016226Y012722D01*
X016227Y012720D01*
X016227Y012717D01*
X016226Y012715D01*
X016221Y012715D01*
X016221Y012712D02*
X016221Y012722D01*
X016215Y012722D02*
X016215Y012712D01*
X016230Y012712D02*
X016230Y012722D01*
X016235Y012722D01*
X016237Y012720D01*
X016237Y012717D01*
X016235Y012715D01*
X016230Y012715D01*
X016239Y012717D02*
X016246Y012717D01*
X016246Y012718D02*
X016246Y012712D01*
X016248Y012712D02*
X016253Y012712D01*
X016255Y012713D01*
X016255Y012720D01*
X016253Y012722D01*
X016248Y012722D01*
X016248Y012712D01*
X016246Y012718D02*
X016242Y012722D01*
X016239Y012718D01*
X016239Y012712D01*
X016258Y012712D02*
X016264Y012712D01*
X016261Y012712D02*
X016261Y012722D01*
X016258Y012718D01*
X016267Y012717D02*
X016273Y012717D01*
X016276Y012718D02*
X016279Y012722D01*
X016279Y012712D01*
X016276Y012712D02*
X016283Y012712D01*
X016285Y012713D02*
X016287Y012712D01*
X016290Y012712D01*
X016292Y012713D01*
X016292Y012715D01*
X016290Y012717D01*
X016288Y012717D01*
X016290Y012717D02*
X016292Y012718D01*
X016292Y012720D01*
X016290Y012722D01*
X016287Y012722D01*
X016285Y012720D01*
X021382Y015202D02*
X021382Y015212D01*
X021379Y015212D02*
X021385Y015212D01*
X021388Y015212D02*
X021393Y015212D01*
X021395Y015210D01*
X021395Y015207D01*
X021393Y015205D01*
X021388Y015205D01*
X021388Y015202D02*
X021388Y015212D01*
X021397Y015212D02*
X021402Y015212D01*
X021404Y015210D01*
X021404Y015207D01*
X021402Y015205D01*
X021397Y015205D01*
X021397Y015202D02*
X021397Y015212D01*
X021406Y015208D02*
X021410Y015212D01*
X021413Y015208D01*
X021413Y015202D01*
X021416Y015202D02*
X021421Y015202D01*
X021422Y015203D01*
X021422Y015210D01*
X021421Y015212D01*
X021416Y015212D01*
X021416Y015202D01*
X021413Y015207D02*
X021406Y015207D01*
X021406Y015208D02*
X021406Y015202D01*
X021425Y015202D02*
X021431Y015202D01*
X021428Y015202D02*
X021428Y015212D01*
X021425Y015208D01*
X021434Y015207D02*
X021441Y015207D01*
X021443Y015208D02*
X021446Y015212D01*
X021446Y015202D01*
X021443Y015202D02*
X021450Y015202D01*
X021452Y015203D02*
X021454Y015202D01*
X021457Y015202D01*
X021459Y015203D01*
X021459Y015205D01*
X021457Y015207D01*
X021456Y015207D01*
X021457Y015207D02*
X021459Y015208D01*
X021459Y015210D01*
X021457Y015212D01*
X021454Y015212D01*
X021452Y015210D01*
X022629Y015212D02*
X022635Y015212D01*
X022632Y015212D02*
X022632Y015202D01*
X022638Y015202D02*
X022638Y015212D01*
X022643Y015212D01*
X022645Y015210D01*
X022645Y015207D01*
X022643Y015205D01*
X022638Y015205D01*
X022647Y015205D02*
X022652Y015205D01*
X022654Y015207D01*
X022654Y015210D01*
X022652Y015212D01*
X022647Y015212D01*
X022647Y015202D01*
X022656Y015202D02*
X022656Y015208D01*
X022660Y015212D01*
X022663Y015208D01*
X022663Y015202D01*
X022666Y015202D02*
X022671Y015202D01*
X022672Y015203D01*
X022672Y015210D01*
X022671Y015212D01*
X022666Y015212D01*
X022666Y015202D01*
X022663Y015207D02*
X022656Y015207D01*
X022675Y015208D02*
X022678Y015212D01*
X022678Y015202D01*
X022675Y015202D02*
X022681Y015202D01*
X022684Y015207D02*
X022691Y015207D01*
X022693Y015208D02*
X022696Y015212D01*
X022696Y015202D01*
X022693Y015202D02*
X022700Y015202D01*
X022702Y015203D02*
X022704Y015202D01*
X022707Y015202D01*
X022709Y015203D01*
X022709Y015205D01*
X022707Y015207D01*
X022706Y015207D01*
X022707Y015207D02*
X022709Y015208D01*
X022709Y015210D01*
X022707Y015212D01*
X022704Y015212D01*
X022702Y015210D01*
X033212Y010222D02*
X033218Y010222D01*
X033221Y010222D02*
X033226Y010222D01*
X033227Y010220D01*
X033227Y010217D01*
X033226Y010215D01*
X033221Y010215D01*
X033221Y010212D02*
X033221Y010222D01*
X033215Y010222D02*
X033215Y010212D01*
X033230Y010212D02*
X033230Y010222D01*
X033235Y010222D01*
X033237Y010220D01*
X033237Y010217D01*
X033235Y010215D01*
X033230Y010215D01*
X033239Y010217D02*
X033246Y010217D01*
X033246Y010218D02*
X033246Y010212D01*
X033248Y010212D02*
X033253Y010212D01*
X033255Y010213D01*
X033255Y010220D01*
X033253Y010222D01*
X033248Y010222D01*
X033248Y010212D01*
X033246Y010218D02*
X033242Y010222D01*
X033239Y010218D01*
X033239Y010212D01*
X033258Y010212D02*
X033264Y010212D01*
X033261Y010212D02*
X033261Y010222D01*
X033258Y010218D01*
X033267Y010217D02*
X033273Y010217D01*
X033276Y010218D02*
X033279Y010222D01*
X033279Y010212D01*
X033276Y010212D02*
X033283Y010212D01*
X033285Y010213D02*
X033287Y010212D01*
X033290Y010212D01*
X033292Y010213D01*
X033292Y010215D01*
X033290Y010217D01*
X033288Y010217D01*
X033290Y010217D02*
X033292Y010218D01*
X033292Y010220D01*
X033290Y010222D01*
X033287Y010222D01*
X033285Y010220D01*
X035962Y008722D02*
X035968Y008722D01*
X035971Y008722D02*
X035976Y008722D01*
X035977Y008720D01*
X035977Y008717D01*
X035976Y008715D01*
X035971Y008715D01*
X035971Y008712D02*
X035971Y008722D01*
X035965Y008722D02*
X035965Y008712D01*
X035980Y008712D02*
X035980Y008722D01*
X035985Y008722D01*
X035987Y008720D01*
X035987Y008717D01*
X035985Y008715D01*
X035980Y008715D01*
X035989Y008717D02*
X035996Y008717D01*
X035996Y008718D02*
X035996Y008712D01*
X035998Y008712D02*
X036003Y008712D01*
X036005Y008713D01*
X036005Y008720D01*
X036003Y008722D01*
X035998Y008722D01*
X035998Y008712D01*
X035996Y008718D02*
X035992Y008722D01*
X035989Y008718D01*
X035989Y008712D01*
X036008Y008712D02*
X036014Y008712D01*
X036011Y008712D02*
X036011Y008722D01*
X036008Y008718D01*
X036017Y008717D02*
X036023Y008717D01*
X036026Y008718D02*
X036029Y008722D01*
X036029Y008712D01*
X036026Y008712D02*
X036033Y008712D01*
X036035Y008713D02*
X036037Y008712D01*
X036040Y008712D01*
X036042Y008713D01*
X036042Y008715D01*
X036040Y008717D01*
X036038Y008717D01*
X036040Y008717D02*
X036042Y008718D01*
X036042Y008720D01*
X036040Y008722D01*
X036037Y008722D01*
X036035Y008720D01*
M02*
