%
M48
M72
T01C0.0240
T02C0.0276
T03C0.0315
T04C0.0320
T05C0.0354
T06C0.0360
T07C0.0394
T08C0.0400
T09C0.0440
T10C0.0520
T11C0.1260
%
T01
X15212Y2212
X16962Y4462
X16462Y4962
X18712Y4712
X19962Y4962
X18712Y5462
X16962Y6212
X11962Y5462
X6962Y4962
X9212Y6962
X12462Y7962
X14712Y7712
X15712Y8462
X17962Y8712
X16962Y9712
X17212Y10462
X17962Y10462
X18712Y10462
X19462Y10462
X19712Y9712
X21962Y8212
X23962Y7712
X25212Y8712
X29462Y6462
X27462Y5962
X26712Y5962
X25712Y6212
X27962Y5712
X29212Y5712
X26712Y4462
X24712Y4962
X22212Y4462
X22212Y5962
X34212Y8462
X37462Y7712
X39462Y7212
X40212Y7212
X41962Y7712
X41212Y8712
X39962Y9212
X39462Y8962
X40962Y9462
X39962Y10212
X38962Y10712
X39212Y11212
X40462Y10962
X39462Y11712
X39712Y12212
X43212Y12712
X42712Y13712
X43962Y13962
X39962Y13712
X43712Y11712
X54912Y9012
X54662Y8212
X54762Y7362
X55012Y6712
X55462Y6112
X56062Y5562
X56712Y5262
X57512Y5212
X58412Y5312
X59112Y5712
X59662Y6262
X60062Y6962
X60262Y7662
X60262Y8462
X60012Y9262
X59612Y9862
X58962Y10412
X58212Y10662
X57362Y10712
X56512Y10662
X55812Y10212
X55262Y9712
X42962Y5212
X38962Y5212
X37212Y5712
X37212Y6462
X25712Y2212
X16212Y11962
X19015Y12712
X19765Y12712
X20515Y12712
X20212Y13212
X19515Y13212
X20962Y13212
X19712Y14962
T02
X27462Y14196
X27462Y12227
T03
X12212Y13143
X10322Y11962
T04
X23712Y12762
X23712Y14162
X31712Y13912
X34712Y14462
X31712Y12512
X34712Y11462
T05
X6328Y14068
X4596Y14068
T06
X8409Y14212
X9409Y14212
X9409Y15212
X8409Y15212
X36212Y14712
X45462Y12712
X46462Y12712
X46462Y11712
X45462Y11712
X45462Y10712
X46462Y10712
X46462Y9712
X45462Y9712
X45462Y8712
X46462Y8712
X46462Y7712
X45462Y7712
X45462Y6712
X46462Y6712
X46462Y5712
X45462Y5712
X45462Y4712
X46462Y4712
X46462Y3712
X45462Y3712
X36212Y11712
T07
X12212Y10781
X3212Y12212
X2212Y12212
X1212Y12212
X1212Y4212
X2212Y4212
X3212Y4212
T08
X26962Y2712
X27962Y2712
X28962Y2712
X28962Y1712
X27962Y1712
X26962Y1712
X51962Y3712
X52962Y3712
X52962Y4712
X51962Y4712
X51962Y5712
X52962Y5712
X52962Y6712
X51962Y6712
X51962Y7712
X52962Y7712
X52962Y8712
X51962Y8712
X51962Y9712
X52962Y9712
X52962Y10712
X51962Y10712
X51962Y11712
X52962Y11712
X52962Y12712
X51962Y12712
T09
X18712Y13962
X14712Y13962
T10
X16212Y12712
X21462Y15212
X22712Y15212
X33212Y10212
X35962Y8712
T11
X1712Y1712
X46212Y1712
X46212Y14712
X1712Y14712
M30
